<svg width="238" height="49" viewBox="0 0 238 49" fill="none" xmlns="http://www.w3.org/2000/svg">
<g id="1 10" clip-path="url(#clip0_37_6)">
<path id="Vector" d="M64.9994 25.3448L61.0092 18.1807H59.8887V25.3448H55.2152V6.36661H63.059C64.5712 6.36661 65.8557 6.62795 66.9125 7.15061C67.9875 7.67328 68.7892 8.3942 69.3176 9.31337C69.846 10.2145 70.1101 11.2238 70.1101 12.3412C70.1101 13.6028 69.7457 14.7293 69.0169 15.7205C68.3064 16.7118 67.2496 17.4147 65.8466 17.8292L70.2741 25.3448H64.9994ZM59.8887 14.9095H62.7857C63.642 14.9095 64.2797 14.7022 64.6988 14.2877C65.1361 13.8732 65.3547 13.2874 65.3547 12.5305C65.3547 11.8096 65.1361 11.2418 64.6988 10.8273C64.2797 10.4128 63.642 10.2055 62.7857 10.2055H59.8887V14.9095ZM82.1178 25.5341C80.314 25.5341 78.6559 25.1195 77.1437 24.2905C75.6496 23.4614 74.4562 22.3079 73.5634 20.8301C72.6883 19.3342 72.251 17.658 72.251 15.8016C72.251 13.9453 72.6883 12.2782 73.5634 10.8003C74.4562 9.32238 75.6496 8.16891 77.1437 7.33985C78.6559 6.5108 80.314 6.09627 82.1178 6.09627C83.9215 6.09627 85.5705 6.5108 87.0645 7.33985C88.5768 8.16891 89.7611 9.32238 90.6174 10.8003C91.492 12.2782 91.9293 13.9453 91.9293 15.8016C91.9293 17.658 91.492 19.3342 90.6174 20.8301C89.7429 22.3079 88.5586 23.4614 87.0645 24.2905C85.5705 25.1195 83.9215 25.5341 82.1178 25.5341ZM82.1178 21.3167C83.6482 21.3167 84.869 20.812 85.7794 19.8028C86.7092 18.7935 87.1738 17.4598 87.1738 15.8016C87.1738 14.1255 86.7092 12.7918 85.7794 11.8005C84.869 10.7913 83.6482 10.2866 82.1178 10.2866C80.569 10.2866 79.3301 10.7822 78.4009 11.7735C77.4899 12.7648 77.0343 14.1075 77.0343 15.8016C77.0343 17.4778 77.4899 18.8205 78.4009 19.8298C79.3301 20.821 80.569 21.3167 82.1178 21.3167ZM99.1205 6.36661V17.7211C99.1205 18.8565 99.4029 19.7307 99.9678 20.3434C100.533 20.9562 101.362 21.2626 102.455 21.2626C103.548 21.2626 104.386 20.9562 104.969 20.3434C105.552 19.7307 105.844 18.8565 105.844 17.7211V6.36661H110.517V17.6941C110.517 19.3882 110.153 20.821 109.424 21.9925C108.695 23.164 107.711 24.0472 106.472 24.6419C105.252 25.2367 103.885 25.5341 102.373 25.5341C100.861 25.5341 99.5031 25.2457 98.3006 24.669C97.1163 24.0742 96.178 23.1911 95.4856 22.0196C94.7932 20.8301 94.4471 19.3882 94.4471 17.6941V6.36661H99.1205ZM130.962 25.3448H126.289L118.473 13.6389V25.3448H113.799V6.36661H118.473L126.289 18.1266V6.36661H130.962V25.3448ZM141.537 6.36661C143.56 6.36661 145.327 6.76312 146.84 7.55613C148.352 8.34914 149.518 9.46657 150.338 10.9084C151.176 12.3322 151.595 13.9813 151.595 15.8557C151.595 17.7121 151.176 19.3612 150.338 20.803C149.518 22.2449 148.343 23.3623 146.812 24.1553C145.3 24.9483 143.542 25.3448 141.537 25.3448H134.35V6.36661H141.537ZM141.237 21.3437C143.004 21.3437 144.38 20.8661 145.364 19.9109C146.348 18.9557 146.84 17.6039 146.84 15.8557C146.84 14.1075 146.348 12.7468 145.364 11.7735C144.38 10.8003 143.004 10.3136 141.237 10.3136H139.023V21.3437H141.237ZM169.783 25.3448L165.792 18.1807H164.672V25.3448H159.998V6.36661H167.842C169.354 6.36661 170.639 6.62795 171.696 7.15061C172.771 7.67328 173.572 8.3942 174.101 9.31337C174.629 10.2145 174.893 11.2238 174.893 12.3412C174.893 13.6028 174.529 14.7293 173.8 15.7205C173.09 16.7118 172.033 17.4147 170.63 17.8292L175.057 25.3448H169.783ZM164.672 14.9095H167.569C168.425 14.9095 169.063 14.7022 169.482 14.2877C169.919 13.8732 170.138 13.2874 170.138 12.5305C170.138 11.8096 169.919 11.2418 169.482 10.8273C169.063 10.4128 168.425 10.2055 167.569 10.2055H164.672V14.9095ZM186.901 25.5341C185.097 25.5341 183.439 25.1195 181.927 24.2905C180.433 23.4614 179.239 22.3079 178.347 20.8301C177.472 19.3342 177.035 17.658 177.035 15.8016C177.035 13.9453 177.472 12.2782 178.347 10.8003C179.239 9.32238 180.433 8.16891 181.927 7.33985C183.439 6.5108 185.097 6.09627 186.901 6.09627C188.705 6.09627 190.354 6.5108 191.848 7.33985C193.36 8.16891 194.544 9.32238 195.401 10.8003C196.275 12.2782 196.712 13.9453 196.712 15.8016C196.712 17.658 196.275 19.3342 195.401 20.8301C194.526 22.3079 193.342 23.4614 191.848 24.2905C190.354 25.1195 188.705 25.5341 186.901 25.5341ZM186.901 21.3167C188.431 21.3167 189.652 20.812 190.563 19.8028C191.492 18.7935 191.957 17.4598 191.957 15.8016C191.957 14.1255 191.492 12.7918 190.563 11.8005C189.652 10.7913 188.431 10.2866 186.901 10.2866C185.352 10.2866 184.113 10.7822 183.184 11.7735C182.273 12.7648 181.818 14.1075 181.818 15.8016C181.818 17.4778 182.273 18.8205 183.184 19.8298C184.113 20.821 185.352 21.3167 186.901 21.3167ZM198.52 15.8287C198.52 13.9543 198.93 12.2872 199.75 10.8273C200.569 9.34942 201.708 8.20496 203.166 7.39392C204.642 6.56487 206.309 6.15034 208.167 6.15034C210.445 6.15034 212.394 6.7451 214.016 7.93461C215.637 9.12413 216.722 10.7462 217.268 12.8008H212.13C211.747 12.0078 211.201 11.404 210.49 10.9895C209.798 10.575 209.005 10.3677 208.113 10.3677C206.673 10.3677 205.507 10.8633 204.614 11.8546C203.722 12.8459 203.275 14.1706 203.275 15.8287C203.275 17.4868 203.722 18.8115 204.614 19.8028C205.507 20.794 206.673 21.2896 208.113 21.2896C209.005 21.2896 209.798 21.0824 210.49 20.6679C211.201 20.2533 211.747 19.6496 212.13 18.8565H217.268C216.722 20.9112 215.637 22.5332 214.016 23.7227C212.394 24.8942 210.445 25.48 208.167 25.48C206.309 25.48 204.642 25.0745 203.166 24.2634C201.708 23.4344 200.569 22.2899 199.75 20.8301C198.93 19.3702 198.52 17.7031 198.52 15.8287ZM231.254 25.3448L224.804 16.9641V25.3448H220.13V6.36661H224.804V14.6932L231.199 6.36661H236.692L229.259 15.6665L236.966 25.3448H231.254ZM64.3981 35.3521C64.3981 36.085 64.2279 36.7579 63.888 37.3707C63.5481 37.9714 63.0254 38.4581 62.3211 38.8305C61.6167 39.203 60.7422 39.3892 59.6974 39.3892H57.766V43.931H54.6504V31.2789H59.6974C60.7177 31.2789 61.5803 31.4531 62.2846 31.8016C62.9889 32.15 63.5173 32.6306 63.8698 33.2434C64.2222 33.8562 64.3981 34.5591 64.3981 35.3521ZM59.4605 36.9381C60.0555 36.9381 60.499 36.7999 60.7906 36.5236C61.0821 36.2472 61.2278 35.8567 61.2278 35.3521C61.2278 34.8474 61.0821 34.457 60.7906 34.1806C60.499 33.9042 60.0555 33.7661 59.4605 33.7661H57.766V36.9381H59.4605ZM81.89 41.552H85.9713V43.931H78.7744V31.2789H81.89V41.552ZM103.272 31.2789V38.8485C103.272 39.6055 103.46 40.1883 103.837 40.5968C104.214 41.0053 104.766 41.2096 105.495 41.2096C106.224 41.2096 106.783 41.0053 107.172 40.5968C107.56 40.1883 107.755 39.6055 107.755 38.8485V31.2789H110.87V38.8305C110.87 39.9599 110.627 40.9152 110.141 41.6962C109.655 42.4772 108.999 43.0659 108.174 43.4624C107.359 43.8589 106.448 44.0572 105.441 44.0572C104.432 44.0572 103.528 43.865 102.726 43.4805C101.936 43.0839 101.31 42.4952 100.849 41.7142C100.387 40.9212 100.157 39.9599 100.157 38.8305V31.2789H103.272ZM140.297 31.2789V43.931H137.181V36.3433L134.321 43.931H131.806L128.927 36.3253V43.931H125.812V31.2789H129.492L133.082 40.0381L136.635 31.2789H140.297ZM163.035 37.4428C163.776 37.5989 164.371 37.9654 164.82 38.5422C165.27 39.1069 165.495 39.7557 165.495 40.4886C165.495 41.546 165.118 42.3871 164.365 43.0119C163.624 43.6246 162.586 43.931 161.249 43.931H155.291V31.2789H161.049C162.349 31.2789 163.363 31.5733 164.092 32.162C164.833 32.7507 165.203 33.5498 165.203 34.5591C165.203 35.304 165.003 35.9228 164.602 36.4154C164.214 36.9081 163.691 37.2505 163.035 37.4428ZM158.407 36.3974H160.448C160.958 36.3974 161.347 36.2893 161.614 36.073C161.893 35.8447 162.033 35.5143 162.033 35.0817C162.033 34.6492 161.893 34.3187 161.614 34.0905C161.347 33.8622 160.958 33.748 160.448 33.748H158.407V36.3974ZM160.703 41.4439C161.225 41.4439 161.626 41.3297 161.905 41.1014C162.197 40.8611 162.343 40.5187 162.343 40.0741C162.343 39.6296 162.191 39.2811 161.887 39.0288C161.596 38.7765 161.189 38.6503 160.666 38.6503H158.407V41.4439H160.703ZM183.172 31.2789V43.931H180.056V31.2789H183.172ZM209.625 43.931H206.51L201.299 36.1271V43.931H198.183V31.2789H201.299L206.51 39.1189V31.2789H209.625V43.931ZM233.129 35.28C232.898 34.8594 232.564 34.541 232.127 34.3248C231.701 34.0965 231.197 33.9823 230.614 33.9823C229.606 33.9823 228.799 34.3128 228.191 34.9736C227.584 35.6224 227.28 36.4936 227.28 37.5869C227.28 38.7524 227.596 39.6656 228.228 40.3264C228.872 40.9753 229.752 41.2997 230.869 41.2997C231.635 41.2997 232.279 41.1074 232.801 40.7229C233.335 40.3384 233.724 39.7857 233.967 39.0648H230.013V36.7939H236.791V39.6596C236.56 40.4285 236.165 41.1435 235.607 41.8043C235.06 42.4651 234.361 42.9999 233.511 43.4084C232.661 43.8169 231.701 44.0211 230.633 44.0211C229.369 44.0211 228.239 43.7508 227.244 43.2101C226.26 42.6574 225.488 41.8944 224.93 40.9212C224.383 39.9479 224.11 38.8365 224.11 37.5869C224.11 36.3373 224.383 35.2259 224.93 34.2527C225.488 33.2674 226.26 32.5045 227.244 31.9638C228.228 31.4111 229.351 31.1347 230.614 31.1347C232.145 31.1347 233.432 31.5012 234.477 32.2341C235.534 32.967 236.232 33.9823 236.572 35.28H233.129Z" fill="#7C4032"/>
<path id="Vector_2" d="M1.7398 8.62732H3.45333V10.3198C3.45383 10.7757 3.63739 11.2127 3.96374 11.535C4.29008 11.8573 4.73256 12.0386 5.19408 12.0391H6.99395C7.45544 12.0386 7.89796 11.8573 8.22427 11.535C8.55063 11.2127 8.7342 10.7757 8.73471 10.3198V8.62732H10.4482C10.9097 8.62659 11.352 8.44518 11.6783 8.1229C12.0046 7.80063 12.1882 7.36374 12.189 6.90799V5.13023C12.1882 4.67446 12.0046 4.23757 11.6783 3.91529C11.352 3.59301 10.9097 3.41162 10.4482 3.41089H8.73471V1.71935C8.7342 1.2635 8.55063 0.826461 8.22427 0.504127C7.89796 0.181793 7.45544 0.000490688 6.99395 0H5.19408C4.73256 0.000490688 4.29008 0.181793 3.96374 0.504127C3.63739 0.826461 3.45383 1.2635 3.45333 1.71935V3.41089H1.7398C1.27845 3.41162 0.836211 3.59303 0.510069 3.91534C0.183926 4.23765 0.000496285 4.67455 0 5.13023V6.90799C0.000496285 7.36369 0.183926 7.80057 0.510069 8.12285C0.836211 8.44518 1.27845 8.62659 1.7398 8.62732ZM1.32972 5.13023C1.33022 5.02313 1.37364 4.92059 1.4505 4.84502C1.52735 4.76946 1.63137 4.72705 1.7398 4.72705H4.78587V1.71935C4.78587 1.61184 4.82905 1.50872 4.90593 1.43261C4.9828 1.3565 5.08711 1.31362 5.19596 1.31337H6.99395C7.10276 1.31362 7.20707 1.3565 7.284 1.43261C7.36086 1.50872 7.40402 1.61184 7.40402 1.71935V4.72705H10.4482C10.5021 4.72705 10.5554 4.73752 10.6051 4.75788C10.6549 4.77823 10.7001 4.80807 10.7382 4.84568C10.7763 4.88329 10.8065 4.92794 10.8271 4.97709C10.8477 5.02623 10.8583 5.07889 10.8583 5.13209V6.90799C10.8583 7.0155 10.8151 7.11863 10.7382 7.19472C10.6614 7.27081 10.5571 7.31367 10.4482 7.31395H7.40402V10.3198C7.40402 10.373 7.39343 10.4257 7.37282 10.4748C7.35221 10.524 7.32197 10.5686 7.28394 10.6062C7.24585 10.6438 7.20064 10.6737 7.15088 10.694C7.10111 10.7143 7.04782 10.7248 6.99395 10.7248H5.19408C5.08564 10.7244 4.98182 10.6814 4.90532 10.6056C4.82882 10.5296 4.78587 10.4269 4.78587 10.3198V7.31395H1.7398C1.63096 7.31367 1.52666 7.27081 1.44977 7.19472C1.3729 7.11863 1.32972 7.0155 1.32972 6.90799V5.13023Z" fill="#7C4032"/>
<path id="Vector_3" d="M45.5508 20.5951L39.8969 18.2519V20.2911C39.8664 20.2818 39.8349 20.2769 39.803 20.2763H36.0081V16.0015C36.0079 15.6296 35.8582 15.2731 35.592 15.0102C35.3258 14.7472 34.9648 14.5994 34.5883 14.5991H31.8182C31.4417 14.5996 31.0809 14.7475 30.8148 15.0104C30.5486 15.2733 30.3988 15.6297 30.3983 16.0015V16.02H27.3626C24.3927 16.0234 21.5456 17.1903 19.4456 19.2644C17.3456 21.3386 16.1643 24.1508 16.1608 27.0841V32.3932H16.1411C15.7647 32.3937 15.4038 32.5416 15.1377 32.8045C14.8715 33.0674 14.7218 33.4238 14.7213 33.7956V36.4974C14.7218 36.8692 14.8715 37.2256 15.1377 37.4885C15.4038 37.7514 15.7647 37.8993 16.1411 37.8998H16.1571V37.9359C16.1566 38.4363 15.9551 38.916 15.5969 39.2698C15.2387 39.6236 14.7531 39.8225 14.2465 39.823H12.6512C12.1446 39.8225 11.6589 39.6236 11.3007 39.2698C10.9425 38.916 10.7411 38.4363 10.7406 37.9359H10.7556C11.132 37.9355 11.4928 37.7876 11.759 37.5247C12.0252 37.2617 12.1749 36.9053 12.1754 36.5336V33.8308C12.1749 33.4591 12.0252 33.1027 11.759 32.8397C11.4928 32.5768 11.132 32.4289 10.7556 32.4285H10.7406V19.7832H10.7556C11.132 19.7826 11.4928 19.6347 11.759 19.3718C12.0252 19.109 12.1749 18.7526 12.1754 18.3808V15.6447C12.1752 15.2728 12.0255 14.9163 11.7593 14.6533C11.4931 14.3904 11.1321 14.2426 10.7556 14.2423H1.43348C1.057 14.2426 0.696013 14.3904 0.429799 14.6533C0.163587 14.9163 0.0139204 15.2728 0.0136719 15.6447V18.3808C0.0141684 18.7526 0.163915 19.109 0.430073 19.3718C0.696229 19.6347 1.05708 19.7826 1.43348 19.7832H1.4485V32.4285H1.43348C1.05708 32.4289 0.696229 32.5768 0.430073 32.8397C0.163915 33.1027 0.0141684 33.4591 0.0136719 33.8308V36.5327C0.0141684 36.9044 0.163915 37.2608 0.430073 37.5237C0.696229 37.7866 1.05708 37.9345 1.43348 37.935H1.4485C1.45173 40.8686 2.63304 43.6812 4.73326 45.7556C6.83346 47.83 9.68103 48.9968 12.6512 49H14.2465C17.217 48.9975 20.0651 47.8312 22.1659 45.7569C24.2667 43.6827 25.4485 40.8699 25.452 37.9359V37.8998H25.4661C25.8425 37.8995 26.2035 37.7517 26.4698 37.4888C26.736 37.2258 26.8856 36.8693 26.8859 36.4974V33.7956C26.8856 33.4237 26.736 33.0672 26.4698 32.8043C26.2035 32.5413 25.8425 32.3935 25.4661 32.3932H25.452V27.0841C25.4527 26.5839 25.6542 26.1043 26.0124 25.7505C26.3706 25.3968 26.8561 25.1977 27.3626 25.197H30.3983V25.2109C30.3981 25.2708 30.4022 25.3305 30.4105 25.3898C30.4547 25.7278 30.622 26.0383 30.881 26.2634C31.14 26.4886 31.4731 26.6129 31.8182 26.6133H34.5883C34.9648 26.613 35.3258 26.4652 35.592 26.2023C35.8582 25.9393 36.0079 25.5827 36.0081 25.2109V20.9371H39.7983C39.8302 20.9365 39.8618 20.9315 39.8922 20.9223V22.9382L45.5508 20.5951ZM17.4924 27.0832C17.4954 24.4984 18.5362 22.0202 20.3865 20.1923C22.2368 18.3644 24.7456 17.3359 27.3626 17.3325H30.3983V20.28H27.3626C25.5362 20.2819 23.7851 20.9994 22.4936 22.275C21.2022 23.5506 20.4758 25.2801 20.4738 27.0841V32.3932H17.4906L17.4924 27.0832ZM12.6512 41.1364H14.2465C15.1056 41.1354 15.9292 40.7979 16.5366 40.1979C17.1441 39.5979 17.4858 38.7845 17.4868 37.9359V37.8998H20.47V37.9359C20.4682 39.5657 19.812 41.1282 18.6453 42.2806C17.4785 43.433 15.8965 44.0812 14.2465 44.0829H12.6512C11.0011 44.0812 9.419 43.4331 8.25206 42.2807C7.08518 41.1283 6.42874 39.5658 6.42675 37.9359H9.40995C9.41092 38.7846 9.75277 39.5983 10.3604 40.1982C10.9681 40.7983 11.7919 41.1357 12.6512 41.1364ZM9.40995 32.4285H6.42675V19.7832H9.40995V32.4285ZM1.34433 18.3808V15.6447C1.3443 15.6209 1.35354 15.5979 1.37014 15.5807C1.38674 15.5635 1.40941 15.5532 1.43348 15.552H10.7556C10.7805 15.552 10.8044 15.5617 10.822 15.5791C10.8395 15.5965 10.8495 15.6201 10.8495 15.6447V18.3808C10.8483 18.4046 10.8378 18.427 10.8204 18.4434C10.8029 18.4598 10.7797 18.4689 10.7556 18.4688H1.43348C1.41021 18.4677 1.38818 18.4581 1.3717 18.4418C1.35523 18.4255 1.34547 18.4038 1.34433 18.3808ZM2.77916 19.7832H5.76234V32.4285H2.77916V19.7832ZM1.43348 36.6207C1.40941 36.6195 1.38674 36.6092 1.37014 36.592C1.35354 36.5747 1.3443 36.5518 1.34433 36.528V33.8308C1.34547 33.8078 1.35523 33.7861 1.3717 33.7698C1.38818 33.7535 1.41021 33.7439 1.43348 33.7428H10.7556C10.7797 33.7428 10.8029 33.7519 10.8204 33.7683C10.8378 33.7847 10.8483 33.8071 10.8495 33.8308V36.5327C10.8495 36.5572 10.8395 36.5808 10.822 36.5982C10.8044 36.6156 10.7805 36.6254 10.7556 36.6254H1.43348V36.6207ZM24.1223 37.9359C24.1193 40.5211 23.0783 42.9995 21.2275 44.8275C19.3768 46.6554 16.8675 47.6837 14.2502 47.6866H12.6549C10.0376 47.6837 7.52838 46.6554 5.67765 44.8275C3.82693 42.9995 2.78589 40.5211 2.78291 37.9359H5.76234C5.76434 39.7399 6.49075 41.4694 7.78221 42.745C9.07373 44.0206 10.8247 44.7381 12.6512 44.7401H14.2465C16.0729 44.7381 17.8239 44.0206 19.1155 42.745C20.4069 41.4694 21.1333 39.7399 21.1353 37.9359V37.8998H24.1185L24.1223 37.9359ZM25.4661 33.7076C25.4902 33.7075 25.5133 33.7166 25.5308 33.733C25.5483 33.7494 25.5587 33.7718 25.5599 33.7956V36.4974C25.5599 36.522 25.55 36.5456 25.5324 36.563C25.5148 36.5804 25.4909 36.5901 25.4661 36.5901H16.1411C16.1171 36.5889 16.0944 36.5786 16.0778 36.5614C16.0612 36.5441 16.052 36.5212 16.052 36.4974V33.7956C16.0531 33.7726 16.0628 33.7509 16.0794 33.7346C16.0958 33.7183 16.1178 33.7087 16.1411 33.7076H25.4623H25.4661ZM27.3626 23.8827C26.5035 23.8837 25.6799 24.2212 25.0725 24.8212C24.465 25.4212 24.1232 26.2347 24.1223 27.0832V32.3923H21.1391V27.0841C21.1408 25.4544 21.7971 23.8918 22.9638 22.7394C24.1306 21.587 25.7126 20.9388 27.3626 20.9371H30.3983V23.8836L27.3626 23.8827ZM34.6821 25.2072C34.6821 25.2318 34.6723 25.2553 34.6547 25.2727C34.6371 25.2901 34.6132 25.2999 34.5883 25.2999H31.8182C31.7941 25.2987 31.7714 25.2884 31.7548 25.2712C31.7382 25.2539 31.7289 25.231 31.729 25.2072V16.0015C31.7301 15.9785 31.7399 15.9568 31.7564 15.9405C31.7728 15.9242 31.7949 15.9146 31.8182 15.9135H34.5883C34.6124 15.9134 34.6356 15.9225 34.653 15.939C34.6705 15.9554 34.6809 15.9777 34.6821 16.0015V25.2109V25.2072ZM41.2303 20.2271L42.1162 20.5979L41.2303 20.9686V20.2271Z" fill="#7C4032"/>
<path id="Vector_4" d="M6.09395 17.7033C6.13762 17.7033 6.1809 17.6947 6.22126 17.6782C6.26163 17.6616 6.2983 17.6374 6.32916 17.6068C6.36002 17.5762 6.38445 17.54 6.40113 17.5C6.41776 17.4602 6.42624 17.4174 6.42613 17.3742V16.6578C6.42613 16.5707 6.39111 16.4873 6.32882 16.4257C6.26653 16.3642 6.18203 16.3296 6.09395 16.3296C6.00581 16.3296 5.92132 16.3642 5.85903 16.4257C5.79674 16.4873 5.76172 16.5707 5.76172 16.6578V17.3742C5.76161 17.4174 5.77009 17.4602 5.78677 17.5C5.8034 17.54 5.82782 17.5762 5.85868 17.6068C5.88954 17.6374 5.92621 17.6616 5.96658 17.6782C6.00695 17.6947 6.05022 17.7033 6.09395 17.7033Z" fill="#7C4032"/>
<path id="Vector_5" d="M3.41915 17.7032C3.46329 17.7034 3.50702 17.6949 3.54779 17.6781C3.58857 17.6614 3.62557 17.6368 3.65666 17.6059C3.68774 17.5749 3.71228 17.5382 3.72886 17.4978C3.74544 17.4573 3.75372 17.4141 3.75322 17.3705V16.654C3.7487 16.5699 3.71167 16.4907 3.64979 16.4327C3.5879 16.3747 3.50585 16.3425 3.42056 16.3425C3.33526 16.3425 3.25322 16.3747 3.19133 16.4327C3.12944 16.4907 3.09242 16.5699 3.08789 16.654V17.3705C3.08794 17.4557 3.1216 17.5375 3.18173 17.5985C3.21221 17.6308 3.24892 17.6566 3.2897 17.6746C3.33048 17.6926 3.3745 17.7023 3.41915 17.7032Z" fill="#7C4032"/>
<path id="Vector_6" d="M8.76879 17.7032C8.81388 17.7027 8.85846 17.6932 8.89974 17.6751C8.94102 17.6572 8.9782 17.6311 9.00901 17.5985C9.06913 17.5374 9.10278 17.4557 9.10284 17.3705V16.654C9.09834 16.5699 9.06133 16.4907 8.99944 16.4327C8.93755 16.3747 8.8555 16.3425 8.77021 16.3425C8.68492 16.3425 8.60287 16.3747 8.54098 16.4327C8.47909 16.4907 8.44202 16.5699 8.43752 16.654V17.3705C8.43701 17.4139 8.44521 17.4569 8.46161 17.4971C8.478 17.5374 8.50232 17.574 8.53312 17.6049C8.56387 17.6358 8.60054 17.6604 8.64102 17.6773C8.68144 17.6942 8.72489 17.703 8.76879 17.7032Z" fill="#7C4032"/>
<path id="Vector_7" d="M6.09395 35.8328C6.13757 35.833 6.18084 35.8245 6.22121 35.8081C6.26158 35.7916 6.29824 35.7675 6.3291 35.737C6.35996 35.7065 6.38445 35.6703 6.40107 35.6304C6.41776 35.5906 6.42624 35.5478 6.42613 35.5047V34.7883C6.42613 34.7012 6.39111 34.6178 6.32882 34.5563C6.26653 34.4947 6.18203 34.4601 6.09395 34.4601C6.00581 34.4601 5.92132 34.4947 5.85903 34.5563C5.79674 34.6178 5.76172 34.7012 5.76172 34.7883V35.5047C5.76161 35.5478 5.77015 35.5906 5.78677 35.6304C5.8034 35.6703 5.82788 35.7065 5.85874 35.737C5.88966 35.7675 5.92633 35.7916 5.96664 35.8081C6.00701 35.8245 6.05028 35.833 6.09395 35.8328Z" fill="#7C4032"/>
<path id="Vector_8" d="M3.41915 35.8329C3.46293 35.8331 3.50633 35.8248 3.54685 35.8084C3.58737 35.792 3.62422 35.7679 3.65526 35.7374C3.68631 35.7069 3.71094 35.6707 3.72776 35.6307C3.74457 35.5908 3.75322 35.548 3.75322 35.5047V34.7883C3.7487 34.7041 3.71167 34.6249 3.64979 34.567C3.5879 34.509 3.50585 34.4767 3.42056 34.4767C3.33526 34.4767 3.25322 34.509 3.19133 34.567C3.12944 34.6249 3.09242 34.7041 3.08789 34.7883V35.5047C3.08789 35.5916 3.12276 35.6749 3.18486 35.7364C3.24695 35.7979 3.33121 35.8326 3.41915 35.8329Z" fill="#7C4032"/>
<path id="Vector_9" d="M8.76871 35.8329C8.81249 35.8331 8.85593 35.8248 8.89642 35.8084C8.93696 35.792 8.9738 35.7679 9.00483 35.7374C9.03591 35.7069 9.06051 35.6707 9.07737 35.6307C9.09416 35.5908 9.10282 35.548 9.10282 35.5047V34.7883C9.09826 34.7041 9.06125 34.6249 8.99936 34.567C8.93747 34.509 8.85542 34.4767 8.77013 34.4767C8.68484 34.4767 8.60279 34.509 8.5409 34.567C8.47901 34.6249 8.442 34.7041 8.4375 34.7883V35.5047C8.4375 35.5916 8.47235 35.6749 8.53446 35.7364C8.59653 35.7979 8.68079 35.8326 8.76871 35.8329Z" fill="#7C4032"/>
<path id="Vector_10" d="M20.8052 34.4602C20.7199 34.4598 20.6377 34.4921 20.5759 34.5501C20.514 34.6081 20.4771 34.6874 20.473 34.7716C20.4725 34.7772 20.4725 34.7827 20.473 34.7883V35.5048C20.4725 35.5103 20.4725 35.5159 20.473 35.5214C20.4753 35.6085 20.5124 35.691 20.5763 35.751C20.6402 35.8109 20.7256 35.8434 20.8136 35.8412C20.9018 35.839 20.9854 35.8023 21.0461 35.7392C21.1068 35.6761 21.1397 35.5918 21.1374 35.5048V34.7883C21.1374 34.7452 21.1288 34.7025 21.1121 34.6627C21.0954 34.6229 21.0709 34.5867 21.0401 34.5563C21.0093 34.5258 20.9726 34.5016 20.9324 34.4851C20.892 34.4687 20.8488 34.4602 20.8052 34.4602Z" fill="#7C4032"/>
<path id="Vector_11" d="M18.131 34.4601C18.0874 34.4601 18.0442 34.4686 18.0039 34.4851C17.9636 34.5016 17.927 34.5258 17.8961 34.5563C17.8653 34.5867 17.8408 34.6229 17.8241 34.6627C17.8074 34.7025 17.7988 34.7452 17.7988 34.7882V35.5047C17.8033 35.5889 17.8404 35.6681 17.9023 35.726C17.9642 35.784 18.0462 35.8163 18.1315 35.8163C18.2168 35.8163 18.2989 35.784 18.3607 35.726C18.4226 35.6681 18.4596 35.5889 18.4641 35.5047V34.7882C18.4641 34.7451 18.4556 34.7024 18.4388 34.6625C18.422 34.6226 18.3975 34.5864 18.3666 34.5559C18.3356 34.5254 18.2989 34.5013 18.2584 34.4848C18.218 34.4684 18.1747 34.46 18.131 34.4601Z" fill="#7C4032"/>
<path id="Vector_12" d="M23.4806 34.4601C23.437 34.4601 23.3938 34.4686 23.3535 34.4851C23.3132 34.5016 23.2766 34.5258 23.2457 34.5563C23.2149 34.5867 23.1904 34.6229 23.1737 34.6627C23.157 34.7025 23.1484 34.7452 23.1484 34.7882V35.5047C23.1529 35.5889 23.19 35.6681 23.2519 35.726C23.3138 35.784 23.3958 35.8163 23.4811 35.8163C23.5664 35.8163 23.6484 35.784 23.7103 35.726C23.7722 35.6681 23.8093 35.5889 23.8138 35.5047V34.7882C23.8138 34.7451 23.8052 34.7024 23.7884 34.6625C23.7716 34.6226 23.7471 34.5864 23.7161 34.5559C23.6852 34.5254 23.6485 34.5013 23.608 34.4848C23.5676 34.4684 23.5243 34.46 23.4806 34.4601Z" fill="#7C4032"/>
<path id="Vector_13" d="M33.6136 20.28C33.598 20.2785 33.5823 20.2785 33.5667 20.28H32.845C32.8294 20.2785 32.8137 20.2785 32.7981 20.28C32.7193 20.296 32.6491 20.3399 32.6005 20.4033C32.5519 20.4667 32.5283 20.5453 32.5341 20.6247C32.5398 20.704 32.5745 20.7785 32.6317 20.8344C32.6889 20.8904 32.7647 20.9239 32.845 20.9288H33.5704C33.6508 20.9239 33.7266 20.8904 33.7838 20.8344C33.841 20.7785 33.8757 20.704 33.8814 20.6247C33.8872 20.5453 33.8636 20.4667 33.815 20.4033C33.7664 20.3399 33.6962 20.296 33.6174 20.28H33.6136Z" fill="#7C4032"/>
<path id="Vector_14" d="M33.6961 22.9438C33.6552 22.9266 33.6111 22.9177 33.5666 22.9178H32.8449C32.7998 22.9154 32.7546 22.9222 32.7122 22.9376C32.6697 22.9531 32.6309 22.9769 32.5981 23.0076C32.5653 23.0384 32.5391 23.0754 32.5212 23.1165C32.5034 23.1575 32.4941 23.2017 32.4941 23.2464C32.4941 23.291 32.5034 23.3353 32.5212 23.3763C32.5391 23.4174 32.5653 23.4544 32.5981 23.4851C32.6309 23.5159 32.6697 23.5397 32.7122 23.5551C32.7546 23.5706 32.7998 23.5773 32.8449 23.575H33.5704C33.6141 23.575 33.6573 23.5665 33.6977 23.5499C33.7381 23.5333 33.7747 23.5091 33.8056 23.4785C33.8365 23.448 33.8609 23.4117 33.8776 23.3718C33.8942 23.3319 33.9027 23.2891 33.9026 23.2459C33.9025 23.2145 33.8978 23.1833 33.8885 23.1532C33.8742 23.1064 33.8495 23.0633 33.8162 23.0271C33.7829 22.9908 33.7419 22.9624 33.6961 22.9438Z" fill="#7C4032"/>
<path id="Vector_15" d="M33.5665 17.6338H32.8448C32.786 17.6337 32.7283 17.6494 32.6778 17.6791C32.628 17.7073 32.5865 17.7476 32.5574 17.7964C32.5282 17.8452 32.5125 17.9006 32.5117 17.9572C32.5117 18.0445 32.5468 18.1282 32.6093 18.1899C32.6718 18.2516 32.7565 18.2862 32.8448 18.2862H33.5702C33.6554 18.2818 33.7356 18.2452 33.7943 18.1841C33.8529 18.123 33.8857 18.0419 33.8857 17.9577C33.8857 17.8735 33.8529 17.7924 33.7943 17.7313C33.7356 17.6701 33.6554 17.6336 33.5702 17.6291L33.5665 17.6338Z" fill="#7C4032"/>
</g>
<defs>
<clipPath id="clip0_37_6">
<rect width="238" height="49" fill="white"/>
</clipPath>
</defs>
</svg>
