<svg width="244" height="49" viewBox="0 0 244 49" fill="none" xmlns="http://www.w3.org/2000/svg">
<g id="3 1" clip-path="url(#clip0_37_54)">
<path id="Vector" d="M93.1774 15.3451V20.0841H95.4551C96.2276 20.0841 96.835 19.8683 97.2778 19.4367C97.7287 19.0051 97.9548 18.4354 97.9548 17.7276C97.9548 17.0284 97.7247 16.4587 97.2645 16.0184C96.8049 15.5696 96.2056 15.3451 95.4684 15.3451H93.1774ZM93.1774 23.7096V29.9765H87.6575V11.2924H96.0022C98.4839 11.2924 100.367 11.8449 101.652 12.9498C102.945 14.0546 103.591 15.617 103.591 17.6369C103.591 18.7677 103.322 19.8123 102.784 20.7704C102.255 21.7286 101.513 22.4363 100.558 22.8939L104.125 29.9765H97.9548L94.9868 23.7096H93.1774ZM112.456 30.339C110.096 30.339 108.247 29.6873 106.911 28.3839C105.574 27.0718 104.906 25.2159 104.906 22.8162C104.906 20.4769 105.583 18.6426 106.937 17.3133C108.3 15.9839 110.139 15.3192 112.456 15.3192C114.791 15.3192 116.635 15.9839 117.989 17.3133C119.343 18.6339 120.02 20.4683 120.02 22.8162C120.02 25.2159 119.351 27.0718 118.015 28.3839C116.678 29.6873 114.826 30.339 112.456 30.339ZM112.456 26.5453C113.124 26.5453 113.65 26.2215 114.032 25.5741C114.413 24.9267 114.604 24.0117 114.604 22.8292C114.604 21.6725 114.409 20.7661 114.018 20.1101C113.637 19.4454 113.116 19.113 112.456 19.113C111.797 19.113 111.276 19.4454 110.894 20.1101C110.512 20.7661 110.322 21.6725 110.322 22.8292C110.322 24.0204 110.508 24.9397 110.881 25.587C111.254 26.2258 111.779 26.5453 112.456 26.5453ZM136.331 15.6818V29.9765H131.124V27.1667H131.019C130.724 28.1594 130.234 28.9234 129.548 29.4586C128.871 29.9937 128.008 30.2613 126.958 30.2613C125.378 30.2613 124.09 29.7779 123.092 28.8111C122.103 27.8357 121.608 26.515 121.608 24.849V15.6818H126.945V23.6578C126.945 24.4002 127.132 24.9742 127.505 25.3799C127.878 25.777 128.381 25.9755 129.015 25.9755C129.614 25.9755 130.091 25.764 130.447 25.3411C130.811 24.9181 130.994 24.3613 130.994 23.6707V15.6818H136.331ZM138.336 29.9765V15.6818H143.543V18.4915H143.647C144.011 17.4816 144.567 16.7133 145.313 16.1868C146.059 15.6602 146.975 15.3969 148.06 15.3969C149.665 15.3969 150.898 15.8717 151.757 16.8212C152.625 17.7621 153.059 19.0958 153.059 20.8222V29.9765H147.721V22.0005C147.721 21.2667 147.548 20.697 147.2 20.2913C146.862 19.8856 146.363 19.6828 145.703 19.6828C145.079 19.6828 144.584 19.8985 144.22 20.3302C143.855 20.7531 143.673 21.3056 143.673 21.9875V29.9765H138.336ZM160.232 30.1836C158.461 30.1836 157.086 29.5362 156.105 28.2414C155.124 26.938 154.634 25.1209 154.634 22.7903C154.634 20.4942 155.133 18.703 156.131 17.4168C157.138 16.122 158.535 15.4747 160.323 15.4747C161.347 15.4747 162.232 15.7336 162.978 16.2515C163.733 16.7608 164.254 17.4298 164.54 18.2585H164.644V11.2924H169.982V29.9765H164.644V27.5034H164.54C164.289 28.2716 163.768 28.9104 162.978 29.4197C162.197 29.929 161.282 30.1836 160.232 30.1836ZM164.058 20.4337C163.651 19.8554 163.091 19.5662 162.379 19.5662C161.668 19.5662 161.108 19.8597 160.7 20.4467C160.301 21.025 160.101 21.8192 160.101 22.8292C160.101 23.8564 160.301 24.6591 160.7 25.2375C161.099 25.8072 161.659 26.092 162.379 26.092C163.1 26.092 163.66 25.8072 164.058 25.2375C164.466 24.6677 164.671 23.8693 164.671 22.8421C164.671 21.8149 164.466 21.0121 164.058 20.4337ZM182.895 15.3451V20.0841H185.173C185.946 20.0841 186.553 19.8683 186.996 19.4367C187.447 19.0051 187.673 18.4354 187.673 17.7276C187.673 17.0284 187.443 16.4587 186.983 16.0184C186.523 15.5696 185.924 15.3451 185.186 15.3451H182.895ZM182.895 23.7096V29.9765H177.376V11.2924H185.72C188.202 11.2924 190.085 11.8449 191.37 12.9498C192.663 14.0546 193.31 15.617 193.31 17.6369C193.31 18.7677 193.041 19.8123 192.502 20.7704C191.973 21.7286 191.231 22.4363 190.277 22.8939L193.843 29.9765H187.673L184.705 23.7096H182.895ZM202.175 30.339C199.814 30.339 197.966 29.6873 196.629 28.3839C195.293 27.0718 194.625 25.2159 194.625 22.8162C194.625 20.4769 195.301 18.6426 196.655 17.3133C198.017 15.9839 199.858 15.3192 202.175 15.3192C204.509 15.3192 206.353 15.9839 207.707 17.3133C209.061 18.6339 209.738 20.4683 209.738 22.8162C209.738 25.2159 209.07 27.0718 207.733 28.3839C206.397 29.6873 204.544 30.339 202.175 30.339ZM202.175 26.5453C202.843 26.5453 203.368 26.2215 203.75 25.5741C204.132 24.9267 204.323 24.0117 204.323 22.8292C204.323 21.6725 204.127 20.7661 203.737 20.1101C203.355 19.4454 202.834 19.113 202.175 19.113C201.515 19.113 200.995 19.4454 200.613 20.1101C200.231 20.7661 200.039 21.6725 200.039 22.8292C200.039 24.0204 200.226 24.9397 200.599 25.587C200.973 26.2258 201.498 26.5453 202.175 26.5453ZM225.502 21.5991H220.647C220.595 20.8826 220.382 20.3172 220.009 19.9029C219.636 19.4799 219.162 19.2684 218.59 19.2684C217.887 19.2684 217.349 19.5705 216.976 20.1748C216.611 20.779 216.429 21.6595 216.429 22.8162C216.429 23.9815 216.611 24.8706 216.976 25.4835C217.34 26.0877 217.878 26.3898 218.59 26.3898C219.189 26.3898 219.67 26.1956 220.035 25.8072C220.399 25.4101 220.603 24.8576 220.647 24.1498H225.502C225.476 26.0834 224.843 27.5984 223.602 28.6946C222.361 29.7909 220.668 30.339 218.525 30.339C216.19 30.339 214.355 29.6743 213.018 28.345C211.691 27.0071 211.026 25.1641 211.026 22.8162C211.026 20.4855 211.691 18.6556 213.018 17.3262C214.355 15.9882 216.182 15.3192 218.499 15.3192C220.599 15.3192 222.283 15.8846 223.55 17.0154C224.817 18.1463 225.468 19.6741 225.502 21.5991ZM232.597 20.8481L236.086 15.6818H241.957L237.179 21.7803L242.296 29.9765H236.164L233.196 24.9526L232.493 25.8849V29.9765H227.156V11.2924H232.493V20.8481H232.597ZM93.7726 42.0823H91.6125V39.2552H89.0247V42.0823H86.8652V34.7712H89.0247V37.5477H91.6125V34.7712H93.7726V42.0823ZM100.553 40.7751C100.794 40.7751 101.003 40.7144 101.18 40.5927C101.356 40.4678 101.444 40.3057 101.444 40.1064V39.7416L100.558 39.8023C100.361 39.8159 100.208 39.8665 100.1 39.9544C99.9908 40.0422 99.9363 40.1553 99.9363 40.2938C99.9363 40.4425 99.9925 40.5607 100.104 40.6485C100.217 40.7329 100.366 40.7751 100.553 40.7751ZM99.7735 42.1634C99.2507 42.1634 98.8038 42.003 98.4341 41.6821C98.0637 41.3578 97.8789 40.9491 97.8789 40.456C97.8789 39.9223 98.0771 39.5102 98.4747 39.2197C98.8751 38.9258 99.4541 38.7552 100.212 38.708L101.444 38.6319V38.3583C101.444 38.176 101.382 38.0341 101.256 37.9328C101.13 37.8315 100.967 37.7808 100.767 37.7808C100.56 37.7808 100.39 37.8297 100.257 37.9277C100.125 38.0257 100.051 38.149 100.033 38.2976H98.1692C98.1959 37.6963 98.4509 37.2218 98.9331 36.8738C99.4153 36.5226 100.064 36.3469 100.879 36.3469C101.657 36.3469 102.285 36.5242 102.763 36.8789C103.242 37.2302 103.482 37.6896 103.482 38.2571V42.0823H101.444V41.3325H101.404C101.261 41.5959 101.039 41.8003 100.736 41.9456C100.438 42.0908 100.117 42.1634 99.7735 42.1634ZM107.766 42.0823V36.4888H109.804V37.5882H109.845C109.987 37.1931 110.205 36.8924 110.497 36.6863C110.789 36.4803 111.147 36.3773 111.571 36.3773C112.2 36.3773 112.682 36.5631 113.018 36.9346C113.357 37.3028 113.527 37.8247 113.527 38.5002V42.0823H111.439V38.9613C111.439 38.6742 111.371 38.4513 111.235 38.2925C111.103 38.1338 110.908 38.0544 110.649 38.0544C110.405 38.0544 110.212 38.1388 110.068 38.3077C109.926 38.4732 109.855 38.6894 109.855 38.9562V42.0823H107.766ZM119.829 42.1634C119.136 42.1634 118.598 41.9101 118.214 41.4034C117.831 40.8934 117.639 40.1824 117.639 39.2704C117.639 38.3719 117.834 37.671 118.224 37.1677C118.618 36.661 119.165 36.4077 119.865 36.4077C120.265 36.4077 120.612 36.509 120.904 36.7117C121.199 36.911 121.403 37.1728 121.515 37.497H121.556V34.7712H123.644V42.0823H121.556V41.1146H121.515C121.416 41.4153 121.213 41.6652 120.904 41.8645C120.598 42.0638 120.24 42.1634 119.829 42.1634ZM121.327 38.3483C121.167 38.1219 120.948 38.0088 120.669 38.0088C120.391 38.0088 120.172 38.1236 120.012 38.3533C119.856 38.5796 119.778 38.8904 119.778 39.2855C119.778 39.6875 119.856 40.0016 120.012 40.228C120.169 40.4509 120.388 40.5624 120.669 40.5624C120.952 40.5624 121.17 40.4509 121.327 40.228C121.486 40.005 121.566 39.6926 121.566 39.2906C121.566 38.8887 121.486 38.5745 121.327 38.3483ZM128.887 44.1344H128.142V42.589H128.545C128.841 42.589 129.056 42.5603 129.192 42.5029C129.331 42.4488 129.401 42.3593 129.401 42.2344C129.401 42.1837 129.393 42.133 129.375 42.0823L127.532 36.4888H129.849L130.705 40.5927H130.746L131.596 36.4888H133.802L132.126 41.9506C131.888 42.7275 131.517 43.2848 131.011 43.6226C130.508 43.9638 129.8 44.1344 128.887 44.1344ZM137.689 42.0823V36.4888H139.727V37.6186H139.767C139.872 37.2403 140.071 36.9397 140.363 36.7168C140.655 36.4905 140.993 36.3773 141.377 36.3773C141.805 36.3773 142.155 36.4854 142.427 36.7016C142.701 36.9144 142.873 37.2167 142.941 37.6085H142.982C143.077 37.2369 143.28 36.9397 143.593 36.7168C143.908 36.4905 144.281 36.3773 144.708 36.3773C145.255 36.3773 145.7 36.5564 146.043 36.9144C146.386 37.2691 146.558 37.7318 146.558 38.3027V42.0823H144.469V38.8397C144.469 38.3094 144.242 38.0442 143.786 38.0442C143.576 38.0442 143.411 38.1152 143.292 38.2571C143.174 38.3955 143.114 38.5881 143.114 38.8346V42.0823H141.132V38.8448C141.132 38.3111 140.907 38.0442 140.455 38.0442C140.244 38.0442 140.078 38.1152 139.956 38.2571C139.837 38.3989 139.777 38.5914 139.777 38.8346V42.0823H137.689ZM153.287 40.7751C153.528 40.7751 153.737 40.7144 153.914 40.5927C154.09 40.4678 154.179 40.3057 154.179 40.1064V39.7416L153.292 39.8023C153.095 39.8159 152.942 39.8665 152.833 39.9544C152.725 40.0422 152.67 40.1553 152.67 40.2938C152.67 40.4425 152.727 40.5607 152.839 40.6485C152.951 40.7329 153.1 40.7751 153.287 40.7751ZM152.508 42.1634C151.985 42.1634 151.538 42.003 151.168 41.6821C150.798 41.3578 150.612 40.9491 150.612 40.456C150.612 39.9223 150.811 39.5102 151.209 39.2197C151.609 38.9258 152.188 38.7552 152.946 38.708L154.179 38.6319V38.3583C154.179 38.176 154.115 38.0341 153.99 37.9328C153.864 37.8315 153.702 37.7808 153.501 37.7808C153.294 37.7808 153.124 37.8297 152.992 37.9277C152.859 38.0257 152.785 38.149 152.767 38.2976H150.903C150.93 37.6963 151.185 37.2218 151.667 36.8738C152.149 36.5226 152.798 36.3469 153.613 36.3469C154.391 36.3469 155.019 36.5242 155.498 36.8789C155.976 37.2302 156.216 37.6896 156.216 38.2571V42.0823H154.179V41.3325H154.137C153.995 41.5959 153.773 41.8003 153.47 41.9456C153.171 42.0908 152.851 42.1634 152.508 42.1634ZM160.5 42.0823V36.4888H162.538V37.5882H162.579C162.721 37.1931 162.939 36.8924 163.231 36.6863C163.523 36.4803 163.881 36.3773 164.305 36.3773C164.934 36.3773 165.416 36.5631 165.752 36.9346C166.092 37.3028 166.261 37.8247 166.261 38.5002V42.0823H164.173V38.9613C164.173 38.6742 164.105 38.4513 163.969 38.2925C163.837 38.1338 163.642 38.0544 163.383 38.0544C163.139 38.0544 162.945 38.1388 162.803 38.3077C162.66 38.4732 162.589 38.6894 162.589 38.9562V42.0823H160.5ZM175.9 38.2266C175.9 37.6423 176.134 37.1829 176.603 36.8485C177.072 36.5141 177.715 36.3469 178.533 36.3469C179.355 36.3469 179.997 36.5192 180.459 36.8637C180.924 37.2082 181.157 37.6862 181.157 38.2976H179.262C179.262 38.1152 179.194 37.9716 179.058 37.8669C178.926 37.7588 178.746 37.7047 178.518 37.7047C178.332 37.7047 178.18 37.7403 178.065 37.8112C177.953 37.8787 177.897 37.9716 177.897 38.0898C177.897 38.2655 178.078 38.3871 178.442 38.4546L179.71 38.7029C180.267 38.811 180.675 38.99 180.933 39.2399C181.194 39.4866 181.325 39.8226 181.325 40.2482C181.325 40.8528 181.074 41.3341 180.571 41.6922C180.072 42.0469 179.408 42.2242 178.58 42.2242C177.713 42.2242 177.037 42.0502 176.552 41.7023C176.07 41.351 175.81 40.8731 175.773 40.2685H177.79C177.81 40.4543 177.892 40.6012 178.034 40.7093C178.18 40.814 178.37 40.8663 178.605 40.8663C178.809 40.8663 178.968 40.8343 179.084 40.7701C179.199 40.7025 179.257 40.6113 179.257 40.4965C179.257 40.4087 179.216 40.3377 179.135 40.2837C179.053 40.2263 178.918 40.1807 178.727 40.1469L177.642 39.9341C177.075 39.8226 176.642 39.6216 176.343 39.3311C176.048 39.0373 175.9 38.6691 175.9 38.2266ZM188.157 37.7757C187.919 37.7757 187.718 37.8534 187.555 38.0088C187.392 38.1641 187.3 38.3617 187.28 38.6016H189.032C189.015 38.3516 188.926 38.1523 188.763 38.0037C188.603 37.8517 188.401 37.7757 188.157 37.7757ZM189.094 40.2685H190.953C190.865 40.8731 190.573 41.351 190.077 41.7023C189.581 42.0502 188.948 42.2242 188.177 42.2242C187.256 42.2242 186.537 41.9675 186.017 41.4541C185.497 40.9373 185.238 40.2246 185.238 39.316C185.238 38.4006 185.496 37.6778 186.012 37.1475C186.528 36.6138 187.227 36.3469 188.111 36.3469C188.983 36.3469 189.68 36.6036 190.199 37.117C190.719 37.6271 190.978 38.3094 190.978 39.164V39.7264H187.249V39.8581C187.249 40.1317 187.339 40.358 187.52 40.537C187.7 40.7127 187.929 40.8005 188.208 40.8005C188.421 40.8005 188.606 40.7532 188.763 40.6586C188.922 40.564 189.032 40.434 189.094 40.2685ZM195.11 42.0823V36.4888H197.147V37.5882H197.188C197.399 36.8012 197.837 36.4077 198.502 36.4077C198.682 36.4077 198.846 36.4347 198.992 36.4888V38.2317C198.808 38.154 198.606 38.1152 198.385 38.1152C197.594 38.1152 197.198 38.5087 197.198 39.2957V42.0823H195.11ZM208.619 36.4888L206.816 42.0823H204.366L202.537 36.4888H204.789L205.604 40.4053H205.645L206.434 36.4888H208.619ZM212.45 42.0823V36.4888H214.539V42.0823H212.45ZM214.233 35.901C214.036 36.0868 213.79 36.1797 213.495 36.1797C213.199 36.1797 212.951 36.0868 212.751 35.901C212.554 35.7119 212.456 35.4771 212.456 35.1968C212.456 34.9164 212.554 34.6833 212.751 34.4976C212.951 34.3084 213.199 34.2139 213.495 34.2139C213.79 34.2139 214.036 34.3084 214.233 34.4976C214.434 34.6833 214.534 34.9164 214.534 35.1968C214.534 35.4771 214.434 35.7119 214.233 35.901ZM224.34 38.8042H222.44C222.42 38.5239 222.336 38.3027 222.19 38.1405C222.044 37.975 221.859 37.8922 221.635 37.8922C221.36 37.8922 221.149 38.0104 221.003 38.2469C220.861 38.4833 220.789 38.8279 220.789 39.2805C220.789 39.7365 220.861 40.0844 221.003 40.3242C221.146 40.5607 221.357 40.6789 221.635 40.6789C221.869 40.6789 222.058 40.6029 222.201 40.4509C222.343 40.2955 222.423 40.0793 222.44 39.8023H224.34C224.33 40.559 224.082 41.1518 223.596 41.5808C223.111 42.0097 222.449 42.2242 221.609 42.2242C220.696 42.2242 219.978 41.9641 219.455 41.444C218.935 40.9204 218.676 40.1992 218.676 39.2805C218.676 38.3685 218.935 37.6524 219.455 37.1323C219.978 36.6087 220.693 36.3469 221.6 36.3469C222.421 36.3469 223.08 36.5682 223.576 37.0106C224.071 37.4531 224.326 38.051 224.34 38.8042ZM231.232 37.7757C230.994 37.7757 230.794 37.8534 230.631 38.0088C230.468 38.1641 230.377 38.3617 230.356 38.6016H232.108C232.092 38.3516 232.002 38.1523 231.838 38.0037C231.679 37.8517 231.477 37.7757 231.232 37.7757ZM232.17 40.2685H234.029C233.94 40.8731 233.648 41.351 233.153 41.7023C232.657 42.0502 232.024 42.2242 231.253 42.2242C230.333 42.2242 229.613 41.9675 229.093 41.4541C228.574 40.9373 228.313 40.2246 228.313 39.316C228.313 38.4006 228.572 37.6778 229.088 37.1475C229.604 36.6138 230.304 36.3469 231.186 36.3469C232.059 36.3469 232.755 36.6036 233.275 37.117C233.794 37.6271 234.055 38.3094 234.055 39.164V39.7264H230.326V39.8581C230.326 40.1317 230.415 40.358 230.596 40.537C230.775 40.7127 231.005 40.8005 231.283 40.8005C231.498 40.8005 231.682 40.7532 231.838 40.6586C231.998 40.564 232.108 40.434 232.17 40.2685ZM238.089 38.2266C238.089 37.6423 238.324 37.1829 238.792 36.8485C239.261 36.5141 239.904 36.3469 240.723 36.3469C241.544 36.3469 242.187 36.5192 242.648 36.8637C243.113 37.2082 243.346 37.6862 243.346 38.2976H241.451C241.451 38.1152 241.383 37.9716 241.247 37.8669C241.115 37.7588 240.935 37.7047 240.708 37.7047C240.521 37.7047 240.37 37.7403 240.254 37.8112C240.142 37.8787 240.086 37.9716 240.086 38.0898C240.086 38.2655 240.268 38.3871 240.631 38.4546L241.899 38.7029C242.456 38.811 242.864 38.99 243.122 39.2399C243.383 39.4866 243.514 39.8226 243.514 40.2482C243.514 40.8528 243.263 41.3341 242.76 41.6922C242.261 42.0469 241.597 42.2242 240.768 42.2242C239.902 42.2242 239.227 42.0502 238.741 41.7023C238.259 41.351 237.999 40.8731 237.962 40.2685H239.979C239.999 40.4543 240.081 40.6012 240.224 40.7093C240.37 40.814 240.56 40.8663 240.794 40.8663C240.998 40.8663 241.157 40.8343 241.273 40.7701C241.389 40.7025 241.446 40.6113 241.446 40.4965C241.446 40.4087 241.405 40.3377 241.324 40.2837C241.242 40.2263 241.106 40.1807 240.916 40.1469L239.831 39.9341C239.264 39.8226 238.831 39.6216 238.532 39.3311C238.237 39.0373 238.089 38.6691 238.089 38.2266Z" fill="#7C4032"/>
<g id="Group">
<path id="Vector_2" d="M73.7315 7.04297L66.0631 12.064L64.2068 9.31968L71.8763 4.29738L70.8406 2.76851L63.9066 1.40146L58.0146 5.25673L56.62 12.0844L56.6809 12.1748L53.6642 14.0757C53.4053 13.8515 53.1464 13.6315 52.8874 13.4157C53.1464 12.1532 52.3903 10.7632 51.0826 10.1567C50.047 9.67514 48.9024 9.7898 48.1049 10.381C45.8085 9.26723 43.3423 8.53084 40.8043 8.20104C40.5634 7.61875 40.1548 7.11849 39.6287 6.76171C39.1026 6.40499 38.482 6.20738 37.8433 6.19314C36.3972 6.14985 35.1168 6.98688 34.6416 8.20104C32.1006 8.53113 29.6317 9.26884 27.3332 10.3848C26.5369 9.7962 25.3911 9.68407 24.3632 10.1644C23.0568 10.7708 22.3072 12.157 22.5571 13.4183C22.2813 13.6413 22.012 13.8693 21.7467 14.1038L18.677 12.171L19.2104 11.3811L17.5584 9.23304C19.4813 7.18069 21.947 5.69577 24.6791 4.94459L25.7757 4.64264L23.2717 0L22.6244 0.103198C14.4913 1.40146 8.50604 5.1994 4.83172 11.4028L4.63882 11.7277L4.73851 12.092C5.23049 13.8897 5.33276 15.0695 5.30298 15.8122L3.99407 14.9548L0 20.8944L7.45342 25.7817L11.4475 19.8472L10.0738 18.9464C11.1523 18.3884 12.3874 18.2177 13.8193 18.4266L14.3942 18.5094L14.9121 17.745L17.2308 19.3223C15.1514 22.4935 13.7615 26.054 13.1487 29.7797C12.3473 30.0854 11.0345 30.7709 10.8779 32.0169C10.6655 33.7076 12.7862 34.8899 13.4827 35.2798C14.7697 35.997 15.7342 36.485 16.4397 36.8405L17.0573 37.1551L11.054 40.9352C9.8758 41.6755 9.05495 42.7801 8.80121 43.9649C8.70356 44.3788 8.69127 44.8078 8.76511 45.2264C8.83894 45.6451 8.99734 46.0449 9.23103 46.4022L10.0389 47.5973C10.284 47.9463 10.5978 48.2436 10.9615 48.4714C11.3253 48.6991 11.7318 48.8529 12.157 48.9236C12.4157 48.9711 12.6784 48.9949 12.9416 48.9949C13.9911 48.9776 15.0107 48.648 15.8663 48.0496L23.053 43.1636C23.6544 43.5382 24.2909 43.8556 24.9536 44.1115C27.7669 45.211 31.8153 45.7244 37.6867 45.7244C43.558 45.7244 47.6065 45.2148 50.4198 44.1115C51.08 43.8564 51.7143 43.5402 52.3139 43.1674L59.4943 48.0496C60.3503 48.6483 61.3703 48.9779 62.42 48.9949C62.6831 48.995 62.9451 48.9711 63.2035 48.9236C63.6289 48.8525 64.0364 48.698 64.4004 48.4693C64.7643 48.2406 65.0779 47.9424 65.323 47.5921L66.131 46.3971C66.3634 46.0395 66.5216 45.6396 66.5952 45.2211C66.6688 44.8025 66.6566 44.3737 66.5593 43.9599C66.3002 42.775 65.4859 41.6665 64.3088 40.9314L58.3137 37.1513C58.4997 37.0545 58.702 36.95 58.9373 36.8328C59.6415 36.4773 60.6076 35.9894 61.8943 35.2721C62.5909 34.8822 64.7116 33.6999 64.4983 32.0093C64.3465 30.7964 63.0998 30.116 62.2971 29.7988C61.6839 26.05 60.2842 22.4679 58.1879 19.2802L60.4512 17.7412L60.5427 17.8775L67.4825 19.2496L73.3745 15.3918L74.7672 8.56416L73.7315 7.04297ZM6.93945 23.2693L2.54015 20.3848L4.50805 17.4622L5.38844 18.0393L5.41044 18.052C5.41594 18.057 5.42203 18.0613 5.42857 18.0647L5.4441 18.0749L7.88845 19.6777C7.91563 19.6968 7.94281 19.7159 7.97132 19.7325L8.90733 20.3466L6.93945 23.2693ZM8.39598 17.8367L7.00807 16.9258C7.22814 15.9715 7.23851 14.4363 6.60933 11.9888C9.94958 6.54865 15.0816 3.27304 22.2749 1.99007L23.1087 3.53549C20.2422 4.52543 17.7474 6.22248 15.6785 8.59091L15.1956 9.14259L16.9603 11.4486L13.4996 16.5626C11.564 16.397 9.85244 16.8251 8.39598 17.8367ZM50.2942 11.785C50.8471 12.0398 51.2005 12.6335 51.071 13.0972C51.0529 13.138 51.0231 13.2017 50.9856 13.2871C50.9778 13.3011 50.9713 13.3164 50.9635 13.333C50.9558 13.3495 50.9635 13.333 50.9635 13.333C50.9598 13.3421 50.9554 13.3511 50.9506 13.3597C50.6541 13.9967 49.9913 15.3982 49.1873 16.8888C48.9685 17.2952 48.7406 17.708 48.5063 18.1157C48.0708 18.8875 47.5955 19.6367 47.0822 20.3606C46.5642 21.069 46.2173 21.4244 46.0011 21.6015C45.993 21.4106 45.9999 21.2194 46.0218 21.0295C46.0736 20.5199 46.2199 19.7325 46.572 18.5387C46.6886 18.1425 46.831 17.7004 46.9954 17.2086C47.7528 14.9752 48.7121 12.7558 48.9879 12.1289C49.0138 12.0691 49.0371 12.0169 49.0591 11.9685L49.0682 11.9557C49.2947 11.6474 49.8203 11.5696 50.2942 11.7901V11.785ZM37.776 7.9972C38.4713 8.02142 39.0707 8.49793 39.1509 9.09163C39.1509 9.15914 39.1509 9.23817 39.1509 9.32349C39.1445 10.1529 39.1005 13.0794 38.8376 15.9027C38.4894 19.6331 37.9702 20.9085 37.719 21.3225C37.4717 20.9148 36.9617 19.6662 36.6147 16.053C36.3558 13.3266 36.2988 10.5122 36.2872 9.428C36.2872 9.26746 36.2872 9.1528 36.2872 9.09163C36.3803 8.46097 37.0342 7.97812 37.776 7.9972ZM25.14 11.7977C25.6113 11.5799 26.1317 11.655 26.3621 11.9646C26.3678 11.9711 26.3729 11.9779 26.3777 11.985C26.3984 12.0309 26.423 12.0844 26.4476 12.1417C26.7234 12.7698 27.6827 14.9892 28.4401 17.2226C28.6136 17.7322 28.7573 18.1896 28.8764 18.5986C29.2286 19.7975 29.3697 20.581 29.4163 21.083C29.4347 21.2595 29.4404 21.437 29.4331 21.6142C29.2247 21.4436 28.8894 21.1046 28.4051 20.446C27.8716 19.7016 27.3789 18.9297 26.9292 18.1336C26.7065 17.745 26.4877 17.3513 26.2819 16.964C25.4598 15.4428 24.7826 14.0146 24.4823 13.3775L24.4719 13.3546C24.4654 13.3406 24.459 13.3278 24.4538 13.3151L24.3619 13.1138C24.2402 12.6475 24.5885 12.0551 25.14 11.7977ZM15.9245 16.2416L17.6581 13.6769L20.3769 15.3931C19.6255 16.1639 18.9237 16.98 18.2756 17.8367L15.9245 16.2416ZM14.8175 46.564C14.0822 47.0647 13.216 47.2826 12.4975 47.1475C12.3121 47.1198 12.1341 47.0564 11.9737 46.9609C11.8133 46.8653 11.6736 46.7395 11.5628 46.5908L10.7548 45.3957C10.562 45.0772 10.5052 44.6965 10.5969 44.337C10.7458 43.6337 11.2869 42.9355 12.0404 42.4565L18.6822 38.2699C19.0369 38.6445 19.3839 39.1452 19.9082 39.9517C20.3745 40.6907 20.9252 41.3747 21.5498 41.9902L14.8175 46.564ZM63.3148 42.4501C64.0683 42.9228 64.6096 43.626 64.7585 44.3293C64.8049 44.5084 64.8148 44.6949 64.7869 44.8778C64.7597 45.0607 64.6954 45.2363 64.598 45.3944L63.7901 46.5895C63.6788 46.7384 63.5391 46.8643 63.3786 46.9598C63.2174 47.0554 63.0395 47.1187 62.8541 47.1462C62.1365 47.2813 61.2689 47.0635 60.5323 46.5615L53.8119 41.9914C54.4384 41.3734 54.9905 40.6864 55.4574 39.9441C55.9752 39.1401 56.3274 38.6394 56.6782 38.2661L63.3148 42.4501ZM62.6779 32.2335C62.6779 32.2539 62.6645 32.7673 60.9948 33.7038C59.7412 34.4019 58.8341 34.8606 58.1039 35.2326C57.4719 35.5524 56.9838 35.8034 56.5721 36.0556C56.0221 36.3822 55.5338 36.7998 55.1285 37.2902C54.6934 37.8287 54.2909 38.3919 53.9232 38.977C53.4711 39.7076 52.9152 40.3709 52.2725 40.9467C51.7769 41.3744 51.2284 41.7387 50.6399 42.0309C48.3716 43.1776 44.6248 43.9229 37.6931 43.9229C30.7614 43.9229 27.0004 43.1776 24.7283 42.0271C24.1401 41.7346 23.592 41.3698 23.097 40.9416C22.4563 40.3671 21.9022 39.7056 21.4515 38.977C21.0827 38.3897 20.6785 37.8248 20.2409 37.2851C19.8364 36.7969 19.3494 36.3809 18.8013 36.0556C18.3908 35.8008 17.904 35.5549 17.2735 35.2364C16.5447 34.867 15.6371 34.4083 14.3838 33.7076C12.6826 32.7571 12.7008 32.2424 12.7008 32.2373C12.7253 32.0386 13.2057 31.7099 13.7559 31.4869C14.5509 32.0768 16.5822 33.4744 19.7373 34.8733C19.9177 34.9531 20.1033 35.0338 20.294 35.1154C20.9336 35.3868 21.634 35.6632 22.3927 35.9359C24.2527 36.6032 26.158 37.1413 28.0944 37.5463C28.9114 37.7183 29.7646 37.8724 30.6501 38.0037C32.8672 38.3337 35.1064 38.499 37.3488 38.498C39.7771 38.498 42.2015 38.3072 44.5989 37.9272C45.4755 37.7896 46.3209 37.6304 47.1326 37.4558C49.065 37.041 50.968 36.5026 52.8292 35.8441C53.5917 35.5753 54.2986 35.3014 54.9447 35.0338L55.3214 34.8772C58.6319 33.4757 60.8041 32.0742 61.6456 31.4958C62.1858 31.7239 62.6529 32.0398 62.6779 32.2335ZM60.4767 30.0867C59.6328 30.6601 57.5716 31.9583 54.5213 33.2425C54.0617 33.4362 53.5658 33.6362 53.0376 33.8362C52.3605 34.091 51.6277 34.3459 50.8432 34.6007C48.9363 35.2054 46.9898 35.6817 45.0171 36.0264C44.1613 36.1767 43.2719 36.3066 42.3527 36.4086C40.6916 36.5971 39.0209 36.692 37.3488 36.6926C35.866 36.6929 34.3842 36.6181 32.9093 36.4685C31.9759 36.3729 31.076 36.2505 30.2125 36.1066C28.228 35.7777 26.2707 35.3054 24.3567 34.6937C23.5799 34.4389 22.8471 34.1841 22.1752 33.9293C21.5926 33.7038 21.0514 33.4782 20.5542 33.2591C17.6516 31.9851 15.7316 30.6855 14.9496 30.1148C15.5142 26.6374 16.8035 23.3126 18.7365 20.3491C19.068 19.8395 19.4175 19.3456 19.7852 18.8674C20.4524 17.9939 21.1795 17.1664 21.9616 16.3907C22.3931 15.966 22.8407 15.5557 23.3041 15.1599C23.7068 15.9906 24.2635 17.1016 24.8862 18.2342C25.0157 18.4776 25.1581 18.7235 25.2979 18.9668C27.3397 22.5341 28.4051 23.2604 29.0978 23.4986C29.2773 23.5621 29.4664 23.5952 29.6571 23.5967C29.8921 23.5968 30.1239 23.5418 30.3329 23.4362C30.7938 23.2043 31.0864 22.8119 31.2094 22.2194C31.3246 21.6691 31.2949 20.9454 31.1188 20.0179C30.9237 19.0567 30.6685 18.1083 30.3549 17.178C29.683 15.1077 28.8013 12.9736 28.3404 11.9124C30.2754 10.9973 32.3379 10.3704 34.4603 10.0523C34.4862 11.5429 34.5717 14.277 34.8488 16.8353C35.0365 18.5617 35.2837 19.9389 35.5854 20.9263C35.7628 21.5085 36.304 23.2794 37.7178 23.2794C39.1315 23.2794 39.6895 21.464 39.8669 20.8677C40.1699 19.8485 40.4171 18.447 40.6036 16.6799C40.8625 14.1573 40.9492 11.4563 40.9751 10.0548C43.0967 10.3715 45.1585 10.9976 47.0925 11.9124C46.6341 12.9724 45.7512 15.1039 45.0805 17.1717C44.7724 18.0877 44.5203 19.0212 44.3258 19.9669C44.2222 20.4644 44.1658 20.9702 44.1575 21.478C44.1553 21.7129 44.1761 21.9476 44.2196 22.1787C44.3374 22.7902 44.6326 23.1979 45.1026 23.4298C45.3117 23.5351 45.5434 23.5897 45.7784 23.5891C45.9686 23.588 46.1573 23.5553 46.3364 23.4922C47.0342 23.254 48.0959 22.5226 50.1375 18.9591C50.2878 18.6954 50.4366 18.4317 50.5816 18.168C51.1901 17.0583 51.7339 15.9741 52.1288 15.1574C52.5828 15.5422 53.0212 15.9443 53.4442 16.3639C54.2278 17.138 54.9562 17.9642 55.6244 18.8369C55.9921 19.3159 56.3421 19.8094 56.6744 20.3173C58.6168 23.2805 59.9133 26.6079 60.4819 30.0893L60.4767 30.0867ZM57.134 17.8049C56.4829 16.9488 55.7781 16.1335 55.0237 15.3638L57.6985 13.6782L59.4334 16.2429L57.134 17.8049ZM71.725 14.3076L67.0977 17.3373L61.6526 16.2607L58.5699 11.7034L59.6635 6.35242L64.2897 3.31253L68.7228 4.18908L61.663 8.81643L65.5468 14.5675L72.6065 9.94521L71.725 14.3076Z" fill="#7C4032"/>
</g>
</g>
<defs>
<clipPath id="clip0_37_54">
<rect width="244" height="49" fill="white"/>
</clipPath>
</defs>
</svg>
