<svg width="244" height="54" viewBox="0 0 244 54" fill="none" xmlns="http://www.w3.org/2000/svg">
<g id="4 5" clip-path="url(#clip0_37_58)">
<path id="Vector" d="M67.354 11.2665V18.8768H71.5896C72.8284 18.8768 73.7892 18.5404 74.4738 17.8676C75.1688 17.1949 75.5165 16.2629 75.5165 15.0717C75.5165 13.9136 75.1578 12.9927 74.441 12.3088C73.7241 11.614 72.7575 11.2665 71.5411 11.2665H67.354ZM67.354 22.5V31.2353H62.4333V7.36211H72.0625C74.7454 7.36211 76.8309 8.04044 78.3189 9.39706C79.8178 10.7427 80.567 12.6011 80.567 14.9724C80.567 16.5276 80.187 17.9173 79.4268 19.1415C78.6771 20.3548 77.6343 21.2261 76.2986 21.7555L81.2516 31.2353H75.6792L71.2966 22.5H67.354ZM97.5767 29.1673C96.0235 30.7996 93.9161 31.6158 91.2551 31.6158C88.594 31.6158 86.4866 30.7941 84.9335 29.1507C83.3803 27.5073 82.604 25.2408 82.604 22.3511C82.604 19.4945 83.3861 17.2445 84.9502 15.6011C86.5247 13.9467 88.6269 13.1195 91.2551 13.1195C93.8948 13.1195 95.9964 13.9467 97.5605 15.6011C99.1246 17.2445 99.9066 19.4945 99.9066 22.3511C99.9066 25.2518 99.1298 27.5239 97.5767 29.1673ZM91.2551 27.9265C92.4281 27.9265 93.3567 27.4412 94.0413 26.4706C94.7258 25.5 95.0678 24.1323 95.0678 22.3676C95.0678 20.625 94.7258 19.2629 94.0413 18.2812C93.3567 17.2996 92.4281 16.8088 91.2551 16.8088C90.082 16.8088 89.1482 17.2996 88.4527 18.2812C87.7687 19.2629 87.4267 20.625 87.4267 22.3676C87.4267 24.1323 87.7687 25.5 88.4527 26.4706C89.1373 27.4412 90.071 27.9265 91.2551 27.9265ZM118.497 13.5V31.2353H113.902V28.0423H113.804C112.892 30.3915 111.149 31.5662 108.574 31.5662C106.663 31.5662 105.136 30.9761 103.996 29.7959C102.855 28.6048 102.286 26.9835 102.286 24.932V13.5H107.043V23.9228C107.043 25.103 107.32 26.0018 107.874 26.6195C108.439 27.2371 109.248 27.5459 110.301 27.5459C111.355 27.5459 112.192 27.193 112.81 26.4871C113.429 25.7812 113.739 24.8383 113.739 23.6581V13.5H118.497ZM121.592 31.2353V13.5H126.187V16.66H126.285C126.762 15.535 127.458 14.6747 128.37 14.0791C129.294 13.4724 130.418 13.1691 131.743 13.1691C133.676 13.1691 135.169 13.7537 136.223 14.9228C137.277 16.0919 137.803 17.7188 137.803 19.8033V31.2353H133.046V20.8125C133.046 19.6434 132.775 18.7445 132.231 18.1158C131.688 17.4871 130.89 17.1728 129.836 17.1728C128.783 17.1728 127.935 17.5313 127.295 18.2482C126.665 18.9651 126.35 19.9026 126.35 21.0606V31.2353H121.592ZM147.302 31.5165C145.119 31.5165 143.387 30.6949 142.105 29.0515C140.823 27.4081 140.182 25.1691 140.182 22.3346C140.182 19.5221 140.823 17.2996 142.105 15.6673C143.398 14.0349 145.14 13.2188 147.335 13.2188C148.573 13.2188 149.659 13.5221 150.593 14.1287C151.538 14.7353 152.228 15.5405 152.662 16.5441H152.76V7.36211H157.518V31.2353H152.825V28.1912H152.744C152.309 29.1948 151.609 30 150.642 30.6066C149.675 31.2132 148.562 31.5165 147.302 31.5165ZM148.915 17.09C147.72 17.09 146.775 17.5643 146.081 18.5129C145.396 19.4614 145.054 20.7463 145.054 22.3676C145.054 24 145.396 25.2849 146.081 26.2224C146.775 27.1599 147.72 27.6287 148.915 27.6287C150.099 27.6287 151.039 27.1599 151.734 26.2224C152.44 25.2739 152.793 23.989 152.793 22.3676C152.793 20.7573 152.44 19.478 151.734 18.5294C151.039 17.5699 150.099 17.09 148.915 17.09ZM172.637 11.2665V18.8768H176.874C178.112 18.8768 179.073 18.5404 179.757 17.8676C180.453 17.1949 180.8 16.2629 180.8 15.0717C180.8 13.9136 180.442 12.9927 179.725 12.3088C179.008 11.614 178.041 11.2665 176.825 11.2665H172.637ZM172.637 22.5V31.2353H167.717V7.36211H177.346C180.029 7.36211 182.114 8.04044 183.602 9.39706C185.101 10.7427 185.851 12.6011 185.851 14.9724C185.851 16.5276 185.471 17.9173 184.71 19.1415C183.961 20.3548 182.918 21.2261 181.582 21.7555L186.535 31.2353H180.963L176.581 22.5H172.637ZM202.861 29.1673C201.307 30.7996 199.2 31.6158 196.539 31.6158C193.878 31.6158 191.771 30.7941 190.217 29.1507C188.664 27.5073 187.887 25.2408 187.887 22.3511C187.887 19.4945 188.669 17.2445 190.234 15.6011C191.809 13.9467 193.91 13.1195 196.539 13.1195C199.178 13.1195 201.28 13.9467 202.844 15.6011C204.408 17.2445 205.19 19.4945 205.19 22.3511C205.19 25.2518 204.414 27.5239 202.861 29.1673ZM196.539 27.9265C197.712 27.9265 198.641 27.4412 199.325 26.4706C200.009 25.5 200.351 24.1323 200.351 22.3676C200.351 20.625 200.009 19.2629 199.325 18.2812C198.641 17.2996 197.712 16.8088 196.539 16.8088C195.366 16.8088 194.432 17.2996 193.737 18.2812C193.052 19.2629 192.71 20.625 192.71 22.3676C192.71 24.1323 193.052 25.5 193.737 26.4706C194.421 27.4412 195.355 27.9265 196.539 27.9265ZM223.52 20.1011H219.104C218.963 19.1415 218.588 18.3695 217.98 17.785C217.383 17.2004 216.606 16.9081 215.65 16.9081C214.466 16.9081 213.532 17.3934 212.848 18.364C212.174 19.3235 211.837 20.6526 211.837 22.3511C211.837 24.0827 212.174 25.4283 212.848 26.3879C213.532 27.3474 214.472 27.8272 215.666 27.8272C216.612 27.8272 217.383 27.557 217.98 27.0165C218.578 26.4651 218.952 25.7041 219.104 24.7335H223.536C223.417 26.8291 222.64 28.5 221.206 29.7463C219.772 30.9927 217.909 31.6158 215.617 31.6158C212.967 31.6158 210.871 30.7941 209.329 29.1507C207.786 27.4963 207.015 25.2298 207.015 22.3511C207.015 19.5166 207.786 17.2721 209.329 15.6176C210.882 13.9522 212.967 13.1195 215.585 13.1195C217.909 13.1195 219.783 13.7702 221.206 15.0717C222.64 16.3732 223.411 18.0497 223.52 20.1011ZM230.77 20.614L236.7 13.5H242.093L235.429 21.1103L242.419 31.2353H236.945L231.943 24.0221L230.705 25.3787V31.2353H225.947V7.36211H230.705V20.614H230.77ZM67.3931 46.2522V47.1176H61.4062V37.0462H67.3931V37.9116H62.3411V41.534H67.1387V42.3855H62.3411V46.2522H67.3931ZM74.4722 47.1176V37.0462H75.3799V47.1176H74.4722ZM85.3939 40.5499C84.7573 40.5499 84.2322 40.7756 83.8198 41.2269C83.4121 41.6736 83.19 42.2575 83.1535 42.9788H87.5659C87.557 42.2575 87.3532 41.6736 86.9543 41.2269C86.556 40.7756 86.0357 40.5499 85.3939 40.5499ZM87.5111 45.0587H88.4115C88.3015 45.6961 87.9762 46.2196 87.4355 46.6291C86.8996 47.0339 86.2416 47.2363 85.4627 47.2363C84.4596 47.2363 83.6666 46.9036 83.0847 46.2382C82.5029 45.5682 82.2114 44.6585 82.2114 43.5092C82.2114 42.3785 82.5029 41.4689 83.0847 40.7802C83.6666 40.0869 84.4408 39.7402 85.4079 39.7402C86.3516 39.7402 87.1034 40.066 87.6623 40.7174C88.2212 41.3688 88.5007 42.2366 88.5007 43.3208V43.7116H83.1462V43.7675C83.1462 44.5864 83.3574 45.2355 83.7787 45.7148C84.2004 46.1894 84.7687 46.4267 85.4835 46.4267C86.0106 46.4267 86.4548 46.301 86.8167 46.0498C87.179 45.7985 87.4105 45.4682 87.5111 45.0587ZM101.093 42.1552H100.199C100.099 41.6853 99.867 41.3014 99.5052 41.0036C99.1475 40.7058 98.6986 40.5569 98.158 40.5569C97.4567 40.5569 96.8952 40.8221 96.474 41.3526C96.0569 41.883 95.8483 42.5949 95.8483 43.4883C95.8483 44.391 96.0589 45.1052 96.4807 45.631C96.9025 46.1568 97.4635 46.4197 98.1647 46.4197C98.6965 46.4197 99.1408 46.2801 99.4984 46.0009C99.8602 45.7218 100.094 45.3449 100.199 44.8702H101.1C100.999 45.5682 100.678 46.1382 100.138 46.5802C99.6011 47.0176 98.9416 47.2363 98.158 47.2363C97.1773 47.2363 96.3916 46.9013 95.8003 46.2313C95.2138 45.5566 94.9203 44.6422 94.9203 43.4883C94.9203 42.3483 95.2138 41.4386 95.8003 40.7593C96.3916 40.0799 97.1752 39.7402 98.1512 39.7402C98.9619 39.7402 99.6314 39.9729 100.158 40.4382C100.69 40.9035 101.001 41.4759 101.093 42.1552ZM108.186 38.0442H109.093V39.8589H110.502V40.6267H109.093V45.289C109.093 45.6612 109.169 45.9335 109.32 46.1056C109.472 46.2731 109.712 46.3569 110.042 46.3569C110.299 46.3569 110.463 46.3476 110.537 46.329V47.1176C110.409 47.1455 110.184 47.1595 109.863 47.1595C109.263 47.1595 108.832 47.0199 108.571 46.7408C108.314 46.4569 108.186 45.987 108.186 45.3309V40.6267H107.121V39.8589H108.186V38.0442ZM117.355 47.1176V39.8589H118.214V41.1501H118.235C118.368 40.7081 118.592 40.3638 118.908 40.1172C119.225 39.8659 119.603 39.7402 120.042 39.7402C120.217 39.7402 120.405 39.7659 120.606 39.8171V40.7244C120.459 40.6546 120.233 40.6197 119.926 40.6197C119.421 40.6197 119.018 40.8011 118.716 41.1641C118.414 41.527 118.262 42.004 118.262 42.5949V47.1176H117.355ZM127.211 47.1176V39.8589H128.119V47.1176H127.211ZM127.665 38.3932C127.5 38.3932 127.358 38.335 127.239 38.2187C127.12 38.0977 127.06 37.9511 127.06 37.779C127.06 37.6115 127.12 37.4696 127.239 37.3533C127.358 37.2323 127.5 37.1718 127.665 37.1718C127.835 37.1718 127.979 37.2323 128.098 37.3533C128.217 37.4696 128.277 37.6115 128.277 37.779C128.277 37.9511 128.217 38.0977 128.098 38.2187C127.979 38.335 127.835 38.3932 127.665 38.3932ZM141.123 42.1552H140.23C140.129 41.6853 139.897 41.3014 139.535 41.0036C139.178 40.7058 138.729 40.5569 138.188 40.5569C137.487 40.5569 136.926 40.8221 136.504 41.3526C136.087 41.883 135.878 42.5949 135.878 43.4883C135.878 44.391 136.09 45.1052 136.511 45.631C136.933 46.1568 137.494 46.4197 138.195 46.4197C138.727 46.4197 139.171 46.2801 139.528 46.0009C139.89 45.7218 140.124 45.3449 140.23 44.8702H141.13C141.029 45.5682 140.708 46.1382 140.168 46.5802C139.632 47.0176 138.972 47.2363 138.188 47.2363C137.207 47.2363 136.422 46.9013 135.83 46.2313C135.244 45.5566 134.951 44.6422 134.951 43.4883C134.951 42.3483 135.244 41.4386 135.83 40.7593C136.422 40.0799 137.205 39.7402 138.181 39.7402C138.992 39.7402 139.661 39.9729 140.188 40.4382C140.72 40.9035 141.032 41.4759 141.123 42.1552ZM155.935 44.3816H156.876C156.927 44.9866 157.209 45.4775 157.722 45.8544C158.235 46.2266 158.879 46.4127 159.653 46.4127C160.396 46.4127 161.005 46.2289 161.482 45.8614C161.963 45.4937 162.203 45.0261 162.203 44.4585C162.203 43.9885 162.036 43.607 161.702 43.3138C161.367 43.016 160.831 42.7717 160.093 42.581L158.863 42.2599C157.942 42.0226 157.269 41.6968 156.842 41.2827C156.421 40.8686 156.21 40.3312 156.21 39.6705C156.21 38.8608 156.531 38.1955 157.172 37.6743C157.814 37.1485 158.625 36.8857 159.605 36.8857C160.568 36.8857 161.367 37.1462 162.004 37.6673C162.646 38.1838 162.98 38.8423 163.008 39.6426H162.066C162.02 39.0749 161.771 38.6189 161.317 38.2746C160.863 37.9256 160.284 37.7511 159.578 37.7511C158.886 37.7511 158.313 37.9279 157.859 38.2816C157.41 38.6305 157.186 39.0819 157.186 39.6356C157.186 40.0683 157.348 40.4219 157.674 40.6965C157.999 40.9664 158.529 41.1967 159.262 41.3875L160.334 41.6666C161.333 41.9225 162.055 42.2599 162.499 42.6786C162.944 43.0974 163.166 43.6558 163.166 44.3537C163.166 45.2378 162.84 45.9474 162.19 46.4825C161.539 47.0129 160.666 47.2782 159.571 47.2782C158.535 47.2782 157.683 47.0129 157.014 46.4825C156.345 45.9474 155.985 45.2471 155.935 44.3816ZM172.781 40.5499C172.145 40.5499 171.62 40.7756 171.207 41.2269C170.8 41.6736 170.577 42.2575 170.541 42.9788H174.953C174.944 42.2575 174.741 41.6736 174.342 41.2269C173.943 40.7756 173.423 40.5499 172.781 40.5499ZM174.899 45.0587H175.799C175.689 45.6961 175.364 46.2196 174.823 46.6291C174.287 47.0339 173.629 47.2363 172.85 47.2363C171.847 47.2363 171.054 46.9036 170.472 46.2382C169.89 45.5682 169.599 44.6585 169.599 43.5092C169.599 42.3785 169.89 41.4689 170.472 40.7802C171.054 40.0869 171.828 39.7402 172.795 39.7402C173.739 39.7402 174.491 40.066 175.05 40.7174C175.609 41.3688 175.888 42.2366 175.888 43.3208V43.7116H170.534V43.7675C170.534 44.5864 170.745 45.2355 171.166 45.7148C171.588 46.1894 172.156 46.4267 172.871 46.4267C173.398 46.4267 173.842 46.301 174.204 46.0498C174.566 45.7985 174.798 45.4682 174.899 45.0587ZM182.665 47.1176V39.8589H183.525V41.1501H183.545C183.678 40.7081 183.903 40.3638 184.219 40.1172C184.535 39.8659 184.913 39.7402 185.353 39.7402C185.527 39.7402 185.715 39.7659 185.917 39.8171V40.7244C185.77 40.6546 185.543 40.6197 185.236 40.6197C184.732 40.6197 184.329 40.8011 184.026 41.1641C183.724 41.527 183.573 42.004 183.573 42.5949V47.1176H182.665ZM198.069 39.8589L195.415 47.1176H194.446L191.786 39.8589H192.749L194.921 46.1475H194.941L197.12 39.8589H198.069ZM204.584 47.1176V39.8589H205.492V47.1176H204.584ZM205.038 38.3932C204.873 38.3932 204.731 38.335 204.612 38.2187C204.493 38.0977 204.433 37.9511 204.433 37.779C204.433 37.6115 204.493 37.4696 204.612 37.3533C204.731 37.2323 204.873 37.1718 205.038 37.1718C205.208 37.1718 205.352 37.2323 205.471 37.3533C205.59 37.4696 205.65 37.6115 205.65 37.779C205.65 37.9511 205.59 38.0977 205.471 38.2187C205.352 38.335 205.208 38.3932 205.038 38.3932ZM218.496 42.1552H217.603C217.502 41.6853 217.27 41.3014 216.908 41.0036C216.551 40.7058 216.102 40.5569 215.561 40.5569C214.86 40.5569 214.299 40.8221 213.877 41.3526C213.46 41.883 213.251 42.5949 213.251 43.4883C213.251 44.391 213.463 45.1052 213.884 45.631C214.306 46.1568 214.867 46.4197 215.568 46.4197C216.1 46.4197 216.544 46.2801 216.902 46.0009C217.263 45.7218 217.497 45.3449 217.603 44.8702H218.503C218.402 45.5682 218.081 46.1382 217.541 46.5802C217.005 47.0176 216.345 47.2363 215.561 47.2363C214.58 47.2363 213.795 46.9013 213.203 46.2313C212.617 45.5566 212.324 44.6422 212.324 43.4883C212.324 42.3483 212.617 41.4386 213.203 40.7593C213.795 40.0799 214.578 39.7402 215.554 39.7402C216.366 39.7402 217.034 39.9729 217.561 40.4382C218.093 40.9035 218.405 41.4759 218.496 42.1552ZM228.022 40.5499C227.386 40.5499 226.861 40.7756 226.448 41.2269C226.041 41.6736 225.818 42.2575 225.782 42.9788H230.194C230.185 42.2575 229.982 41.6736 229.583 41.2269C229.184 40.7756 228.664 40.5499 228.022 40.5499ZM230.14 45.0587H231.04C230.93 45.6961 230.605 46.2196 230.064 46.6291C229.528 47.0339 228.87 47.2363 228.091 47.2363C227.087 47.2363 226.295 46.9036 225.713 46.2382C225.131 45.5682 224.84 44.6585 224.84 43.5092C224.84 42.3785 225.131 41.4689 225.713 40.7802C226.295 40.0869 227.069 39.7402 228.036 39.7402C228.98 39.7402 229.732 40.066 230.291 40.7174C230.85 41.3688 231.129 42.2366 231.129 43.3208V43.7116H225.775V43.7675C225.775 44.5864 225.986 45.2355 226.407 45.7148C226.829 46.1894 227.397 46.4267 228.112 46.4267C228.639 46.4267 229.083 46.301 229.445 46.0498C229.807 45.7985 230.039 45.4682 230.14 45.0587ZM237.762 41.7992C237.762 41.199 238 40.7058 238.477 40.3196C238.958 39.9334 239.576 39.7402 240.333 39.7402C241.061 39.7402 241.664 39.9404 242.14 40.3405C242.622 40.736 242.885 41.2525 242.931 41.89H242.058C242.003 41.4572 241.82 41.1176 241.508 40.871C241.201 40.6244 240.8 40.5011 240.305 40.5011C239.819 40.5011 239.423 40.6197 239.116 40.857C238.814 41.0897 238.662 41.3875 238.662 41.7504C238.662 42.0482 238.772 42.2924 238.992 42.4832C239.212 42.6694 239.561 42.8229 240.037 42.9439L241.096 43.2021C241.81 43.3836 242.317 43.6209 242.615 43.914C242.913 44.2072 243.062 44.6143 243.062 45.1355C243.062 45.7496 242.805 46.2545 242.292 46.65C241.779 47.0409 241.119 47.2363 240.312 47.2363C239.547 47.2363 238.91 47.0386 238.401 46.643C237.897 46.2475 237.615 45.7287 237.556 45.0866H238.463C238.527 45.5194 238.727 45.859 239.061 46.1056C239.4 46.3522 239.835 46.4755 240.367 46.4755C240.903 46.4755 241.334 46.3592 241.659 46.1265C241.985 45.8939 242.147 45.5868 242.147 45.2053C242.147 44.8888 242.047 44.6399 241.845 44.4585C241.648 44.2723 241.311 44.1211 240.834 44.0048L239.673 43.7116C239.027 43.5488 238.546 43.3114 238.229 42.9997C237.918 42.6833 237.762 42.2832 237.762 41.7992Z" fill="#7C4032"/>
<path id="Vector_2" d="M20.5135 21.7191C20.5216 21.7257 20.5282 21.734 20.5328 21.7434C20.5374 21.7528 20.54 21.7632 20.5405 21.7736L20.8741 25.3577C20.9226 25.9058 21.172 26.4156 21.573 26.7861C21.974 27.1566 22.4973 27.361 23.0396 27.3588H27.0155C27.5578 27.361 28.0811 27.1566 28.4821 26.7861C28.8831 26.4156 29.1325 25.9058 29.181 25.3577L29.5147 21.7726C29.5155 21.7618 29.5186 21.7513 29.5236 21.7417C29.5286 21.7321 29.5354 21.7237 29.5437 21.7169C30.6644 20.7742 31.4712 19.5036 31.8542 18.0783C32.2372 16.6531 32.1776 15.1427 31.6835 13.7531C31.1896 12.3635 30.2851 11.1624 29.0938 10.3137C27.9024 9.46503 26.482 9.01 25.0265 9.01074H25.0007C23.5471 9.01572 22.1304 9.47509 20.9433 10.3262C19.7561 11.1774 18.8561 12.3791 18.3658 13.7678C17.8755 15.1565 17.8186 16.6649 18.2029 18.0876C18.5872 19.5102 19.394 20.7782 20.5135 21.7191ZM19.4814 16.0006C19.5782 13.0109 22.057 10.5695 25.0071 10.5596H25.0265C26.168 10.5599 27.2816 10.9174 28.2157 11.5835C29.1497 12.2495 29.8586 13.1917 30.2457 14.2815C30.6329 15.3714 30.6795 16.5559 30.3792 17.6736C30.0788 18.7913 29.4462 19.7878 28.5675 20.5273C28.4048 20.6632 28.2702 20.8305 28.1716 21.0195C28.0729 21.2084 28.0121 21.4154 27.9927 21.6284L27.6613 25.2134C27.6467 25.3769 27.5723 25.5288 27.4528 25.6392C27.3332 25.7496 27.1772 25.8106 27.0155 25.8099H23.0396C22.8778 25.8105 22.7216 25.7495 22.602 25.6388C22.4824 25.5282 22.4081 25.376 22.3938 25.2124L22.0645 21.6284C22.0452 21.4155 21.9847 21.2086 21.8862 21.0196C21.7877 20.8306 21.6533 20.6633 21.4908 20.5273C20.8357 19.9802 20.3137 19.2872 19.9652 18.5021C19.6167 17.7171 19.4511 16.8611 19.4814 16.0006Z" fill="#7C4032"/>
<path id="Vector_3" d="M20.6036 15.7811C20.6283 15.7863 20.6536 15.7889 20.6789 15.7888C20.7669 15.7885 20.8522 15.7574 20.9203 15.7007C20.9884 15.6439 21.035 15.5651 21.0524 15.4775C21.2676 14.4015 21.9037 12.9945 23.7539 12.4003C23.804 12.387 23.851 12.3635 23.8919 12.3312C23.9328 12.299 23.9668 12.2586 23.9919 12.2125C24.0169 12.1665 24.0325 12.1158 24.0376 12.0634C24.0428 12.011 24.0373 11.9582 24.0217 11.9081C24.006 11.8579 23.9805 11.8115 23.9467 11.7717C23.9128 11.7319 23.8713 11.6995 23.8247 11.6764C23.7781 11.6534 23.7274 11.6402 23.6756 11.6377C23.6238 11.6353 23.5721 11.6435 23.5236 11.6619C21.8015 12.2146 20.6606 13.5189 20.3043 15.3256C20.2945 15.3754 20.2944 15.4268 20.3041 15.4767C20.3138 15.5266 20.3331 15.574 20.3609 15.6163C20.3886 15.6587 20.4244 15.695 20.466 15.7233C20.5077 15.7515 20.5544 15.7712 20.6036 15.7811Z" fill="#7C4032"/>
<path id="Vector_4" d="M50.048 22.6585L36.6621 0H13.3892L10.3325 5.17443V3.45399H4.90579V14.3567L0 22.6585H4.29445L6.9454 44.3251H22.2666C22.4638 44.3176 22.6505 44.2328 22.7875 44.0885C22.9245 43.9441 23.001 43.7515 23.001 43.5512C23.001 43.3508 22.9245 43.1582 22.7875 43.0139C22.6505 42.8696 22.4638 42.7848 22.2666 42.7773H8.29292L5.83139 22.6585H18.4317C18.5343 22.6624 18.6365 22.6453 18.7324 22.6082C18.8282 22.571 18.9158 22.5146 18.9897 22.4424C19.0636 22.3701 19.1224 22.2835 19.1625 22.1876C19.2027 22.0918 19.2234 21.9887 19.2234 21.8846C19.2234 21.7804 19.2027 21.6773 19.1625 21.5815C19.1224 21.4856 19.0636 21.399 18.9897 21.3267C18.9158 21.2545 18.8282 21.1981 18.7324 21.161C18.6365 21.1238 18.5343 21.1067 18.4317 21.1106H2.69076L14.2535 1.54785H35.7978L47.3573 21.1106H31.6185C31.4213 21.1181 31.2345 21.203 31.0975 21.3473C30.9606 21.4916 30.8841 21.6842 30.8841 21.8846C30.8841 22.0849 30.9606 22.2775 31.0975 22.4218C31.2345 22.5661 31.4213 22.6509 31.6185 22.6585H35.885V24.9163C35.7781 24.9826 35.6898 25.0756 35.6285 25.1864C35.5672 25.2973 35.5351 25.4222 35.5351 25.5494C35.5351 25.6765 35.5672 25.8014 35.6285 25.9123C35.6898 26.0231 35.7781 26.1161 35.885 26.1824V27.8417C35.7781 27.9079 35.6898 28.0009 35.6285 28.1118C35.5672 28.2226 35.5351 28.3476 35.5351 28.4747C35.5351 28.6018 35.5672 28.7267 35.6285 28.8376C35.6898 28.9484 35.7781 29.0414 35.885 29.1077V30.768C35.7485 30.8525 35.643 30.9799 35.5845 31.1309C35.5259 31.2818 35.5176 31.4481 35.5609 31.6043C35.6041 31.7605 35.6964 31.8981 35.8238 31.9961C35.9512 32.0941 36.1067 32.147 36.2665 32.147C36.4264 32.147 36.5819 32.0941 36.7093 31.9961C36.8366 31.8981 36.929 31.7605 36.9722 31.6043C37.0154 31.4481 37.0071 31.2818 36.9486 31.1309C36.8901 30.9799 36.7846 30.8525 36.6481 30.768V29.1077C36.7552 29.0416 36.8438 28.9487 36.9053 28.8379C36.9667 28.7269 36.999 28.6019 36.999 28.4747C36.999 28.3475 36.9667 28.2224 36.9053 28.1115C36.8438 28.0006 36.7552 27.9077 36.6481 27.8417V26.1824C36.7552 26.1164 36.8438 26.0234 36.9053 25.9125C36.9667 25.8017 36.999 25.6766 36.999 25.5494C36.999 25.4221 36.9667 25.2971 36.9053 25.1862C36.8438 25.0753 36.7552 24.9824 36.6481 24.9163V22.6585H44.2188L41.7605 42.7773H27.7847C27.6822 42.7733 27.5799 42.7904 27.484 42.8276C27.3882 42.8647 27.3006 42.9211 27.2267 42.9934C27.1528 43.0656 27.094 43.1522 27.0539 43.2481C27.0137 43.3439 26.993 43.447 26.993 43.5512C26.993 43.6553 27.0137 43.7584 27.0539 43.8542C27.094 43.9501 27.1528 44.0367 27.2267 44.109C27.3006 44.1813 27.3882 44.2376 27.484 44.2748C27.5799 44.3119 27.6822 44.329 27.7847 44.3251H43.1059L45.7557 22.6585H50.048ZM6.43091 5.00184H8.80631V7.75562L6.43091 11.7744V5.00184Z" fill="#7C4032"/>
<path id="Vector_5" d="M24.2623 34.2712V46.8331C24.2584 46.9372 24.2752 47.041 24.3118 47.1383C24.3484 47.2356 24.404 47.3245 24.4752 47.3995C24.5464 47.4745 24.6318 47.5342 24.7262 47.5749C24.8206 47.6157 24.9222 47.6367 25.0248 47.6367C25.1274 47.6367 25.229 47.6157 25.3235 47.5749C25.4179 47.5342 25.5032 47.4745 25.5744 47.3995C25.6456 47.3245 25.7012 47.2356 25.7378 47.1383C25.7743 47.041 25.7912 46.9372 25.7874 46.8331V34.2712C25.7912 34.1671 25.7743 34.0633 25.7378 33.966C25.7012 33.8687 25.6456 33.7799 25.5744 33.7049C25.5032 33.6299 25.4179 33.5702 25.3235 33.5294C25.229 33.4887 25.1274 33.4677 25.0248 33.4677C24.9222 33.4677 24.8206 33.4887 24.7262 33.5294C24.6318 33.5702 24.5464 33.6299 24.4752 33.7049C24.404 33.7799 24.3484 33.8687 24.3118 33.966C24.2752 34.0633 24.2584 34.1671 24.2623 34.2712Z" fill="#7C4032"/>
<path id="Vector_6" d="M22.2208 29.9203H27.8316C28.0289 29.9128 28.2156 29.828 28.3525 29.6837C28.4895 29.5394 28.566 29.3468 28.566 29.1464C28.566 28.9461 28.4895 28.7535 28.3525 28.6092C28.2156 28.4649 28.0289 28.38 27.8316 28.3725H22.2208C22.0235 28.38 21.8368 28.4649 21.6998 28.6092C21.5629 28.7535 21.4863 28.9461 21.4863 29.1464C21.4863 29.3468 21.5629 29.5394 21.6998 29.6837C21.8368 29.828 22.0235 29.9128 22.2208 29.9203Z" fill="#7C4032"/>
<path id="Vector_7" d="M23.2006 32.483H26.8471C26.9497 32.4869 27.0519 32.4698 27.1478 32.4327C27.2437 32.3956 27.3312 32.3392 27.4051 32.2669C27.479 32.1946 27.5378 32.108 27.578 32.0122C27.6182 31.9163 27.6389 31.8133 27.6389 31.7091C27.6389 31.6049 27.6182 31.5019 27.578 31.406C27.5378 31.3102 27.479 31.2235 27.4051 31.1513C27.3312 31.079 27.2437 31.0226 27.1478 30.9855C27.0519 30.9484 26.9497 30.9313 26.8471 30.9352H23.2006C22.9982 30.9352 22.8041 31.0168 22.661 31.162C22.5179 31.3072 22.4375 31.5042 22.4375 31.7097C22.4375 31.9151 22.5179 32.1121 22.661 32.2573C22.8041 32.4025 22.9982 32.4841 23.2006 32.4841V32.483Z" fill="#7C4032"/>
<path id="Vector_8" d="M33.088 17.7877C33.0498 17.9892 33.0919 18.1978 33.2051 18.3678C33.3183 18.5378 33.4933 18.6552 33.6918 18.6943L35.895 19.1313C36.0928 19.1684 36.2971 19.1247 36.4634 19.0096C36.6296 18.8947 36.7444 18.7176 36.7828 18.5172C36.821 18.3167 36.7798 18.109 36.6679 17.9392C36.5561 17.7695 36.3828 17.6514 36.1856 17.6107L33.9824 17.1738C33.7836 17.135 33.5778 17.1779 33.4101 17.293C33.2424 17.4081 33.1266 17.586 33.088 17.7877Z" fill="#7C4032"/>
<path id="Vector_9" d="M35.1362 11.1922L33.0568 12.0486C32.8887 12.1132 32.7484 12.2359 32.6609 12.3953C32.5734 12.5546 32.5442 12.7402 32.5784 12.9193C32.6127 13.0984 32.7082 13.2594 32.8481 13.3739C32.9881 13.4884 33.1633 13.549 33.3431 13.5451C33.4413 13.5455 33.5386 13.5262 33.6294 13.4883L35.7098 12.633C35.8965 12.5552 36.0452 12.4054 36.1234 12.2167C36.2016 12.0278 36.2029 11.8153 36.127 11.6255C36.0512 11.4357 35.9043 11.2841 35.7187 11.2039C35.533 11.1237 35.3235 11.1215 35.1362 11.1976V11.1922Z" fill="#7C4032"/>
<path id="Vector_10" d="M29.9618 9.3581C30.0882 9.35853 30.2128 9.32697 30.3242 9.2663C30.4356 9.20569 30.5304 9.11786 30.6 9.01076L31.8356 7.11006C31.9353 6.93938 31.9664 6.7364 31.9227 6.54301C31.8791 6.34961 31.7638 6.18073 31.6009 6.07114C31.4379 5.96161 31.2396 5.91979 31.0472 5.95436C30.8547 5.98893 30.6827 6.0973 30.5667 6.25697L29.33 8.15766C29.2747 8.24237 29.2363 8.3374 29.2172 8.43719C29.198 8.53699 29.1984 8.63964 29.2185 8.73927C29.2384 8.83891 29.2776 8.93357 29.3337 9.01785C29.3897 9.10208 29.4616 9.17429 29.5453 9.2303C29.6687 9.31358 29.8136 9.35805 29.9618 9.3581Z" fill="#7C4032"/>
<path id="Vector_11" d="M25.7874 7.08491V4.8063C25.7912 4.70222 25.7743 4.59842 25.7378 4.50111C25.7012 4.4038 25.6456 4.31498 25.5744 4.23997C25.5032 4.16495 25.4179 4.10527 25.3235 4.06451C25.229 4.02375 25.1274 4.00275 25.0248 4.00275C24.9222 4.00275 24.8206 4.02375 24.7262 4.06451C24.6318 4.10527 24.5464 4.16495 24.4752 4.23997C24.404 4.31498 24.3484 4.4038 24.3118 4.50111C24.2752 4.59842 24.2584 4.70222 24.2623 4.8063V7.08491C24.2697 7.28514 24.3532 7.47467 24.4954 7.61369C24.6376 7.75266 24.8274 7.83032 25.0248 7.83032C25.2223 7.83032 25.412 7.75266 25.5542 7.61369C25.6964 7.47467 25.78 7.28514 25.7874 7.08491Z" fill="#7C4032"/>
<path id="Vector_12" d="M20.088 9.35921C20.2257 9.35873 20.3608 9.32056 20.4788 9.24861C20.5968 9.17672 20.6936 9.0738 20.7588 8.95071C20.8239 8.82762 20.8551 8.68892 20.849 8.54931C20.8429 8.40971 20.7998 8.27439 20.7242 8.1576L19.4875 6.25802C19.3727 6.09501 19.2001 5.98346 19.006 5.94688C18.8119 5.9103 18.6114 5.95143 18.4466 6.06176C18.2818 6.17204 18.1654 6.34288 18.1221 6.53834C18.0788 6.73385 18.1118 6.93873 18.2142 7.11005L19.4509 9.01075C19.5202 9.11795 19.6148 9.20594 19.7261 9.26677C19.8373 9.3276 19.9617 9.35936 20.088 9.35921Z" fill="#7C4032"/>
<path id="Vector_13" d="M17.4132 13.0568C17.4509 12.9627 17.47 12.8619 17.4693 12.7602C17.4687 12.6585 17.4482 12.558 17.4093 12.4644C17.3703 12.3707 17.3135 12.2858 17.2421 12.2144C17.1708 12.1431 17.0862 12.0867 16.9934 12.0486L14.914 11.1922C14.7266 11.116 14.5173 11.1183 14.3315 11.1985C14.1458 11.2787 13.999 11.4302 13.9232 11.62C13.8473 11.8098 13.8486 12.0224 13.9268 12.2112C14.005 12.4 14.1537 12.5497 14.3404 12.6275L16.4197 13.4828C16.5106 13.5205 16.6079 13.5398 16.7061 13.5396C16.8579 13.5398 17.0063 13.494 17.1323 13.4079C17.2583 13.3219 17.3561 13.1996 17.4132 13.0568Z" fill="#7C4032"/>
<path id="Vector_14" d="M16.0689 17.1749L13.8657 17.6118C13.6795 17.6485 13.5135 17.7543 13.4 17.9084C13.2864 18.0625 13.2335 18.2541 13.2515 18.4457C13.2695 18.6373 13.3572 18.8152 13.4974 18.9447C13.6376 19.0743 13.8203 19.1463 14.0099 19.1466C14.0587 19.1468 14.1074 19.142 14.1552 19.1324L16.3584 18.6955C16.557 18.6565 16.7321 18.5391 16.8453 18.3691C16.9586 18.199 17.0006 17.9903 16.9622 17.7888C16.9238 17.5873 16.8082 17.4096 16.6406 17.2947C16.4731 17.1797 16.2674 17.1371 16.0689 17.176V17.1749Z" fill="#7C4032"/>
<path id="Vector_15" d="M27.3141 45.6665C27.1616 45.8014 27.0681 45.9922 27.0542 46.1971C27.0402 46.4019 27.107 46.604 27.2398 46.7588L32.1209 52.4511H17.932L22.8184 46.7588C22.8841 46.6822 22.9343 46.5931 22.9661 46.4968C22.9979 46.4003 23.0107 46.2986 23.0038 46.1972C22.9968 46.0958 22.9703 45.9968 22.9257 45.9059C22.881 45.8149 22.8191 45.7338 22.7436 45.6671C22.668 45.6004 22.5803 45.5494 22.4853 45.5171C22.3904 45.4848 22.2901 45.4718 22.1902 45.4789C22.0903 45.4859 21.9928 45.5129 21.9031 45.5582C21.8135 45.6035 21.7335 45.6663 21.6678 45.743L14.5879 54H35.4692L28.3904 45.743C28.3247 45.6661 28.2448 45.6032 28.1551 45.5577C28.0655 45.5123 27.9679 45.4852 27.8679 45.4781C27.7679 45.471 27.6675 45.484 27.5725 45.5163C27.4775 45.5486 27.3897 45.5997 27.3141 45.6665Z" fill="#7C4032"/>
<path id="Vector_16" d="M37.0237 35.8594V33.5491C37.0276 33.4451 37.0107 33.3412 36.9741 33.2439C36.9375 33.1466 36.882 33.0579 36.8108 32.9828C36.7396 32.9078 36.6542 32.8481 36.5598 32.8074C36.4654 32.7666 36.3638 32.7456 36.2611 32.7456C36.1585 32.7456 36.057 32.7666 35.9625 32.8074C35.8681 32.8481 35.7827 32.9078 35.7115 32.9828C35.6403 33.0579 35.5848 33.1466 35.5482 33.2439C35.5116 33.3412 35.4947 33.4451 35.4986 33.5491V35.8594C35.4947 35.9635 35.5116 36.0673 35.5482 36.1647C35.5848 36.262 35.6403 36.3508 35.7115 36.4258C35.7827 36.5008 35.8681 36.5605 35.9625 36.6013C36.057 36.642 36.1585 36.663 36.2611 36.663C36.3638 36.663 36.4654 36.642 36.5598 36.6013C36.6542 36.5605 36.7396 36.5008 36.8108 36.4258C36.882 36.3508 36.9375 36.262 36.9741 36.1647C37.0107 36.0673 37.0276 35.9635 37.0237 35.8594Z" fill="#7C4032"/>
<path id="Vector_17" d="M20.6037 16.3786C20.5027 16.3789 20.406 16.4197 20.3345 16.4922C20.2632 16.5647 20.2229 16.6628 20.2227 16.7653V16.7773C20.2278 16.8765 20.2703 16.9698 20.3413 17.0381C20.4123 17.1065 20.5064 17.1445 20.6042 17.1445C20.702 17.1445 20.7961 17.1065 20.8671 17.0381C20.9381 16.9698 20.9806 16.8765 20.9857 16.7773V16.7653C20.9855 16.6626 20.9451 16.5643 20.8735 16.4918C20.8018 16.4193 20.7048 16.3786 20.6037 16.3786Z" fill="#7C4032"/>
</g>
<defs>
<clipPath id="clip0_37_58">
<rect width="244" height="54" fill="white"/>
</clipPath>
</defs>
</svg>
