<svg width="244" height="43" viewBox="0 0 244 43" fill="none" xmlns="http://www.w3.org/2000/svg">
<g id="5 1" clip-path="url(#clip0_37_80)">
<path id="Vector" d="M58.5576 22.4084C57.9262 22.4084 57.48 22.28 57.2187 22.0232C56.9792 21.7665 56.8595 21.3599 56.8595 20.8035V2.21842C56.8595 1.66204 56.9901 1.25546 57.2514 0.998672C57.5126 0.720486 57.9481 0.58139 58.5576 0.58139H66.5911C69.6171 0.58139 71.8489 1.20197 73.2857 2.44311C74.7226 3.68425 75.4411 5.53527 75.4411 7.99616C75.4411 11.0562 74.2439 13.164 71.8489 14.3196L75.0818 21.2208C75.1687 21.392 75.2125 21.5631 75.2125 21.7344C75.2125 21.927 75.1361 22.0874 74.9839 22.2158C74.8533 22.3442 74.6684 22.4084 74.4287 22.4084H69.8568C69.5302 22.4084 69.269 22.3656 69.073 22.28C68.8987 22.1945 68.768 22.034 68.6812 21.7986L65.9707 15.2825H63.4561V20.8035C63.4561 21.3599 63.3255 21.7665 63.0642 22.0232C62.803 22.28 62.3569 22.4084 61.7253 22.4084H58.5576ZM65.8727 10.6924C67.8537 10.6924 68.8444 9.79368 68.8444 7.99616C68.8444 6.17726 67.9085 5.26778 66.036 5.26778H63.4561V10.6924H65.8727ZM84.9065 22.8899C81.9237 22.8899 79.6051 22.1624 77.9507 20.7072C76.2957 19.2307 75.4688 17.2298 75.4688 14.7048C75.4688 12.1797 76.2957 10.1896 77.9507 8.73443C79.6051 7.2579 81.9237 6.51963 84.9065 6.51963C87.8888 6.51963 90.2074 7.2579 91.8624 8.73443C93.5384 10.1896 94.3769 12.1797 94.3769 14.7048C94.3769 17.2298 93.5384 19.2307 91.8624 20.7072C90.2074 22.1624 87.8888 22.8899 84.9065 22.8899ZM84.9065 18.2998C86.8222 18.2998 87.7803 17.1014 87.7803 14.7048C87.7803 12.3509 86.8222 11.1739 84.9065 11.1739C82.9903 11.1739 82.0328 12.3509 82.0328 14.7048C82.0328 15.9031 82.2829 16.8019 82.7839 17.4011C83.2842 18.0002 83.9922 18.2998 84.9065 18.2998ZM102.378 22.8899C100.484 22.8899 99.0031 22.4084 97.9365 21.4455C96.8915 20.4611 96.369 18.9632 96.369 16.9517V8.63814C96.369 8.08174 96.4996 7.67518 96.7609 7.41839C97.0221 7.14022 97.4571 7.00111 98.0671 7.00111H101.235C101.866 7.00111 102.312 7.14022 102.574 7.41839C102.835 7.67518 102.966 8.08174 102.966 8.63814V16.6949C102.966 17.9146 103.564 18.5245 104.762 18.5245C105.415 18.5245 105.915 18.3533 106.264 18.0109C106.612 17.6686 106.786 17.1871 106.786 16.5665V8.63814C106.786 8.08174 106.917 7.67518 107.178 7.41839C107.44 7.14022 107.886 7.00111 108.517 7.00111H111.685C112.316 7.00111 112.763 7.14022 113.024 7.41839C113.285 7.67518 113.416 8.08174 113.416 8.63814V21.4134C113.416 21.8199 113.339 22.0874 113.187 22.2158C113.057 22.3442 112.763 22.4084 112.305 22.4084H108.942C108.681 22.4084 108.473 22.3763 108.321 22.3121C108.191 22.2479 108.114 22.1195 108.093 21.927L107.929 20.9319C107.298 21.531 106.514 22.0125 105.578 22.3763C104.642 22.7187 103.575 22.8899 102.378 22.8899ZM117.94 22.4084C117.309 22.4084 116.862 22.28 116.601 22.0232C116.339 21.7665 116.209 21.3599 116.209 20.8035V7.99616C116.209 7.61098 116.274 7.35419 116.405 7.2258C116.558 7.07602 116.862 7.00111 117.319 7.00111H120.683C120.944 7.00111 121.14 7.04393 121.271 7.1295C121.423 7.1937 121.51 7.32209 121.532 7.51469L121.695 8.47764C122.305 7.87849 123.099 7.40767 124.079 7.06531C125.081 6.7015 126.191 6.51963 127.41 6.51963C129.173 6.51963 130.6 7.01183 131.688 7.99616C132.777 8.95912 133.321 10.3928 133.321 12.2974V20.8035C133.321 21.3599 133.19 21.7665 132.929 22.0232C132.69 22.28 132.254 22.4084 131.623 22.4084H128.455C127.824 22.4084 127.367 22.28 127.083 22.0232C126.822 21.7665 126.692 21.3599 126.692 20.8035V12.7147C126.692 12.0727 126.55 11.6126 126.267 11.3344C125.984 11.0563 125.538 10.9171 124.928 10.9171C124.275 10.9171 123.752 11.0883 123.361 11.4307C122.991 11.7731 122.805 12.2439 122.805 12.8431V20.8035C122.805 21.3599 122.675 21.7665 122.414 22.0232C122.174 22.28 121.739 22.4084 121.107 22.4084H117.94ZM145.093 22.8899C141.849 22.8899 139.41 22.1945 137.778 20.8035C136.145 19.4125 135.328 17.3476 135.328 14.6085C135.328 12.1476 136.025 10.1896 137.418 8.73443C138.811 7.2579 140.782 6.51963 143.329 6.51963C144.048 6.51963 144.744 6.60521 145.419 6.77642C146.094 6.92619 146.627 7.1295 147.019 7.38629V2.21842C147.019 1.66204 147.15 1.25546 147.411 0.998672C147.672 0.720486 148.119 0.58139 148.75 0.58139H151.787C152.419 0.58139 152.865 0.720486 153.126 0.998672C153.387 1.25546 153.518 1.66204 153.518 2.21842V20.6109C152.582 21.2743 151.363 21.8199 149.86 22.2479C148.358 22.6759 146.769 22.8899 145.093 22.8899ZM145.289 18.5245C146.029 18.5245 146.616 18.4068 147.052 18.1714V13.0035C147.052 11.5912 146.279 10.885 144.733 10.885C143.775 10.885 143.057 11.2274 142.578 11.9122C142.121 12.5755 141.892 13.485 141.892 14.6406C141.892 16.0315 142.175 17.0266 142.741 17.6257C143.308 18.2249 144.157 18.5245 145.289 18.5245ZM168.806 22.4084C168.174 22.4084 167.728 22.28 167.467 22.0232C167.227 21.7665 167.107 21.3599 167.107 20.8035V2.21842C167.107 1.66204 167.238 1.25546 167.499 0.998672C167.761 0.720486 168.196 0.58139 168.806 0.58139H176.839C179.865 0.58139 182.097 1.20197 183.534 2.44311C184.971 3.68425 185.689 5.53527 185.689 7.99616C185.689 11.0562 184.491 13.164 182.097 14.3196L185.33 21.2208C185.417 21.392 185.46 21.5631 185.46 21.7344C185.46 21.927 185.384 22.0874 185.232 22.2158C185.101 22.3442 184.916 22.4084 184.677 22.4084H180.105C179.778 22.4084 179.517 22.3656 179.321 22.28C179.147 22.1945 179.016 22.034 178.929 21.7986L176.219 15.2825H173.704V20.8035C173.704 21.3599 173.573 21.7665 173.312 22.0232C173.051 22.28 172.604 22.4084 171.973 22.4084H168.806ZM176.121 10.6924C178.102 10.6924 179.092 9.79368 179.092 7.99616C179.092 6.17726 178.156 5.26778 176.284 5.26778H173.704V10.6924H176.121ZM195.154 22.8899C192.172 22.8899 189.853 22.1624 188.198 20.7072C186.544 19.2307 185.716 17.2298 185.716 14.7048C185.716 12.1797 186.544 10.1896 188.198 8.73443C189.853 7.2579 192.172 6.51963 195.154 6.51963C198.137 6.51963 200.455 7.2579 202.11 8.73443C203.786 10.1896 204.624 12.1797 204.624 14.7048C204.624 17.2298 203.786 19.2307 202.11 20.7072C200.455 22.1624 198.137 22.8899 195.154 22.8899ZM195.154 18.2998C197.07 18.2998 198.028 17.1014 198.028 14.7048C198.028 12.3509 197.07 11.1739 195.154 11.1739C193.238 11.1739 192.28 12.3509 192.28 14.7048C192.28 15.9031 192.531 16.8019 193.031 17.4011C193.532 18.0002 194.24 18.2998 195.154 18.2998ZM214.833 22.8899C211.785 22.8899 209.434 22.1945 207.78 20.8035C206.125 19.4125 205.298 17.3903 205.298 14.7369C205.298 13.1106 205.679 11.6768 206.441 10.4357C207.202 9.19453 208.302 8.23157 209.739 7.54678C211.197 6.86199 212.917 6.51963 214.899 6.51963C216.401 6.51963 217.663 6.65874 218.687 6.93691C219.732 7.21508 220.657 7.64308 221.463 8.22085C221.702 8.37063 221.822 8.56322 221.822 8.79863C221.822 8.96984 221.734 9.19453 221.561 9.4727L220.222 11.7517C220.069 12.0513 219.884 12.2011 219.667 12.2011C219.536 12.2011 219.329 12.1155 219.046 11.9443C218.458 11.5805 217.903 11.313 217.381 11.1418C216.88 10.9706 216.248 10.885 215.487 10.885C214.398 10.885 213.516 11.2274 212.841 11.9122C212.188 12.597 211.862 13.5385 211.862 14.7369C211.862 15.9566 212.199 16.8982 212.874 17.5615C213.549 18.2035 214.474 18.5245 215.65 18.5245C216.346 18.5245 216.978 18.4282 217.544 18.2356C218.11 18.043 218.687 17.7755 219.275 17.4331C219.579 17.2619 219.797 17.1764 219.928 17.1764C220.124 17.1764 220.298 17.3261 220.45 17.6257L221.92 20.0973C222.028 20.3113 222.083 20.4825 222.083 20.6109C222.083 20.8035 221.953 20.9854 221.691 21.1566C220.777 21.7344 219.775 22.1624 218.687 22.4405C217.62 22.7401 216.336 22.8899 214.833 22.8899ZM241.956 21.1887C242.108 21.3599 242.185 21.5525 242.185 21.7665C242.185 21.959 242.12 22.1195 241.989 22.2479C241.858 22.355 241.684 22.4084 241.466 22.4084H236.405C236.1 22.4084 235.871 22.3871 235.719 22.3442C235.588 22.28 235.447 22.1624 235.294 21.9911L230.853 16.0529V20.8035C230.853 21.3599 230.722 21.7665 230.461 22.0232C230.2 22.28 229.753 22.4084 229.122 22.4084H225.955C225.323 22.4084 224.877 22.28 224.616 22.0232C224.376 21.7665 224.256 21.3599 224.256 20.8035V2.21842C224.256 1.66204 224.387 1.25546 224.648 0.998672C224.91 0.720486 225.345 0.58139 225.955 0.58139H229.122C229.753 0.58139 230.2 0.720486 230.461 0.998672C230.722 1.25546 230.853 1.66204 230.853 2.21842V12.9714L235.164 7.45049C235.294 7.27928 235.435 7.1616 235.588 7.0974C235.74 7.03321 235.969 7.00111 236.274 7.00111H241.336C241.553 7.00111 241.717 7.06531 241.826 7.1937C241.956 7.30071 242.022 7.45049 242.022 7.64308C242.022 7.85705 241.945 8.04964 241.793 8.22085L236.209 14.5122L241.956 21.1887ZM62.0599 40.2171C60.0857 40.2171 58.5552 39.7265 57.4683 38.7454C56.3813 37.7534 55.8379 36.3089 55.8379 34.4121C55.8379 32.5043 56.3647 31.0599 57.4183 30.0788C58.4831 29.0977 59.997 28.6071 61.9601 28.6071C62.8141 28.6071 63.5849 28.6943 64.2725 28.8687C64.9602 29.0322 65.5369 29.2666 66.0027 29.5719C66.1247 29.6482 66.1857 29.7463 66.1857 29.8662C66.1857 29.9425 66.1469 30.057 66.0693 30.2096L65.3539 31.4033C65.2873 31.545 65.1986 31.6159 65.0877 31.6159C65.0212 31.6159 64.9103 31.5777 64.755 31.5014C64.0895 31.1417 63.3076 30.9618 62.4093 30.9618C61.3778 30.9618 60.5793 31.2561 60.0136 31.8448C59.4591 32.4226 59.1818 33.2783 59.1818 34.4121C59.1818 35.5458 59.4813 36.407 60.0802 36.9957C60.6791 37.5844 61.4943 37.8787 62.5257 37.8787C63.4352 37.8787 64.2393 37.6989 64.938 37.3391C65.0933 37.2628 65.2042 37.2247 65.2707 37.2247C65.3705 37.2247 65.4593 37.2901 65.5369 37.4209L66.2855 38.68C66.3521 38.789 66.3853 38.8871 66.3853 38.9743C66.3853 39.0724 66.3188 39.1706 66.1857 39.2687C65.2541 39.9009 63.8788 40.2171 62.0599 40.2171ZM70.8223 39.9718C70.5007 39.9718 70.2733 39.9064 70.1402 39.7756C70.0182 39.6448 69.9572 39.4376 69.9572 39.1542V29.6863C69.9572 29.4029 70.0238 29.1958 70.1569 29.065C70.29 28.9232 70.5118 28.8524 70.8223 28.8524H72.4361C72.7577 28.8524 72.9851 28.9232 73.1181 29.065C73.2512 29.1958 73.3178 29.4029 73.3178 29.6863V39.1542C73.3178 39.4376 73.2512 39.6448 73.1181 39.7756C72.9851 39.9064 72.7577 39.9718 72.4361 39.9718H70.8223ZM81.7543 40.2171C80.8226 40.2171 79.9908 40.0645 79.2588 39.7592C78.5379 39.454 77.9667 38.9961 77.5453 38.3857C77.1238 37.7752 76.9131 37.0284 76.9131 36.1454C76.9131 34.7609 77.3124 33.7035 78.1109 32.9731C78.9094 32.2427 80.0574 31.8775 81.5546 31.8775C83.0186 31.8775 84.1277 32.2373 84.8819 32.9568C85.6472 33.6653 86.0298 34.6519 86.0298 35.9165C86.0298 36.4616 85.7858 36.7341 85.2978 36.7341H80.074C80.074 37.2029 80.2514 37.5626 80.6064 37.8133C80.9724 38.0641 81.5214 38.1894 82.2534 38.1894C82.7081 38.1894 83.0852 38.1513 83.3846 38.075C83.6952 37.9878 84.0057 37.8624 84.3163 37.6989C84.4494 37.6444 84.5381 37.6171 84.5824 37.6171C84.6823 37.6171 84.7654 37.6825 84.832 37.8133L85.3976 38.8599C85.4531 38.9689 85.4808 39.0506 85.4808 39.1051C85.4808 39.2033 85.4143 39.2959 85.2812 39.3831C84.8265 39.6775 84.3107 39.89 83.734 40.0209C83.1573 40.1517 82.4974 40.2171 81.7543 40.2171ZM83.0353 35.1152C83.0353 34.701 82.9133 34.3794 82.6693 34.1505C82.4253 33.9215 82.0593 33.8071 81.5713 33.8071C81.0833 33.8071 80.7117 33.927 80.4566 34.1668C80.2015 34.3957 80.074 34.7119 80.074 35.1152H83.0353ZM92.7299 40.2171C91.6874 40.2171 90.85 39.89 90.2179 39.236C89.5968 38.571 89.2862 37.6389 89.2862 36.4398C89.2862 35.524 89.497 34.7228 89.9184 34.036C90.351 33.3492 90.9554 32.8205 91.7318 32.4498C92.5192 32.0683 93.4231 31.8775 94.4435 31.8775C95.2864 31.8775 96.0295 31.9702 96.6728 32.1555C97.3271 32.3299 97.926 32.5861 98.4695 32.924V39.4649C98.4695 39.672 98.4307 39.8083 98.353 39.8737C98.2754 39.9391 98.1201 39.9718 97.8872 39.9718H96.1903C96.0683 39.9718 95.974 39.9555 95.9075 39.9228C95.8409 39.8791 95.7855 39.8137 95.7411 39.7265L95.5249 39.236C95.2032 39.5739 94.815 39.8192 94.3603 39.9718C93.9167 40.1353 93.3732 40.2171 92.7299 40.2171ZM93.9777 37.9932C94.4102 37.9932 94.7485 37.8896 94.9925 37.6825C95.2365 37.4754 95.3585 37.181 95.3585 36.7995V34.2486C95.1478 34.1505 94.8816 34.1014 94.5599 34.1014C93.9721 34.1014 93.5008 34.3031 93.1459 34.7064C92.802 35.1098 92.6301 35.6767 92.6301 36.407C92.6301 37.4645 93.0793 37.9932 93.9777 37.9932ZM103.28 39.9718C102.958 39.9718 102.731 39.9064 102.598 39.7756C102.465 39.6448 102.398 39.4376 102.398 39.1542V32.6297C102.398 32.4335 102.431 32.3027 102.498 32.2373C102.576 32.161 102.731 32.1228 102.964 32.1228H104.677C104.81 32.1228 104.91 32.1446 104.977 32.1882C105.054 32.2209 105.099 32.2863 105.11 32.3844L105.193 32.875C105.504 32.5698 105.908 32.3299 106.408 32.1555C106.918 31.9702 107.483 31.8775 108.104 31.8775C109.003 31.8775 109.729 32.1282 110.284 32.6297C110.838 33.1203 111.116 33.8507 111.116 34.8209V39.1542C111.116 39.4376 111.049 39.6448 110.916 39.7756C110.794 39.9064 110.572 39.9718 110.251 39.9718H108.637C108.315 39.9718 108.082 39.9064 107.938 39.7756C107.805 39.6448 107.738 39.4376 107.738 39.1542V35.0335C107.738 34.7064 107.666 34.472 107.522 34.3303C107.378 34.1886 107.151 34.1178 106.84 34.1178C106.507 34.1178 106.241 34.205 106.042 34.3794C105.853 34.5538 105.759 34.7936 105.759 35.0989V39.1542C105.759 39.4376 105.692 39.6448 105.559 39.7756C105.437 39.9064 105.215 39.9718 104.894 39.9718H103.28ZM116.131 31.2888C115.754 31.2888 115.466 31.1907 115.266 30.9945C115.066 30.7874 114.967 30.5475 114.967 30.275V29.8826C114.967 29.5991 115.066 29.3593 115.266 29.1631C115.466 28.9559 115.754 28.8524 116.131 28.8524H117.329C117.717 28.8524 118.011 28.9559 118.211 29.1631C118.41 29.3593 118.51 29.5991 118.51 29.8826V30.275C118.51 30.5475 118.41 30.7874 118.211 30.9945C118.011 31.1907 117.717 31.2888 117.329 31.2888H116.131ZM115.932 39.9718C115.61 39.9718 115.383 39.9064 115.249 39.7756C115.116 39.6448 115.05 39.4376 115.05 39.1542V32.9568C115.05 32.6733 115.116 32.4662 115.249 32.3354C115.383 32.1937 115.61 32.1228 115.932 32.1228H117.529C117.85 32.1228 118.078 32.1937 118.211 32.3354C118.355 32.4662 118.427 32.6733 118.427 32.9568V39.1542C118.427 39.4376 118.355 39.6448 118.211 39.7756C118.078 39.9064 117.85 39.9718 117.529 39.9718H115.932ZM123.315 39.9718C122.993 39.9718 122.766 39.9064 122.633 39.7756C122.5 39.6448 122.433 39.4376 122.433 39.1542V32.6297C122.433 32.4335 122.467 32.3027 122.533 32.2373C122.611 32.161 122.766 32.1228 122.999 32.1228H124.712C124.846 32.1228 124.945 32.1446 125.012 32.1882C125.09 32.2209 125.134 32.2863 125.145 32.3844L125.228 32.875C125.539 32.5698 125.944 32.3299 126.443 32.1555C126.953 31.9702 127.518 31.8775 128.14 31.8775C129.038 31.8775 129.764 32.1282 130.319 32.6297C130.873 33.1203 131.151 33.8507 131.151 34.8209V39.1542C131.151 39.4376 131.084 39.6448 130.951 39.7756C130.829 39.9064 130.607 39.9718 130.286 39.9718H128.672C128.35 39.9718 128.117 39.9064 127.973 39.7756C127.84 39.6448 127.774 39.4376 127.774 39.1542V35.0335C127.774 34.7064 127.701 34.472 127.557 34.3303C127.413 34.1886 127.186 34.1178 126.875 34.1178C126.542 34.1178 126.276 34.205 126.077 34.3794C125.888 34.5538 125.794 34.7936 125.794 35.0989V39.1542C125.794 39.4376 125.727 39.6448 125.594 39.7756C125.472 39.9064 125.25 39.9718 124.929 39.9718H123.315ZM139.377 42.7517C138.712 42.7517 138.03 42.6754 137.331 42.5227C136.643 42.381 136.133 42.1957 135.8 41.9668C135.723 41.9014 135.684 41.8305 135.684 41.7542C135.684 41.6997 135.7 41.6452 135.734 41.5907L136.449 40.2989C136.482 40.2443 136.516 40.1953 136.549 40.1517C136.593 40.119 136.638 40.1026 136.682 40.1026C136.704 40.1026 136.771 40.1244 136.882 40.168C137.403 40.4297 138.124 40.5605 139.044 40.5605C139.566 40.5605 139.959 40.4515 140.226 40.2334C140.492 40.0154 140.625 39.6611 140.625 39.1706C140.403 39.3232 140.126 39.4485 139.793 39.5467C139.46 39.6339 139.105 39.6775 138.728 39.6775C137.408 39.6775 136.399 39.3559 135.7 38.7127C135.013 38.0695 134.669 37.1374 134.669 35.9165C134.669 34.5865 135.09 33.5836 135.933 32.9077C136.776 32.2209 138.024 31.8775 139.677 31.8775C140.508 31.8775 141.301 31.992 142.056 32.2209C142.81 32.4498 143.436 32.7387 143.935 33.0876V38.3039C143.935 39.6339 143.547 40.7077 142.771 41.5253C141.995 42.3429 140.863 42.7517 139.377 42.7517ZM139.46 37.3718C140.259 37.3718 140.658 36.9957 140.658 36.2435V34.2649C140.425 34.1668 140.037 34.1178 139.494 34.1178C139.006 34.1178 138.634 34.2377 138.379 34.4775C138.135 34.7173 138.013 35.1479 138.013 35.7693C138.013 36.3253 138.129 36.7341 138.362 36.9957C138.595 37.2465 138.961 37.3718 139.46 37.3718ZM160.457 40.2171C159.526 40.2171 158.644 40.1244 157.812 39.9391C156.98 39.7429 156.309 39.4703 155.799 39.1215C155.61 39.0016 155.516 38.8762 155.516 38.7454C155.516 38.6582 155.549 38.5655 155.616 38.4674L156.431 37.192C156.52 37.0611 156.609 36.9957 156.697 36.9957C156.753 36.9957 156.847 37.0339 156.98 37.1102C157.391 37.3391 157.856 37.5244 158.378 37.6662C158.899 37.8079 159.415 37.8787 159.925 37.8787C160.446 37.8787 160.829 37.8024 161.073 37.6498C161.328 37.4972 161.455 37.2519 161.455 36.914C161.455 36.5869 161.317 36.3307 161.039 36.1454C160.773 35.9601 160.269 35.7257 159.526 35.4423C158.405 35.028 157.529 34.5647 156.897 34.0523C156.276 33.5291 155.965 32.8205 155.965 31.9266C155.965 30.8473 156.359 30.0243 157.147 29.4574C157.934 28.8905 158.982 28.6071 160.291 28.6071C161.2 28.6071 161.977 28.6889 162.62 28.8524C163.274 29.005 163.829 29.2448 164.284 29.5719C164.472 29.7136 164.566 29.8444 164.566 29.9643C164.566 30.0406 164.533 30.1278 164.467 30.226L163.651 31.5014C163.552 31.6322 163.463 31.6976 163.385 31.6976C163.33 31.6976 163.235 31.6595 163.102 31.5832C162.459 31.1689 161.694 30.9618 160.807 30.9618C160.33 30.9618 159.964 31.0381 159.709 31.1907C159.453 31.3433 159.326 31.5941 159.326 31.9429C159.326 32.1828 159.392 32.379 159.526 32.5316C159.659 32.6842 159.836 32.8205 160.058 32.9404C160.291 33.0494 160.646 33.1911 161.123 33.3656L161.439 33.48C162.259 33.7962 162.903 34.1014 163.369 34.3957C163.845 34.6792 164.206 35.0335 164.45 35.4586C164.694 35.8729 164.816 36.3961 164.816 37.0284C164.816 37.9987 164.444 38.7727 163.701 39.3504C162.969 39.9282 161.888 40.2171 160.457 40.2171ZM172.926 40.2171C171.994 40.2171 171.162 40.0645 170.43 39.7592C169.709 39.454 169.138 38.9961 168.717 38.3857C168.295 37.7752 168.085 37.0284 168.085 36.1454C168.085 34.7609 168.484 33.7035 169.282 32.9731C170.081 32.2427 171.229 31.8775 172.726 31.8775C174.19 31.8775 175.299 32.2373 176.053 32.9568C176.819 33.6653 177.201 34.6519 177.201 35.9165C177.201 36.4616 176.957 36.7341 176.469 36.7341H171.246C171.246 37.2029 171.423 37.5626 171.778 37.8133C172.144 38.0641 172.693 38.1894 173.425 38.1894C173.88 38.1894 174.257 38.1513 174.556 38.075C174.867 37.9878 175.177 37.8624 175.488 37.6989C175.621 37.6444 175.71 37.6171 175.754 37.6171C175.854 37.6171 175.937 37.6825 176.004 37.8133L176.569 38.8599C176.625 38.9689 176.652 39.0506 176.652 39.1051C176.652 39.2033 176.586 39.2959 176.453 39.3831C175.998 39.6775 175.482 39.89 174.906 40.0209C174.329 40.1517 173.669 40.2171 172.926 40.2171ZM174.207 35.1152C174.207 34.701 174.085 34.3794 173.841 34.1505C173.597 33.9215 173.231 33.8071 172.743 33.8071C172.255 33.8071 171.883 33.927 171.628 34.1668C171.373 34.3957 171.246 34.7119 171.246 35.1152H174.207ZM181.672 39.9718C181.351 39.9718 181.123 39.9064 180.99 39.7756C180.857 39.6448 180.791 39.4376 180.791 39.1542V32.6297C180.791 32.4335 180.824 32.3027 180.89 32.2373C180.968 32.161 181.123 32.1228 181.356 32.1228H183.07C183.203 32.1228 183.303 32.1446 183.369 32.1882C183.447 32.2209 183.491 32.2863 183.502 32.3844L183.585 32.8586C184.251 32.2046 185.055 31.8775 185.998 31.8775C186.364 31.8775 186.663 31.9102 186.896 31.9756C187.129 32.0301 187.34 32.1228 187.528 32.2536C187.639 32.3299 187.695 32.4171 187.695 32.5152C187.695 32.548 187.684 32.6079 187.661 32.6951L187.129 34.1832C187.085 34.3358 187.001 34.4121 186.879 34.4121C186.824 34.4121 186.757 34.3903 186.68 34.3467C186.38 34.1832 186.02 34.1014 185.598 34.1014C185.177 34.1014 184.828 34.2159 184.55 34.4448C184.284 34.6737 184.151 34.979 184.151 35.3605V39.1542C184.151 39.4376 184.085 39.6448 183.951 39.7756C183.829 39.9064 183.608 39.9718 183.286 39.9718H181.672ZM194.697 39.9718C194.487 39.9718 194.326 39.9337 194.215 39.8573C194.115 39.781 194.015 39.6393 193.915 39.4322L190.705 32.7442C190.649 32.6352 190.621 32.5371 190.621 32.4498C190.621 32.3517 190.649 32.2754 190.705 32.2209C190.771 32.1555 190.86 32.1228 190.971 32.1228H193.4C193.566 32.1228 193.694 32.1555 193.782 32.2209C193.871 32.2863 193.943 32.3899 193.999 32.5316L195.429 36.2599L196.86 32.5316C196.915 32.3899 196.988 32.2863 197.076 32.2209C197.165 32.1555 197.293 32.1228 197.459 32.1228H199.904C200.015 32.1228 200.099 32.1555 200.154 32.2209C200.221 32.2754 200.254 32.3517 200.254 32.4498C200.254 32.5371 200.226 32.6352 200.171 32.7442L196.96 39.4322C196.86 39.6393 196.755 39.781 196.644 39.8573C196.544 39.9337 196.389 39.9718 196.178 39.9718H194.697ZM205.012 31.2888C204.635 31.2888 204.346 31.1907 204.147 30.9945C203.947 30.7874 203.847 30.5475 203.847 30.275V29.8826C203.847 29.5991 203.947 29.3593 204.147 29.1631C204.346 28.9559 204.635 28.8524 205.012 28.8524H206.21C206.598 28.8524 206.892 28.9559 207.091 29.1631C207.291 29.3593 207.391 29.5991 207.391 29.8826V30.275C207.391 30.5475 207.291 30.7874 207.091 30.9945C206.892 31.1907 206.598 31.2888 206.21 31.2888H205.012ZM204.812 39.9718C204.491 39.9718 204.263 39.9064 204.13 39.7756C203.997 39.6448 203.93 39.4376 203.93 39.1542V32.9568C203.93 32.6733 203.997 32.4662 204.13 32.3354C204.263 32.1937 204.491 32.1228 204.812 32.1228H206.409C206.731 32.1228 206.958 32.1937 207.091 32.3354C207.236 32.4662 207.308 32.6733 207.308 32.9568V39.1542C207.308 39.4376 207.236 39.6448 207.091 39.7756C206.958 39.9064 206.731 39.9718 206.409 39.9718H204.812ZM215.84 40.2171C214.287 40.2171 213.089 39.8628 212.246 39.1542C211.403 38.4456 210.982 37.4154 210.982 36.0637C210.982 35.2351 211.176 34.5048 211.564 33.8725C211.952 33.2402 212.512 32.7496 213.244 32.4008C213.987 32.0519 214.864 31.8775 215.873 31.8775C216.638 31.8775 217.281 31.9484 217.803 32.0901C218.335 32.2318 218.806 32.4498 219.217 32.7442C219.339 32.8205 219.4 32.9186 219.4 33.0385C219.4 33.1257 219.355 33.2402 219.267 33.3819L218.585 34.5429C218.507 34.6955 218.413 34.7718 218.302 34.7718C218.235 34.7718 218.13 34.7282 217.986 34.641C217.686 34.4557 217.403 34.3194 217.137 34.2322C216.882 34.145 216.561 34.1014 216.172 34.1014C215.618 34.1014 215.169 34.2758 214.825 34.6247C214.492 34.9735 214.326 35.4532 214.326 36.0637C214.326 36.685 214.498 37.1647 214.841 37.5026C215.185 37.8297 215.657 37.9932 216.256 37.9932C216.61 37.9932 216.932 37.9441 217.22 37.846C217.509 37.7479 217.803 37.6117 218.102 37.4372C218.257 37.35 218.368 37.3064 218.435 37.3064C218.535 37.3064 218.623 37.3827 218.701 37.5353L219.45 38.7945C219.505 38.9035 219.533 38.9907 219.533 39.0561C219.533 39.1542 219.466 39.2469 219.333 39.3341C218.867 39.6284 218.357 39.8464 217.803 39.9882C217.259 40.1408 216.605 40.2171 215.84 40.2171ZM227.644 40.2171C226.712 40.2171 225.881 40.0645 225.149 39.7592C224.428 39.454 223.857 38.9961 223.435 38.3857C223.014 37.7752 222.803 37.0284 222.803 36.1454C222.803 34.7609 223.202 33.7035 224.001 32.9731C224.799 32.2427 225.947 31.8775 227.444 31.8775C228.908 31.8775 230.018 32.2373 230.772 32.9568C231.537 33.6653 231.92 34.6519 231.92 35.9165C231.92 36.4616 231.676 36.7341 231.188 36.7341H225.964C225.964 37.2029 226.141 37.5626 226.496 37.8133C226.862 38.0641 227.411 38.1894 228.143 38.1894C228.598 38.1894 228.975 38.1513 229.274 38.075C229.585 37.9878 229.896 37.8624 230.206 37.6989C230.339 37.6444 230.428 37.6171 230.472 37.6171C230.572 37.6171 230.655 37.6825 230.722 37.8133L231.287 38.8599C231.343 38.9689 231.371 39.0506 231.371 39.1051C231.371 39.2033 231.304 39.2959 231.171 39.3831C230.716 39.6775 230.201 39.89 229.624 40.0209C229.047 40.1517 228.387 40.2171 227.644 40.2171ZM228.925 35.1152C228.925 34.701 228.803 34.3794 228.559 34.1505C228.315 33.9215 227.949 33.8071 227.461 33.8071C226.973 33.8071 226.602 33.927 226.346 34.1668C226.091 34.3957 225.964 34.7119 225.964 35.1152H228.925ZM239.368 40.2171C237.805 40.2171 236.513 39.9337 235.492 39.3668C235.281 39.236 235.176 39.1215 235.176 39.0234C235.176 38.9689 235.204 38.8871 235.259 38.7781L235.958 37.5517C236.025 37.4209 236.108 37.3555 236.208 37.3555C236.274 37.3555 236.368 37.3882 236.49 37.4536C236.801 37.6171 237.195 37.7697 237.672 37.9114C238.16 38.0423 238.592 38.1077 238.969 38.1077C239.324 38.1077 239.579 38.075 239.734 38.0096C239.89 37.9332 239.967 37.8133 239.967 37.6498C239.967 37.4972 239.856 37.3718 239.635 37.2737C239.424 37.1647 239.036 37.0284 238.47 36.8649L238.104 36.7668C237.184 36.4943 236.518 36.1836 236.108 35.8347C235.697 35.4859 235.492 34.9899 235.492 34.3467C235.492 33.5509 235.842 32.9404 236.54 32.5152C237.239 32.0901 238.176 31.8775 239.352 31.8775C240.084 31.8775 240.721 31.9429 241.265 32.0737C241.808 32.2046 242.33 32.4008 242.829 32.6624C243.028 32.7714 243.128 32.8913 243.128 33.0222C243.128 33.0985 243.095 33.1966 243.028 33.3165L242.346 34.3794C242.269 34.4993 242.191 34.5593 242.113 34.5593C242.047 34.5593 241.958 34.5266 241.847 34.4611C241.581 34.3194 241.271 34.205 240.916 34.1178C240.561 34.0305 240.217 33.9869 239.884 33.9869C239.119 33.9869 238.736 34.1505 238.736 34.4775C238.736 34.6301 238.858 34.7609 239.102 34.8699C239.357 34.9681 239.745 35.0771 240.267 35.197C240.389 35.2297 240.555 35.2733 240.766 35.3278C240.988 35.3823 241.171 35.4368 241.315 35.4913C241.847 35.6767 242.258 35.8674 242.546 36.0637C242.834 36.249 243.04 36.4725 243.161 36.7341C243.284 36.9848 243.344 37.3064 243.344 37.6989C243.344 38.1676 243.2 38.5928 242.912 38.9743C242.624 39.345 242.18 39.6448 241.581 39.8737C240.982 40.1026 240.245 40.2171 239.368 40.2171Z" fill="#7C4032"/>
<g id="Group">
<path id="Vector_2" d="M16.2923 35.2501H13.2555V30.743H29.8735V35.2501H26.8351C26.6832 35.2501 26.5376 35.3093 26.4302 35.4147C26.3229 35.52 26.2626 35.6629 26.2626 35.8118C26.2626 35.9608 26.3229 36.1037 26.4302 36.209C26.5376 36.3143 26.6832 36.3736 26.8351 36.3736H29.8945C30.192 36.3731 30.4773 36.257 30.6876 36.0505C30.898 35.8441 31.0164 35.5643 31.0168 35.2723V30.7248C31.0164 30.4328 30.898 30.153 30.6876 29.9465C30.4773 29.7401 30.192 29.624 29.8945 29.6235H13.2337C12.9361 29.6237 12.6507 29.7398 12.4403 29.9463C12.2298 30.1528 12.1115 30.4327 12.1113 30.7248V35.2723C12.1118 35.5643 12.2301 35.8441 12.4405 36.0505C12.6509 36.257 12.9361 36.3731 13.2337 36.3736H16.2923C16.4441 36.3736 16.5897 36.3143 16.697 36.209C16.8044 36.1037 16.8648 35.9608 16.8648 35.8118C16.8648 35.6629 16.8044 35.52 16.697 35.4147C16.5897 35.3093 16.4441 35.2501 16.2923 35.2501Z" fill="#7C4032"/>
<path id="Vector_3" d="M29.3625 31.9338C29.3625 31.8969 29.355 31.8604 29.3407 31.8263C29.3262 31.7922 29.3051 31.7613 29.2785 31.7352C29.2518 31.7091 29.2202 31.6885 29.1854 31.6744C29.1507 31.6604 29.1134 31.6532 29.0758 31.6534H14.0573C13.9815 31.6534 13.9088 31.6829 13.8552 31.7355C13.8016 31.788 13.7715 31.8594 13.7715 31.9338C13.7715 32.0082 13.8016 32.0795 13.8552 32.1321C13.9088 32.1847 13.9815 32.2142 14.0573 32.2142H29.0758C29.1134 32.2144 29.1507 32.2072 29.1854 32.1932C29.2202 32.1791 29.2518 32.1585 29.2785 32.1324C29.3051 32.1063 29.3262 32.0754 29.3407 32.0413C29.355 32.0072 29.3625 31.9707 29.3625 31.9338Z" fill="#7C4032"/>
<path id="Vector_4" d="M9.9834 27.5328C9.90854 27.5396 9.83583 27.5609 9.76935 27.5954C9.70293 27.6298 9.64408 27.6768 9.59615 27.7336C9.54821 27.7904 9.51216 27.856 9.4901 27.9264C9.46798 27.9969 9.46028 28.071 9.46743 28.1444L10.0924 34.6758C10.1058 34.8148 10.1716 34.9439 10.2768 35.038C10.3821 35.132 10.5193 35.1842 10.6616 35.1844H10.7157C10.8668 35.1703 11.006 35.098 11.1027 34.9834C11.1995 34.8686 11.2459 34.721 11.2317 34.5727L10.6067 28.0406C10.5998 27.9671 10.5782 27.8956 10.5432 27.8303C10.5081 27.7649 10.4603 27.707 10.4023 27.6599C10.3445 27.6127 10.2777 27.5772 10.2058 27.5554C10.1339 27.5336 10.0583 27.5259 9.9834 27.5328Z" fill="#7C4032"/>
<path id="Vector_5" d="M8.84988 19.7718C8.79627 19.8297 8.75561 19.898 8.73047 19.9722C8.70533 20.0464 8.69621 20.125 8.70373 20.2028L9.11551 24.4921C9.13818 24.6333 9.21483 24.7607 9.32993 24.8484C9.44497 24.936 9.58977 24.9773 9.73481 24.9639C9.87986 24.9505 10.0142 24.8833 10.1105 24.7761C10.2069 24.6688 10.2579 24.5296 10.2532 24.3867L9.90031 20.7115H33.2275L31.8927 34.5704C31.8786 34.7186 31.9249 34.8663 32.0217 34.981C32.1184 35.0956 32.2576 35.168 32.4087 35.182C32.4264 35.182 32.4451 35.182 32.4628 35.182C32.6045 35.1809 32.7406 35.1282 32.845 35.0343C32.9494 34.9404 33.0146 34.8118 33.028 34.6734L34.4184 20.2004C34.4258 20.1226 34.4166 20.0441 34.3913 19.9699C34.3661 19.8958 34.3253 19.8277 34.2716 19.7699C34.218 19.7121 34.1526 19.6659 34.0797 19.6344C34.0068 19.6027 33.928 19.5865 33.8484 19.5865H9.27294C9.19314 19.5868 9.11434 19.6034 9.04144 19.6353C8.96861 19.6672 8.90336 19.7138 8.84988 19.7718Z" fill="#7C4032"/>
<path id="Vector_6" d="M12.7792 23.9209C12.7118 23.9494 12.658 24.0022 12.6291 24.0684C12.6001 24.1346 12.5982 24.2092 12.6237 24.2768C12.6492 24.3444 12.7001 24.3998 12.7661 24.4316C12.8319 24.4634 12.9078 24.4692 12.9779 24.4477C13.2191 24.3586 13.4272 24.2002 13.575 23.9931C13.7229 23.786 13.8035 23.5399 13.8063 23.287C13.8075 23.1233 13.7758 22.9609 13.713 22.8092C13.6502 22.6574 13.5576 22.5193 13.4404 22.4027C13.3232 22.2861 13.1838 22.1933 13.03 22.1295C12.8762 22.0658 12.7112 22.0325 12.5443 22.0313H12.5354C12.1999 22.0317 11.8782 22.162 11.64 22.3939C11.4019 22.6257 11.2667 22.9405 11.2637 23.2697C11.2635 23.344 11.2932 23.4155 11.3464 23.4685C11.3997 23.5214 11.4721 23.5516 11.5479 23.5525C11.6234 23.5522 11.6957 23.5229 11.7492 23.4707C11.8028 23.4185 11.8331 23.3477 11.8337 23.2736C11.8355 23.0926 11.9098 22.9197 12.0408 22.7922C12.1717 22.6648 12.3486 22.5932 12.533 22.593H12.5378C12.7232 22.5943 12.9004 22.6677 13.0306 22.7971C13.1608 22.9264 13.2333 23.1013 13.2322 23.2831C13.2308 23.4217 13.1868 23.5568 13.106 23.6705C13.0252 23.7843 12.9114 23.8715 12.7792 23.9209Z" fill="#7C4032"/>
<path id="Vector_7" d="M9.42064 18.1192C9.38257 18.2633 9.40444 18.4164 9.48134 18.5448C9.55823 18.6731 9.68393 18.7662 9.83082 18.8037C9.87808 18.8155 9.92657 18.8217 9.97537 18.8219C10.102 18.8217 10.225 18.7803 10.325 18.7042C10.4251 18.628 10.4966 18.5215 10.5284 18.4012C10.6432 17.9694 10.8557 17.5684 11.15 17.2281C11.4442 16.8878 11.8128 16.6169 12.2284 16.4353C12.6439 16.2538 13.0957 16.1665 13.5504 16.1797C14.0051 16.1929 14.4509 16.3064 14.8548 16.5117C14.953 16.5686 15.0663 16.5954 15.1801 16.5886C15.294 16.5818 15.4031 16.5418 15.4936 16.4737C15.5841 16.4055 15.6517 16.3123 15.6878 16.2062C15.7239 16.1 15.7267 15.9857 15.6961 15.8779C15.6279 15.5961 15.6257 15.3028 15.6896 15.0199C15.7535 14.7372 15.8819 14.4722 16.0651 14.2451C16.2484 14.018 16.4817 13.8345 16.7475 13.7085C17.0134 13.5826 17.3049 13.5173 17.6001 13.5178C17.9062 13.5164 18.2083 13.5865 18.4815 13.7222C18.7547 13.8578 18.9912 14.0553 19.1713 14.2981C19.2363 14.3829 19.3245 14.4477 19.4255 14.4853C19.5266 14.523 19.6364 14.5318 19.7423 14.5107C19.8482 14.4897 19.9459 14.4397 20.024 14.3664C20.1022 14.2932 20.1576 14.1998 20.1839 14.0969C20.2521 13.8156 20.3939 13.5566 20.5953 13.3455C20.7966 13.1343 21.0506 12.9783 21.3321 12.8928C21.6136 12.8073 21.913 12.7953 22.2007 12.8579C22.4884 12.9206 22.7546 13.0557 22.9728 13.25C23.0368 13.3066 23.1129 13.3484 23.1956 13.3722C23.2782 13.3959 23.3654 13.4011 23.4503 13.3872C23.5353 13.3733 23.616 13.3409 23.6864 13.2921C23.7568 13.2434 23.8151 13.1797 23.8569 13.1058C24.2764 12.3671 24.9731 11.8182 25.7989 11.576C26.6246 11.3339 27.5141 11.4177 28.2778 11.8096C29.0415 12.2015 29.6191 12.8705 29.8876 13.674C30.156 14.4776 30.0941 15.3522 29.715 16.1116C29.672 16.1973 29.652 16.2924 29.6569 16.3877C29.6617 16.4831 29.6913 16.5757 29.7428 16.6567C29.7943 16.7377 29.866 16.8046 29.9511 16.8509C30.0362 16.8972 30.132 16.9214 30.2293 16.9213C30.2784 16.9212 30.3273 16.9149 30.3746 16.9023C30.5368 16.8609 30.7037 16.8398 30.8712 16.8397C31.3215 16.8403 31.7578 16.9934 32.1063 17.2732C32.4549 17.5529 32.6942 17.9422 32.7841 18.3751C32.814 18.521 32.9019 18.6493 33.0283 18.7317C33.1546 18.814 33.3092 18.8438 33.4579 18.8144C33.6066 18.785 33.7373 18.6988 33.8213 18.5748C33.9052 18.4508 33.9356 18.2992 33.9056 18.1533C33.7697 17.4996 33.4186 16.9078 32.9064 16.469C32.3942 16.0303 31.7492 15.7688 31.0707 15.725C31.3175 14.7489 31.2134 13.7191 30.7759 12.8095C30.3385 11.9 29.5944 11.1665 28.6695 10.733C27.7447 10.2995 26.6956 10.1925 25.6996 10.4301C24.7036 10.6677 23.8217 11.2353 23.2029 12.0371C22.569 11.6961 21.8266 11.6046 21.1264 11.7812C20.4263 11.9578 19.8208 12.3892 19.433 12.9878C18.9895 12.665 18.4661 12.4645 17.917 12.4073C17.3679 12.3501 16.8132 12.4382 16.3106 12.6624C15.8079 12.8866 15.3756 13.2388 15.0585 13.6823C14.7414 14.1258 14.5512 14.6446 14.5076 15.1847C14.1647 15.0979 13.812 15.0537 13.4579 15.0532C12.5339 15.0534 11.6362 15.3547 10.9055 15.9095C10.1748 16.4645 9.65257 17.2416 9.42064 18.1192Z" fill="#7C4032"/>
<path id="Vector_8" d="M13.8988 12.979C13.8988 12.6779 13.8077 12.3835 13.6372 12.133C13.4667 11.8826 13.2243 11.6875 12.9407 11.5722C12.6572 11.457 12.3451 11.4268 12.0441 11.4856C11.743 11.5443 11.4665 11.6893 11.2495 11.9023C11.0325 12.1152 10.8846 12.3866 10.8247 12.6819C10.7649 12.9773 10.7956 13.2835 10.913 13.5617C11.0305 13.84 11.2294 14.0778 11.4847 14.2451C11.7399 14.4125 12.0399 14.5017 12.3469 14.5017C12.551 14.503 12.7534 14.4645 12.9422 14.3884C13.1311 14.3123 13.3027 14.2002 13.4471 14.0586C13.5914 13.9169 13.7057 13.7486 13.7832 13.5632C13.8608 13.3779 13.9 13.1793 13.8988 12.979ZM11.3682 12.979C11.3679 12.7889 11.4251 12.6029 11.5325 12.4446C11.64 12.2863 11.7929 12.1629 11.9719 12.09C12.1509 12.017 12.3479 11.9978 12.538 12.0347C12.7281 12.0717 12.9028 12.1632 13.0399 12.2976C13.177 12.432 13.2704 12.6033 13.3082 12.7898C13.3461 12.9764 13.3267 13.1697 13.2524 13.3454C13.1782 13.5211 13.0526 13.6712 12.8914 13.7768C12.7302 13.8823 12.5406 13.9386 12.3469 13.9384C12.0876 13.9378 11.8392 13.8366 11.6558 13.6568C11.4725 13.477 11.3691 13.2333 11.3682 12.979Z" fill="#7C4032"/>
<path id="Vector_9" d="M20.7319 7.87604C20.425 7.8764 20.1251 7.96597 19.8701 8.13349C19.6151 8.30107 19.4164 8.53902 19.2992 8.81731C19.182 9.09566 19.1516 9.40181 19.2117 9.69712C19.2719 9.99242 19.4199 10.2636 19.6371 10.4763C19.8542 10.6891 20.1308 10.8339 20.4319 10.8925C20.7329 10.951 21.0449 10.9206 21.3284 10.8052C21.6119 10.6898 21.8541 10.4945 22.0244 10.244C22.1947 9.99351 22.2856 9.69912 22.2854 9.39799C22.2848 8.99416 22.1209 8.60704 21.8296 8.32166C21.5383 8.03635 21.1435 7.87604 20.7319 7.87604ZM20.7319 10.359C20.5382 10.359 20.3489 10.3026 20.1878 10.197C20.0267 10.0914 19.9012 9.94137 19.827 9.76574C19.7529 9.59016 19.7336 9.3969 19.7713 9.21049C19.8091 9.02408 19.9024 8.85286 20.0394 8.71847C20.1763 8.58402 20.3509 8.49251 20.5408 8.45545C20.7309 8.41838 20.9278 8.4374 21.1067 8.51014C21.2857 8.58287 21.4387 8.70606 21.5463 8.86407C21.6539 9.02214 21.7114 9.20795 21.7114 9.39799C21.7121 9.52439 21.6873 9.6497 21.6384 9.76664C21.5894 9.88353 21.5173 9.98976 21.4262 10.0792C21.3351 10.1685 21.2268 10.2393 21.1077 10.2874C20.9885 10.3354 20.8608 10.3597 20.7319 10.359Z" fill="#7C4032"/>
<path id="Vector_10" d="M15.0183 12.0576C15.2588 12.0568 15.4892 11.9624 15.6591 11.7952C15.8288 11.628 15.9242 11.4016 15.9242 11.1655C15.924 10.9892 15.8705 10.8169 15.7705 10.6703C15.6705 10.5238 15.5284 10.4097 15.3623 10.3424C15.1961 10.2752 15.0134 10.2578 14.8372 10.2925C14.661 10.3271 14.4992 10.4123 14.3723 10.5373C14.2455 10.6621 14.1593 10.8212 14.1245 10.9942C14.0898 11.1672 14.1082 11.3465 14.1774 11.5092C14.2465 11.672 14.3633 11.811 14.513 11.9087C14.6627 12.0062 14.8385 12.0581 15.0183 12.0576ZM14.6799 11.1655C14.6799 11.0782 14.7153 10.9943 14.7783 10.9325C14.8413 10.8707 14.9268 10.836 15.0158 10.836C15.1047 10.8362 15.1899 10.8708 15.2528 10.9324C15.3157 10.994 15.3513 11.0775 15.3517 11.1648C15.3515 11.252 15.316 11.3357 15.253 11.3973C15.19 11.4589 15.1048 11.4936 15.0158 11.4936C14.9717 11.4937 14.928 11.4852 14.8873 11.4687C14.8466 11.4523 14.8096 11.4281 14.7783 11.3975C14.7471 11.367 14.7224 11.3307 14.7055 11.2908C14.6886 11.2508 14.6799 11.208 14.6799 11.1648V11.1655Z" fill="#7C4032"/>
<path id="Vector_11" d="M22.9843 7.30643C23.1038 7.30624 23.222 7.28293 23.3323 7.23787C23.4425 7.19281 23.5427 7.12686 23.627 7.04376C23.7113 6.96067 23.778 6.86213 23.8235 6.75372C23.8689 6.64532 23.8921 6.52922 23.8918 6.41197C23.8912 6.17631 23.7953 5.95049 23.6251 5.78413C23.455 5.61777 23.2245 5.52445 22.9843 5.52466C22.8628 5.5211 22.7418 5.54152 22.6285 5.58469C22.5151 5.62786 22.4117 5.69291 22.3246 5.77599C22.2373 5.85907 22.1679 5.95848 22.1206 6.06833C22.0732 6.17819 22.0488 6.29629 22.0488 6.41554C22.0488 6.53485 22.0732 6.65289 22.1206 6.76275C22.1679 6.87261 22.2373 6.97206 22.3246 7.05509C22.4117 7.13818 22.5151 7.20323 22.6285 7.24641C22.7418 7.28959 22.8628 7.31 22.9843 7.30643ZM22.9843 6.08559C23.0728 6.08577 23.1575 6.12011 23.2205 6.18122C23.2833 6.24227 23.3191 6.32518 23.3202 6.41197C23.3202 6.49942 23.2848 6.58324 23.2218 6.64501C23.1588 6.70685 23.0734 6.74155 22.9843 6.74155C22.8953 6.74137 22.81 6.70655 22.747 6.64483C22.684 6.58306 22.6486 6.49936 22.6484 6.41197C22.6495 6.32518 22.6853 6.24227 22.7481 6.18122C22.811 6.12011 22.8958 6.08577 22.9843 6.08559Z" fill="#7C4032"/>
<path id="Vector_12" d="M24.7964 9.12704C24.9254 9.12686 25.0503 9.08277 25.1498 9.00228C25.2493 8.92179 25.3172 8.80993 25.3421 8.68578C25.367 8.56162 25.3471 8.43287 25.2861 8.32143C25.2249 8.20999 25.1264 8.12284 25.0071 8.07475C24.8878 8.02667 24.7552 8.02067 24.6319 8.05786C24.5087 8.09498 24.4023 8.17293 24.331 8.27837C24.2598 8.38387 24.2281 8.51027 24.2412 8.63618C24.2544 8.76203 24.3116 8.87952 24.4032 8.96861C24.5077 9.07036 24.6491 9.12735 24.7964 9.12704ZM24.7803 8.58119C24.7803 8.57701 24.7819 8.57295 24.7849 8.56998C24.788 8.56701 24.7921 8.56538 24.7964 8.56538C24.8006 8.56556 24.8046 8.56726 24.8077 8.5701C24.8103 8.57331 24.8121 8.57713 24.8125 8.58119C24.8125 8.59863 24.7803 8.59863 24.7803 8.58119Z" fill="#7C4032"/>
<path id="Vector_13" d="M31.5455 10.7441C31.5455 10.5995 31.4869 10.4608 31.3827 10.3586C31.2785 10.2564 31.1373 10.1989 30.9899 10.1989C30.8798 10.1989 30.7722 10.231 30.6807 10.291C30.5892 10.351 30.518 10.4364 30.4759 10.5361C30.4338 10.6359 30.4228 10.7457 30.4443 10.8516C30.4658 10.9576 30.5189 11.0548 30.5968 11.1311C30.6747 11.2074 30.7739 11.2593 30.8819 11.2803C30.9898 11.3013 31.1017 11.2904 31.2034 11.2489C31.305 11.2075 31.3919 11.1374 31.4529 11.0475C31.5139 10.9577 31.5464 10.8521 31.5463 10.7441H31.5455ZM30.9729 10.7441C30.9729 10.742 30.9734 10.74 30.9742 10.7381C30.975 10.7362 30.9762 10.7345 30.9777 10.7331C30.9792 10.7317 30.981 10.7306 30.983 10.7299C30.9849 10.7292 30.987 10.7289 30.9891 10.729C30.9931 10.7293 30.997 10.731 30.9999 10.7337C31.0028 10.7364 31.0047 10.7401 31.0053 10.7441C31.0053 10.7483 31.0036 10.7523 31.0005 10.7553C30.9975 10.7582 30.9934 10.7599 30.9891 10.7599C30.9849 10.7595 30.9811 10.7578 30.9781 10.7549C30.9751 10.7519 30.9733 10.7481 30.9729 10.7441Z" fill="#7C4032"/>
<path id="Vector_14" d="M33.4339 12.6415C33.4337 12.4053 33.3379 12.1788 33.1676 12.0118C32.9972 11.8448 32.7663 11.751 32.5256 11.751C32.3458 11.751 32.1702 11.8033 32.0208 11.9013C31.8714 11.9993 31.755 12.1385 31.6862 12.3014C31.6175 12.4643 31.5996 12.6436 31.6347 12.8165C31.6698 12.9894 31.7564 13.1482 31.8835 13.2728C32.0106 13.3974 32.1726 13.4823 32.3488 13.5166C32.5251 13.5509 32.7078 13.5331 32.8738 13.4656C33.0397 13.398 33.1815 13.2836 33.2812 13.1369C33.3809 12.9903 33.4341 12.8178 33.4339 12.6415ZM32.1896 12.6415C32.1899 12.5543 32.2254 12.4706 32.2883 12.409C32.3513 12.3474 32.4366 12.3127 32.5256 12.3127C32.592 12.3127 32.657 12.3321 32.7123 12.3683C32.7675 12.4046 32.8105 12.4561 32.836 12.5163C32.8614 12.5767 32.868 12.6429 32.8549 12.7069C32.8419 12.7708 32.8099 12.8296 32.7628 12.8757C32.7157 12.9217 32.6558 12.953 32.5906 12.9657C32.5254 12.9783 32.4578 12.9717 32.3964 12.9466C32.3351 12.9215 32.2827 12.8791 32.2459 12.8249C32.209 12.7705 32.1895 12.7068 32.1896 12.6415Z" fill="#7C4032"/>
<path id="Vector_15" d="M36.8198 8.01539C34.5415 5.78189 31.7824 4.07734 28.745 3.0269C25.7076 1.97646 22.469 1.60679 19.2669 1.94504C16.0648 2.28328 12.9806 3.32085 10.2407 4.98157C7.50072 6.6423 5.17461 8.88399 3.43309 11.5421C1.69158 14.2002 0.578872 17.2073 0.176667 20.3426C-0.225538 23.4778 0.0929672 26.6616 1.1088 29.6603C2.12463 32.659 3.81201 35.3964 6.04703 37.6716C8.28208 39.9467 11.008 41.7019 14.0248 42.8081C14.0889 42.8315 14.1567 42.8435 14.225 42.8438C14.3591 42.8437 14.4889 42.7974 14.5918 42.713C14.6947 42.6286 14.7641 42.5114 14.7879 42.382C14.8118 42.2525 14.7885 42.1189 14.7223 42.0045C14.656 41.8901 14.5508 41.8022 14.4253 41.756C6.48159 38.8469 1.14441 31.2983 1.14441 22.9796C1.14441 11.9308 10.3057 2.94179 21.5663 2.94179C32.8269 2.94179 41.9874 11.9292 41.9874 22.978C41.9902 26.2863 41.1571 29.5437 39.5624 32.4587C37.9677 35.3736 35.6613 37.8551 32.8496 39.6811C32.814 39.7041 32.7002 39.7809 32.6735 39.7952C29.074 41.7552 25.3468 42.4096 23.3992 41.432C22.83 41.146 22.4481 40.7253 22.2567 40.1795H22.469C23.0489 40.1788 23.605 39.9525 24.015 39.5501C24.4251 39.1478 24.6558 38.6023 24.6564 38.0332V37.935C24.8605 37.851 25.0348 37.7097 25.1575 37.5288C25.2802 37.3481 25.3458 37.1357 25.346 36.9185V34.5417C25.3488 34.4663 25.3362 34.391 25.3088 34.3204C25.2813 34.2498 25.2396 34.1854 25.1862 34.131C25.1328 34.0766 25.0688 34.0333 24.9979 34.0037C24.9271 33.9742 24.8509 33.9589 24.7739 33.9589C24.6969 33.9589 24.6207 33.9742 24.5499 34.0037C24.479 34.0333 24.415 34.0766 24.3616 34.131C24.3081 34.1854 24.2665 34.2498 24.2391 34.3204C24.2116 34.391 24.199 34.4663 24.2018 34.5417V36.8955H18.93V34.5434C18.9329 34.4678 18.9202 34.3926 18.8928 34.322C18.8653 34.2514 18.8237 34.187 18.7703 34.1326C18.7168 34.0782 18.6528 34.0349 18.582 34.0053C18.5111 33.9758 18.4349 33.9606 18.3579 33.9606C18.281 33.9606 18.2047 33.9758 18.1339 34.0053C18.063 34.0349 17.999 34.0782 17.9456 34.1326C17.8922 34.187 17.8505 34.2514 17.8231 34.322C17.7956 34.3926 17.783 34.4678 17.7859 34.5434V36.9201C17.7861 37.1373 17.8516 37.3496 17.9743 37.5304C18.097 37.7113 18.2713 37.8525 18.4754 37.9366V38.0348C18.476 38.6038 18.7067 39.1494 19.1168 39.5517C19.5268 39.9541 20.0829 40.1804 20.6628 40.181H21.0665C21.295 41.1753 21.9135 41.9494 22.8736 42.4327C23.635 42.8161 24.5861 43.0023 25.6633 43.0023C27.8523 43.0023 30.558 42.2314 33.2266 40.7784C33.2775 40.7507 33.4422 40.6429 33.4802 40.6199C36.1444 38.8878 38.3829 36.5962 40.034 33.9112C41.6851 31.2261 42.7073 28.2146 43.0269 25.0944C43.3465 21.9742 42.9555 18.8234 41.8819 15.8696C40.8084 12.9159 39.0794 10.2332 36.8198 8.01539ZM19.6212 38.0332V38.0237H23.513V38.0372C23.5107 38.3074 23.3997 38.5659 23.2042 38.7562C23.0087 38.9466 22.7445 39.0535 22.469 39.0536H20.6628C20.387 39.053 20.1227 38.9454 19.9275 38.7542C19.7324 38.563 19.6222 38.3038 19.6212 38.0332Z" fill="#7C4032"/>
<path id="Vector_16" d="M12.6928 23.0438C12.6612 23.0239 12.6258 23.0102 12.5888 23.0036C12.5518 22.9971 12.5138 22.9978 12.4771 23.0056C12.4403 23.0135 12.4055 23.0284 12.3746 23.0495C12.3437 23.0706 12.3174 23.0975 12.2971 23.1286C10.9003 25.2614 9.2854 26.3618 7.23285 27.7554L6.84127 28.0216C6.79143 28.0558 6.75396 28.1045 6.73425 28.1609C6.71453 28.2173 6.71361 28.2784 6.7316 28.3353C6.74953 28.3923 6.78551 28.4422 6.83425 28.4778C6.88299 28.5134 6.94196 28.5328 7.00271 28.5334C7.06057 28.5331 7.11695 28.5154 7.1642 28.4827L7.55504 28.2173C9.57364 26.8443 11.3178 25.6591 12.7752 23.4321C12.8165 23.3698 12.831 23.294 12.8156 23.2213C12.8001 23.1486 12.756 23.0848 12.6928 23.0438Z" fill="#7C4032"/>
</g>
</g>
<defs>
<clipPath id="clip0_37_80">
<rect width="244" height="43" fill="white"/>
</clipPath>
</defs>
</svg>
