<svg width="244" height="55" viewBox="0 0 244 55" fill="none" xmlns="http://www.w3.org/2000/svg">
<g id="6 1" clip-path="url(#clip0_37_98)">
<path id="Vector" d="M98.7874 31.124L95.2597 24.4729H94.7305V31.124H89.7917V13.0892H97.5779C99.0058 13.0892 100.215 13.345 101.206 13.8566C102.197 14.3512 102.945 15.0419 103.449 15.9287C103.953 16.7985 104.205 17.7791 104.205 18.8706C104.205 20.0985 103.869 21.1814 103.197 22.1194C102.542 23.0403 101.576 23.6969 100.299 24.0892L104.306 31.124H98.7874ZM94.7305 21.045H97.1747C97.8467 21.045 98.3506 20.883 98.6866 20.5589C99.0226 20.2349 99.1905 19.7659 99.1905 19.152C99.1905 18.5721 99.0142 18.1202 98.6614 17.7961C98.3254 17.4551 97.8299 17.2845 97.1747 17.2845H94.7305V21.045ZM113.028 31.3031C111.616 31.3031 110.348 31.0047 109.223 30.4078C108.114 29.8109 107.24 28.9582 106.602 27.8496C105.964 26.7411 105.645 25.4364 105.645 23.9357C105.645 22.452 105.964 21.1558 106.602 20.0473C107.257 18.9388 108.139 18.0861 109.248 17.4892C110.373 16.8923 111.642 16.5938 113.053 16.5938C114.464 16.5938 115.724 16.8923 116.832 17.4892C117.958 18.0861 118.84 18.9388 119.478 20.0473C120.133 21.1558 120.461 22.452 120.461 23.9357C120.461 25.4194 120.133 26.724 119.478 27.8496C118.84 28.9582 117.958 29.8109 116.832 30.4078C115.707 31.0047 114.439 31.3031 113.028 31.3031ZM113.028 26.9543C113.716 26.9543 114.287 26.6985 114.741 26.1868C115.211 25.6582 115.447 24.9078 115.447 23.9357C115.447 22.9636 115.211 22.2217 114.741 21.7101C114.287 21.1985 113.725 20.9427 113.053 20.9427C112.381 20.9427 111.818 21.1985 111.365 21.7101C110.911 22.2217 110.684 22.9636 110.684 23.9357C110.684 24.9248 110.903 25.6752 111.339 26.1868C111.776 26.6985 112.339 26.9543 113.028 26.9543ZM136.934 16.7729V31.124H131.97V29.0775C131.55 29.7256 130.971 30.2543 130.231 30.6636C129.492 31.0558 128.644 31.252 127.686 31.252C126.04 31.252 124.738 30.7062 123.781 29.6147C122.84 28.5062 122.37 27.0054 122.37 25.1124V16.7729H127.283V24.4729C127.283 25.2915 127.493 25.9396 127.913 26.4171C128.35 26.8775 128.921 27.1078 129.627 27.1078C130.349 27.1078 130.92 26.8775 131.34 26.4171C131.76 25.9396 131.97 25.2915 131.97 24.4729V16.7729H136.934ZM148.993 16.645C150.622 16.645 151.916 17.1992 152.873 18.3078C153.831 19.3992 154.309 20.883 154.309 22.7589V31.124H149.371V23.424C149.371 22.6054 149.161 21.9659 148.741 21.5054C148.321 21.0279 147.758 20.7892 147.052 20.7892C146.313 20.7892 145.734 21.0279 145.314 21.5054C144.894 21.9659 144.684 22.6054 144.684 23.424V31.124H139.745V16.7729H144.684V18.8194C145.12 18.1713 145.708 17.6512 146.448 17.2589C147.187 16.8496 148.035 16.645 148.993 16.645ZM156.213 23.9357C156.213 22.452 156.473 21.1558 156.994 20.0473C157.531 18.9388 158.262 18.0861 159.186 17.4892C160.11 16.8923 161.135 16.5938 162.26 16.5938C163.167 16.5938 163.974 16.7899 164.679 17.1822C165.401 17.5574 165.964 18.0775 166.367 18.7427V12.1938H171.331V31.124H166.367V29.1287C165.981 29.7938 165.435 30.3225 164.729 30.7147C164.024 31.107 163.192 31.3031 162.235 31.3031C161.109 31.3031 160.085 31.0047 159.161 30.4078C158.254 29.8109 157.531 28.9582 156.994 27.8496C156.473 26.724 156.213 25.4194 156.213 23.9357ZM166.393 23.9357C166.393 23.0147 166.141 22.2899 165.637 21.7613C165.149 21.2326 164.545 20.9682 163.822 20.9682C163.083 20.9682 162.47 21.2326 161.983 21.7613C161.496 22.2729 161.252 22.9977 161.252 23.9357C161.252 24.8566 161.496 25.5899 161.983 26.1357C162.47 26.6644 163.083 26.9287 163.822 26.9287C164.545 26.9287 165.149 26.6644 165.637 26.1357C166.141 25.607 166.393 24.8737 166.393 23.9357ZM187.965 31.124L184.437 24.4729H183.908V31.124H178.969V13.0892H186.755C188.183 13.0892 189.392 13.345 190.384 13.8566C191.375 14.3512 192.122 15.0419 192.626 15.9287C193.13 16.7985 193.382 17.7791 193.382 18.8706C193.382 20.0985 193.046 21.1814 192.374 22.1194C191.719 23.0403 190.753 23.6969 189.476 24.0892L193.483 31.124H187.965ZM183.908 21.045H186.352C187.024 21.045 187.528 20.883 187.864 20.5589C188.2 20.2349 188.368 19.7659 188.368 19.152C188.368 18.5721 188.191 18.1202 187.839 17.7961C187.503 17.4551 187.007 17.2845 186.352 17.2845H183.908V21.045ZM202.205 31.3031C200.794 31.3031 199.525 31.0047 198.4 30.4078C197.291 29.8109 196.418 28.9582 195.779 27.8496C195.141 26.7411 194.822 25.4364 194.822 23.9357C194.822 22.452 195.141 21.1558 195.779 20.0473C196.434 18.9388 197.316 18.0861 198.425 17.4892C199.551 16.8923 200.819 16.5938 202.23 16.5938C203.641 16.5938 204.901 16.8923 206.01 17.4892C207.135 18.0861 208.017 18.9388 208.655 20.0473C209.311 21.1558 209.638 22.452 209.638 23.9357C209.638 25.4194 209.311 26.724 208.655 27.8496C208.017 28.9582 207.135 29.8109 206.01 30.4078C204.884 31.0047 203.616 31.3031 202.205 31.3031ZM202.205 26.9543C202.893 26.9543 203.465 26.6985 203.918 26.1868C204.389 25.6582 204.624 24.9078 204.624 23.9357C204.624 22.9636 204.389 22.2217 203.918 21.7101C203.465 21.1985 202.902 20.9427 202.23 20.9427C201.558 20.9427 200.995 21.1985 200.542 21.7101C200.088 22.2217 199.861 22.9636 199.861 23.9357C199.861 24.9248 200.08 25.6752 200.516 26.1868C200.953 26.6985 201.516 26.9543 202.205 26.9543ZM210.841 23.9357C210.841 22.452 211.143 21.1558 211.748 20.0473C212.353 18.9388 213.193 18.0861 214.268 17.4892C215.36 16.8923 216.603 16.5938 217.997 16.5938C219.795 16.5938 221.306 17.0969 222.533 18.1031C223.759 19.0923 224.549 20.4822 224.901 22.2729H219.66C219.358 21.3349 218.77 20.8659 217.896 20.8659C217.275 20.8659 216.779 21.1302 216.41 21.6589C216.057 22.1706 215.88 22.9295 215.88 23.9357C215.88 24.9419 216.057 25.7093 216.41 26.238C216.779 26.7667 217.275 27.031 217.896 27.031C218.787 27.031 219.375 26.562 219.66 25.624H224.901C224.549 27.3977 223.759 28.7876 222.533 29.7938C221.306 30.8 219.795 31.3031 217.997 31.3031C216.603 31.3031 215.36 31.0047 214.268 30.4078C213.193 29.8109 212.353 28.9582 211.748 27.8496C211.143 26.7411 210.841 25.4364 210.841 23.9357ZM235.798 31.124L231.892 25.2403V31.124H226.953V12.1938H231.892V22.4008L235.798 16.7729H241.719L236.15 23.9868L241.82 31.124H235.798ZM98.3477 36.6518V44.7675H96.1252V40.2894L94.6171 44.7675H92.7575L91.2381 40.2549V44.7675H89.0156V36.6518H91.703L93.71 41.9241L95.6717 36.6518H98.3477ZM106.768 44.848C106.133 44.848 105.562 44.7137 105.056 44.4451C104.557 44.1765 104.164 43.7928 103.877 43.294C103.589 42.7951 103.446 42.208 103.446 41.5327C103.446 40.865 103.589 40.2818 103.877 39.7829C104.171 39.2841 104.568 38.9004 105.067 38.6318C105.574 38.3632 106.144 38.2289 106.779 38.2289C107.414 38.2289 107.981 38.3632 108.48 38.6318C108.987 38.9004 109.384 39.2841 109.671 39.7829C109.966 40.2818 110.113 40.865 110.113 41.5327C110.113 42.2004 109.966 42.7875 109.671 43.294C109.384 43.7928 108.987 44.1765 108.48 44.4451C107.974 44.7137 107.403 44.848 106.768 44.848ZM106.768 42.8911C107.078 42.8911 107.335 42.7759 107.539 42.5457C107.751 42.3078 107.857 41.9701 107.857 41.5327C107.857 41.0952 107.751 40.7614 107.539 40.5312C107.335 40.3009 107.082 40.1858 106.779 40.1858C106.477 40.1858 106.224 40.3009 106.02 40.5312C105.816 40.7614 105.713 41.0952 105.713 41.5327C105.713 41.9778 105.812 42.3155 106.008 42.5457C106.205 42.7759 106.458 42.8911 106.768 42.8911ZM118.263 42.6378L119.453 38.3094H121.823L119.635 44.7675H116.868L114.68 38.3094H117.05L118.263 42.6378ZM127.894 37.7108C127.501 37.7108 127.184 37.6034 126.942 37.3885C126.708 37.1659 126.59 36.8897 126.59 36.5597C126.59 36.222 126.708 35.9419 126.942 35.7193C127.184 35.4968 127.501 35.3855 127.894 35.3855C128.28 35.3855 128.59 35.4968 128.824 35.7193C129.066 35.9419 129.187 36.222 129.187 36.5597C129.187 36.8897 129.066 37.1659 128.824 37.3885C128.59 37.6034 128.28 37.7108 127.894 37.7108ZM128.994 38.3094V44.7675H126.772V38.3094H128.994ZM138.616 38.2519C139.35 38.2519 139.932 38.5013 140.363 39.0001C140.794 39.4913 141.009 40.159 141.009 41.0032V44.7675H138.787V41.3025C138.787 40.9341 138.692 40.6463 138.503 40.4391C138.314 40.2242 138.061 40.1168 137.743 40.1168C137.411 40.1168 137.15 40.2242 136.961 40.4391C136.772 40.6463 136.677 40.9341 136.677 41.3025V44.7675H134.455V38.3094H136.677V39.2304C136.874 38.9387 137.139 38.7047 137.471 38.5282C137.804 38.344 138.186 38.2519 138.616 38.2519ZM148.771 38.2289C149.202 38.2289 149.576 38.3171 149.894 38.4936C150.219 38.6701 150.468 38.908 150.642 39.2073V38.3094H152.865V44.6984C152.865 45.3047 152.751 45.8495 152.524 46.333C152.298 46.8242 151.942 47.2156 151.459 47.5072C150.982 47.7989 150.378 47.9447 149.644 47.9447C148.662 47.9447 147.875 47.7106 147.286 47.2425C146.696 46.7743 146.36 46.1373 146.277 45.3315H148.465C148.51 45.5387 148.624 45.6999 148.805 45.815C148.987 45.9301 149.221 45.9877 149.508 45.9877C150.264 45.9877 150.642 45.5579 150.642 44.6984V43.8695C150.468 44.1688 150.219 44.4068 149.894 44.5833C149.576 44.7598 149.202 44.848 148.771 44.848C148.265 44.848 147.804 44.7137 147.388 44.4451C146.98 44.1765 146.655 43.7928 146.413 43.294C146.178 42.7875 146.061 42.2004 146.061 41.5327C146.061 40.865 146.178 40.2818 146.413 39.7829C146.655 39.2841 146.98 38.9004 147.388 38.6318C147.804 38.3632 148.265 38.2289 148.771 38.2289ZM150.642 41.5327C150.642 41.1183 150.529 40.7921 150.302 40.5542C150.083 40.3163 149.811 40.1973 149.486 40.1973C149.153 40.1973 148.877 40.3163 148.658 40.5542C148.439 40.7844 148.329 41.1106 148.329 41.5327C148.329 41.9471 148.439 42.2771 148.658 42.5227C148.877 42.7606 149.153 42.8795 149.486 42.8795C149.811 42.8795 150.083 42.7606 150.302 42.5227C150.529 42.2848 150.642 41.9548 150.642 41.5327ZM167.709 44.848C166.779 44.848 166.015 44.6255 165.418 44.1804C164.821 43.7276 164.5 43.0829 164.454 42.2464H166.824C166.847 42.5304 166.93 42.7376 167.074 42.868C167.217 42.9985 167.403 43.0637 167.629 43.0637C167.833 43.0637 168 43.0138 168.128 42.9141C168.264 42.8066 168.332 42.6608 168.332 42.4766C168.332 42.2387 168.223 42.0545 168.004 41.9241C167.784 41.7936 167.429 41.6478 166.938 41.4866C166.416 41.3101 165.993 41.1413 165.668 40.9801C165.35 40.8113 165.071 40.5695 164.829 40.2549C164.594 39.9326 164.477 39.5143 164.477 39.0001C164.477 38.4783 164.606 38.0332 164.863 37.6648C165.12 37.2887 165.475 37.0048 165.929 36.8129C166.382 36.6211 166.896 36.5251 167.471 36.5251C168.4 36.5251 169.141 36.7477 169.693 37.1928C170.252 37.6302 170.551 38.248 170.589 39.0462H168.174C168.166 38.8006 168.09 38.6164 167.947 38.4936C167.811 38.3708 167.633 38.3094 167.414 38.3094C167.248 38.3094 167.112 38.3593 167.006 38.4591C166.9 38.5589 166.847 38.7008 166.847 38.885C166.847 39.0385 166.904 39.1728 167.017 39.2879C167.138 39.3954 167.285 39.4913 167.459 39.5757C167.633 39.6525 167.89 39.7522 168.23 39.875C168.737 40.0515 169.153 40.228 169.478 40.4045C169.81 40.5734 170.094 40.8151 170.328 41.1298C170.57 41.4368 170.691 41.8282 170.691 42.304C170.691 42.7875 170.57 43.2211 170.328 43.6048C170.094 43.9885 169.75 44.2916 169.296 44.5142C168.85 44.7368 168.321 44.848 167.709 44.848ZM181.997 41.4636C181.997 41.6401 181.986 41.8166 181.963 41.9932H177.756C177.779 42.3462 177.874 42.6109 178.04 42.7875C178.214 42.9563 178.433 43.0407 178.698 43.0407C179.068 43.0407 179.333 42.8719 179.491 42.5342H181.861C181.763 42.9793 181.57 43.3784 181.283 43.7314C181.003 44.0768 180.648 44.3492 180.217 44.5487C179.786 44.7483 179.31 44.848 178.788 44.848C178.161 44.848 177.601 44.7137 177.11 44.4451C176.626 44.1765 176.245 43.7928 175.965 43.294C175.693 42.7951 175.557 42.208 175.557 41.5327C175.557 40.8573 175.693 40.2741 175.965 39.7829C176.237 39.2841 176.615 38.9004 177.099 38.6318C177.59 38.3632 178.153 38.2289 178.788 38.2289C179.416 38.2289 179.971 38.3593 180.455 38.6202C180.939 38.8812 181.317 39.2572 181.589 39.7484C181.861 40.2319 181.997 40.8036 181.997 41.4636ZM179.729 40.8995C179.729 40.6233 179.639 40.4084 179.457 40.2549C179.276 40.0937 179.049 40.0132 178.777 40.0132C178.505 40.0132 178.282 40.0899 178.108 40.2434C177.934 40.3892 177.821 40.6079 177.768 40.8995H179.729ZM189.325 39.4491C189.574 39.0807 189.877 38.7891 190.232 38.5742C190.587 38.3593 190.969 38.2519 191.377 38.2519V40.6578H190.753C190.27 40.6578 189.911 40.7537 189.676 40.9456C189.442 41.1375 189.325 41.4713 189.325 41.9471V44.7675H187.102V38.3094H189.325V39.4491ZM199.419 42.6378L200.61 38.3094H202.98L200.792 44.7675H198.025L195.836 38.3094H198.206L199.419 42.6378ZM209.051 37.7108C208.658 37.7108 208.34 37.6034 208.098 37.3885C207.864 37.1659 207.747 36.8897 207.747 36.5597C207.747 36.222 207.864 35.9419 208.098 35.7193C208.34 35.4968 208.658 35.3855 209.051 35.3855C209.436 35.3855 209.746 35.4968 209.981 35.7193C210.223 35.9419 210.344 36.222 210.344 36.5597C210.344 36.8897 210.223 37.1659 209.981 37.3885C209.746 37.6034 209.436 37.7108 209.051 37.7108ZM210.151 38.3094V44.7675H207.928V38.3094H210.151ZM215.249 41.5327C215.249 40.865 215.385 40.2818 215.657 39.7829C215.93 39.2841 216.308 38.9004 216.791 38.6318C217.283 38.3632 217.842 38.2289 218.47 38.2289C219.278 38.2289 219.959 38.4552 220.511 38.908C221.062 39.3532 221.418 39.9786 221.576 40.7844H219.218C219.082 40.3623 218.817 40.1513 218.424 40.1513C218.144 40.1513 217.921 40.2702 217.755 40.5082C217.596 40.7384 217.517 41.0799 217.517 41.5327C217.517 41.9855 217.596 42.3308 217.755 42.5687C217.921 42.8066 218.144 42.9256 218.424 42.9256C218.825 42.9256 219.089 42.7145 219.218 42.2925H221.576C221.418 43.0906 221.062 43.7161 220.511 44.1688C219.959 44.6216 219.278 44.848 218.47 44.848C217.842 44.848 217.283 44.7137 216.791 44.4451C216.308 44.1765 215.93 43.7928 215.657 43.294C215.385 42.7951 215.249 42.208 215.249 41.5327ZM232.773 41.4636C232.773 41.6401 232.761 41.8166 232.739 41.9932H228.532C228.555 42.3462 228.649 42.6109 228.815 42.7875C228.989 42.9563 229.208 43.0407 229.473 43.0407C229.843 43.0407 230.108 42.8719 230.267 42.5342H232.637C232.538 42.9793 232.346 43.3784 232.058 43.7314C231.779 44.0768 231.423 44.3492 230.992 44.5487C230.562 44.7483 230.085 44.848 229.564 44.848C228.936 44.848 228.377 44.7137 227.886 44.4451C227.402 44.1765 227.02 43.7928 226.74 43.294C226.468 42.7951 226.332 42.208 226.332 41.5327C226.332 40.8573 226.468 40.2741 226.74 39.7829C227.012 39.2841 227.39 38.9004 227.874 38.6318C228.366 38.3632 228.929 38.2289 229.564 38.2289C230.191 38.2289 230.747 38.3593 231.231 38.6202C231.714 38.8812 232.092 39.2572 232.365 39.7484C232.637 40.2319 232.773 40.8036 232.773 41.4636ZM230.505 40.8995C230.505 40.6233 230.414 40.4084 230.233 40.2549C230.051 40.0937 229.825 40.0132 229.552 40.0132C229.28 40.0132 229.057 40.0899 228.883 40.2434C228.71 40.3892 228.596 40.6079 228.543 40.8995H230.505ZM240.588 44.848C240.013 44.848 239.499 44.7521 239.046 44.5602C238.6 44.3607 238.244 44.0921 237.98 43.7544C237.723 43.4091 237.579 43.0215 237.549 42.5918H239.703C239.734 42.799 239.828 42.9601 239.987 43.0752C240.146 43.1904 240.342 43.2479 240.577 43.2479C240.758 43.2479 240.902 43.2095 241.007 43.1328C241.113 43.0561 241.166 42.9563 241.166 42.8335C241.166 42.6723 241.079 42.5534 240.905 42.4766C240.731 42.3999 240.444 42.3155 240.044 42.2234C239.59 42.1313 239.212 42.0277 238.91 41.9126C238.607 41.7975 238.343 41.6094 238.116 41.3485C237.897 41.0876 237.787 40.7345 237.787 40.2894C237.787 39.9057 237.889 39.5604 238.093 39.2534C238.297 38.9387 238.596 38.6893 238.989 38.5051C239.39 38.3209 239.87 38.2289 240.429 38.2289C241.261 38.2289 241.915 38.4361 242.391 38.8505C242.867 39.2649 243.143 39.8098 243.219 40.4851H241.211C241.174 40.2779 241.083 40.1206 240.939 40.0132C240.803 39.898 240.618 39.8405 240.384 39.8405C240.202 39.8405 240.062 39.875 239.964 39.9441C239.873 40.0132 239.828 40.1091 239.828 40.2319C239.828 40.3854 239.915 40.5043 240.089 40.5887C240.263 40.6655 240.542 40.7461 240.928 40.8305C241.389 40.9302 241.771 41.0415 242.073 41.1643C242.383 41.2871 242.652 41.4866 242.878 41.7629C243.113 42.0315 243.23 42.3999 243.23 42.868C243.23 43.2441 243.12 43.5818 242.901 43.8811C242.689 44.1804 242.383 44.4183 241.983 44.5948C241.589 44.7636 241.125 44.848 240.588 44.848Z" fill="#7C4032"/>
<path id="Vector_2" d="M17.0692 39.5947C16.8551 39.5934 16.6461 39.529 16.4673 39.4094C16.2885 39.2897 16.1476 39.1198 16.0617 38.9203C15.9759 38.7209 15.9487 38.5004 15.9835 38.2855C16.0182 38.0706 16.1135 37.8706 16.2577 37.7097C17.0813 36.7968 17.834 35.8204 18.5092 34.7891C18.6737 34.545 18.9259 34.3765 19.2115 34.3199C19.4971 34.2633 19.7931 34.3232 20.0357 34.4866C20.2782 34.6502 20.4479 34.904 20.508 35.1937C20.5682 35.4833 20.5141 35.7853 20.3573 36.0347C19.6184 37.1623 18.7951 38.2302 17.8947 39.2288C17.7902 39.3455 17.6626 39.4384 17.5203 39.5015C17.3781 39.5645 17.2243 39.5963 17.0692 39.5947Z" fill="#7C4032"/>
<path id="Vector_3" d="M25.7607 34.4329C24.0408 34.4329 21.7862 33.9891 18.8937 33.1062C15.3789 32.0945 13.3635 30.6994 12.1565 28.439C12.0399 28.1788 12.0248 27.8832 12.1144 27.6121C12.2039 27.3411 12.3913 27.1147 12.6387 26.9789C12.886 26.843 13.1748 26.8079 13.4467 26.8805C13.7186 26.9531 13.9532 27.1281 14.103 27.3701C15.0114 29.069 16.5765 30.1061 19.505 30.9476H19.5222C24.2847 32.4015 27.1835 32.5733 27.923 31.4471C27.9685 31.3648 27.9967 31.2739 28.0058 31.1799C28.0149 31.086 28.0049 30.9912 27.9762 30.9014C27.862 30.4847 27.4258 30.0727 26.7488 29.7418C25.7982 29.2884 25.2556 29.0658 24.5677 28.7874C23.9532 28.5345 23.2559 28.2481 22.102 27.728C18.2073 26.0052 17.9383 22.8619 17.929 22.7283L20.1398 22.5692V22.5518C20.1476 22.6313 20.3727 24.5099 22.9948 25.6696C24.1205 26.177 24.8007 26.4554 25.3995 26.702C26.0906 26.9851 26.6863 27.2301 27.701 27.7152C29.3255 28.5106 29.9071 29.5605 30.112 30.3033C30.2253 30.7025 30.2542 31.1216 30.1965 31.533C30.1388 31.9443 29.996 32.3385 29.7773 32.6895C29.0143 33.8523 27.7323 34.4329 25.7607 34.4329Z" fill="#7C4032"/>
<path id="Vector_4" d="M15.3332 54.6022C15.1533 54.6022 14.9829 54.6022 14.8297 54.586C14.4357 54.5766 9.79355 54.4666 8.2973 54.3745H8.28479C6.0255 54.1997 4.66989 53.5346 4.143 52.3446C3.42847 50.7287 4.67304 49.0583 5.08112 48.5095L5.0983 48.4874C5.5283 47.9399 5.51423 47.7395 5.43133 47.3976C5.33911 47.0889 5.03891 46.709 4.66208 46.2298C3.8475 45.1946 2.64984 43.6738 1.84775 40.7595C1.4423 40.7024 1.06114 40.5293 0.748635 40.2603C0.43613 39.9914 0.205132 39.6377 0.0825333 39.2404C-0.00461656 38.9323 -0.0230308 38.6084 0.028636 38.2922C0.0803029 37.9759 0.200746 37.6754 0.381166 37.4127C0.58833 37.1059 0.857536 36.8477 1.17075 36.6555C1.36306 31.7115 4.27592 25.0273 4.61987 24.2478C5.34797 22.6112 5.78372 20.8557 5.90665 19.0637V18.9778L5.92231 18.8919C7.97989 7.35594 14.6452 3.30279 16.1915 2.50743C17.8066 0.216795 19.8892 -0.227017 21.2198 0.110216C21.4593 0.166262 21.6828 0.278022 21.8726 0.436723C22.0626 0.595421 22.2137 0.796742 22.3143 1.02488C22.5847 1.63254 22.4706 2.35155 22.2877 2.91784C22.6145 3.26939 23.0522 3.75774 23.4807 4.28745C24.8769 6.01816 25.3319 7.15077 25.002 8.06066C24.8988 8.35493 25.89 9.45254 27.0033 10.6456L27.0643 10.7155C27.3003 11.0162 27.7538 11.8545 26.8704 13.1573C26.1871 14.1579 24.572 15.5688 23.1383 15.0932C22.874 15.0058 22.5128 14.8785 22.0766 14.7099C21.8561 15.2189 21.8593 15.8679 22.0766 16.6012C22.1298 16.773 22.1986 16.9783 22.2767 17.2121C22.9041 18.9758 23.3414 20.8036 23.5807 22.6635C23.5979 22.8104 23.5864 22.9594 23.547 23.1018C23.5075 23.2443 23.4409 23.3774 23.3509 23.4937C23.2608 23.6099 23.1492 23.707 23.0223 23.7794C22.8954 23.8517 22.7558 23.8979 22.6113 23.9154C22.4669 23.9328 22.3205 23.9211 22.1805 23.881C22.0405 23.8409 21.9096 23.7731 21.7953 23.6815C21.6811 23.5899 21.5856 23.4764 21.5145 23.3472C21.4434 23.2181 21.398 23.0761 21.3808 22.9291C21.161 21.226 20.7578 19.5525 20.1785 17.939C20.0941 17.6829 20.0222 17.4618 19.9627 17.2725C19.4186 15.5037 19.7892 14.2358 20.1972 13.4834C20.2889 13.3106 20.3934 13.1452 20.5099 12.9887C20.64 12.8162 20.7855 12.6565 20.9446 12.5115L21.4497 12.0597L22.075 12.3047C22.8068 12.5926 23.3837 12.8074 23.7496 12.9314C24.081 12.8758 24.7768 12.2824 25.0598 11.8514C23.4041 10.0697 22.4253 8.90374 22.8709 7.42594C22.7145 6.85488 21.509 5.28644 20.2019 3.97885L19.6203 3.39506L19.9956 2.65696C20.0548 2.53448 20.107 2.4086 20.1519 2.27996C19.5265 2.36109 18.6603 2.78899 17.8645 4.02976L17.6816 4.30497L17.3689 4.43859C17.3532 4.44494 15.5551 5.25937 13.5226 7.4864C11.6464 9.53364 9.20258 13.2289 8.11747 19.2259C7.9775 21.2871 7.4766 23.3061 6.6384 25.188C5.41886 27.9288 3.35499 33.5424 3.37688 37.1899C3.3872 37.4796 3.30589 37.765 3.14489 38.0041C2.9839 38.2432 2.75173 38.4234 2.48254 38.5182C2.73285 38.4924 2.98492 38.5454 3.20469 38.67C3.42447 38.7946 3.60136 38.9848 3.71147 39.2149L3.76619 39.3295L3.7959 39.4536C4.47604 42.3932 5.53611 43.739 6.38667 44.819C6.90575 45.4777 7.35292 46.0469 7.56245 46.7947L7.57181 46.8297C7.84697 47.9527 7.62653 48.866 6.8354 49.8807C6.00983 50.9943 6.1412 51.3776 6.15837 51.419C6.17559 51.4604 6.42417 51.9677 8.44114 52.125C9.93899 52.2193 14.8516 52.3335 14.9 52.3352H14.9422C15.2374 52.3502 15.5332 52.3429 15.8272 52.3131C15.0142 51.7196 13.7634 51.7498 12.8362 51.772C12.4384 51.8019 12.0385 51.7844 11.6448 51.7196C10.4346 51.4459 10.1751 50.7125 10.1282 50.3007C9.99216 49.0791 11.2789 48.1945 13.4006 47.1622L13.4444 47.1414C14.1449 46.8391 17.6049 45.1882 17.2735 42.2866C16.7325 39.4233 15.5536 38.1507 13.6774 36.401C13.4874 36.1941 13.3809 35.922 13.3792 35.6389C13.3775 35.3558 13.4807 35.0824 13.6682 34.8732C13.8557 34.664 14.1137 34.5343 14.391 34.51C14.6682 34.4856 14.9443 34.5684 15.1643 34.7418C17.2563 36.692 18.7885 38.348 19.4515 41.9001L19.4624 41.9701C19.8939 45.4696 17.0984 47.9988 14.3294 49.2045C14.1042 49.3107 13.9025 49.4126 13.7243 49.5102C14.8828 49.5371 16.3354 49.7421 17.4548 50.759L17.4877 50.7888C18.3789 51.6688 18.6587 52.5117 18.3194 53.2992C17.8566 54.3839 16.4151 54.6022 15.3332 54.6022ZM22.9147 7.28913V7.30345V7.28913Z" fill="#7C4032"/>
<path id="Vector_5" d="M62.9357 39.5947C62.7811 39.595 62.6287 39.5625 62.4876 39.4992C62.3465 39.4359 62.2201 39.3433 62.1163 39.2273C61.2159 38.2289 60.3932 37.161 59.6553 36.0331C59.4928 35.784 59.4344 35.4794 59.4928 35.1865C59.5512 34.8936 59.7217 34.6362 59.9665 34.471C60.2114 34.3058 60.5104 34.2464 60.7985 34.3057C61.0866 34.3651 61.3394 34.5384 61.5019 34.7876C62.1772 35.819 62.9302 36.7959 63.7533 37.7097C63.8982 37.871 63.994 38.0717 64.0288 38.2874C64.0637 38.5031 64.036 38.7245 63.9495 38.9245C63.863 39.1245 63.7206 39.2945 63.5408 39.4138C63.3607 39.5331 63.1503 39.5965 62.9357 39.5963V39.5947Z" fill="#7C4032"/>
<path id="Vector_6" d="M54.2384 34.4328C52.2684 34.4328 50.9908 33.8538 50.2324 32.683C50.0106 32.3305 49.8658 31.9338 49.807 31.5195C49.7482 31.1053 49.7771 30.683 49.8918 30.2811C50.0963 29.5398 50.6733 28.4883 52.2932 27.6993C53.3175 27.2094 53.9146 26.9644 54.6055 26.6813C55.2044 26.4347 55.883 26.1563 57.0026 25.652C59.6308 24.4892 59.8559 22.6106 59.8639 22.5311V22.5485L62.0746 22.7076C62.0653 22.8412 61.7961 25.9845 57.8938 27.7104C56.7477 28.2274 56.0519 28.5137 55.4358 28.7667C54.7479 29.0498 54.2053 29.2725 53.2469 29.7307C52.5792 30.0568 52.1432 30.4688 52.029 30.8855C52 30.9771 51.9904 31.0737 52.0004 31.1693C52.0105 31.2649 52.0399 31.3573 52.087 31.4407C52.8156 32.5542 55.7205 32.3856 60.4829 30.9317H60.5001C63.4285 30.0902 64.9938 29.053 65.9021 27.3541C66.0479 27.1022 66.2843 26.9177 66.5615 26.8397C66.8382 26.7616 67.1343 26.7961 67.3867 26.9358C67.6391 27.0755 67.8285 27.3095 67.9146 27.5885C68.0011 27.8674 67.9772 28.1695 67.8487 28.431C66.6417 30.6914 64.6263 32.0897 61.1116 33.0998C58.2143 33.989 55.9611 34.4328 54.2384 34.4328Z" fill="#7C4032"/>
<path id="Vector_7" d="M64.6702 54.6018C63.5884 54.6018 62.1466 54.3835 61.6775 53.3005C61.3382 52.5131 61.6183 51.6697 62.5095 50.7902L62.5393 50.7535C63.6585 49.7371 65.1111 49.532 66.2711 49.5051C66.0913 49.4109 65.8898 49.3094 65.6647 49.1994C62.8958 47.9937 60.1001 45.4645 60.5314 41.9649L60.5423 41.8949C61.2055 38.3413 62.7316 36.6853 64.8298 34.7367C64.9369 34.6367 65.0624 34.5592 65.1993 34.5087C65.3358 34.4581 65.4811 34.4354 65.6265 34.4419C65.7718 34.4484 65.9145 34.4839 66.0464 34.5465C66.1783 34.6091 66.2967 34.6975 66.395 34.8066C66.4928 34.9158 66.5693 35.0436 66.6188 35.1826C66.6688 35.3218 66.6911 35.4695 66.6843 35.6173C66.678 35.7652 66.6432 35.9103 66.5819 36.0444C66.5201 36.1785 66.4332 36.299 66.3261 36.399C64.4497 38.1488 63.2679 39.4214 62.7299 42.2846C62.3999 45.1861 65.857 46.8374 66.5588 47.1397L66.6029 47.1602C68.7245 48.1928 70.013 49.0771 69.8752 50.2986C69.8282 50.7109 69.5703 51.4442 68.3587 51.7175C67.9648 51.7823 67.565 51.8002 67.1673 51.7699C66.24 51.7478 64.9894 51.7175 64.1763 52.311C64.4707 52.3417 64.7672 52.3489 65.0629 52.3331H65.1032C65.1519 52.3331 70.0659 52.2172 71.5622 52.1234C73.5793 51.9643 73.8338 51.4391 73.8452 51.4169C73.8561 51.3947 74.0014 50.9922 73.1678 49.8786C72.377 48.8639 72.1565 47.9506 72.4316 46.8276L72.4408 46.7926C72.6504 46.0452 73.0993 45.4756 73.6167 44.8169C74.4671 43.7369 75.5271 42.3912 76.2075 39.4516L76.2373 39.3275L76.2919 39.2114C76.4023 38.9818 76.5787 38.7921 76.7984 38.6678C77.0176 38.5435 77.2696 38.4906 77.5195 38.5162C77.2486 38.4198 77.0159 38.2374 76.8551 37.9959C76.6942 37.7544 76.614 37.4667 76.6266 37.1752C76.6438 33.5405 74.5847 27.9268 73.3652 25.1844C72.5265 23.3032 72.0255 21.2846 71.886 19.2239C69.7938 7.66576 62.6955 4.46365 62.63 4.4382L62.3171 4.30458L62.134 4.01982C61.3382 2.78701 60.4642 2.35911 59.8452 2.27003C59.8897 2.39985 59.9418 2.52681 60.0014 2.65021L60.3706 3.38513L59.7935 3.96892C58.4849 5.2765 57.2746 6.84652 57.1247 7.41762C57.5576 8.90015 56.5804 10.063 54.9278 11.8414C55.2109 12.2725 55.9068 12.8658 56.2381 12.9215C56.6039 12.7974 57.1763 12.5811 57.9125 12.2948L58.5383 12.0498L59.0431 12.5015C59.2022 12.6468 59.3484 12.8066 59.4794 12.9788C59.5953 13.1361 59.6999 13.302 59.7919 13.4751C60.1984 14.2259 60.5738 15.4937 60.0266 17.2642C59.9687 17.4503 59.8935 17.6746 59.8078 17.9291C59.2308 19.5433 58.8285 21.2165 58.6067 22.9192C58.5723 23.216 58.4232 23.4866 58.1922 23.6716C57.9617 23.8566 57.6681 23.9407 57.3762 23.9054C57.0848 23.8702 56.8185 23.7185 56.6367 23.4838C56.4552 23.249 56.3725 22.9503 56.4069 22.6536C56.6463 20.7942 57.0835 18.9669 57.7109 17.2037C57.789 16.9683 57.8579 16.7631 57.9113 16.5913C58.1364 15.858 58.138 15.209 57.9113 14.6999C57.4703 14.8685 57.1137 14.9958 56.8508 15.0833C55.4095 15.5605 53.796 14.148 53.1157 13.1474C52.2325 11.843 52.6856 11.0063 52.9233 10.7056L52.983 10.6356C54.0963 9.44261 55.0874 8.34499 54.9795 8.03797C54.6544 7.13606 55.1093 6.00822 56.5056 4.27751C56.934 3.74781 57.3716 3.25946 57.6983 2.90791C57.5169 2.34161 57.4014 1.62261 57.6719 1.01495C57.7722 0.786811 57.9234 0.58549 58.1137 0.426791C58.3035 0.26809 58.5269 0.15633 58.7663 0.100284C60.0968 -0.236949 62.1794 0.206863 63.7933 2.50386C65.3396 3.29923 72.0049 7.35397 74.0623 18.8883L74.0778 18.9742V19.0633C74.1996 20.8544 74.6347 22.609 75.3634 24.2443C75.7073 25.0174 78.6248 31.7111 78.8121 36.6519C79.1258 36.8431 79.395 37.1008 79.6021 37.4075C79.7827 37.6707 79.9032 37.9718 79.9544 38.2887C80.0061 38.6055 79.9868 38.93 79.899 39.2384C79.7768 39.6335 79.547 39.9853 79.2367 40.2533C78.9263 40.5213 78.5475 40.6945 78.1448 40.7528C77.3393 43.667 76.1403 45.1878 75.3302 46.2234C74.9535 46.7005 74.6532 47.0821 74.5612 47.3908C74.4781 47.7327 74.4659 47.9331 74.8943 48.4806L74.9115 48.5028C75.3193 49.0515 76.564 50.7219 75.8493 52.3378C75.3226 53.5278 73.9733 54.1929 71.7076 54.3677H71.6903C70.194 54.4602 65.5521 54.5698 65.1582 54.5792C65.0204 54.5954 64.8499 54.6018 64.6702 54.6018ZM57.0856 7.27603V7.29351V7.27603Z" fill="#7C4032"/>
<path id="Vector_8" d="M54.3084 24.9681C54.1631 24.9683 54.0186 24.9392 53.8842 24.8826C53.7494 24.826 53.6272 24.743 53.5243 24.6382C53.4214 24.5334 53.3395 24.409 53.2841 24.2721C53.2282 24.1352 53.1997 23.9884 53.2001 23.8403V22.6281C53.2001 22.1159 52.87 21.6832 52.4807 21.6832H27.516C27.1267 21.6832 26.7983 22.1159 26.7983 22.6281V23.8403C26.8039 23.9918 26.7794 24.143 26.7262 24.2846C26.6731 24.4264 26.5924 24.5557 26.489 24.665C26.3856 24.7742 26.2615 24.8611 26.1244 24.9205C25.9872 24.9798 25.8397 25.0104 25.6906 25.0104C25.5415 25.0104 25.3939 24.9798 25.2567 24.9205C25.1195 24.8611 24.9956 24.7742 24.8921 24.665C24.7887 24.5557 24.708 24.4264 24.6548 24.2846C24.6017 24.143 24.5772 23.9918 24.5828 23.8403V22.6281C24.5828 20.864 25.8993 19.4292 27.516 19.4292H52.4807C54.0988 19.4292 55.4171 20.8608 55.4171 22.6281V23.8403C55.4171 24.1393 55.3003 24.4262 55.0924 24.6377C54.8846 24.8492 54.6023 24.9681 54.3084 24.9681Z" fill="#7C4032"/>
<path id="Vector_9" d="M52.4798 42.7188H27.5152C25.8985 42.7188 24.582 41.2873 24.582 39.5215V37.0909C24.5928 36.7993 24.7142 36.5234 24.9208 36.321C25.1274 36.1185 25.403 36.0055 25.6898 36.0055C25.9766 36.0055 26.2522 36.1185 26.4588 36.321C26.6653 36.5234 26.7868 36.7993 26.7975 37.0909V39.5215C26.7975 40.0322 27.1258 40.4649 27.5152 40.4649H52.4798C52.8692 40.4649 53.1992 40.0322 53.1992 39.5215V37.0909C53.1992 36.7918 53.316 36.505 53.5239 36.2934C53.7318 36.082 54.0136 35.9631 54.3075 35.9631C54.6015 35.9631 54.8837 36.082 55.0916 36.2934C55.2995 36.505 55.4162 36.7918 55.4162 37.0909V39.5215C55.4162 41.2841 54.095 42.7188 52.4798 42.7188Z" fill="#7C4032"/>
</g>
<defs>
<clipPath id="clip0_37_98">
<rect width="244" height="55" fill="white"/>
</clipPath>
</defs>
</svg>
