<svg width="244" height="50" viewBox="0 0 244 50" fill="none" xmlns="http://www.w3.org/2000/svg">
<g id="7 1" clip-path="url(#clip0_37_108)">
<path id="Vector" d="M64.5659 29.6875L60.1486 21.5625H59.486V29.6875H53.3019V7.65625H63.0514C64.8393 7.65625 66.3538 7.96875 67.5948 8.59375C68.8359 9.19792 69.7719 10.0417 70.4029 11.125C71.034 12.1875 71.3495 13.3854 71.3495 14.7188C71.3495 16.2188 70.9288 17.5417 70.0874 18.6875C69.2671 19.8125 68.0576 20.6146 66.459 21.0938L71.4757 29.6875H64.5659ZM59.486 17.375H62.5466C63.3879 17.375 64.019 17.1771 64.4397 16.7813C64.8603 16.3854 65.0707 15.8125 65.0707 15.0625C65.0707 14.3542 64.8498 13.8021 64.4081 13.4062C63.9874 12.9896 63.3669 12.7813 62.5466 12.7813H59.486V17.375ZM82.3968 29.9063C80.6299 29.9063 79.0418 29.5417 77.6325 28.8125C76.2442 28.0833 75.1504 27.0417 74.3511 25.6875C73.5518 24.3333 73.1521 22.7396 73.1521 20.9063C73.1521 19.0938 73.5518 17.5104 74.3511 16.1563C75.1714 14.8021 76.2758 13.7604 77.664 13.0313C79.0733 12.3021 80.6614 11.9375 82.4283 11.9375C84.1952 11.9375 85.7728 12.3021 87.1611 13.0313C88.5704 13.7604 89.6747 14.8021 90.474 16.1563C91.2944 17.5104 91.7046 19.0938 91.7046 20.9063C91.7046 22.7188 91.2944 24.3125 90.474 25.6875C89.6747 27.0417 88.5704 28.0833 87.1611 28.8125C85.7518 29.5417 84.1637 29.9063 82.3968 29.9063ZM82.3968 24.5938C83.2592 24.5938 83.9744 24.2813 84.5423 23.6563C85.1313 23.0104 85.4258 22.0938 85.4258 20.9063C85.4258 19.7188 85.1313 18.8125 84.5423 18.1875C83.9744 17.5625 83.2697 17.25 82.4283 17.25C81.587 17.25 80.8823 17.5625 80.3144 18.1875C79.7464 18.8125 79.4625 19.7188 79.4625 20.9063C79.4625 22.1146 79.7359 23.0313 80.2828 23.6563C80.8297 24.2813 81.5344 24.5938 82.3968 24.5938ZM112.331 12.1563V29.6875H106.116V27.1875C105.59 27.9792 104.864 28.625 103.939 29.125C103.013 29.6042 101.951 29.8438 100.752 29.8438C98.6906 29.8438 97.0605 29.1771 95.8615 27.8438C94.6836 26.4896 94.0946 24.6563 94.0946 22.3438V12.1563H100.247V21.5625C100.247 22.5625 100.51 23.3542 101.036 23.9375C101.583 24.5 102.298 24.7813 103.181 24.7813C104.086 24.7813 104.801 24.5 105.327 23.9375C105.853 23.3542 106.116 22.5625 106.116 21.5625V12.1563H112.331ZM127.43 12C129.47 12 131.09 12.6771 132.289 14.0313C133.488 15.3646 134.087 17.1771 134.087 19.4688V29.6875H127.903V20.2812C127.903 19.2812 127.64 18.5 127.115 17.9375C126.589 17.3542 125.884 17.0625 125.001 17.0625C124.075 17.0625 123.349 17.3542 122.823 17.9375C122.298 18.5 122.035 19.2812 122.035 20.2812V29.6875H115.851V12.1563H122.035V14.6562C122.582 13.8646 123.318 13.2292 124.243 12.75C125.169 12.25 126.231 12 127.43 12ZM136.471 20.9063C136.471 19.0938 136.797 17.5104 137.449 16.1563C138.122 14.8021 139.037 13.7604 140.194 13.0313C141.351 12.3021 142.634 11.9375 144.044 11.9375C145.179 11.9375 146.189 12.1771 147.073 12.6562C147.977 13.1146 148.682 13.75 149.187 14.5625V6.5625H155.402V29.6875H149.187V27.25C148.703 28.0625 148.019 28.7083 147.136 29.1875C146.252 29.6667 145.211 29.9063 144.012 29.9063C142.603 29.9063 141.32 29.5417 140.163 28.8125C139.027 28.0833 138.122 27.0417 137.449 25.6875C136.797 24.3125 136.471 22.7188 136.471 20.9063ZM149.218 20.9063C149.218 19.7812 148.903 18.8958 148.272 18.25C147.662 17.6042 146.904 17.2813 146 17.2813C145.074 17.2813 144.307 17.6042 143.697 18.25C143.087 18.875 142.782 19.7604 142.782 20.9063C142.782 22.0313 143.087 22.9271 143.697 23.5938C144.307 24.2396 145.074 24.5625 146 24.5625C146.904 24.5625 147.662 24.2396 148.272 23.5938C148.903 22.9479 149.218 22.0521 149.218 20.9063ZM176.23 29.6875L171.812 21.5625H171.15V29.6875H164.966V7.65625H174.715C176.503 7.65625 178.017 7.96875 179.258 8.59375C180.5 9.19792 181.436 10.0417 182.067 11.125C182.698 12.1875 183.013 13.3854 183.013 14.7188C183.013 16.2188 182.592 17.5417 181.751 18.6875C180.931 19.8125 179.721 20.6146 178.123 21.0938L183.139 29.6875H176.23ZM171.15 17.375H174.21C175.052 17.375 175.683 17.1771 176.103 16.7813C176.524 16.3854 176.734 15.8125 176.734 15.0625C176.734 14.3542 176.513 13.8021 176.072 13.4062C175.651 12.9896 175.031 12.7813 174.21 12.7813H171.15V17.375ZM194.06 29.9063C192.294 29.9063 190.705 29.5417 189.296 28.8125C187.908 28.0833 186.814 27.0417 186.015 25.6875C185.215 24.3333 184.816 22.7396 184.816 20.9063C184.816 19.0938 185.215 17.5104 186.015 16.1563C186.835 14.8021 187.939 13.7604 189.328 13.0313C190.737 12.3021 192.325 11.9375 194.092 11.9375C195.859 11.9375 197.436 12.3021 198.825 13.0313C200.234 13.7604 201.338 14.8021 202.138 16.1563C202.958 17.5104 203.368 19.0938 203.368 20.9063C203.368 22.7188 202.958 24.3125 202.138 25.6875C201.338 27.0417 200.234 28.0833 198.825 28.8125C197.415 29.5417 195.827 29.9063 194.06 29.9063ZM194.06 24.5938C194.923 24.5938 195.638 24.2813 196.206 23.6563C196.795 23.0104 197.089 22.0938 197.089 20.9063C197.089 19.7188 196.795 18.8125 196.206 18.1875C195.638 17.5625 194.933 17.25 194.092 17.25C193.251 17.25 192.546 17.5625 191.978 18.1875C191.41 18.8125 191.126 19.7188 191.126 20.9063C191.126 22.1146 191.4 23.0313 191.946 23.6563C192.493 24.2813 193.198 24.5938 194.06 24.5938ZM204.874 20.9063C204.874 19.0938 205.253 17.5104 206.01 16.1563C206.767 14.8021 207.819 13.7604 209.165 13.0313C210.533 12.3021 212.089 11.9375 213.835 11.9375C216.086 11.9375 217.979 12.5521 219.514 13.7812C221.05 14.9896 222.038 16.6875 222.48 18.875H215.917C215.539 17.7292 214.803 17.1562 213.709 17.1562C212.93 17.1562 212.31 17.4792 211.847 18.125C211.405 18.75 211.185 19.6771 211.185 20.9063C211.185 22.1354 211.405 23.0729 211.847 23.7188C212.31 24.3646 212.93 24.6875 213.709 24.6875C214.824 24.6875 215.56 24.1146 215.917 22.9688H222.48C222.038 25.1354 221.05 26.8333 219.514 28.0625C217.979 29.2917 216.086 29.9063 213.835 29.9063C212.089 29.9063 210.533 29.5417 209.165 28.8125C207.819 28.0833 206.767 27.0417 206.01 25.6875C205.253 24.3333 204.874 22.7396 204.874 20.9063ZM236.124 29.6875L231.234 22.5V29.6875H225.049V6.5625H231.234V19.0313L236.124 12.1563H243.539L236.566 20.9688L243.665 29.6875H236.124ZM61.4312 36.4401L57.91 43.2042V46.3542H55.113V43.2042L51.5918 36.4401H54.7722L56.5328 40.2651L58.2934 36.4401H61.4312ZM65.5229 42.4026C65.5229 41.587 65.6696 40.8745 65.9631 40.2651C66.266 39.6557 66.673 39.187 67.1841 38.8589C67.7047 38.5307 68.2821 38.3667 68.9163 38.3667C69.4653 38.3667 69.9386 38.4745 70.3362 38.6901C70.7337 38.9057 71.0413 39.1964 71.259 39.562V38.4651H74.0419V46.3542H71.259V45.2573C71.0413 45.6229 70.729 45.9135 70.3219 46.1292C69.9244 46.3448 69.4559 46.4526 68.9163 46.4526C68.2821 46.4526 67.7047 46.2885 67.1841 45.9604C66.673 45.6323 66.266 45.1635 65.9631 44.5542C65.6696 43.9354 65.5229 43.2182 65.5229 42.4026ZM71.259 42.4026C71.259 41.8964 71.1171 41.4979 70.8331 41.2073C70.5586 40.9167 70.2178 40.7714 69.8108 40.7714C69.3943 40.7714 69.0488 40.9167 68.7743 41.2073C68.4998 41.4885 68.3626 41.887 68.3626 42.4026C68.3626 42.9089 68.4998 43.312 68.7743 43.612C69.0488 43.9026 69.3943 44.0479 69.8108 44.0479C70.2178 44.0479 70.5586 43.9026 70.8331 43.612C71.1171 43.3214 71.259 42.9182 71.259 42.4026ZM82.1018 39.8573C82.4141 39.4073 82.7928 39.051 83.2376 38.7885C83.6825 38.526 84.1605 38.3948 84.6717 38.3948V41.3339H83.8908C83.285 41.3339 82.8354 41.451 82.5419 41.6854C82.2485 41.9198 82.1018 42.3276 82.1018 42.9089V46.3542H79.3189V38.4651H82.1018V39.8573ZM88.9064 42.4026C88.9064 41.587 89.0532 40.8745 89.3466 40.2651C89.6495 39.6557 90.0612 39.187 90.5818 38.8589C91.1024 38.5307 91.6798 38.3667 92.314 38.3667C92.8252 38.3667 93.2795 38.4745 93.6771 38.6901C94.0841 38.8964 94.4012 39.1823 94.6283 39.5479V35.9479H97.4254V46.3542H94.6283V45.2573C94.4106 45.6229 94.103 45.9135 93.7055 46.1292C93.3079 46.3448 92.8394 46.4526 92.2998 46.4526C91.6656 46.4526 91.0882 46.2885 90.5676 45.9604C90.0565 45.6323 89.6495 45.1635 89.3466 44.5542C89.0532 43.9354 88.9064 43.2182 88.9064 42.4026ZM94.6425 42.4026C94.6425 41.8964 94.5006 41.4979 94.2166 41.2073C93.9421 40.9167 93.6013 40.7714 93.1943 40.7714C92.7778 40.7714 92.4323 40.9167 92.1578 41.2073C91.8833 41.4885 91.7461 41.887 91.7461 42.4026C91.7461 42.9089 91.8833 43.312 92.1578 43.612C92.4323 43.9026 92.7778 44.0479 93.1943 44.0479C93.6013 44.0479 93.9421 43.9026 94.2166 43.612C94.5006 43.3214 94.6425 42.9182 94.6425 42.4026ZM120.797 36.4401V46.3542H118.014V40.8839L116.126 46.3542H113.798L111.895 40.8417V46.3542H109.112V36.4401H112.477L114.99 42.8807L117.447 36.4401H120.797ZM125.618 42.4026C125.618 41.587 125.765 40.8745 126.059 40.2651C126.361 39.6557 126.769 39.187 127.28 38.8589C127.8 38.5307 128.378 38.3667 129.012 38.3667C129.561 38.3667 130.034 38.4745 130.432 38.6901C130.829 38.9057 131.137 39.1964 131.355 39.562V38.4651H134.137V46.3542H131.355V45.2573C131.137 45.6229 130.824 45.9135 130.417 46.1292C130.02 46.3448 129.551 46.4526 129.012 46.4526C128.378 46.4526 127.8 46.2885 127.28 45.9604C126.769 45.6323 126.361 45.1635 126.059 44.5542C125.765 43.9354 125.618 43.2182 125.618 42.4026ZM131.355 42.4026C131.355 41.8964 131.213 41.4979 130.929 41.2073C130.654 40.9167 130.313 40.7714 129.906 40.7714C129.49 40.7714 129.144 40.9167 128.87 41.2073C128.595 41.4885 128.458 41.887 128.458 42.4026C128.458 42.9089 128.595 43.312 128.87 43.612C129.144 43.9026 129.49 44.0479 129.906 44.0479C130.313 44.0479 130.654 43.9026 130.929 43.612C131.213 43.3214 131.355 42.9182 131.355 42.4026ZM140.821 37.7339C140.328 37.7339 139.931 37.6026 139.628 37.3401C139.335 37.0682 139.188 36.7307 139.188 36.3276C139.188 35.9151 139.335 35.5729 139.628 35.301C139.931 35.0292 140.328 34.8932 140.821 34.8932C141.303 34.8932 141.691 35.0292 141.985 35.301C142.288 35.5729 142.439 35.9151 142.439 36.3276C142.439 36.7307 142.288 37.0682 141.985 37.3401C141.691 37.6026 141.303 37.7339 140.821 37.7339ZM142.198 38.4651V46.3542H139.415V38.4651H142.198ZM152.685 38.3948C153.603 38.3948 154.332 38.6995 154.872 39.3089C155.411 39.9089 155.681 40.7245 155.681 41.7557V46.3542H152.898V42.1214C152.898 41.6714 152.78 41.3198 152.543 41.0667C152.306 40.8042 151.989 40.6729 151.592 40.6729C151.175 40.6729 150.849 40.8042 150.612 41.0667C150.376 41.3198 150.257 41.6714 150.257 42.1214V46.3542H147.474V38.4651H150.257V39.5901C150.503 39.2339 150.835 38.9479 151.251 38.7323C151.668 38.5073 152.146 38.3948 152.685 38.3948ZM165.599 44.0057V46.3542H164.392C162.357 46.3542 161.339 45.3557 161.339 43.3589V40.7573H160.36V38.4651H161.339V36.5526H164.136V38.4651H165.584V40.7573H164.136V43.401C164.136 43.6167 164.184 43.7714 164.278 43.8651C164.382 43.9589 164.553 44.0057 164.789 44.0057H165.599ZM178.177 42.3182C178.177 42.5339 178.163 42.7495 178.135 42.9651H172.867C172.896 43.3964 173.014 43.7198 173.222 43.9354C173.44 44.1417 173.714 44.2448 174.046 44.2448C174.509 44.2448 174.841 44.0385 175.039 43.626H178.007C177.884 44.1698 177.643 44.6573 177.283 45.0885C176.933 45.5104 176.488 45.8432 175.948 46.087C175.409 46.3307 174.812 46.4526 174.159 46.4526C173.374 46.4526 172.673 46.2885 172.058 45.9604C171.452 45.6323 170.974 45.1635 170.624 44.5542C170.283 43.9448 170.113 43.2276 170.113 42.4026C170.113 41.5776 170.283 40.8651 170.624 40.2651C170.965 39.6557 171.438 39.187 172.044 38.8589C172.659 38.5307 173.364 38.3667 174.159 38.3667C174.945 38.3667 175.641 38.526 176.246 38.8448C176.852 39.1635 177.325 39.6229 177.666 40.2229C178.007 40.8135 178.177 41.512 178.177 42.3182ZM175.338 41.6292C175.338 41.2917 175.224 41.0292 174.997 40.8417C174.77 40.6448 174.486 40.5464 174.145 40.5464C173.804 40.5464 173.525 40.6401 173.307 40.8276C173.09 41.0057 172.948 41.2729 172.881 41.6292H175.338ZM188.218 38.3948C189.136 38.3948 189.865 38.6995 190.405 39.3089C190.944 39.9089 191.214 40.7245 191.214 41.7557V46.3542H188.431V42.1214C188.431 41.6714 188.313 41.3198 188.076 41.0667C187.839 40.8042 187.522 40.6729 187.125 40.6729C186.708 40.6729 186.382 40.8042 186.145 41.0667C185.909 41.3198 185.79 41.6714 185.79 42.1214V46.3542H183.007V38.4651H185.79V39.5901C186.036 39.2339 186.368 38.9479 186.784 38.7323C187.201 38.5073 187.679 38.3948 188.218 38.3948ZM195.978 42.4026C195.978 41.587 196.125 40.8745 196.418 40.2651C196.721 39.6557 197.128 39.187 197.639 38.8589C198.16 38.5307 198.737 38.3667 199.372 38.3667C199.921 38.3667 200.394 38.4745 200.791 38.6901C201.189 38.9057 201.497 39.1964 201.714 39.562V38.4651H204.497V46.3542H201.714V45.2573C201.497 45.6229 201.184 45.9135 200.777 46.1292C200.38 46.3448 199.911 46.4526 199.372 46.4526C198.737 46.4526 198.16 46.2885 197.639 45.9604C197.128 45.6323 196.721 45.1635 196.418 44.5542C196.125 43.9354 195.978 43.2182 195.978 42.4026ZM201.714 42.4026C201.714 41.8964 201.572 41.4979 201.288 41.2073C201.014 40.9167 200.673 40.7714 200.266 40.7714C199.85 40.7714 199.504 40.9167 199.23 41.2073C198.955 41.4885 198.818 41.887 198.818 42.4026C198.818 42.9089 198.955 43.312 199.23 43.612C199.504 43.9026 199.85 44.0479 200.266 44.0479C200.673 44.0479 201.014 43.9026 201.288 43.612C201.572 43.3214 201.714 42.9182 201.714 42.4026ZM214.986 38.3948C215.904 38.3948 216.633 38.6995 217.172 39.3089C217.712 39.9089 217.981 40.7245 217.981 41.7557V46.3542H215.199V42.1214C215.199 41.6714 215.08 41.3198 214.844 41.0667C214.607 40.8042 214.29 40.6729 213.892 40.6729C213.476 40.6729 213.149 40.8042 212.913 41.0667C212.676 41.3198 212.558 41.6714 212.558 42.1214V46.3542H209.775V38.4651H212.558V39.5901C212.804 39.2339 213.135 38.9479 213.552 38.7323C213.968 38.5073 214.446 38.3948 214.986 38.3948ZM222.745 42.4026C222.745 41.587 222.916 40.8745 223.256 40.2651C223.597 39.6557 224.07 39.187 224.676 38.8589C225.291 38.5307 225.992 38.3667 226.777 38.3667C227.79 38.3667 228.642 38.6432 229.333 39.1964C230.024 39.7401 230.469 40.5042 230.668 41.4885H227.715C227.544 40.9729 227.213 40.7151 226.721 40.7151C226.37 40.7151 226.091 40.8604 225.883 41.151C225.684 41.4323 225.585 41.8495 225.585 42.4026C225.585 42.9557 225.684 43.3776 225.883 43.6682C226.091 43.9589 226.37 44.1042 226.721 44.1042C227.222 44.1042 227.554 43.8464 227.715 43.3307H230.668C230.469 44.3057 230.024 45.0698 229.333 45.6229C228.642 46.176 227.79 46.4526 226.777 46.4526C225.992 46.4526 225.291 46.2885 224.676 45.9604C224.07 45.6323 223.597 45.1635 223.256 44.5542C222.916 43.9448 222.745 43.2276 222.745 42.4026ZM243.126 42.3182C243.126 42.5339 243.112 42.7495 243.083 42.9651H237.816C237.844 43.3964 237.963 43.7198 238.171 43.9354C238.389 44.1417 238.663 44.2448 238.994 44.2448C239.458 44.2448 239.789 44.0385 239.988 43.626H242.956C242.833 44.1698 242.591 44.6573 242.232 45.0885C241.881 45.5104 241.436 45.8432 240.897 46.087C240.357 46.3307 239.761 46.4526 239.108 46.4526C238.322 46.4526 237.622 46.2885 237.007 45.9604C236.401 45.6323 235.923 45.1635 235.573 44.5542C235.232 43.9448 235.061 43.2276 235.061 42.4026C235.061 41.5776 235.232 40.8651 235.573 40.2651C235.913 39.6557 236.387 39.187 236.992 38.8589C237.608 38.5307 238.313 38.3667 239.108 38.3667C239.894 38.3667 240.589 38.526 241.195 38.8448C241.801 39.1635 242.274 39.6229 242.615 40.2229C242.956 40.8135 243.126 41.512 243.126 42.3182ZM240.286 41.6292C240.286 41.2917 240.173 41.0292 239.946 40.8417C239.718 40.6448 239.434 40.5464 239.094 40.5464C238.753 40.5464 238.474 40.6401 238.256 40.8276C238.038 41.0057 237.896 41.2729 237.83 41.6292H240.286Z" fill="#7C4032"/>
<g id="Group">
<path id="Vector_2" d="M7.37598 24.9375C7.3042 25.0599 7.2778 25.2037 7.30136 25.3437C7.32492 25.4837 7.39691 25.6109 7.50471 25.7028C11.5296 29.1238 12.4911 34.5669 12.6428 35.6231C12.6634 35.7663 12.7346 35.8974 12.8434 35.9924C12.9523 36.0873 13.0916 36.1397 13.2358 36.1401C13.2642 36.1398 13.2925 36.1375 13.3205 36.1333C13.4777 36.1106 13.6195 36.0262 13.7148 35.8986C13.8101 35.7711 13.8511 35.6109 13.8288 35.453C13.6425 34.1553 12.8919 30.2752 10.3148 26.9307C11.8939 27.7071 13.4646 28.7318 14.9157 30.316C16.4678 32.1171 17.4123 34.7974 17.4217 34.8229C17.4468 34.8985 17.4867 34.9683 17.539 35.0283C17.5913 35.0884 17.6549 35.1373 17.7262 35.1725C17.7975 35.2076 17.875 35.2282 17.9542 35.233C18.0335 35.2378 18.1129 35.2268 18.1879 35.2006C18.2629 35.1744 18.332 35.1334 18.3911 35.0802C18.4502 35.027 18.4982 34.9625 18.5323 34.8905C18.5664 34.8185 18.5858 34.7404 18.5896 34.6608C18.5934 34.5811 18.5814 34.5015 18.5543 34.4266C18.5145 34.311 17.5759 31.6434 15.9484 29.6765C15.8247 27.9308 15.3902 24.4443 13.8746 21.2181C15.2629 22.508 16.4709 23.9805 17.4657 25.5957L17.4767 25.6152C18.4757 27.2459 19.2744 28.9919 19.8556 30.8151V30.8211V30.8296C20.1097 31.623 20.4164 32.9249 20.618 33.879C20.6467 34.0139 20.7207 34.1349 20.8275 34.2218C20.9343 34.3086 21.0676 34.356 21.2051 34.356C21.2472 34.356 21.2892 34.3517 21.3305 34.3433C21.4862 34.3098 21.6223 34.2158 21.709 34.0817C21.7958 33.9476 21.8259 33.7845 21.793 33.6282C21.5999 32.72 21.3144 31.5022 21.0602 30.6587C21.7007 28.861 22.5558 27.1478 23.6068 25.5565L23.6534 25.4877C24.662 23.9676 25.8677 22.5889 27.2386 21.3881C25.5697 24.7045 25.0639 28.3304 24.9149 29.9971V30.0056C24.9149 30.0099 24.9149 30.015 24.9149 30.0192C24.77 32.7863 25.33 34.7149 25.3537 34.7957C25.4039 34.9426 25.5086 35.0645 25.646 35.1359C25.7835 35.2072 25.9431 35.2225 26.0915 35.1787C26.24 35.1348 26.3658 35.0351 26.4428 34.9004C26.5199 34.7657 26.5421 34.6063 26.505 34.4556C26.4999 34.4385 26.0119 32.7378 26.1034 30.3118C27.3858 29.0026 28.862 27.9003 30.4799 27.0438C29.5243 28.3389 28.805 29.8798 28.3569 31.612C27.7952 33.7897 27.8613 35.493 27.8647 35.5644C27.8715 35.7193 27.9375 35.8657 28.0491 35.9729C28.1606 36.0801 28.3091 36.14 28.4636 36.1401H28.4907C28.6498 36.1331 28.7996 36.0628 28.9071 35.945C29.0146 35.8272 29.0712 35.6713 29.0643 35.5117C29.0643 35.4487 28.8431 29.157 33.4746 25.7326C33.5905 25.647 33.6719 25.5224 33.704 25.3817C33.7361 25.2409 33.7168 25.0932 33.6496 24.9655C33.5824 24.8377 33.4718 24.7385 33.3378 24.6858C33.2039 24.6331 33.0555 24.6303 32.9197 24.6782C30.3477 25.5838 28.2154 26.804 26.3228 28.4605C26.7066 25.9945 27.6453 22.2163 29.9258 19.4281C30.0159 19.3187 30.0646 19.1811 30.0634 19.0393C30.0622 18.8975 30.0112 18.7607 29.9193 18.653C29.8275 18.5452 29.7007 18.4735 29.5613 18.4504C29.422 18.4273 29.2789 18.4543 29.1575 18.5267C27.619 19.4297 25.4435 21.0582 23.3832 23.8006C22.3946 20.349 22.2708 18.303 23.1841 14.6754C23.2162 14.547 23.2053 14.4114 23.1531 14.2898C23.1009 14.1682 23.0102 14.0673 22.8951 14.0025C22.7801 13.9378 22.6469 13.9129 22.5163 13.9317C22.3857 13.9505 22.2649 14.0119 22.1726 14.1065C19.0219 17.3378 17.8605 20.7775 17.5131 23.5081C15.5799 20.8456 13.5196 19.2206 12.0371 18.292C11.9174 18.2174 11.7755 18.1873 11.6361 18.2071C11.4966 18.2269 11.3685 18.2952 11.2742 18.4001C11.1798 18.505 11.1252 18.6399 11.1199 18.7812C11.1145 18.9225 11.1588 19.0611 11.245 19.173C13.4595 22.0335 14.2947 25.8533 14.6091 28.3296C12.4988 26.4639 10.2504 25.5021 8.10367 24.6807C7.97168 24.6306 7.82628 24.6288 7.69313 24.6759C7.56003 24.7228 7.44771 24.8155 7.37598 24.9375ZM22.5063 25.0583C21.7102 26.2817 21.025 27.5743 20.4587 28.9206C19.9468 27.6073 19.3232 26.3408 18.595 25.1348C18.6517 22.8831 19.2549 19.7775 21.5457 16.6916C21.1128 19.5556 21.4813 21.701 22.5063 25.0583Z" fill="#7C4032"/>
<path id="Vector_3" d="M39.1498 34.0168C38.3281 33.3918 36.8532 34.0406 34.9987 35.8442C34.984 35.8581 34.9702 35.8729 34.9572 35.8884C33.573 37.5372 28.4959 40.8103 25.0903 41.5781L25.0708 41.5824C23.2384 42.0594 22.5369 42.0211 22.2997 41.9718C22.3844 41.7771 22.6428 41.4183 23.0791 41.0169C24.1745 40.0084 25.3588 38.726 24.7853 37.7524C24.3015 36.9326 22.8775 36.5057 15.796 38.9165C12.476 40.0466 9.0119 39.2439 5.5004 36.5296C3.83041 35.2208 2.35004 33.685 1.10191 31.9666C1.03057 31.8585 0.926425 31.7764 0.80493 31.7324C0.68343 31.6885 0.551054 31.685 0.427427 31.7225C0.303802 31.76 0.195516 31.8365 0.11863 31.9407C0.0417442 32.0448 0.000353401 32.1711 0.000597272 32.3007C-0.0035161 32.3858 0.0136675 32.4706 0.0505801 32.5473C1.46147 36.4019 3.92475 39.7801 7.1586 42.2953C10.3925 44.8106 14.2664 46.3614 18.3372 46.7704C22.4079 47.1794 26.5112 46.43 30.1775 44.608C33.8439 42.786 36.9253 39.9649 39.0693 36.4675C39.0704 36.4648 39.0719 36.4622 39.0736 36.4598L39.2244 36.2047L39.2371 36.1826C39.7394 35.2506 39.7064 34.4403 39.1498 34.0168ZM38.1866 35.6001L38.0443 35.8382C34.2617 41.9948 27.7089 45.6692 20.5079 45.6692C13.3917 45.6692 6.85076 41.948 3.1241 36.0789C3.81106 36.7293 4.53978 37.3337 5.30557 37.8884C6.9228 39.0517 8.5697 39.8536 10.2022 40.2694C12.1726 40.7912 14.2526 40.7175 16.1814 40.0577C22.093 38.0457 23.4493 38.26 23.7213 38.3697C23.6789 38.5305 23.4535 39.0364 22.2667 40.1291C21.5347 40.8018 20.7536 41.772 21.1866 42.5722C21.6194 43.3724 22.8224 43.4115 25.3622 42.7516C29.0296 41.9217 34.3083 38.5049 35.8535 36.6894C37.2996 35.2897 38.1248 34.9887 38.3899 34.9887C38.3882 35.0865 38.3501 35.2931 38.1866 35.6001Z" fill="#7C4032"/>
<path id="Vector_4" d="M40.9676 17.4552C39.5575 13.6 37.0947 10.2211 33.8609 7.70511C30.6272 5.18916 26.7531 3.63778 22.6821 3.22851C18.611 2.81923 14.5074 3.56858 10.8408 5.39084C7.17417 7.21308 4.09264 10.0346 1.94885 13.5325L1.94461 13.5393L1.79382 13.7944L1.78111 13.8174C1.27874 14.7528 1.31093 15.5606 1.86582 15.9841C2.68758 16.6091 4.16249 15.9611 6.01696 14.1575C6.03184 14.1435 6.04572 14.1285 6.05845 14.1124C7.44693 12.4619 12.524 9.18891 15.9271 8.42188L15.9465 8.41677C17.779 7.94058 18.4805 7.97886 18.7176 8.02813C18.6329 8.22287 18.3746 8.58172 17.9391 8.98224C16.8429 9.99078 15.6585 11.2731 16.2329 12.2476C16.7166 13.0673 18.1399 13.4942 25.2213 11.0835C28.5414 9.95334 32.0054 10.7561 35.5178 13.4696C37.1879 14.7783 38.668 16.3144 39.9154 18.0334C39.9705 18.1156 40.0447 18.1831 40.1317 18.2297C40.2187 18.2765 40.3158 18.301 40.4144 18.3013C40.4496 18.3011 40.4848 18.298 40.5195 18.292C40.6588 18.2673 40.7849 18.1941 40.8755 18.0851C40.9662 17.9762 41.0156 17.8386 41.0151 17.6967C41.0193 17.6135 41.003 17.5305 40.9676 17.4552ZM35.711 12.1107C34.0946 10.9483 32.4468 10.1464 30.8152 9.72886C28.8454 9.20792 26.7663 9.28214 24.8384 9.94229C18.9269 11.9543 17.5715 11.7399 17.2986 11.6303C17.341 11.4695 17.5664 10.9636 18.7532 9.87089C19.4852 9.1974 20.2654 8.22714 19.8325 7.42781C19.3996 6.62844 18.1967 6.58766 15.6569 7.24839C11.9903 8.07834 6.71078 11.4942 5.16808 13.3097C3.72196 14.7094 2.89682 15.0104 2.63166 15.0104C2.63166 14.9101 2.67063 14.7043 2.83498 14.3965L2.97646 14.1592C6.7599 8.00266 13.3119 4.3274 20.5128 4.3274C27.629 4.3274 34.1691 8.04854 37.8958 13.9186C37.208 13.2682 36.4781 12.6643 35.711 12.1107Z" fill="#7C4032"/>
</g>
</g>
<defs>
<clipPath id="clip0_37_108">
<rect width="244" height="50" fill="white"/>
</clipPath>
</defs>
</svg>
