<svg width="244" height="48" viewBox="0 0 244 48" fill="none" xmlns="http://www.w3.org/2000/svg">
<g id="8 1">
<g id="Group">
<path id="Vector" d="M37.993 11.5498C37.9665 11.5371 37.9391 11.5263 37.911 11.5176C36.6145 11.0105 35.2355 10.751 33.8447 10.7522H32.6887C32.6123 10.7521 32.5367 10.7672 32.4661 10.7966C32.3955 10.826 32.3314 10.8691 32.2775 10.9235C32.2234 10.9778 32.1806 11.0424 32.1514 11.1135C32.1223 11.1846 32.1073 11.2607 32.1074 11.3376V26.9336C32.1131 27.0849 32.1768 27.2281 32.2851 27.3332C32.3934 27.4382 32.5379 27.4969 32.6883 27.4969C32.8387 27.4969 32.9832 27.4382 33.0915 27.3332C33.1998 27.2281 33.2635 27.0849 33.2691 26.9336V11.9221H33.843C34.9731 11.9215 36.0953 12.1124 37.1625 12.4869V23.513C37.163 23.9982 37.3545 24.4634 37.6951 24.8065C38.0356 25.1497 38.4975 25.3428 38.9793 25.3434H43.9433V27.8203H39.7065C39.6283 27.8173 39.5505 27.8302 39.4774 27.8583C39.4044 27.8864 39.3377 27.929 39.2814 27.9836C39.2251 28.0382 39.1803 28.1037 39.1497 28.1761C39.1191 28.2486 39.1034 28.3265 39.1034 28.4052C39.1034 28.4839 39.1191 28.5619 39.1497 28.6343C39.1803 28.7067 39.2251 28.7722 39.2814 28.8269C39.3377 28.8815 39.4044 28.924 39.4774 28.9521C39.5505 28.9802 39.6283 28.9931 39.7065 28.9902H43.9433V31.4018H37.9184C37.8403 31.3988 37.7624 31.4118 37.6894 31.4398C37.6163 31.4679 37.5497 31.5105 37.4934 31.5651C37.4371 31.6197 37.3923 31.6852 37.3617 31.7577C37.3311 31.8301 37.3153 31.908 37.3153 31.9868C37.3153 32.0655 37.3311 32.1434 37.3617 32.2158C37.3923 32.2882 37.4371 32.3538 37.4934 32.4084C37.5497 32.463 37.6163 32.5056 37.6894 32.5336C37.7624 32.5617 37.8403 32.5747 37.9184 32.5717H44.5246C44.6785 32.5717 44.8262 32.5101 44.935 32.4005C45.0439 32.2909 45.105 32.1422 45.105 31.9872V22.0938C45.1026 19.8216 44.4236 17.6023 43.1558 15.7226C41.888 13.8431 40.0896 12.3895 37.993 11.5498ZM38.9768 24.1727C38.8029 24.1727 38.636 24.1031 38.513 23.9792C38.39 23.8554 38.3209 23.6874 38.3209 23.5122V12.9806C40.0076 13.822 41.4275 15.1208 42.4208 16.7309C43.4141 18.3409 43.9414 20.1982 43.9433 22.0938V24.1727H38.9768Z" fill="#7C4032"/>
<path id="Vector_2" d="M5.92165 27.8913C4.75046 27.8913 3.60556 28.241 2.63175 28.8963C1.65795 29.5515 0.898958 30.4829 0.450761 31.5726C0.00256559 32.6622 -0.114702 33.8613 0.113785 35.0181C0.342273 36.1749 0.906256 37.2375 1.73441 38.0715C2.56257 38.9055 3.6177 39.4735 4.76639 39.7036C5.91507 39.9337 7.10573 39.8156 8.18775 39.3642C9.26983 38.9128 10.1946 38.1485 10.8453 37.1678C11.496 36.1871 11.8433 35.0342 11.8433 33.8547C11.8416 32.2736 11.2171 30.7578 10.107 29.6398C8.99681 28.5219 7.49162 27.893 5.92165 27.8913ZM5.92165 38.6482C4.98022 38.6482 4.05993 38.3671 3.27716 37.8404C2.4944 37.3137 1.8843 36.565 1.52403 35.6891C1.16377 34.8132 1.0695 33.8494 1.25317 32.9195C1.43683 31.9896 1.89017 31.1355 2.55586 30.4652C3.22155 29.7947 4.06969 29.3382 4.99303 29.1533C5.91638 28.9683 6.87341 29.0632 7.74322 29.4261C8.61298 29.7888 9.35634 30.4032 9.87939 31.1915C10.4024 31.9798 10.6816 32.9066 10.6816 33.8547C10.6803 35.1256 10.1784 36.3441 9.28602 37.2428C8.3936 38.1415 7.18365 38.6469 5.92165 38.6482Z" fill="#7C4032"/>
<path id="Vector_3" d="M5.92153 32.2736C5.61101 32.2736 5.30749 32.3663 5.04931 32.5401C4.79113 32.7138 4.5899 32.9607 4.47107 33.2497C4.35224 33.5385 4.32115 33.8565 4.38173 34.1631C4.44231 34.4698 4.59183 34.7516 4.8114 34.9727C5.03096 35.1938 5.31071 35.3444 5.61525 35.4054C5.91979 35.4664 6.23547 35.4351 6.52234 35.3154C6.80922 35.1957 7.05441 34.9931 7.22695 34.7331C7.39944 34.4731 7.49149 34.1674 7.49149 33.8547C7.49106 33.4355 7.32553 33.0336 7.03121 32.7372C6.73689 32.4408 6.33779 32.2741 5.92153 32.2736ZM5.92153 34.2658C5.84045 34.2658 5.76121 34.2416 5.69383 34.1963C5.62639 34.1509 5.57384 34.0864 5.54281 34.011C5.51178 33.9356 5.50368 33.8526 5.5195 33.7725C5.53531 33.6925 5.57438 33.6189 5.63171 33.5612C5.68899 33.5034 5.76203 33.4641 5.84159 33.4482C5.92109 33.4322 6.00353 33.4404 6.07841 33.4717C6.1533 33.5029 6.21731 33.5558 6.26236 33.6237C6.30742 33.6916 6.33143 33.7714 6.33143 33.853C6.33143 33.9625 6.28829 34.0675 6.21139 34.145C6.1345 34.2224 6.03027 34.2658 5.92153 34.2658Z" fill="#7C4032"/>
<path id="Vector_4" d="M31.154 27.8913C29.9829 27.8913 28.838 28.241 27.8642 28.8963C26.8903 29.5515 26.1314 30.4829 25.6832 31.5726C25.235 32.6622 25.1177 33.8613 25.3462 35.0181C25.5747 36.1749 26.1387 37.2375 26.9668 38.0715C27.795 38.9055 28.8501 39.4735 29.9988 39.7036C31.1475 39.9337 32.3381 39.8156 33.4202 39.3642C34.5022 38.9128 35.427 38.1485 36.0777 37.1678C36.7284 36.1871 37.0757 35.0342 37.0757 33.8547C37.0739 32.2736 36.4495 30.7578 35.3394 29.6398C34.2293 28.5219 32.7241 27.893 31.154 27.8913ZM31.154 38.6482C30.2124 38.6492 29.2917 38.3689 28.5082 37.8428C27.7248 37.3167 27.114 36.5684 26.753 35.6926C26.3919 34.8167 26.297 33.8528 26.4801 32.9226C26.6632 31.9924 27.1161 31.1378 27.7816 30.4669C28.4471 29.796 29.2952 29.339 30.2187 29.1536C31.1422 28.9683 32.0995 29.0629 32.9696 29.4256C33.8396 29.7882 34.5833 30.4026 35.1066 31.191C35.6298 31.9795 35.9091 32.9064 35.9091 33.8547C35.9078 35.1248 35.4065 36.3425 34.5153 37.2411C33.6239 38.1396 32.4152 38.6456 31.154 38.6482Z" fill="#7C4032"/>
<path id="Vector_5" d="M31.154 32.2736C30.8435 32.2736 30.5399 32.3663 30.2817 32.5401C30.0235 32.7138 29.8223 32.9607 29.7035 33.2497C29.5847 33.5385 29.5536 33.8565 29.6142 34.1631C29.6747 34.4698 29.8243 34.7516 30.0438 34.9727C30.2634 35.1938 30.5431 35.3444 30.8476 35.4054C31.1522 35.4664 31.4679 35.4351 31.7547 35.3154C32.0416 35.1957 32.2868 34.9931 32.4593 34.7331C32.6318 34.4731 32.7239 34.1674 32.7239 33.8547C32.7235 33.4355 32.5579 33.0336 32.2636 32.7372C31.9693 32.4408 31.5702 32.2741 31.154 32.2736ZM31.154 34.2658C31.0729 34.2658 30.9936 34.2416 30.9262 34.1963C30.8588 34.1509 30.8063 34.0864 30.7753 34.011C30.7442 33.9356 30.7361 33.8526 30.7519 33.7725C30.7678 33.6925 30.8068 33.6189 30.8641 33.5612C30.9214 33.5034 30.9945 33.4641 31.074 33.4482C31.1535 33.4322 31.2359 33.4404 31.3108 33.4717C31.3857 33.5029 31.4498 33.5558 31.4948 33.6237C31.5398 33.6916 31.5639 33.7714 31.5639 33.853C31.5639 33.9625 31.5207 34.0675 31.4438 34.145C31.3669 34.2224 31.2627 34.2658 31.154 34.2658Z" fill="#7C4032"/>
<path id="Vector_6" d="M24.317 31.4051H12.691C12.6128 31.4021 12.535 31.4151 12.4619 31.4431C12.3889 31.4712 12.3222 31.5138 12.2659 31.5684C12.2096 31.623 12.1648 31.6885 12.1342 31.7609C12.1036 31.8334 12.0879 31.9113 12.0879 31.99C12.0879 32.0687 12.1036 32.1467 12.1342 32.2191C12.1648 32.2916 12.2096 32.3571 12.2659 32.4117C12.3222 32.4663 12.3889 32.5089 12.4619 32.537C12.535 32.565 12.6128 32.5779 12.691 32.575H24.317C24.3951 32.5779 24.473 32.565 24.5461 32.537C24.6191 32.5089 24.6857 32.4663 24.742 32.4117C24.7983 32.3571 24.8432 32.2916 24.8738 32.2191C24.9043 32.1467 24.9201 32.0687 24.9201 31.99C24.9201 31.9113 24.9043 31.8334 24.8738 31.7609C24.8432 31.6885 24.7983 31.623 24.742 31.5684C24.6857 31.5138 24.6191 31.4712 24.5461 31.4431C24.473 31.4151 24.3951 31.4021 24.317 31.4051Z" fill="#7C4032"/>
<path id="Vector_7" d="M4.80247 14.2652H4.99267L6.8053 27.0524C6.81079 27.1327 6.83269 27.211 6.86959 27.2824C6.90643 27.3538 6.95757 27.4167 7.01969 27.4673C7.0818 27.518 7.15364 27.5551 7.2307 27.5765C7.3077 27.5979 7.38829 27.6031 7.46742 27.5917C7.54649 27.5803 7.62246 27.5526 7.69044 27.5103C7.75842 27.4681 7.81706 27.4121 7.86265 27.346C7.90825 27.28 7.93977 27.2051 7.95536 27.1262C7.9709 27.0472 7.97014 26.9659 7.95308 26.8873L6.16666 14.2652H28.9506L27.0093 27.8277C26.9922 27.9063 26.9914 27.9876 27.007 28.0666C27.0226 28.1455 27.0541 28.2203 27.0997 28.2865C27.1453 28.3526 27.2039 28.4085 27.2719 28.4507C27.3399 28.493 27.4158 28.5207 27.4949 28.5321C27.574 28.5434 27.6546 28.5382 27.7316 28.5169C27.8087 28.4955 27.8805 28.4583 27.9427 28.4077C28.0048 28.3571 28.0559 28.2941 28.0928 28.2227C28.1297 28.1514 28.1515 28.0731 28.157 27.9928L30.1246 14.2636H30.3157C30.4697 14.2634 30.6173 14.2016 30.7261 14.0919C30.835 13.9821 30.8961 13.8333 30.8961 13.6782V12.8633C30.8954 12.1718 30.6224 11.5087 30.1369 11.0195C29.6513 10.5304 28.9929 10.2553 28.3062 10.2544H20.8457C20.6704 9.5088 20.2503 8.84465 19.6536 8.36945C19.0568 7.8942 18.3182 7.63565 17.5574 7.63565C16.7966 7.63565 16.058 7.8942 15.4613 8.36945C14.8645 8.84465 14.4445 9.5088 14.269 10.2544H6.80862C6.12183 10.2553 5.46352 10.5304 4.97797 11.0195C4.49244 11.5087 4.2194 12.1718 4.21875 12.8633V13.6799C4.21864 13.7567 4.23358 13.8328 4.2627 13.9038C4.29182 13.9748 4.33456 14.0394 4.38847 14.0937C4.44238 14.1481 4.5064 14.1913 4.57688 14.2207C4.64735 14.2501 4.7229 14.2652 4.79919 14.2652H4.80247ZM17.5591 8.80625C18.0101 8.8074 18.4502 8.94649 18.821 9.20509C19.1918 9.46369 19.4759 9.82958 19.6357 10.2544H15.4824C15.6422 9.82958 15.9263 9.46369 16.2971 9.20509C16.668 8.94649 17.108 8.8074 17.5591 8.80625ZM5.38373 12.8633C5.38416 12.482 5.53476 12.1165 5.80251 11.8468C6.07026 11.5772 6.43322 11.4255 6.81188 11.4251H28.3062C28.6849 11.4257 29.0479 11.5776 29.3156 11.8474C29.5834 12.1171 29.7339 12.4828 29.7343 12.8642V13.0953H5.38537L5.38373 12.8633Z" fill="#7C4032"/>
<path id="Vector_8" d="M16.62 26.6669C16.7742 26.6669 16.9221 26.6052 17.031 26.4954C17.14 26.3857 17.2013 26.2367 17.2013 26.0815C17.2013 25.9263 17.14 25.7774 17.031 25.6676C16.9221 25.5578 16.7742 25.4961 16.62 25.4961H13.385L14.2868 23.9159L14.4672 24.5723C14.501 24.6957 14.5741 24.8044 14.6753 24.882C14.7764 24.9595 14.9 25.0015 15.0271 25.0016C15.0797 25.0017 15.1322 24.9945 15.1829 24.9801C15.2564 24.9596 15.3251 24.9247 15.3853 24.8774C15.4454 24.8301 15.4956 24.7714 15.5331 24.7045C15.5707 24.6376 15.5947 24.564 15.604 24.4877C15.6132 24.4115 15.6075 24.3342 15.587 24.2602L15.0443 22.2861C15.0277 22.2061 14.9945 22.1304 14.9467 22.0642C14.8989 21.998 14.8377 21.9428 14.7672 21.9022C14.6865 21.8559 14.596 21.8296 14.5032 21.8254H14.4713C14.4206 21.8255 14.3702 21.8322 14.3212 21.8452L12.3282 22.4009C12.1929 22.4389 12.0759 22.5248 11.9987 22.643C11.9214 22.7611 11.8893 22.9034 11.9082 23.0435C11.9271 23.1837 11.9957 23.3122 12.1014 23.4053C12.2071 23.4985 12.3428 23.5499 12.4832 23.5502C12.5356 23.5503 12.5877 23.5431 12.6381 23.5287L13.2677 23.3536L11.874 25.7893C11.8232 25.8783 11.7967 25.9793 11.7969 26.082C11.7971 26.1847 11.8242 26.2855 11.8753 26.3744C11.9265 26.4632 12 26.537 12.0884 26.5881C12.1768 26.6393 12.2771 26.6662 12.3791 26.666L16.62 26.6669Z" fill="#7C4032"/>
<path id="Vector_9" d="M22.9003 26.6685C23.0021 26.6684 23.1022 26.6413 23.1904 26.59C23.2786 26.5387 23.3518 26.465 23.4028 26.3762C23.4538 26.2874 23.4807 26.1866 23.4809 26.0841C23.481 25.9815 23.4544 25.8807 23.4037 25.7917L21.2893 22.0905C21.2513 22.0239 21.2007 21.9655 21.1402 21.9187C21.0799 21.8718 21.0109 21.8374 20.9373 21.8174C20.8636 21.7974 20.7868 21.7922 20.7112 21.802C20.6356 21.8119 20.5626 21.8367 20.4966 21.875C20.4305 21.9133 20.3725 21.9643 20.326 22.0251C20.2794 22.086 20.2453 22.1554 20.2254 22.2296C20.2055 22.3037 20.2003 22.381 20.2102 22.4572C20.2199 22.5333 20.2446 22.6068 20.2826 22.6734L21.8952 25.4978H20.0858L20.5613 25.0123C20.6151 24.9577 20.6577 24.8928 20.6867 24.8215C20.7157 24.7502 20.7304 24.6739 20.73 24.5969C20.7297 24.5199 20.7143 24.4437 20.6847 24.3727C20.6551 24.3017 20.6119 24.2372 20.5576 24.183C20.5033 24.1288 20.4389 24.0859 20.3681 24.0567C20.2974 24.0276 20.2216 24.0128 20.1451 24.0131C20.0687 24.0134 19.993 24.029 19.9225 24.0588C19.8519 24.0885 19.7879 24.132 19.7341 24.1867L18.306 25.644C18.2453 25.6986 18.1969 25.7655 18.1637 25.8404C18.1305 25.9152 18.1133 25.9963 18.1133 26.0782C18.1131 26.1705 18.135 26.2614 18.1772 26.3432C18.1788 26.3478 18.1807 26.3522 18.183 26.3564L18.1912 26.3689C18.2169 26.4157 18.2492 26.4585 18.2871 26.496L19.7579 27.9631C19.8676 28.0726 20.016 28.1337 20.1704 28.133C20.3248 28.1323 20.4727 28.0699 20.5814 27.9594C20.6901 27.8489 20.7508 27.6995 20.7501 27.5439C20.7494 27.3884 20.6874 27.2395 20.5777 27.13L20.1129 26.6677L22.9003 26.6685Z" fill="#7C4032"/>
<path id="Vector_10" d="M17.1766 19.9042C17.1379 20.0544 17.1601 20.2139 17.2382 20.3477C17.3163 20.4815 17.4439 20.5785 17.593 20.6176L19.5606 21.1311C19.638 21.1571 19.72 21.1662 19.8012 21.1578C19.8823 21.1494 19.9607 21.1237 20.0312 21.0824C20.1062 21.0385 20.1706 20.9785 20.2198 20.9065C20.2215 20.9027 20.2237 20.8991 20.2263 20.8958C20.2419 20.8724 20.2556 20.8479 20.2673 20.8223L20.2747 20.805C20.2857 20.7796 20.2947 20.7533 20.3018 20.7265C20.3018 20.7265 20.3018 20.7265 20.3018 20.7216L20.8232 18.7054C20.8448 18.6303 20.8513 18.5515 20.8422 18.4738C20.833 18.396 20.8085 18.3209 20.7701 18.2529C20.7316 18.1849 20.68 18.1253 20.6184 18.0778C20.5566 18.0301 20.4861 17.9955 20.4109 17.9759C20.3357 17.9562 20.2573 17.9519 20.1804 17.9633C20.1035 17.9747 20.0297 18.0015 19.9633 18.0421C19.8968 18.0827 19.8391 18.1363 19.7937 18.1998C19.7482 18.2632 19.7157 18.3352 19.6984 18.4115L19.5344 19.0489L18.1366 16.6158C18.0857 16.527 18.0124 16.4533 17.9242 16.4021C17.836 16.3509 17.7359 16.3241 17.634 16.3243C17.5321 16.3244 17.4319 16.3514 17.3436 16.4027C17.2552 16.454 17.1818 16.5277 17.1306 16.6166L15.0089 20.3129C14.9685 20.3795 14.9419 20.4535 14.9303 20.5307C14.9188 20.6079 14.9227 20.6866 14.9418 20.7622C14.9609 20.8378 14.9948 20.9088 15.0416 20.971C15.0883 21.0332 15.1469 21.0854 15.214 21.1245C15.281 21.1636 15.3552 21.1887 15.432 21.1985C15.5089 21.2083 15.5869 21.2026 15.6615 21.1816C15.7361 21.1606 15.8059 21.1248 15.8665 21.0762C15.9272 21.0277 15.9776 20.9675 16.0149 20.8991L17.634 18.0779L18.5408 19.6557L17.8849 19.4848C17.7357 19.4459 17.5773 19.4682 17.4445 19.5468C17.3117 19.6255 17.2153 19.7541 17.1766 19.9042Z" fill="#7C4032"/>
</g>
<path id="Vector_11" d="M70.7118 31.0909L65.071 21.5346H60.8648V31.0909H58.5824V8.21456H65.4296C67.9729 8.21456 69.8966 8.82547 71.2009 10.0473C72.5268 11.2691 73.1898 12.8727 73.1898 14.8582C73.1898 16.5164 72.7116 17.9346 71.7552 19.1127C70.8205 20.2691 69.4293 21.0218 67.5816 21.3709L73.4507 31.0909H70.7118ZM60.8648 19.6691H65.4622C67.2447 19.6691 68.5815 19.2327 69.4728 18.36C70.3857 17.4873 70.8422 16.32 70.8422 14.8582C70.8422 13.3527 70.4075 12.1964 69.538 11.3891C68.6685 10.56 67.299 10.1455 65.4296 10.1455H60.8648V19.6691ZM85.5121 31.3527C83.8383 31.3527 82.3276 30.9818 80.9799 30.24C79.6539 29.4764 78.5997 28.4073 77.8171 27.0327C77.0563 25.6364 76.6759 24.0109 76.6759 22.1564C76.6759 20.3018 77.0672 18.6873 77.8497 17.3127C78.6323 15.9164 79.6974 14.8473 81.0451 14.1055C82.3928 13.3418 83.9035 12.96 85.5773 12.96C87.2511 12.96 88.7618 13.3418 90.1095 14.1055C91.479 14.8473 92.5441 15.9164 93.3049 17.3127C94.0874 18.6873 94.4787 20.3018 94.4787 22.1564C94.4787 23.9891 94.0874 25.6037 93.3049 27C92.5223 28.3964 91.4464 29.4764 90.0769 30.24C88.7075 30.9818 87.1859 31.3527 85.5121 31.3527ZM85.5121 29.3564C86.6859 29.3564 87.7728 29.0946 88.7727 28.5709C89.7726 28.0255 90.5769 27.2182 91.1855 26.1491C91.8159 25.0582 92.1311 23.7273 92.1311 22.1564C92.1311 20.5855 91.8267 19.2655 91.2181 18.1964C90.6095 17.1055 89.8052 16.2982 88.8053 15.7746C87.8054 15.2291 86.7185 14.9564 85.5447 14.9564C84.3709 14.9564 83.284 15.2291 82.2841 15.7746C81.2842 16.2982 80.4799 17.1055 79.8713 18.1964C79.2844 19.2655 78.9909 20.5855 78.9909 22.1564C78.9909 23.7273 79.2844 25.0582 79.8713 26.1491C80.4799 27.2182 81.2733 28.0255 82.2515 28.5709C83.2514 29.0946 84.3383 29.3564 85.5121 29.3564ZM114.062 13.2218V31.0909H111.779V27.9491C111.258 29.0618 110.453 29.9127 109.366 30.5018C108.28 31.0909 107.062 31.3855 105.715 31.3855C103.584 31.3855 101.845 30.7309 100.498 29.4218C99.15 28.0909 98.4762 26.1709 98.4762 23.6618V13.2218H100.726V23.4C100.726 25.3418 101.204 26.8255 102.161 27.8509C103.139 28.8764 104.465 29.3891 106.139 29.3891C107.856 29.3891 109.225 28.8437 110.247 27.7527C111.268 26.6618 111.779 25.0582 111.779 22.9418V13.2218H114.062ZM127.62 12.8946C129.75 12.8946 131.489 13.56 132.837 14.8909C134.184 16.2 134.858 18.1091 134.858 20.6182V31.0909H132.608V20.88C132.608 18.9382 132.119 17.4546 131.141 16.4291C130.185 15.4037 128.87 14.8909 127.196 14.8909C125.479 14.8909 124.109 15.4364 123.088 16.5273C122.066 17.6182 121.555 19.2218 121.555 21.3382V31.0909H119.273V13.2218H121.555V16.2655C122.12 15.1746 122.935 14.3455 124.001 13.7782C125.066 13.1891 126.272 12.8946 127.62 12.8946ZM138.862 22.1237C138.862 20.2909 139.232 18.6873 139.971 17.3127C140.71 15.9164 141.721 14.8473 143.003 14.1055C144.307 13.3418 145.775 12.96 147.405 12.96C148.97 12.96 150.383 13.3418 151.644 14.1055C152.904 14.8691 153.828 15.8618 154.415 17.0837V6.87274H156.698V31.0909H154.415V27.0982C153.872 28.3418 152.981 29.3673 151.742 30.1746C150.503 30.96 149.046 31.3527 147.372 31.3527C145.742 31.3527 144.275 30.9709 142.971 30.2073C141.688 29.4437 140.677 28.3636 139.938 26.9673C139.221 25.5709 138.862 23.9564 138.862 22.1237ZM154.415 22.1564C154.415 20.7164 154.122 19.4509 153.535 18.36C152.948 17.2691 152.144 16.4291 151.122 15.84C150.122 15.2509 149.013 14.9564 147.796 14.9564C146.535 14.9564 145.405 15.24 144.405 15.8073C143.405 16.3746 142.612 17.2037 142.025 18.2946C141.46 19.3637 141.177 20.64 141.177 22.1237C141.177 23.5855 141.46 24.8727 142.025 25.9855C142.612 27.0764 143.405 27.9164 144.405 28.5055C145.405 29.0727 146.535 29.3564 147.796 29.3564C149.013 29.3564 150.122 29.0618 151.122 28.4727C152.144 27.8836 152.948 27.0437 153.535 25.9527C154.122 24.8618 154.415 23.5964 154.415 22.1564ZM182.985 31.0909L177.345 21.5346H173.139V31.0909H170.856V8.21456H177.703C180.247 8.21456 182.17 8.82547 183.475 10.0473C184.801 11.2691 185.464 12.8727 185.464 14.8582C185.464 16.5164 184.985 17.9346 184.029 19.1127C183.094 20.2691 181.703 21.0218 179.855 21.3709L185.724 31.0909H182.985ZM173.139 19.6691H177.736C179.518 19.6691 180.855 19.2327 181.746 18.36C182.659 17.4873 183.116 16.32 183.116 14.8582C183.116 13.3527 182.681 12.1964 181.812 11.3891C180.942 10.56 179.573 10.1455 177.703 10.1455H173.139V19.6691ZM197.785 31.3527C196.111 31.3527 194.601 30.9818 193.253 30.24C191.927 29.4764 190.873 28.4073 190.09 27.0327C189.329 25.6364 188.949 24.0109 188.949 22.1564C188.949 20.3018 189.34 18.6873 190.123 17.3127C190.905 15.9164 191.971 14.8473 193.318 14.1055C194.666 13.3418 196.177 12.96 197.85 12.96C199.524 12.96 201.035 13.3418 202.383 14.1055C203.752 14.8473 204.817 15.9164 205.578 17.3127C206.361 18.6873 206.752 20.3018 206.752 22.1564C206.752 23.9891 206.361 25.6037 205.578 27C204.795 28.3964 203.719 29.4764 202.35 30.24C200.981 30.9818 199.459 31.3527 197.785 31.3527ZM197.785 29.3564C198.959 29.3564 200.046 29.0946 201.046 28.5709C202.046 28.0255 202.85 27.2182 203.459 26.1491C204.089 25.0582 204.404 23.7273 204.404 22.1564C204.404 20.5855 204.1 19.2655 203.491 18.1964C202.883 17.1055 202.078 16.2982 201.078 15.7746C200.079 15.2291 198.992 14.9564 197.818 14.9564C196.644 14.9564 195.557 15.2291 194.557 15.7746C193.557 16.2982 192.753 17.1055 192.144 18.1964C191.558 19.2655 191.264 20.5855 191.264 22.1564C191.264 23.7273 191.558 25.0582 192.144 26.1491C192.753 27.2182 193.546 28.0255 194.525 28.5709C195.525 29.0946 196.611 29.3564 197.785 29.3564ZM209.869 22.1564C209.869 20.3018 210.239 18.6873 210.978 17.3127C211.717 15.9164 212.739 14.8473 214.043 14.1055C215.347 13.3418 216.836 12.96 218.51 12.96C220.705 12.96 222.51 13.5055 223.923 14.5964C225.357 15.6873 226.281 17.1709 226.694 19.0473H224.249C223.944 17.76 223.281 16.7564 222.26 16.0364C221.26 15.2946 220.01 14.9237 218.51 14.9237C217.314 14.9237 216.239 15.1964 215.282 15.7418C214.326 16.2873 213.565 17.1055 213 18.1964C212.456 19.2655 212.185 20.5855 212.185 22.1564C212.185 23.7273 212.456 25.0582 213 26.1491C213.565 27.24 214.326 28.0582 215.282 28.6036C216.239 29.1491 217.314 29.4218 218.51 29.4218C220.01 29.4218 221.26 29.0618 222.26 28.3418C223.281 27.6 223.944 26.5746 224.249 25.2655H226.694C226.281 27.0982 225.357 28.5709 223.923 29.6837C222.488 30.7964 220.684 31.3527 218.51 31.3527C216.836 31.3527 215.347 30.9818 214.043 30.24C212.739 29.4764 211.717 28.4073 210.978 27.0327C210.239 25.6364 209.869 24.0109 209.869 22.1564ZM240.528 31.0909L233.191 23.0727V31.0909H230.909V6.87274H233.191V21.2073L240.365 13.2218H243.56L235.115 22.1237L243.625 31.0909H240.528ZM62.6728 36.6518V38.4387H60.5274V44.7273H58.2906V38.4387H56.168V36.6518H62.6728ZM74.3533 39.4353C74.6044 39.0687 74.9087 38.7786 75.2663 38.5647C75.6238 38.3509 76.008 38.244 76.4189 38.244V40.638H75.7912C75.3043 40.638 74.9429 40.7335 74.7071 40.9244C74.4712 41.1153 74.3533 41.4475 74.3533 41.9209V44.7273H72.1165V38.3013H74.3533V39.4353ZM92.387 38.3013V44.7273H90.1389V43.8109C89.9487 44.1011 89.6862 44.3378 89.3514 44.5211C89.0167 44.6967 88.6325 44.7846 88.1988 44.7846C87.4532 44.7846 86.8636 44.5402 86.4299 44.0515C86.0039 43.5551 85.7909 42.8831 85.7909 42.0355V38.3013H88.0162V41.7491C88.0162 42.1157 88.1113 42.4058 88.3015 42.6197C88.4993 42.8258 88.758 42.9289 89.0775 42.9289C89.4047 42.9289 89.6633 42.8258 89.8535 42.6197C90.0438 42.4058 90.1389 42.1157 90.1389 41.7491V38.3013H92.387ZM105.004 44.8075C104.426 44.8075 103.908 44.712 103.452 44.5211C103.003 44.3226 102.645 44.0553 102.379 43.7193C102.12 43.3757 101.976 42.99 101.945 42.5624H104.114C104.144 42.7686 104.239 42.9289 104.399 43.0435C104.559 43.158 104.757 43.2153 104.992 43.2153C105.175 43.2153 105.32 43.1771 105.426 43.1007C105.533 43.0244 105.586 42.9251 105.586 42.8029C105.586 42.6426 105.498 42.5242 105.323 42.4478C105.148 42.3715 104.859 42.2875 104.456 42.1958C104 42.1042 103.619 42.0011 103.315 41.8866C103.011 41.772 102.744 41.5849 102.516 41.3253C102.295 41.0657 102.185 40.7144 102.185 40.2715C102.185 39.8897 102.288 39.546 102.493 39.2406C102.699 38.9275 102.999 38.6793 103.395 38.496C103.798 38.3127 104.281 38.2211 104.844 38.2211C105.681 38.2211 106.339 38.4273 106.818 38.8397C107.298 39.252 107.575 39.7942 107.651 40.4662H105.632C105.593 40.26 105.502 40.1035 105.358 39.9966C105.221 39.882 105.034 39.8247 104.798 39.8247C104.616 39.8247 104.475 39.8591 104.376 39.9278C104.285 39.9966 104.239 40.092 104.239 40.2142C104.239 40.3669 104.327 40.4853 104.502 40.5693C104.677 40.6457 104.958 40.7258 105.346 40.8098C105.81 40.9091 106.194 41.0198 106.499 41.142C106.811 41.2642 107.081 41.4627 107.309 41.7377C107.545 42.0049 107.663 42.3715 107.663 42.8373C107.663 43.2115 107.553 43.5475 107.332 43.8453C107.119 44.1431 106.811 44.3798 106.408 44.5555C106.012 44.7235 105.544 44.8075 105.004 44.8075ZM121.589 38.244C122.32 38.244 122.898 38.4922 123.324 38.9886C123.758 39.4773 123.974 40.1417 123.974 40.9817V44.7273H121.738V41.2795C121.738 40.9129 121.643 40.6266 121.452 40.4204C121.262 40.2066 121.007 40.0997 120.688 40.0997C120.353 40.0997 120.091 40.2066 119.9 40.4204C119.71 40.6266 119.615 40.9129 119.615 41.2795V44.7273H117.378V36.2509H119.615V39.2177C119.813 38.9275 120.079 38.6946 120.414 38.5189C120.756 38.3357 121.148 38.244 121.589 38.244ZM151.819 36.6518V44.7273H149.582V41.4857H146.855V44.7273H144.618V36.6518H146.855V39.6873H149.582V36.6518H151.819ZM161.35 41.5086C161.35 40.8442 161.468 40.2638 161.704 39.7675C161.948 39.2711 162.275 38.8893 162.686 38.622C163.104 38.3547 163.568 38.2211 164.078 38.2211C164.519 38.2211 164.9 38.3089 165.219 38.4846C165.539 38.6602 165.786 38.8969 165.961 39.1947V38.3013H168.198V44.7273H165.961V43.8338C165.786 44.1317 165.535 44.3684 165.208 44.544C164.888 44.7197 164.512 44.8075 164.078 44.8075C163.568 44.8075 163.104 44.6738 162.686 44.4066C162.275 44.1393 161.948 43.7575 161.704 43.2611C161.468 42.7571 161.35 42.1729 161.35 41.5086ZM165.961 41.5086C165.961 41.0962 165.847 40.7717 165.619 40.5349C165.398 40.2982 165.124 40.1798 164.797 40.1798C164.462 40.1798 164.184 40.2982 163.964 40.5349C163.743 40.764 163.633 41.0886 163.633 41.5086C163.633 41.9209 163.743 42.2493 163.964 42.4937C164.184 42.7304 164.462 42.8487 164.797 42.8487C165.124 42.8487 165.398 42.7304 165.619 42.4937C165.847 42.2569 165.961 41.9286 165.961 41.5086ZM184.639 38.3013V44.7273H182.39V43.8109C182.2 44.1011 181.938 44.3378 181.603 44.5211C181.268 44.6967 180.884 44.7846 180.45 44.7846C179.705 44.7846 179.115 44.5402 178.682 44.0515C178.255 43.5551 178.042 42.8831 178.042 42.0355V38.3013H180.268V41.7491C180.268 42.1157 180.363 42.4058 180.553 42.6197C180.751 42.8258 181.01 42.9289 181.329 42.9289C181.656 42.9289 181.915 42.8258 182.105 42.6197C182.295 42.4058 182.39 42.1157 182.39 41.7491V38.3013H184.639ZM196.765 36.2509V44.7273H194.528V36.2509H196.765ZM207.784 37.7057C207.389 37.7057 207.069 37.5987 206.826 37.3849C206.59 37.1635 206.472 36.8886 206.472 36.5602C206.472 36.2242 206.59 35.9455 206.826 35.724C207.069 35.5026 207.389 35.3918 207.784 35.3918C208.172 35.3918 208.484 35.5026 208.72 35.724C208.964 35.9455 209.085 36.2242 209.085 36.5602C209.085 36.8886 208.964 37.1635 208.72 37.3849C208.484 37.5987 208.172 37.7057 207.784 37.7057ZM208.891 38.3013V44.7273H206.655V38.3013H208.891ZM222.969 38.244C223.707 38.244 224.293 38.4922 224.727 38.9886C225.161 39.4773 225.377 40.1417 225.377 40.9817V44.7273H223.141V41.2795C223.141 40.9129 223.045 40.6266 222.855 40.4204C222.665 40.2066 222.41 40.0997 222.091 40.0997C221.756 40.0997 221.493 40.2066 221.303 40.4204C221.113 40.6266 221.018 40.9129 221.018 41.2795V44.7273H218.781V38.3013H221.018V39.2177C221.216 38.9275 221.482 38.6946 221.817 38.5189C222.152 38.3357 222.536 38.244 222.969 38.244ZM237.583 38.2211C238.016 38.2211 238.393 38.3089 238.713 38.4846C239.04 38.6602 239.291 38.8969 239.466 39.1947V38.3013H241.703V44.6586C241.703 45.2618 241.588 45.804 241.36 46.2851C241.132 46.7738 240.774 47.1633 240.287 47.4535C239.808 47.7437 239.199 47.8887 238.462 47.8887C237.472 47.8887 236.681 47.6558 236.088 47.19C235.494 46.7242 235.156 46.0904 235.072 45.2886H237.275C237.32 45.4947 237.434 45.6551 237.617 45.7697C237.8 45.8842 238.035 45.9415 238.325 45.9415C239.085 45.9415 239.466 45.5138 239.466 44.6586V43.8338C239.291 44.1317 239.04 44.3684 238.713 44.544C238.393 44.7197 238.016 44.8075 237.583 44.8075C237.073 44.8075 236.609 44.6738 236.191 44.4066C235.78 44.1393 235.453 43.7575 235.209 43.2611C234.973 42.7571 234.855 42.1729 234.855 41.5086C234.855 40.8442 234.973 40.2638 235.209 39.7675C235.453 39.2711 235.78 38.8893 236.191 38.622C236.609 38.3547 237.073 38.2211 237.583 38.2211ZM239.466 41.5086C239.466 41.0962 239.352 40.7717 239.123 40.5349C238.903 40.2982 238.629 40.1798 238.302 40.1798C237.967 40.1798 237.689 40.2982 237.469 40.5349C237.248 40.764 237.138 41.0886 237.138 41.5086C237.138 41.9209 237.248 42.2493 237.469 42.4937C237.689 42.7304 237.967 42.8487 238.302 42.8487C238.629 42.8487 238.903 42.7304 239.123 42.4937C239.352 42.2569 239.466 41.9286 239.466 41.5086Z" fill="#7C4032"/>
</g>
</svg>
