<svg width="18" height="18" viewBox="0 0 18 18" fill="none" xmlns="http://www.w3.org/2000/svg">
<g id="ant-design:star-filled">
<path id="Vector" d="M15.9633 6.20682L11.5002 5.55819L9.50509 1.51346C9.4506 1.40272 9.36095 1.31307 9.25021 1.25858C8.97247 1.12147 8.63497 1.23572 8.49611 1.51346L6.50099 5.55819L2.0379 6.20682C1.91486 6.2244 1.80236 6.2824 1.71622 6.37029C1.61209 6.47732 1.55471 6.62131 1.55669 6.77062C1.55867 6.91993 1.61984 7.06235 1.72677 7.16658L4.95587 10.3148L4.19298 14.7603C4.17509 14.8637 4.18653 14.9701 4.22601 15.0673C4.26549 15.1646 4.33143 15.2488 4.41634 15.3105C4.50126 15.3722 4.60175 15.4088 4.70644 15.4163C4.81112 15.4237 4.9158 15.4017 5.00861 15.3527L9.0006 13.2539L12.9926 15.3527C13.1016 15.4107 13.2281 15.4301 13.3494 15.409C13.6553 15.3562 13.861 15.0662 13.8082 14.7603L13.0453 10.3148L16.2744 7.16658C16.3623 7.08045 16.4203 6.96795 16.4379 6.8449C16.4854 6.53729 16.2709 6.25252 15.9633 6.20682Z" fill="#F3CE5E"/>
</g>
</svg>
