<svg width="100" height="93" viewBox="0 0 100 93" fill="none" xmlns="http://www.w3.org/2000/svg">
<g id="Bike Repair" clip-path="url(#clip0_24_24)">
<g id="&#208;&#161;&#208;&#187;&#208;&#190;&#208;&#185; 2">
<g id="&#208;&#161;&#208;&#187;&#208;&#190;&#208;&#185; 1">
<g id="Group">
<path id="Vector" d="M97.9796 57.5597L97.6588 57.3942C97.0729 57.0943 96.5897 56.6256 96.2712 56.0482C95.9528 55.4709 95.8136 54.8112 95.8715 54.1539C96.0788 51.7797 96.1028 49.393 95.943 47.0151C95.8947 46.3632 96.0392 45.7115 96.3584 45.1416C96.6777 44.5718 97.1574 44.1091 97.7376 43.8116L98.1922 43.5799C98.8379 43.2513 99.3586 42.7195 99.6744 42.0659C99.9902 41.4123 100.084 40.6729 99.941 39.9608C99.7369 38.9457 99.4993 37.9306 99.228 36.9155C99.0281 36.156 98.8063 35.4038 98.5754 34.6609C98.3526 33.9609 97.9049 33.3547 97.3023 32.9371C96.6996 32.5196 95.976 32.3141 95.2446 32.353L94.8486 32.3732C94.1918 32.4109 93.5387 32.2506 92.9733 31.9131C92.4078 31.5756 91.9559 31.0762 91.6755 30.4791C90.6608 28.3051 89.4772 26.2145 88.1358 24.2266C87.7754 23.6862 87.5817 23.0513 87.5788 22.4012C87.5759 21.751 87.7638 21.1144 88.1193 20.5707L88.3778 20.1735C88.775 19.5607 88.9601 18.8337 88.9044 18.1048C88.8487 17.3759 88.5554 16.6857 88.0698 16.1407C86.8612 14.7809 85.5805 13.4874 84.2331 12.266C83.6909 11.7729 83.0015 11.4735 82.2722 11.4143C81.5428 11.3551 80.8143 11.5394 80.2002 11.9386L79.8519 12.1648C79.3061 12.5243 78.6659 12.7125 78.013 12.7056C77.3601 12.6988 76.724 12.4971 76.1857 12.1262C74.2277 10.7689 72.1678 9.56564 70.0246 8.52737C69.4436 8.23952 68.9599 7.78642 68.6339 7.22457C68.3079 6.66273 68.1541 6.01703 68.1915 5.36803L68.2135 4.90828C68.2528 4.17793 68.0508 3.45497 67.6389 2.85151C67.2269 2.24804 66.628 1.79779 65.935 1.57056C64.198 0.993492 62.4314 0.510375 60.6428 0.123299C59.9273 -0.0327771 59.1804 0.0534899 58.519 0.368601C57.8577 0.683712 57.3191 1.20989 56.9875 1.8648L56.7877 2.25098C56.493 2.83404 56.0329 3.31652 55.4652 3.63757C54.8976 3.95862 54.2479 4.10387 53.5981 4.055C51.267 3.87261 48.9254 3.86954 46.5938 4.04581C45.9452 4.09194 45.2974 3.9448 44.7319 3.62286C44.1664 3.30091 43.7083 2.81853 43.4152 2.23627L43.2043 1.82066C42.8751 1.16814 42.3403 0.642969 41.683 0.326722C41.0256 0.0104752 40.2826 -0.0791368 39.5693 0.0718076C38.7309 0.248348 37.8914 0.447569 37.0506 0.669471L36.8673 0.719123C35.9666 0.964318 35.0794 1.22729 34.2056 1.50804C33.5114 1.73444 32.911 2.18418 32.4974 2.78761C32.0838 3.39103 31.8801 4.11444 31.9179 4.84576L31.9417 5.30734C31.9771 5.95964 31.8193 6.60787 31.4883 7.1704C31.1572 7.73292 30.6676 8.18459 30.0811 8.46852C28.018 9.45792 26.0326 10.6026 24.1418 11.8927C23.6027 12.2576 22.9681 12.4545 22.3178 12.4588C21.6675 12.463 21.0304 12.2744 20.4866 11.9166L20.1016 11.6683C19.489 11.2671 18.7613 11.0804 18.0319 11.1373C17.3024 11.1941 16.6122 11.4914 16.0688 11.9828C14.673 13.2386 13.3475 14.5708 12.0983 15.9733C11.6129 16.5183 11.3193 17.2081 11.2627 17.9367C11.2061 18.6652 11.3895 19.3923 11.7848 20.0062L12.0341 20.3905C12.392 20.938 12.5801 21.5796 12.5746 22.2342C12.569 22.8889 12.3701 23.5272 12.0029 24.0685C10.7401 25.9179 9.61398 27.8577 8.63367 29.8722C8.34686 30.4548 7.89549 30.9399 7.33579 31.2669C6.7761 31.5939 6.13285 31.7484 5.48621 31.7112L5.00594 31.6854C4.27898 31.6478 3.5598 31.8507 2.95901 32.263C2.35822 32.6753 1.90908 33.2742 1.68067 33.9676C1.08134 35.7728 0.581367 37.6096 0.183015 39.4698C0.0276877 40.1891 0.113692 40.9397 0.427646 41.6048C0.7416 42.27 1.2659 42.8124 1.91897 43.1477L2.30943 43.3463C2.8909 43.6424 3.37187 44.1048 3.69161 44.6749C4.01134 45.2451 4.1555 45.8975 4.10588 46.5498C3.93686 48.7572 3.92644 50.974 4.07471 53.1829C4.1163 53.8307 3.96713 54.4764 3.64577 55.0398C3.3244 55.6031 2.84503 56.0593 2.26726 56.3515L1.81815 56.5813C1.17416 56.9093 0.654404 57.439 0.337792 58.0902C0.0211811 58.7414 -0.0749957 59.4784 0.0638628 60.1894C0.272838 61.2192 0.513587 62.2466 0.786109 63.2715C1.00975 64.1101 1.25416 64.9388 1.51935 65.7578C1.78052 66.5818 2.35391 67.27 3.116 67.674H11.805C10.8167 65.5083 10.0122 63.263 9.39991 60.9618C3.42762 38.508 16.7764 15.3554 39.1587 9.36409L39.3108 9.32548C61.6473 3.44079 84.629 16.8193 90.5903 39.2197C93.1266 48.6962 92.271 58.7648 88.1724 67.674H97.5507C97.8523 67.3418 98.082 66.9504 98.2252 66.5246C98.8137 64.7926 99.3094 63.0302 99.7101 61.245C99.8702 60.5251 99.7871 59.7723 99.4738 59.1051C99.1605 58.4379 98.6348 57.8942 97.9796 57.5597Z" fill="#9797C6"/>
<g id="Group_2">
<path id="Vector_2" d="M3.90625 73.9006H8.63568C10.5256 73.9006 12.0123 75.256 12.0123 77.356C12.0123 79.1178 10.9986 80.1347 9.78321 80.5411L12.1479 83.3878H8.7695L6.74391 80.6772V83.3878H3.90625V73.9006ZM8.43037 78.1689C8.63196 78.1496 8.81916 78.0557 8.95539 77.9054C9.09162 77.755 9.16711 77.5592 9.16711 77.356C9.16711 77.1529 9.09162 76.9571 8.95539 76.8067C8.81916 76.6564 8.63196 76.5625 8.43037 76.5432H6.74391V78.1689H8.43037Z" fill="#9797C6"/>
<path id="Vector_3" d="M13.1621 78.6433C13.1621 75.7984 15.1785 73.7646 17.8219 73.7646C20.4652 73.7646 22.4835 75.7984 22.4835 78.6433C22.4835 81.4882 20.4561 83.5221 17.8219 83.5221C15.1877 83.5221 13.1621 81.49 13.1621 78.6433ZM19.6458 78.6433C19.6458 77.3561 18.8356 76.5432 17.8127 76.5432C16.7898 76.5432 15.9796 77.3561 15.9796 78.6433C15.9796 79.9306 16.7898 80.7453 17.8127 80.7453C18.8356 80.7453 19.6458 79.9306 19.6458 78.6433Z" fill="#9797C6"/>
<path id="Vector_4" d="M23.9004 79.3219V73.9006H26.738V79.3219C26.738 80.2028 27.2788 80.7453 28.0212 80.7453C28.7636 80.7453 29.3044 80.2028 29.3044 79.3219V73.9006H32.1402V79.3219C32.1402 81.8964 30.5198 83.5221 28.0194 83.5221C25.519 83.5221 23.9004 81.8964 23.9004 79.3219Z" fill="#9797C6"/>
<path id="Vector_5" d="M33.8984 73.9006H37.0734L39.1686 78.0346H39.4381V73.9006H42.2758V83.3879H39.1008L37.0074 79.2594H36.7361V83.3934H33.8984V73.9006Z" fill="#9797C6"/>
<path id="Vector_6" d="M44.0996 73.9006H47.7457C50.4495 73.9006 52.4751 75.9327 52.4751 78.6433C52.4751 81.354 50.4587 83.3878 47.7457 83.3878H44.0996V73.9006ZM47.8135 80.6092C48.8272 80.6092 49.6466 79.7964 49.6466 78.6433C49.6466 77.4903 48.8364 76.6793 47.8135 76.6793H46.9354V80.6092H47.8135Z" fill="#9797C6"/>
<path id="Vector_7" d="M58.2168 73.9006H62.9462C64.8362 73.9006 66.3228 75.256 66.3228 77.356C66.3228 79.1178 65.3091 80.1347 64.0938 80.5411L66.4585 83.3878H63.0801L61.0545 80.6772V83.3878H58.2168V73.9006ZM62.7428 78.1689C62.9443 78.1496 63.1315 78.0557 63.2678 77.9054C63.404 77.755 63.4795 77.5592 63.4795 77.356C63.4795 77.1529 63.404 76.9571 63.2678 76.8067C63.1315 76.6564 62.9443 76.5625 62.7428 76.5432H61.0545V78.1689H62.7428Z" fill="#9797C6"/>
<path id="Vector_8" d="M67.4707 78.6433C67.4707 75.7984 69.4963 73.7646 72.1305 73.7646C74.7647 73.7646 76.7921 75.7984 76.7921 78.6433C76.7921 81.4882 74.7647 83.5221 72.1305 83.5221C69.4963 83.5221 67.4707 81.49 67.4707 78.6433ZM73.9544 78.6433C73.9544 77.3561 73.1442 76.5432 72.1305 76.5432C71.1168 76.5432 70.3065 77.3561 70.3065 78.6433C70.3065 79.9306 71.1168 80.7453 72.1305 80.7453C73.1442 80.7453 73.9544 79.9306 73.9544 78.6433Z" fill="#9797C6"/>
<path id="Vector_9" d="M77.9395 78.6433C77.9395 75.7985 79.9669 73.7646 82.6011 73.7646C85.0336 73.7646 86.7219 75.4582 87.0592 77.7625H84.2215C84.1297 77.4048 83.9191 77.0892 83.6246 76.8676C83.3301 76.6459 82.9691 76.5316 82.6011 76.5432C81.5874 76.5432 80.7771 77.3561 80.7771 78.6433C80.7771 79.9306 81.5874 80.7453 82.6011 80.7453C83.4791 80.7453 84.0199 80.2028 84.2215 79.458H87.0592C86.7219 81.8303 85.0336 83.5239 82.6011 83.5239C79.9669 83.5221 77.9395 81.49 77.9395 78.6433Z" fill="#9797C6"/>
<path id="Vector_10" d="M88.5469 73.9006H91.3827V77.7625L93.4101 73.9006H96.6529L94.0866 78.5753L96.9242 83.3878H93.6796L91.3827 79.3219V83.3878H88.5469V73.9006Z" fill="#9797C6"/>
</g>
<g id="Group_3">
<path id="Vector_11" d="M22.5547 87.7812H24.331C24.4882 87.7758 24.6448 87.8029 24.7911 87.8608C24.9374 87.9186 25.0703 88.0061 25.1816 88.1177C25.2928 88.2292 25.38 88.3626 25.4377 88.5094C25.4954 88.6561 25.5224 88.8133 25.517 88.971C25.5268 89.1659 25.4825 89.3597 25.3889 89.5308C25.2954 89.7019 25.1563 89.8436 24.9872 89.9401V89.9714C25.1754 90.0582 25.3328 90.2004 25.4386 90.379C25.5444 90.5577 25.5934 90.7644 25.5793 90.9718C25.5847 91.1294 25.5577 91.2864 25.5 91.4331C25.4423 91.5798 25.3551 91.713 25.2438 91.8245C25.1326 91.9359 24.9996 92.0232 24.8533 92.0808C24.707 92.1385 24.5504 92.1654 24.3933 92.1597H22.5602L22.5547 87.7812ZM24.331 89.7838C24.4407 89.789 24.5504 89.7719 24.6534 89.7333C24.7563 89.6948 24.8504 89.6357 24.93 89.5596C25.0095 89.4835 25.0728 89.3921 25.1161 89.2907C25.1593 89.1894 25.1816 89.0803 25.1816 88.97C25.1816 88.8598 25.1593 88.7507 25.1161 88.6494C25.0728 88.548 25.0095 88.4566 24.93 88.3805C24.8504 88.3044 24.7563 88.2453 24.6534 88.2068C24.5504 88.1682 24.4407 88.1511 24.331 88.1563H22.9286V89.7838H24.331ZM24.3933 91.7846C24.5007 91.7881 24.6078 91.7696 24.7078 91.73C24.8078 91.6905 24.8987 91.6307 24.9748 91.5546C25.0509 91.4784 25.1106 91.3874 25.1503 91.2871C25.1899 91.1869 25.2087 91.0796 25.2054 90.9718C25.214 90.8627 25.1988 90.753 25.161 90.6504C25.1232 90.5477 25.0637 90.4545 24.9864 90.3772C24.9092 90.2999 24.8162 90.2404 24.7138 90.2027C24.6114 90.165 24.502 90.1501 24.3933 90.1589H22.9268V91.7846H24.3933Z" fill="#9797C6"/>
<path id="Vector_12" d="M27.1367 87.7812H27.5033V92.1597H27.1367V87.7812Z" fill="#9797C6"/>
<path id="Vector_13" d="M29.0391 89.9714C29.0391 88.6252 29.9428 87.7186 31.0958 87.7186C31.5289 87.7219 31.949 87.8675 32.2917 88.1333C32.6344 88.399 32.8808 88.7701 32.9931 89.1898H32.588C32.4871 88.8708 32.2879 88.592 32.0191 88.3938C31.7504 88.1955 31.4258 88.0879 31.0921 88.0864C30.1573 88.0864 29.4094 88.8367 29.4094 89.964C29.4094 91.0913 30.1573 91.8398 31.0921 91.8398C31.429 91.8386 31.7565 91.7284 32.0259 91.5257C32.2954 91.3229 32.4925 91.0384 32.588 90.7143H32.9931C32.8839 91.1388 32.6387 91.5156 32.2953 91.7867C31.9518 92.0578 31.5291 92.2083 31.0921 92.2149C29.9428 92.2223 29.0391 91.3157 29.0391 89.9714Z" fill="#9797C6"/>
<path id="Vector_14" d="M35.431 90.5157L33.8105 87.7812H34.2285L35.5612 90.0339H35.6858L37.0148 87.7812H37.4328L35.8105 90.5157V92.1597H35.4439L35.431 90.5157Z" fill="#9797C6"/>
<path id="Vector_15" d="M38.2988 89.9714C38.2988 88.6252 39.2026 87.7186 40.3556 87.7186C40.7896 87.7207 41.211 87.8658 41.5548 88.1316C41.8986 88.3974 42.1458 88.7692 42.2583 89.1898H41.8532C41.752 88.8706 41.5525 88.5918 41.2834 88.3936C41.0143 88.1953 40.6895 88.0878 40.3556 88.0864C39.4207 88.0864 38.6728 88.8367 38.6728 89.964C38.6728 91.0913 39.4207 91.8398 40.3556 91.8398C40.6927 91.839 41.0206 91.729 41.2905 91.5262C41.5603 91.3234 41.7577 91.0387 41.8532 90.7143H42.2583C42.1488 91.139 41.9033 91.5158 41.5595 91.7869C41.2158 92.058 40.7928 92.2084 40.3556 92.2149C39.2026 92.2223 38.2988 91.3157 38.2988 89.9714Z" fill="#9797C6"/>
<path id="Vector_16" d="M43.7227 87.7812H44.0893V91.7846H46.3348V92.1524H43.7227V87.7812Z" fill="#9797C6"/>
<path id="Vector_17" d="M47.6832 87.7812H50.4329V88.1489H48.0572V89.7764H50.3028V90.1442H48.0572V91.7699H50.4274V92.1376H47.6777L47.6832 87.7812Z" fill="#9797C6"/>
<path id="Vector_18" d="M54.043 87.7812H55.8504C56.5983 87.7812 57.1336 88.3126 57.1336 89.096C57.1336 89.9088 56.5727 90.4403 55.8504 90.4403H55.4141L57.2216 92.1597H56.723L54.9155 90.4403H54.4169V92.1597H54.0503L54.043 87.7812ZM55.8504 90.0652C56.3802 90.0652 56.7541 89.6974 56.7541 89.096C56.7627 88.9732 56.7454 88.85 56.7035 88.7343C56.6615 88.6186 56.5958 88.5131 56.5106 88.4245C56.4254 88.3359 56.3227 88.2663 56.2089 88.2201C56.0952 88.1739 55.9731 88.1521 55.8504 88.1563H54.4169V90.0652H55.8504Z" fill="#9797C6"/>
<path id="Vector_19" d="M58.6891 87.7812H61.4388V88.1489H59.063V89.7764H61.3086V90.1442H59.063V91.7699H61.4333V92.1376H58.6836L58.6891 87.7812Z" fill="#9797C6"/>
<path id="Vector_20" d="M63.0234 87.7812H64.8309C65.0045 87.781 65.1762 87.8161 65.3359 87.8845C65.4955 87.9528 65.6397 88.0529 65.7596 88.1788C65.8796 88.3046 65.9728 88.4535 66.0338 88.6166C66.0947 88.7796 66.122 88.9534 66.1141 89.1273C66.1245 89.3002 66.0986 89.4735 66.0381 89.6358C65.9777 89.7981 65.8839 89.9458 65.763 90.0696C65.6421 90.1933 65.4967 90.2902 65.3361 90.3541C65.1756 90.4179 65.0035 90.4473 64.8309 90.4403H63.3974V92.1597H63.0308L63.0234 87.7812ZM64.8309 90.0652C64.9535 90.0696 65.0757 90.0481 65.1895 90.0021C65.3033 89.9561 65.4062 89.8867 65.4916 89.7983C65.577 89.7099 65.6429 89.6045 65.685 89.4889C65.7272 89.3733 65.7447 89.2501 65.7364 89.1273C65.7364 88.5315 65.3607 88.1563 64.8309 88.1563H63.3974V90.0652H64.8309Z" fill="#9797C6"/>
<path id="Vector_21" d="M68.3845 87.7812H68.9455L70.5953 92.1597H70.2286L69.7795 90.9718H67.556L67.1069 92.1597H66.7402L68.3845 87.7812ZM69.6329 90.5966L68.7273 88.1876H68.6027L67.699 90.5966H69.6329Z" fill="#9797C6"/>
<path id="Vector_22" d="M71.8145 87.7812H72.1811V92.1597H71.8145V87.7812Z" fill="#9797C6"/>
<path id="Vector_23" d="M73.9355 87.7812H75.743C76.4909 87.7812 77.0262 88.3126 77.0262 89.096C77.0262 89.9088 76.4652 90.4403 75.743 90.4403H75.3067L77.1142 92.1597H76.6229L74.8154 90.4403H74.3168V92.1597H73.9502L73.9355 87.7812ZM75.743 90.0652C76.2728 90.0652 76.6467 89.6974 76.6467 89.096C76.6553 88.9732 76.638 88.85 76.5961 88.7343C76.5541 88.6186 76.4884 88.5131 76.4032 88.4245C76.318 88.3359 76.2152 88.2663 76.1015 88.2201C75.9878 88.1739 75.8656 88.1521 75.743 88.1563H74.3095V90.0652H75.743Z" fill="#9797C6"/>
</g>
<g id="Group_4">
<path id="Vector_24" d="M30.1175 67.6923C27.9204 67.6925 25.7544 67.172 23.7958 66.1731C21.8373 65.1742 20.1418 63.7252 18.8474 61.9443C17.5529 60.1633 16.6962 58.1007 16.3471 55.9246C15.998 53.7485 16.1663 51.5205 16.8383 49.422C17.5104 47.3236 18.6671 45.4141 20.2143 43.8491C21.7615 42.2842 23.6554 41.1082 25.7415 40.4168C27.8277 39.7254 30.0473 39.5383 32.2192 39.8706C34.3912 40.203 36.4542 41.0454 38.24 42.3293C38.5198 42.5307 38.7084 42.8354 38.7642 43.1763C38.8201 43.5172 38.7387 43.8665 38.5379 44.1471C38.3371 44.4278 38.0334 44.617 37.6936 44.673C37.3538 44.7291 37.0057 44.6474 36.7259 44.446C34.53 42.8718 31.846 42.1356 29.1572 42.3701C26.4684 42.6045 23.9513 43.7941 22.059 45.7248C20.1667 47.6554 19.0236 50.2003 18.8354 52.9013C18.6471 55.6023 19.4262 58.282 21.0323 60.458C22.6383 62.634 24.9659 64.1634 27.5961 64.7709C30.2262 65.3783 32.9862 65.024 35.3791 63.7716C37.772 62.5193 39.6406 60.4511 40.6487 57.9395C41.6568 55.4279 41.7381 52.6377 40.8779 50.0714C40.7706 49.7443 40.7966 49.3879 40.9503 49.08C41.1039 48.7721 41.3728 48.5377 41.6981 48.4279C42.0234 48.3182 42.3788 48.342 42.6868 48.4941C42.9947 48.6463 43.2301 48.9145 43.3416 49.2402C44.0449 51.3449 44.2393 53.5872 43.9087 55.7821C43.5782 57.977 42.7321 60.0616 41.4405 61.864C40.1488 63.6663 38.4484 65.1348 36.4797 66.1482C34.511 67.1615 32.3303 67.6908 30.1175 67.6923Z" fill="#9797C6"/>
<path id="Vector_25" d="M68.6774 67.6923C66.3216 67.6912 63.9985 67.1384 61.893 66.0781C59.7875 65.0177 57.9578 63.479 56.5495 61.5844C55.1412 59.6898 54.1931 57.4916 53.7806 55.1647C53.3682 52.8378 53.5029 50.4464 54.1738 48.1809C54.2823 47.8631 54.5089 47.5996 54.8064 47.4452C55.1038 47.2909 55.4491 47.2577 55.7704 47.3526C56.0916 47.4474 56.364 47.663 56.5306 47.9544C56.6973 48.2457 56.7455 48.5904 56.665 48.9165C55.8002 51.8052 55.9993 54.9096 57.2258 57.6634C58.4524 60.4172 60.6247 62.637 63.3467 63.9179C66.0687 65.1989 69.159 65.4557 72.054 64.6414C74.949 63.8272 77.4558 61.9962 79.1173 59.4823C80.7787 56.9685 81.4841 53.9392 81.1048 50.9471C80.7256 47.955 79.2869 45.1993 77.0511 43.1827C74.8154 41.166 71.9315 40.0227 68.9255 39.9612C65.9196 39.8998 62.9917 40.9243 60.6759 42.8479C60.4081 43.0387 60.0782 43.1208 59.7526 43.0775C59.4269 43.0342 59.1297 42.8688 58.9207 42.6146C58.7116 42.3604 58.6063 42.0363 58.6259 41.7073C58.6454 41.3784 58.7884 41.0691 59.0261 40.8416C60.8949 39.2851 63.1099 38.2029 65.4837 37.6866C67.8575 37.1703 70.3203 37.235 72.6639 37.8754C75.0074 38.5157 77.1629 39.7127 78.9478 41.3653C80.7328 43.0179 82.0949 45.0774 82.9188 47.3696C83.7427 49.6618 84.0043 52.1194 83.6814 54.5345C83.3585 56.9495 82.4607 59.2511 81.0638 61.2445C79.6669 63.2379 77.812 64.8646 75.656 65.9869C73.5 67.1092 71.1064 67.6941 68.6774 67.6923Z" fill="#9797C6"/>
<path id="Vector_26" d="M32.6279 54.0049C32.3627 54.0049 32.1038 53.9235 31.886 53.7716C31.6682 53.6197 31.5019 53.4046 31.4095 53.1552C31.3171 52.9058 31.303 52.634 31.3691 52.3762C31.4352 52.1185 31.5783 51.8873 31.7792 51.7135L44.4533 40.7588L39.196 39.0615C39.028 39.0138 38.8713 38.9327 38.7352 38.823C38.5991 38.7132 38.4865 38.5771 38.404 38.4227C38.3215 38.2684 38.2709 38.0989 38.2552 37.9245C38.2394 37.7501 38.2588 37.5742 38.3123 37.4075C38.3658 37.2408 38.4522 37.0866 38.5664 36.9541C38.6806 36.8216 38.8202 36.7135 38.9769 36.6364C39.1336 36.5592 39.3042 36.5145 39.4786 36.5049C39.6529 36.4954 39.8274 36.5211 39.9915 36.5807L49.6557 39.7069L33.473 53.6978C33.2368 53.898 32.9371 54.0069 32.6279 54.0049Z" fill="#9797C6"/>
<path id="Vector_27" d="M66.3588 48.9882C66.2302 48.9881 66.1024 48.9688 65.9794 48.9312L48.7793 43.6718L58.8431 34.2434C59.0972 34.0213 59.4273 33.9068 59.7639 33.9242C60.1005 33.9416 60.4171 34.0895 60.6471 34.3367C60.8771 34.5838 61.0023 34.9109 60.9965 35.249C60.9906 35.587 60.8541 35.9096 60.6157 36.1486L53.8332 42.4948L66.7273 46.4376C67.0242 46.5286 67.2787 46.7232 67.445 46.9862C67.6112 47.2492 67.6781 47.5632 67.6336 47.8714C67.5891 48.1796 67.4361 48.4616 67.2022 48.6665C66.9684 48.8713 66.6693 48.9855 66.3588 48.9882Z" fill="#9797C6"/>
<path id="Vector_28" d="M31.7756 37.8147C31.4829 37.8145 31.1988 37.7153 30.9694 37.533C30.74 37.3507 30.5786 37.0961 30.5113 36.8104C30.4441 36.5246 30.475 36.2245 30.5989 35.9585C30.7229 35.6926 30.9328 35.4764 31.1945 35.3449C35.7644 33.0628 46.9189 29.3536 55.1331 28.6143C55.3029 28.5995 55.474 28.6183 55.6366 28.6698C55.7992 28.7213 55.95 28.8044 56.0806 28.9144C56.2111 29.0243 56.3188 29.159 56.3975 29.3107C56.4762 29.4625 56.5243 29.6282 56.5391 29.7986C56.5539 29.969 56.5351 30.1406 56.4838 30.3037C56.4325 30.4668 56.3496 30.6182 56.24 30.7491C56.1304 30.8801 55.9961 30.9881 55.8449 31.0671C55.6937 31.146 55.5284 31.1943 55.3586 31.2091C47.4578 31.9208 36.736 35.4865 32.3457 37.6786C32.1686 37.7675 31.9735 37.814 31.7756 37.8147Z" fill="#9797C6"/>
<path id="Vector_29" d="M25.8344 34.979C25.5408 34.9784 25.2561 34.8782 25.0265 34.6945C24.797 34.5109 24.6362 34.2548 24.5703 33.9678C24.5044 33.6807 24.5373 33.3798 24.6636 33.114C24.79 32.8481 25.0024 32.633 25.2661 32.5037C35.1924 27.6636 46.7319 25.7713 54.6638 25.0375C54.8336 25.0218 55.0049 25.0398 55.1677 25.0905C55.3306 25.1412 55.482 25.2236 55.6131 25.333C55.7443 25.4424 55.8527 25.5766 55.9321 25.728C56.0116 25.8794 56.0605 26.045 56.0762 26.2154C56.0918 26.3857 56.0739 26.5575 56.0233 26.721C55.9728 26.8844 55.8907 27.0362 55.7816 27.1678C55.6726 27.2993 55.5388 27.4081 55.3879 27.4878C55.237 27.5675 55.0719 27.6166 54.9021 27.6323C47.1865 28.3476 35.977 30.1793 26.3972 34.8484C26.2216 34.9335 26.0294 34.9781 25.8344 34.979Z" fill="#9797C6"/>
<path id="Vector_30" d="M68.0175 23.1967C67.4839 22.5539 66.8078 22.045 66.0433 21.7108C64.5383 21.0801 63.0645 20.5155 58.4927 20.3629C56.9036 20.3203 55.3137 20.4101 53.7394 20.6314C53.4192 20.6985 53.136 20.8845 52.9466 21.1521C52.7572 21.4197 52.6756 21.7492 52.718 22.0746C52.7604 22.4 52.9237 22.6974 53.1753 22.9071C53.4269 23.1169 53.7482 23.2236 54.0749 23.2059C55.9971 22.9244 57.9459 22.8726 59.8803 23.0514C59.216 23.7975 58.7715 24.7142 58.5965 25.6991C58.4215 26.684 58.5229 27.6983 58.8893 28.6287C59.2558 29.5591 59.8729 30.369 60.6717 30.9679C61.4704 31.5667 62.4195 31.931 63.4128 32.0201C63.5759 32.0348 63.739 32.0421 63.9004 32.0421C65.2419 32.0393 66.5339 31.5338 67.5231 30.6248C68.5123 29.7158 69.1274 28.4688 69.2476 27.1284C69.3116 26.4241 69.2359 25.7139 69.0248 25.0391C68.8136 24.3642 68.4713 23.7381 68.0175 23.1967ZM66.6592 26.9041C66.6112 27.4426 66.4082 27.9555 66.0748 28.3803C65.7415 28.8051 65.2922 29.1235 64.7816 29.2967C64.2711 29.4699 63.7214 29.4905 63.1995 29.3559C62.6775 29.2213 62.2058 28.9374 61.8418 28.5387C61.4778 28.14 61.2373 27.6437 61.1494 27.1103C61.0616 26.5769 61.1302 26.0293 61.347 25.5343C61.5638 25.0394 61.9194 24.6183 62.3704 24.3224C62.8215 24.0266 63.3486 23.8687 63.8875 23.8679C63.97 23.8679 64.0543 23.8679 64.1387 23.879C64.8724 23.9458 65.5498 24.3017 66.0223 24.8688C66.4948 25.4359 66.7239 26.1678 66.6592 26.9041Z" fill="#9797C6"/>
</g>
</g>
</g>
</g>
</g>
<defs>
<clipPath id="clip0_24_24">
<rect width="100" height="92.2222" fill="white"/>
</clipPath>
</defs>
</svg>
