<svg width="100" height="98" viewBox="0 0 100 98" fill="none" xmlns="http://www.w3.org/2000/svg">
<g id="Cleaning" clip-path="url(#clip0_24_61)">
<g id="&#208;&#161;&#208;&#187;&#208;&#190;&#208;&#185; 2">
<g id="&#208;&#161;&#208;&#187;&#208;&#190;&#208;&#185; 1">
<g id="Group">
<path id="Vector" d="M37.7775 78.8625H30.7367V68.231H69.2656V78.8625H62.2211C61.869 78.8625 61.5314 79.002 61.2825 79.2505C61.0336 79.499 60.8938 79.836 60.8938 80.1874C60.8938 80.5388 61.0336 80.8758 61.2825 81.1243C61.5314 81.3728 61.869 81.5124 62.2211 81.5124H69.3143C70.0041 81.5114 70.6654 81.2374 71.1532 80.7505C71.641 80.2635 71.9155 79.6034 71.9165 78.9148V68.188C71.9155 67.4994 71.641 66.8392 71.1532 66.3523C70.6654 65.8654 70.0041 65.5914 69.3143 65.5904H30.6862C29.9962 65.5909 29.3346 65.8647 28.8467 66.3518C28.3588 66.8388 28.0845 67.4992 28.084 68.188V78.9148C28.085 79.6034 28.3594 80.2635 28.8472 80.7505C29.335 81.2374 29.9963 81.5114 30.6862 81.5124H37.7775C38.1295 81.5124 38.4671 81.3728 38.7161 81.1243C38.965 80.8758 39.1048 80.5388 39.1048 80.1874C39.1048 79.836 38.965 79.499 38.7161 79.2505C38.4671 79.002 38.1295 78.8625 37.7775 78.8625Z" fill="#9797C6"/>
<path id="Vector_2" d="M68.0793 71.0398C68.0793 70.9527 68.0621 70.8666 68.0287 70.7862C67.9952 70.7058 67.9463 70.6328 67.8845 70.5713C67.8228 70.5099 67.7495 70.4612 67.6689 70.4281C67.5883 70.3949 67.5019 70.378 67.4147 70.3782H32.5943C32.4186 70.3782 32.25 70.4479 32.1257 70.572C32.0015 70.6961 31.9316 70.8643 31.9316 71.0398C31.9316 71.2152 32.0015 71.3835 32.1257 71.5076C32.25 71.6316 32.4186 71.7013 32.5943 71.7013H67.4147C67.5019 71.7016 67.5883 71.6846 67.6689 71.6515C67.7495 71.6184 67.8228 71.5697 67.8845 71.5082C67.9463 71.4468 67.9952 71.3738 68.0287 71.2934C68.0621 71.213 68.0793 71.1268 68.0793 71.0398Z" fill="#9797C6"/>
<path id="Vector_3" d="M23.1475 60.6587C22.974 60.6749 22.8054 60.725 22.6514 60.8063C22.4973 60.8876 22.3608 60.9984 22.2497 61.1324C22.1386 61.2664 22.055 61.421 22.0038 61.5873C21.9526 61.7535 21.9348 61.9282 21.9513 62.1014L23.4003 77.5076C23.4314 77.8356 23.5839 78.1402 23.8279 78.3621C24.072 78.5839 24.39 78.707 24.7201 78.7074H24.8455C25.1957 78.6743 25.5184 78.5037 25.7427 78.2332C25.967 77.9627 26.0746 77.6143 26.0417 77.2647L24.5928 61.8566C24.5768 61.6832 24.5267 61.5146 24.4454 61.3605C24.3641 61.2064 24.2532 61.0698 24.1189 60.9585C23.9847 60.8473 23.8298 60.7635 23.6631 60.7121C23.4964 60.6606 23.3212 60.6425 23.1475 60.6587Z" fill="#9797C6"/>
<path id="Vector_4" d="M20.5205 42.3521C20.3964 42.4887 20.3021 42.6497 20.2438 42.8248C20.1854 42.9998 20.1643 43.1851 20.1817 43.3687L21.1365 53.4863C21.189 53.8194 21.3668 54.1199 21.6336 54.3266C21.9003 54.5334 22.2361 54.6309 22.5723 54.5992C22.9086 54.5675 23.2201 54.4091 23.4434 54.1561C23.6667 53.9032 23.785 53.5747 23.7742 53.2378L22.9561 44.5685H77.04L73.9455 77.259C73.9127 77.6087 74.0202 77.957 74.2445 78.2275C74.4688 78.498 74.7915 78.6686 75.1417 78.7017C75.1829 78.7017 75.226 78.7017 75.2672 78.7017C75.5956 78.699 75.9113 78.5749 76.1534 78.3533C76.3954 78.1317 76.5466 77.8284 76.5776 77.502L79.8013 43.3631C79.8185 43.1795 79.7971 42.9944 79.7385 42.8195C79.6799 42.6446 79.5854 42.4838 79.461 42.3475C79.3366 42.2112 79.185 42.1023 79.016 42.0278C78.847 41.9533 78.6643 41.9148 78.4796 41.9148H21.5015C21.3165 41.9156 21.1337 41.9548 20.9648 42.0301C20.7959 42.1054 20.6446 42.2151 20.5205 42.3521Z" fill="#9797C6"/>
<path id="Vector_5" d="M29.6311 52.1389C29.4746 52.2061 29.35 52.3307 29.2829 52.4869C29.2158 52.6431 29.2113 52.8191 29.2704 52.9785C29.3295 53.1379 29.4476 53.2687 29.6004 53.3437C29.7532 53.4187 29.929 53.4323 30.0916 53.3817C30.6508 53.1716 31.1333 52.7978 31.4761 52.3093C31.8188 51.8208 32.0057 51.2403 32.0123 50.6439C32.015 50.2576 31.9415 49.8746 31.7959 49.5167C31.6503 49.1588 31.4356 48.833 31.1639 48.5579C30.8921 48.2829 30.5688 48.064 30.2124 47.9136C29.8559 47.7633 29.4732 47.6846 29.0863 47.6819H29.0657C28.2879 47.6828 27.5419 47.9902 26.9898 48.5371C26.4377 49.084 26.1241 49.8264 26.1172 50.6028C26.1167 50.7783 26.1857 50.9468 26.3091 51.0718C26.4325 51.1968 26.6004 51.268 26.7762 51.2699C26.9511 51.2695 27.1188 51.2001 27.2429 51.077C27.367 50.9538 27.4374 50.7868 27.4389 50.6121C27.4428 50.1853 27.6153 49.7773 27.9189 49.4768C28.2224 49.1762 28.6325 49.0073 29.0601 49.0069H29.0713C29.501 49.0098 29.9119 49.1829 30.2137 49.4881C30.5156 49.7933 30.6838 50.2057 30.6813 50.6346C30.6779 50.9616 30.5759 51.2801 30.3886 51.5484C30.2012 51.8168 29.9373 52.0225 29.6311 52.1389Z" fill="#9797C6"/>
<path id="Vector_6" d="M21.8471 38.4539C21.7589 38.7939 21.8095 39.1549 21.9878 39.4577C22.1661 39.7605 22.4576 39.9802 22.7981 40.0685C22.9076 40.0964 23.0202 40.1109 23.1332 40.1115C23.4268 40.1109 23.7119 40.0133 23.944 39.8337C24.176 39.6541 24.3419 39.4029 24.4156 39.1192C24.6818 38.1005 25.1743 37.1547 25.8565 36.352C26.5388 35.5493 27.3933 34.9101 28.3568 34.482C29.3202 34.0539 30.3679 33.8478 31.422 33.879C32.4761 33.9102 33.5097 34.1778 34.4461 34.6621C34.6738 34.7964 34.9365 34.8596 35.2005 34.8436C35.4644 34.8276 35.7176 34.7332 35.9273 34.5724C36.1371 34.4116 36.2939 34.1919 36.3775 33.9415C36.4612 33.691 36.4679 33.4214 36.3968 33.1671C36.2387 32.5023 36.2335 31.8104 36.3817 31.1433C36.5299 30.4763 36.8276 29.8514 37.2524 29.3156C37.6772 28.7799 38.2181 28.3472 38.8345 28.05C39.4508 27.7529 40.1266 27.599 40.8111 27.6C41.521 27.5969 42.2214 27.7621 42.8548 28.0822C43.4882 28.4022 44.0363 28.8678 44.4541 29.4408C44.6049 29.6405 44.8092 29.7936 45.0434 29.8824C45.2777 29.9711 45.5323 29.9918 45.7778 29.9422C46.0234 29.8925 46.2498 29.7745 46.431 29.6018C46.6122 29.4291 46.7407 29.2087 46.8017 28.9661C46.9599 28.3025 47.2887 27.6916 47.7555 27.1936C48.2223 26.6955 48.8111 26.3275 49.4639 26.1258C50.1166 25.9242 50.8107 25.8958 51.4778 26.0436C52.1448 26.1913 52.7618 26.51 53.2678 26.9684C53.4161 27.102 53.5926 27.2005 53.7843 27.2565C53.976 27.3126 54.1779 27.3247 54.375 27.292C54.572 27.2593 54.7591 27.1827 54.9224 27.0677C55.0856 26.9528 55.2207 26.8026 55.3177 26.6282C56.2901 24.8857 57.9055 23.5909 59.8201 23.0198C61.7346 22.4488 63.7968 22.6464 65.5675 23.5708C67.3382 24.4951 68.6773 26.0731 69.2997 27.9685C69.9221 29.864 69.7785 31.9271 68.8995 33.7184C68.7999 33.9205 68.7536 34.1446 68.7649 34.3696C68.7761 34.5946 68.8447 34.813 68.9641 35.0042C69.0834 35.1953 69.2497 35.353 69.447 35.4622C69.6444 35.5714 69.8664 35.6285 70.092 35.6283C70.2058 35.6282 70.3192 35.6131 70.429 35.5834C70.805 35.4857 71.1918 35.4361 71.5803 35.4358C72.6243 35.4372 73.6358 35.7984 74.4439 36.4583C75.2519 37.1182 75.807 38.0363 76.0152 39.0575C76.0848 39.4017 76.2884 39.7043 76.5814 39.8986C76.8743 40.0929 77.2327 40.1631 77.5775 40.0937C77.9223 40.0243 78.2254 39.8211 78.4201 39.5286C78.6147 39.2361 78.685 38.8784 78.6155 38.5342C78.3004 36.9923 77.4865 35.5964 76.2988 34.5615C75.1112 33.5265 73.6158 32.9099 72.0427 32.8064C72.615 30.5039 72.3736 28.0748 71.3593 25.9294C70.345 23.7841 68.62 22.0539 66.4757 21.0313C64.3313 20.0087 61.8991 19.7563 59.5899 20.3167C57.2807 20.8771 55.236 22.216 53.8013 24.1073C52.3316 23.3031 50.6103 23.0873 48.987 23.5038C47.3636 23.9203 45.9599 24.9378 45.0607 26.3498C44.0325 25.5884 42.8189 25.1156 41.5459 24.9806C40.2729 24.8457 38.9868 25.0534 37.8214 25.5823C36.656 26.1111 35.6537 26.9418 34.9186 27.9881C34.1835 29.0343 33.7424 30.258 33.6411 31.5319C32.8461 31.3271 32.0285 31.2229 31.2074 31.2217C29.0652 31.2224 26.9838 31.9329 25.2898 33.2418C23.5957 34.5507 22.3848 36.3839 21.8471 38.4539Z" fill="#9797C6"/>
<path id="Vector_7" d="M32.2255 26.3293C32.2255 25.6189 32.0145 24.9244 31.6191 24.3338C31.2238 23.7431 30.6618 23.2827 30.0043 23.0109C29.3469 22.739 28.6234 22.6679 27.9255 22.8065C27.2275 22.9451 26.5864 23.2871 26.0832 23.7895C25.58 24.2918 25.2373 24.9318 25.0984 25.6285C24.9596 26.3253 25.0309 27.0475 25.3032 27.7038C25.5755 28.3601 26.0367 28.9211 26.6284 29.3157C27.2201 29.7104 27.9158 29.921 28.6274 29.921C29.1007 29.924 29.57 29.8332 30.0079 29.6537C30.4458 29.4743 30.8436 29.2098 31.1783 28.8757C31.513 28.5416 31.7779 28.1444 31.9577 27.7073C32.1375 27.2702 32.2285 26.8018 32.2255 26.3293ZM26.3585 26.3293C26.3577 25.8807 26.4903 25.442 26.7395 25.0687C26.9886 24.6954 27.3431 24.4042 27.7581 24.2321C28.1731 24.06 28.6299 24.0147 29.0707 24.1019C29.5115 24.1891 29.9164 24.4049 30.2343 24.722C30.5522 25.039 30.7687 25.4431 30.8564 25.883C30.9441 26.323 30.8991 26.779 30.7271 27.1934C30.555 27.6078 30.2637 27.9619 29.8899 28.211C29.5161 28.46 29.0768 28.5927 28.6274 28.5923C28.0264 28.5909 27.4505 28.352 27.0253 27.928C26.6002 27.5039 26.3604 26.9292 26.3585 26.3293Z" fill="#9797C6"/>
<path id="Vector_8" d="M48.067 14.2924C47.3555 14.2931 46.6601 14.5045 46.0688 14.8997C45.4776 15.2949 45.017 15.8562 44.7453 16.5127C44.4736 17.1692 44.403 17.8913 44.5424 18.5879C44.6818 19.2844 45.025 19.9241 45.5285 20.4259C46.032 20.9278 46.6734 21.2694 47.3713 21.4075C48.0693 21.5455 48.7927 21.4739 49.4499 21.2017C50.1071 20.9294 50.6687 20.4688 51.0637 19.8779C51.4586 19.2871 51.6693 18.5926 51.6689 17.8823C51.6674 16.9297 51.2873 16.0166 50.6119 15.3435C49.9366 14.6704 49.0213 14.2924 48.067 14.2924ZM48.067 20.1491C47.6179 20.1491 47.1789 20.0162 46.8054 19.7671C46.432 19.518 46.1409 19.164 45.9691 18.7498C45.7972 18.3356 45.7522 17.8798 45.8398 17.4401C45.9275 17.0004 46.1437 16.5964 46.4613 16.2794C46.7789 15.9624 47.1835 15.7465 47.624 15.659C48.0645 15.5716 48.5211 15.6165 48.936 15.788C49.351 15.9596 49.7056 16.2502 49.9551 16.6229C50.2047 16.9957 50.3378 17.434 50.3378 17.8823C50.3396 18.1805 50.282 18.476 50.1685 18.7518C50.055 19.0276 49.8878 19.2782 49.6766 19.4891C49.4654 19.6999 49.2144 19.8668 48.9381 19.9801C48.6618 20.0934 48.3657 20.1509 48.067 20.1491Z" fill="#9797C6"/>
<path id="Vector_9" d="M34.8207 24.1558C35.3784 24.1538 35.9127 23.9313 36.3064 23.5369C36.7001 23.1425 36.9211 22.6084 36.9211 22.0516C36.9207 21.6356 36.7968 21.2291 36.5649 20.8835C36.333 20.5379 36.0036 20.2687 35.6184 20.11C35.2332 19.9514 34.8095 19.9103 34.401 19.9921C33.9924 20.0739 33.6173 20.2748 33.3232 20.5695C33.0291 20.8642 32.8291 21.2393 32.7486 21.6474C32.6682 22.0556 32.7108 22.4784 32.8711 22.8623C33.0314 23.2463 33.3022 23.5741 33.6493 23.8044C33.9963 24.0346 34.404 24.1569 34.8207 24.1558ZM34.0363 22.0516C34.0363 21.8454 34.1183 21.6477 34.2644 21.5019C34.4104 21.3561 34.6085 21.2742 34.8151 21.2742C35.0211 21.2747 35.2186 21.3565 35.3645 21.5018C35.5104 21.647 35.5928 21.844 35.5938 22.0497C35.5933 22.2556 35.5111 22.4528 35.3651 22.5982C35.2191 22.7436 35.0213 22.8253 34.8151 22.8253C34.7129 22.8255 34.6116 22.8056 34.5172 22.7668C34.4227 22.7279 34.3368 22.6708 34.2645 22.5988C34.1921 22.5267 34.1348 22.4411 34.0956 22.3469C34.0564 22.2527 34.0363 22.1517 34.0363 22.0497V22.0516Z" fill="#9797C6"/>
<path id="Vector_10" d="M53.2938 12.9488C53.5708 12.9483 53.845 12.8933 54.1007 12.787C54.3563 12.6807 54.5885 12.5251 54.7839 12.3291C54.9794 12.1332 55.1342 11.9007 55.2395 11.645C55.3449 11.3893 55.3988 11.1154 55.398 10.8389C55.3965 10.283 55.1741 9.75031 54.7796 9.3579C54.3851 8.96549 53.8508 8.74537 53.2938 8.74587C53.0121 8.73748 52.7316 8.78563 52.4688 8.88746C52.2061 8.9893 51.9665 9.14274 51.7642 9.33871C51.562 9.53468 51.4012 9.76918 51.2914 10.0283C51.1816 10.2874 51.125 10.5659 51.125 10.8473C51.125 11.1287 51.1816 11.4072 51.2914 11.6663C51.4012 11.9254 51.562 12.1599 51.7642 12.3559C51.9665 12.5519 52.2061 12.7053 52.4688 12.8072C52.7316 12.909 53.0121 12.9571 53.2938 12.9488ZM53.2938 10.069C53.4989 10.0694 53.6956 10.1505 53.8413 10.2946C53.9871 10.4386 54.0702 10.6342 54.0726 10.8389C54.0726 11.0451 53.9906 11.2428 53.8445 11.3886C53.6985 11.5344 53.5004 11.6163 53.2938 11.6163C53.0874 11.6158 52.8897 11.5338 52.7437 11.3881C52.5978 11.2424 52.5156 11.0449 52.5151 10.8389C52.5175 10.6342 52.6006 10.4386 52.7463 10.2946C52.8921 10.1505 53.0887 10.0694 53.2938 10.069Z" fill="#9797C6"/>
<path id="Vector_11" d="M57.4912 17.2432C57.7902 17.2427 58.0798 17.1387 58.3105 16.9488C58.5412 16.759 58.6989 16.4952 58.7565 16.2023C58.8141 15.9094 58.7682 15.6057 58.6265 15.3428C58.4849 15.08 58.2563 14.8744 57.9797 14.761C57.7031 14.6476 57.3957 14.6335 57.1099 14.7211C56.8241 14.8087 56.5775 14.9925 56.4123 15.2413C56.2471 15.4901 56.1735 15.7884 56.204 16.0853C56.2345 16.3822 56.3672 16.6593 56.5795 16.8695C56.822 17.1094 57.1498 17.2438 57.4912 17.2432ZM57.4538 15.9556C57.4538 15.9457 57.4577 15.9362 57.4648 15.9292C57.4718 15.9222 57.4813 15.9183 57.4912 15.9183C57.501 15.9188 57.5103 15.9227 57.5174 15.9295C57.5236 15.9369 57.5275 15.946 57.5287 15.9556C57.5287 15.9967 57.4538 15.9967 57.4538 15.9556Z" fill="#9797C6"/>
<path id="Vector_12" d="M73.1404 21.0574C73.1404 20.7164 73.0047 20.3894 72.7631 20.1482C72.5216 19.9071 72.194 19.7717 71.8524 19.7717C71.5972 19.7717 71.3477 19.8472 71.1356 19.9888C70.9234 20.1304 70.7581 20.3316 70.6605 20.5669C70.5629 20.8023 70.5375 21.0613 70.5874 21.3111C70.6373 21.561 70.7604 21.7904 70.941 21.9704C71.1215 22.1504 71.3515 22.2729 71.6019 22.3223C71.8522 22.3718 72.1116 22.346 72.3473 22.2483C72.5829 22.1505 72.7843 21.9852 72.9258 21.7732C73.0673 21.5612 73.1426 21.3121 73.1422 21.0574H73.1404ZM71.8131 21.0574C71.813 21.0526 71.814 21.0478 71.8159 21.0434C71.8178 21.0389 71.8206 21.0349 71.8241 21.0316C71.8276 21.0283 71.8318 21.0257 71.8363 21.024C71.8408 21.0224 71.8457 21.0216 71.8505 21.0219C71.8599 21.0226 71.8687 21.0266 71.8755 21.033C71.8823 21.0395 71.8867 21.0481 71.8879 21.0574C71.8879 21.0673 71.884 21.0768 71.877 21.0838C71.8699 21.0908 71.8604 21.0948 71.8505 21.0948C71.8408 21.0939 71.8318 21.0897 71.825 21.0829C71.8181 21.076 71.8139 21.067 71.8131 21.0574Z" fill="#9797C6"/>
<path id="Vector_13" d="M77.5207 25.5331C77.5202 24.9759 77.2981 24.4416 76.9032 24.0477C76.5083 23.6539 75.9729 23.4326 75.4147 23.4326C74.998 23.4326 74.5908 23.556 74.2444 23.7871C73.898 24.0182 73.6281 24.3466 73.4687 24.7309C73.3094 25.1152 73.2678 25.538 73.3492 25.9458C73.4306 26.3537 73.6314 26.7283 73.9261 27.0223C74.2208 27.3162 74.5963 27.5163 75.0049 27.5972C75.4136 27.6781 75.8371 27.6362 76.2219 27.4768C76.6067 27.3174 76.9355 27.0476 77.1667 26.7017C77.3979 26.3557 77.5211 25.949 77.5207 25.5331ZM74.6359 25.5331C74.6364 25.3273 74.7187 25.13 74.8646 24.9846C75.0106 24.8392 75.2084 24.7576 75.4147 24.7576C75.5688 24.7576 75.7194 24.8032 75.8475 24.8887C75.9756 24.9742 76.0755 25.0958 76.1343 25.2379C76.1932 25.3801 76.2085 25.5365 76.1783 25.6873C76.1481 25.8382 76.0738 25.9767 75.9647 26.0854C75.8556 26.194 75.7166 26.2679 75.5654 26.2977C75.4143 26.3275 75.2576 26.3118 75.1153 26.2527C74.9731 26.1936 74.8516 26.0936 74.7662 25.9655C74.6809 25.8375 74.6355 25.687 74.6359 25.5331Z" fill="#9797C6"/>
<path id="Vector_14" d="M85.3681 14.621C80.086 9.35262 73.689 5.33193 66.6467 2.85414C59.6045 0.376358 52.0957 -0.495617 44.6717 0.302233C37.2477 1.10008 30.097 3.5475 23.7444 7.46482C17.3919 11.3821 11.9988 16.6699 7.96105 22.9399C3.92334 29.2099 1.34353 36.303 0.411021 43.6985C-0.521492 51.0939 0.216962 58.6039 2.57217 65.6772C4.92738 72.7505 8.83955 79.2075 14.0215 84.5741C19.2034 89.9408 25.5235 94.0808 32.5179 96.6903C32.6665 96.7453 32.8237 96.7738 32.9821 96.7744C33.2931 96.7742 33.594 96.665 33.8325 96.4659C34.0711 96.2668 34.232 95.9904 34.2872 95.685C34.3425 95.3795 34.2886 95.0644 34.1349 94.7946C33.9813 94.5248 33.7376 94.3174 33.4464 94.2086C15.0291 87.3464 2.65472 69.5407 2.65472 49.9185C2.65472 23.8565 23.8951 2.65338 50.0029 2.65338C76.1107 2.65338 97.3493 23.8528 97.3493 49.9148C97.3559 57.7186 95.4241 65.4022 91.7268 72.278C88.0295 79.1538 82.6821 85.0072 76.1632 89.3143C76.0808 89.3685 75.8168 89.5497 75.755 89.5834C67.4094 94.2067 58.7679 95.7503 54.2525 93.4443C52.9327 92.7696 52.0472 91.7773 51.6036 90.4897H52.0959C53.4405 90.4882 54.7295 89.9544 55.6803 89.0053C56.6311 88.0562 57.1658 86.7694 57.1673 85.4272V85.1955C57.6406 84.9972 58.0447 84.664 58.3291 84.2375C58.6135 83.811 58.7655 83.3102 58.7661 82.7978V77.1915C58.7728 77.0134 58.7434 76.8359 58.6798 76.6694C58.6162 76.5029 58.5195 76.351 58.3957 76.2226C58.2719 76.0943 58.1234 75.9922 57.9591 75.9225C57.7949 75.8527 57.6182 75.8168 57.4397 75.8168C57.2612 75.8168 57.0846 75.8527 56.9203 75.9225C56.756 75.9922 56.6075 76.0943 56.4837 76.2226C56.3599 76.351 56.2633 76.5029 56.1996 76.6694C56.136 76.8359 56.1067 77.0134 56.1134 77.1915V82.7436H43.8907V77.1952C43.8974 77.0172 43.868 76.8396 43.8044 76.6731C43.7407 76.5066 43.6441 76.3547 43.5203 76.2263C43.3965 76.098 43.248 75.9959 43.0837 75.9262C42.9195 75.8565 42.7428 75.8205 42.5643 75.8205C42.3858 75.8205 42.2091 75.8565 42.0449 75.9262C41.8806 75.9959 41.7321 76.098 41.6083 76.2263C41.4845 76.3547 41.3879 76.5066 41.3242 76.6731C41.2606 76.8396 41.2312 77.0172 41.2379 77.1952V82.8016C41.2385 83.3139 41.3905 83.8147 41.6749 84.2412C41.9593 84.6677 42.3634 85.001 42.8367 85.1992V85.4309C42.8382 86.7732 43.373 88.06 44.3237 89.009C45.2745 89.9581 46.5635 90.492 47.9081 90.4935H48.8441C49.3739 92.8388 50.8079 94.6646 53.0338 95.8045C54.7992 96.709 57.0045 97.1482 59.5018 97.1482C64.577 97.1482 70.8502 95.3299 77.0374 91.9025C77.1553 91.8371 77.5373 91.583 77.6252 91.5288C83.8022 87.4428 88.9923 82.0377 92.8203 75.7041C96.6483 69.3706 99.0185 62.267 99.7595 54.9071C100.5 47.5472 99.5937 40.1148 97.1048 33.1476C94.6159 26.1803 90.607 19.8523 85.3681 14.621ZM45.4931 85.4272V85.4048H54.5165V85.4366C54.5111 86.074 54.2537 86.6835 53.8004 87.1325C53.3471 87.5816 52.7345 87.8337 52.0959 87.8342H47.9081C47.2687 87.8327 46.6559 87.5788 46.2034 87.1278C45.751 86.6768 45.4956 86.0655 45.4931 85.4272Z" fill="#9797C6"/>
<path id="Vector_15" d="M29.4289 50.0702C29.3556 50.023 29.2737 49.9908 29.1878 49.9753C29.102 49.9598 29.0139 49.9614 28.9287 49.98C28.8435 49.9986 28.7628 50.0338 28.6912 50.0836C28.6196 50.1334 28.5586 50.1968 28.5116 50.2701C25.273 55.3009 21.5288 57.8966 16.77 61.1838L15.8621 61.8117C15.7466 61.8923 15.6598 62.0073 15.6141 62.1404C15.5684 62.2734 15.5662 62.4174 15.6079 62.5518C15.6495 62.6861 15.7329 62.8037 15.8459 62.8877C15.9588 62.9717 16.0956 63.0176 16.2365 63.019C16.3706 63.0182 16.5013 62.9764 16.6109 62.8994L17.517 62.2733C22.1972 59.0347 26.2408 56.239 29.6199 50.9859C29.7157 50.839 29.7493 50.6603 29.7136 50.4887C29.6778 50.3172 29.5755 50.1667 29.4289 50.0702Z" fill="#9797C6"/>
</g>
</g>
</g>
</g>
<defs>
<clipPath id="clip0_24_61">
<rect width="100" height="97.1429" fill="white"/>
</clipPath>
</defs>
</svg>
