<svg width="100" height="66" viewBox="0 0 100 66" fill="none" xmlns="http://www.w3.org/2000/svg">
<g id="Handyman" clip-path="url(#clip0_24_2)">
<g id="&#208;&#161;&#208;&#187;&#208;&#190;&#208;&#185; 2">
<g id="&#208;&#161;&#208;&#187;&#208;&#190;&#208;&#185; 1">
<path id="Vector" d="M98.6181 9.48643L88.3615 16.2495L85.8783 12.553L96.1367 5.7883L94.7513 3.72902L85.4766 1.88768L77.5958 7.0805L75.7308 16.2769L75.8122 16.3987L71.7774 18.9591C71.4311 18.6571 71.0847 18.3608 70.7384 18.0702C71.0847 16.3696 70.0734 14.4973 68.3244 13.6805C66.9391 13.0318 65.4083 13.1863 64.3416 13.9825C61.2701 12.4824 57.9716 11.4905 54.5768 11.0463C54.2546 10.262 53.708 9.58816 53.0044 9.10765C52.3008 8.62713 51.4708 8.36094 50.6165 8.34181C48.6822 8.28346 46.9696 9.41092 46.3341 11.0463C42.9354 11.4909 39.6332 12.4845 36.5588 13.9877C35.4939 13.1948 33.9613 13.0438 32.5864 13.6908C30.8392 14.5076 29.8365 16.3747 30.1707 18.0736C29.8019 18.3739 29.4417 18.6811 29.0867 18.9969L24.981 16.3936L25.6944 15.3296L23.4848 12.4363C26.0568 9.67197 29.3546 7.67186 33.0089 6.66006L34.4757 6.25335L31.1266 0L30.2608 0.139002C19.3825 1.88768 11.377 7.00328 6.46256 15.3588L6.20454 15.7964L6.33788 16.2872C6.99591 18.7086 7.13272 20.2977 7.09289 21.2981L5.34218 20.1432L0 28.1435L9.96918 34.7264L15.3114 26.7329L13.4741 25.5197C14.9165 24.768 16.5685 24.5381 18.4838 24.8195L19.2526 24.931L19.9453 23.9014L23.0467 26.0259C20.2653 30.2973 18.4064 35.0931 17.5868 40.1114C16.5149 40.5232 14.759 41.4465 14.5494 43.1248C14.2654 45.402 17.1019 46.9945 18.0335 47.5196C19.7548 48.4858 21.0449 49.1431 21.9886 49.6218L22.8146 50.0457L14.7849 55.1373C13.2091 56.1343 12.1112 57.6221 11.7718 59.2181C11.6412 59.7756 11.6248 60.3534 11.7235 60.9172C11.8223 61.4811 12.0342 62.0197 12.3467 62.5009L13.4273 64.1106C13.7552 64.5808 14.1748 64.9811 14.6614 65.288C15.1479 65.5948 15.6916 65.8019 16.2603 65.897C16.6064 65.961 16.9577 65.9932 17.3097 65.9931C18.7135 65.9698 20.0772 65.5259 21.2215 64.7198L30.834 58.1387C31.6385 58.6433 32.4897 59.0708 33.3761 59.4154C37.139 60.8964 42.5539 61.588 50.4069 61.588C58.26 61.588 63.6749 60.9016 67.4378 59.4154C68.321 59.0718 69.1692 58.6461 69.9713 58.1438L79.5751 64.7198C80.7198 65.5262 82.0843 65.9702 83.4886 65.9931C83.8401 65.9933 84.1908 65.9611 84.5363 65.897C85.1058 65.8013 85.6502 65.5932 86.1371 65.2852C86.624 64.9771 87.0436 64.5754 87.371 64.1037L88.4516 62.4941C88.7632 62.0124 88.9744 61.4738 89.0728 60.91C89.1713 60.3462 89.1549 59.7687 89.0247 59.2112C88.6784 57.6153 87.5892 56.1223 86.0151 55.1321L77.9958 50.0406C78.2451 49.9101 78.5153 49.7694 78.8304 49.6115C79.7725 49.1328 81.0643 48.4755 82.7856 47.5094C83.7172 46.9842 86.5536 45.3917 86.2679 43.1145C86.0653 41.4808 84.3977 40.5644 83.3241 40.1371C82.5036 35.0878 80.6318 30.2629 77.8278 25.9693L80.8548 23.8963L80.9777 24.0799L90.2594 25.9281L98.1402 20.7318L100.003 11.5354L98.6181 9.48643ZM9.28171 31.3423L3.39752 27.4571L6.02965 23.5204L7.20718 24.2978L7.23662 24.315C7.24396 24.3216 7.25211 24.3274 7.26086 24.3321L7.28164 24.3459L10.551 26.5047C10.5874 26.5304 10.6237 26.5562 10.6618 26.5785L11.9138 27.4056L9.28171 31.3423ZM11.2298 24.025L9.37349 22.798C9.66787 21.5126 9.68172 19.4448 8.84013 16.1482C13.3078 8.82059 20.1721 4.40858 29.7932 2.6805L30.9084 4.76209C27.0745 6.09547 23.7376 8.38128 20.9704 11.5714L20.3245 12.3145L22.6848 15.4206L18.056 22.3089C15.4672 22.0858 13.1779 22.6624 11.2298 24.025ZM67.2699 15.8736C68.0093 16.2168 68.482 17.0165 68.3089 17.6412C68.2846 17.6961 68.2448 17.7819 68.1946 17.8969C68.1842 17.9158 68.1755 17.9363 68.1651 17.9587C68.1547 17.981 68.1651 17.9587 68.1651 17.9587C68.1601 17.971 68.1543 17.983 68.1478 17.9947C67.7513 18.8527 66.8647 20.7404 65.7893 22.7482C65.4967 23.2956 65.1919 23.8516 64.8784 24.4008C64.296 25.4403 63.6603 26.4495 62.9736 27.4245C62.281 28.3786 61.8169 28.8574 61.5277 29.0959C61.5168 28.8388 61.5261 28.5812 61.5554 28.3254C61.6246 27.639 61.8203 26.5785 62.2913 24.9705C62.4472 24.4368 62.6377 23.8413 62.8576 23.1789C63.8706 20.1707 65.1538 17.1813 65.5226 16.337C65.5573 16.2563 65.5884 16.186 65.6179 16.1207L65.63 16.1036C65.933 15.6883 66.6361 15.5836 67.2699 15.8805V15.8736ZM50.5264 10.7718C51.4563 10.8044 52.2581 11.4462 52.3655 12.2459C52.3655 12.3368 52.3655 12.4432 52.3655 12.5582C52.3568 13.6753 52.2979 17.6172 51.9464 21.42C51.4806 26.4446 50.7862 28.1624 50.4502 28.7201C50.1195 28.171 49.4372 26.4892 48.9731 21.6225C48.6268 17.9501 48.5506 14.1593 48.535 12.6989C48.535 12.4827 48.535 12.3282 48.535 12.2459C48.6597 11.3964 49.5342 10.746 50.5264 10.7718ZM33.6254 15.8908C34.2557 15.5973 34.9519 15.6986 35.2601 16.1156C35.2676 16.1243 35.2745 16.1335 35.2809 16.1431C35.3086 16.2048 35.3415 16.2769 35.3744 16.3541C35.7432 17.2002 37.0264 20.1895 38.0394 23.1978C38.2715 23.8842 38.4637 24.5003 38.623 25.0512C39.094 26.666 39.2827 27.7214 39.3451 28.3975C39.3697 28.6352 39.3773 28.8743 39.3676 29.1131C39.0888 28.8831 38.6403 28.4267 37.9927 27.5395C37.2791 26.5369 36.6201 25.4972 36.0186 24.4248C35.7207 23.9014 35.4281 23.3711 35.1527 22.8494C34.0531 20.8005 33.1475 18.8768 32.7457 18.0187L32.7319 17.9878C32.7232 17.969 32.7146 17.9518 32.7076 17.9346L32.5847 17.6635C32.4219 17.0354 32.8877 16.2374 33.6254 15.8908ZM21.2994 21.8764L23.6181 18.422L27.2546 20.7335C26.2497 21.7717 25.311 22.871 24.4441 24.025L21.2994 21.8764ZM19.8189 62.7189C18.8353 63.3933 17.6768 63.6867 16.7157 63.5048C16.4678 63.4675 16.2297 63.3821 16.0151 63.2534C15.8006 63.1247 15.6138 62.9553 15.4655 62.7549L14.3849 61.1452C14.1269 60.7163 14.051 60.2035 14.1737 59.7192C14.3728 58.7719 15.0966 57.8315 16.1045 57.1863L24.9879 51.5473C25.4624 52.0518 25.9264 52.7262 26.6278 53.8125C27.2514 54.8079 27.9881 55.7291 28.8235 56.5582L19.8189 62.7189ZM84.6852 57.1777C85.693 57.8143 86.4169 58.7616 86.616 59.7089C86.6784 59.9501 86.6915 60.2013 86.6547 60.4477C86.6178 60.694 86.5316 60.9306 86.4013 61.1435L85.3207 62.7532C85.1722 62.9538 84.9851 63.1233 84.7703 63.252C84.5554 63.3807 84.317 63.466 84.0687 63.5031C83.1094 63.685 81.9492 63.3916 80.9638 62.7154L71.9748 56.5599C72.8129 55.7274 73.5514 54.8021 74.1757 53.8022C74.8684 52.7193 75.3394 52.0449 75.8087 51.5421L84.6852 57.1777ZM83.8332 43.4165C83.8332 43.444 83.8159 44.1356 81.5821 45.3969C79.9058 46.3373 78.6919 46.9551 77.7153 47.4562C76.8702 47.8869 76.2174 48.225 75.6667 48.5647C74.9311 49.0045 74.2779 49.5671 73.7359 50.2276C73.1539 50.9529 72.6156 51.7116 72.1237 52.4997C71.519 53.4837 70.7755 54.3771 69.9158 55.1527C69.253 55.7288 68.5193 56.2195 67.7322 56.6131C64.6983 58.1576 59.6869 59.1615 50.4156 59.1615C41.1443 59.1615 36.1138 58.1576 33.0747 56.6079C32.288 56.2139 31.5549 55.7227 30.8928 55.1459C30.0359 54.372 29.2948 53.481 28.6919 52.4997C28.1987 51.7086 27.658 50.9476 27.0728 50.2207C26.5318 49.5631 25.8804 49.0029 25.1472 48.5647C24.5983 48.2215 23.9472 47.8903 23.1038 47.4613C22.1289 46.9636 20.915 46.3459 19.2388 45.402C16.9634 44.1218 16.9876 43.4285 16.9876 43.4217C17.0205 43.154 17.663 42.7112 18.3989 42.4109C19.4621 43.2055 22.1791 45.088 26.3992 46.9722C26.6405 47.0798 26.8887 47.1884 27.1438 47.2983C27.9992 47.6638 28.9361 48.0362 29.9508 48.4034C32.4386 49.3022 34.9869 50.0271 37.5771 50.5725C38.6697 50.8042 39.8109 51.0118 40.9954 51.1886C43.9608 51.6332 46.9558 51.8557 49.955 51.8544C53.2029 51.8545 56.4457 51.5974 59.6523 51.0856C60.8246 50.9003 61.9554 50.6858 63.0411 50.4507C65.6258 49.892 68.171 49.1668 70.6605 48.2799C71.6804 47.9178 72.6259 47.5488 73.49 47.1884L73.9939 46.9774C78.4218 45.0897 81.3275 43.202 82.4531 42.4229C83.1752 42.7301 83.8003 43.1557 83.8332 43.4165ZM80.8894 40.525C79.7603 41.2972 77.0035 43.0459 72.9237 44.7757C72.309 45.0365 71.6458 45.3059 70.9393 45.5753C70.0336 45.9186 69.0535 46.2618 68.0041 46.605C65.4536 47.4196 62.8501 48.0611 60.2116 48.5253C59.067 48.7278 57.8773 48.9028 56.6479 49.0401C54.4261 49.2941 52.1915 49.4219 49.955 49.4228C47.9718 49.4231 45.9899 49.3223 44.0171 49.1207C42.7686 48.992 41.5651 48.8273 40.4101 48.6334C37.7557 48.1904 35.1379 47.5543 32.5778 46.7303C31.5388 46.387 30.5586 46.0438 29.6599 45.7006C28.8807 45.3969 28.1568 45.0931 27.4919 44.798C23.6095 43.0819 21.0414 41.3315 19.9955 40.5627C20.7507 35.879 22.4752 31.4006 25.0606 27.409C25.5039 26.7226 25.9715 26.0574 26.4633 25.4133C27.3556 24.2367 28.3281 23.1221 29.3742 22.0772C29.9514 21.5052 30.55 20.9526 31.1699 20.4195C31.7085 21.5384 32.4531 23.0348 33.286 24.5604C33.4592 24.8881 33.6497 25.2193 33.8367 25.5471C36.5675 30.3521 37.9927 31.3303 38.9191 31.6512C39.1592 31.7366 39.4121 31.7813 39.6672 31.7833C39.9816 31.7835 40.2914 31.7094 40.5711 31.5671C41.1876 31.2548 41.5789 30.7262 41.7434 29.9282C41.8976 29.1869 41.8577 28.2122 41.6222 26.9629C41.3612 25.6683 41.02 24.3908 40.6005 23.1378C39.7018 20.3491 38.5225 17.4747 37.9061 16.0452C40.4942 14.8127 43.2529 13.9683 46.0916 13.5398C46.1263 15.5476 46.2406 19.2303 46.6111 22.6761C46.8622 25.0014 47.193 26.8565 47.5965 28.1864C47.8337 28.9707 48.5575 31.356 50.4485 31.356C52.3395 31.356 53.0858 28.9106 53.3231 28.1075C53.7283 26.7346 54.059 24.847 54.3084 22.4668C54.6547 19.069 54.7707 15.4309 54.8054 13.5432C57.643 13.9698 60.4007 14.813 62.9875 16.0452C62.3745 17.473 61.1935 20.344 60.2965 23.1292C59.8842 24.363 59.5471 25.6203 59.2869 26.8942C59.1483 27.5643 59.073 28.2456 59.0618 28.9295C59.0589 29.246 59.0868 29.5621 59.1449 29.8733C59.3025 30.697 59.6973 31.2462 60.3259 31.5585C60.6057 31.7003 60.9156 31.7739 61.2298 31.773C61.4843 31.7716 61.7366 31.7275 61.9762 31.6426C62.9095 31.3217 64.3295 30.3367 67.0603 25.5368C67.2612 25.1816 67.4604 24.8264 67.6543 24.4711C68.4682 22.9764 69.1955 21.5161 69.7236 20.4161C70.3309 20.9343 70.9173 21.476 71.483 22.0412C72.5311 23.0838 73.5054 24.1967 74.3991 25.3721C74.8909 26.0173 75.359 26.682 75.8035 27.3661C78.4012 31.3574 80.1354 35.8392 80.8963 40.5284L80.8894 40.525ZM76.4182 23.9821C75.5473 22.8289 74.6046 21.7308 73.5956 20.6941L77.1732 18.4237L79.4937 21.8782L76.4182 23.9821ZM95.9341 19.2714L89.7451 23.3523L82.4617 21.9022L78.3387 15.7638L79.8019 8.55632L85.9891 4.46178L91.9183 5.64243L82.4756 11.8752L87.6706 19.6215L97.1133 13.3956L95.9341 19.2714Z" fill="#9797C6"/>
</g>
</g>
</g>
<defs>
<clipPath id="clip0_24_2">
<rect width="100" height="66" fill="white"/>
</clipPath>
</defs>
</svg>
