<svg width="93" height="100" viewBox="0 0 93 100" fill="none" xmlns="http://www.w3.org/2000/svg">
<g id="Lawncare" clip-path="url(#clip0_24_124)">
<g id="&#208;&#161;&#208;&#187;&#208;&#190;&#208;&#185; 2">
<g id="&#208;&#161;&#208;&#187;&#208;&#190;&#208;&#185; 1">
<g id="Group">
<path id="Vector" d="M16.6938 49.8572C16.5313 50.1369 16.4715 50.4657 16.5248 50.7857C16.5782 51.1057 16.7412 51.3964 16.9853 51.6065C26.0971 59.4259 28.2738 71.8673 28.6171 74.2814C28.6636 74.6089 28.8249 74.9085 29.0714 75.1255C29.3179 75.3424 29.6332 75.4623 29.9596 75.4631C30.0238 75.4624 30.0879 75.4572 30.1514 75.4476C30.5073 75.3956 30.8283 75.2027 31.044 74.9112C31.2597 74.6197 31.3525 74.2534 31.3021 73.8926C30.8802 70.9266 29.181 62.0576 23.3468 54.4132C26.9217 56.1877 30.4775 58.5299 33.7628 62.1509C37.2763 66.2676 39.4147 72.3941 39.4358 72.4524C39.4928 72.6252 39.5831 72.7848 39.7014 72.922C39.8197 73.0591 39.9638 73.1711 40.1251 73.2514C40.2865 73.3317 40.462 73.3788 40.6415 73.3898C40.8209 73.4008 41.0008 73.3756 41.1705 73.3156C41.3403 73.2557 41.4966 73.1621 41.6304 73.0405C41.7642 72.9188 41.8729 72.7714 41.9501 72.6068C42.0272 72.4422 42.0714 72.2638 42.0799 72.0818C42.0885 71.8998 42.0613 71.7179 42 71.5466C41.9098 71.2823 39.7848 65.185 36.1006 60.6893C35.8206 56.6989 34.8368 48.7299 31.4057 41.3556C34.5487 44.3039 37.2834 47.6698 39.5355 51.3616L39.5605 51.4063C41.8219 55.1336 43.6301 59.1244 44.9458 63.2918V63.3055V63.3249C45.5212 65.1383 46.2154 68.1141 46.6719 70.2949C46.7369 70.6033 46.9043 70.8799 47.1461 71.0783C47.388 71.2768 47.6898 71.3851 48.001 71.3853C48.0963 71.3851 48.1914 71.3754 48.2848 71.3561C48.6373 71.2796 48.9455 71.0646 49.1418 70.7582C49.3381 70.4518 49.4065 70.079 49.332 69.7215C48.8947 67.6457 48.2484 64.8623 47.673 62.9342C49.123 58.8252 51.0588 54.9093 53.4381 51.2722L53.5436 51.1147C55.827 47.6402 58.5564 44.4891 61.66 41.7443C57.8818 49.3246 56.7368 57.6124 56.3993 61.422V61.4415C56.3993 61.4512 56.3993 61.4628 56.3993 61.4726C56.0713 67.7973 57.339 72.2055 57.3927 72.3902C57.5063 72.7261 57.7433 73.0046 58.0545 73.1677C58.3657 73.3308 58.727 73.3659 59.0631 73.2656C59.3992 73.1654 59.6841 72.9375 59.8585 72.6296C60.0329 72.3216 60.0833 71.9574 59.9991 71.6127C59.9876 71.5738 58.8829 67.6865 59.09 62.1412C61.9931 59.1488 65.3351 56.6293 68.9977 54.6717C66.8344 57.6319 65.2061 61.1538 64.1916 65.1131C62.92 70.0908 63.0696 73.984 63.0773 74.1473C63.0926 74.5014 63.2421 74.8358 63.4947 75.0809C63.7473 75.3261 64.0835 75.463 64.4332 75.4631H64.4946C64.8547 75.447 65.1937 75.2866 65.4371 75.0173C65.6806 74.748 65.8086 74.3917 65.793 74.0267C65.793 73.8829 65.2924 59.5017 75.7774 51.6745C76.0397 51.4788 76.224 51.1942 76.2967 50.8724C76.3694 50.5506 76.3257 50.213 76.1735 49.9211C76.0214 49.6292 75.7709 49.4024 75.4677 49.2818C75.1644 49.1613 74.8285 49.1551 74.5212 49.2644C68.6985 51.3344 63.8713 54.1235 59.5868 57.9098C60.4556 52.2732 62.5806 43.6374 67.7434 37.2641C67.9472 37.0144 68.0575 36.6997 68.0548 36.3756C68.0521 36.0515 67.9366 35.7388 67.7287 35.4925C67.5208 35.2463 67.2338 35.0823 66.9183 35.0295C66.6027 34.9767 66.2789 35.0384 66.0039 35.2038C62.5211 37.268 57.596 40.9901 52.9318 47.2585C50.6936 39.3691 50.4136 34.6927 52.4811 26.4009C52.5539 26.1074 52.5292 25.7977 52.411 25.5197C52.2928 25.2417 52.0875 25.0109 51.827 24.863C51.5664 24.715 51.265 24.6581 50.9694 24.7011C50.6737 24.744 50.4002 24.8844 50.1912 25.1006C43.0586 32.4866 40.4293 40.3487 39.6429 46.5899C35.2664 40.5042 30.6021 36.7899 27.2459 34.6674C26.9751 34.4969 26.6537 34.4282 26.3381 34.4734C26.0224 34.5186 25.7324 34.6747 25.5188 34.9146C25.3052 35.1545 25.1815 35.4628 25.1694 35.7857C25.1574 36.1085 25.2576 36.4255 25.4527 36.681C30.466 43.2195 32.357 51.9505 33.0685 57.6105C28.2911 53.3461 23.2011 51.1478 18.3412 49.2702C18.0424 49.1557 17.7133 49.1517 17.4119 49.2591C17.1105 49.3665 16.8561 49.5783 16.6938 49.8572ZM50.9468 50.1332C49.1445 52.9297 47.5932 55.8842 46.3113 58.9613C45.1522 55.9597 43.7406 53.0646 42.092 50.3081C42.2205 45.1613 43.5861 38.063 48.7719 31.0094C47.7919 37.5557 48.6262 42.4596 50.9468 50.1332Z" fill="#9797C6"/>
<path id="Vector_2" d="M88.6276 70.6098C86.7673 69.1812 83.4283 70.6642 79.2301 74.7867C79.1968 74.8185 79.1655 74.8522 79.1362 74.8878C76.0024 78.6566 64.5086 86.1377 56.7988 87.8929L56.7547 87.9026C52.6064 88.993 51.0184 88.9055 50.4814 88.7928C50.6732 88.3477 51.2581 87.5275 52.2458 86.6101C54.7256 84.3049 57.4068 81.3738 56.1084 79.1483C55.0133 77.2746 51.7894 76.2989 35.7579 81.8092C28.2418 84.3923 20.3997 82.5575 12.4502 76.3533C8.66955 73.3618 5.31821 69.8515 2.49262 65.9236C2.33111 65.6766 2.09534 65.4889 1.82029 65.3884C1.54523 65.2879 1.24555 65.28 0.965681 65.3657C0.685812 65.4515 0.440668 65.6264 0.266609 65.8644C0.0925497 66.1025 -0.00115308 66.3911 -0.000600987 66.6874C-0.00991306 66.8819 0.0289882 67.0757 0.112553 67.2511C3.30662 76.0616 8.88312 83.783 16.2041 89.5322C23.5252 95.2814 32.2951 98.8261 41.5107 99.7609C50.7264 100.696 60.0155 98.9829 68.3157 94.8183C76.6158 90.6537 83.5917 84.2055 88.4455 76.2114C88.4479 76.2052 88.4511 76.1993 88.455 76.1939L88.7964 75.6108L88.8252 75.5603C89.9625 73.43 89.8877 71.5777 88.6276 70.6098ZM86.447 74.2289L86.1248 74.7731C77.5616 88.8453 62.7269 97.2439 46.4251 97.2439C30.3151 97.2439 15.5072 88.7384 7.07056 75.3232C8.62575 76.8098 10.2755 78.1915 12.0091 79.4593C15.6703 82.1182 19.3986 83.9511 23.0943 84.9016C27.555 86.0942 32.2639 85.9258 36.6306 84.4176C50.0134 79.8189 53.0839 80.3087 53.6995 80.5594C53.6036 80.9268 53.0935 82.0832 50.4066 84.5809C48.7495 86.1183 46.9813 88.336 47.9613 90.165C48.9413 91.994 51.6647 92.0834 57.4144 90.5751C65.7169 88.6781 77.6671 80.8684 81.1652 76.7187C84.439 73.5194 86.307 72.8314 86.9073 72.8314C86.9035 73.0549 86.8172 73.5272 86.447 74.2289Z" fill="#9797C6"/>
<path id="Vector_3" d="M92.7436 32.7548C89.5514 23.9428 83.9759 16.2196 76.6551 10.4689C69.3344 4.7181 60.5641 1.1721 51.3478 0.236604C42.1315 -0.698889 32.8415 1.01392 24.5408 5.17903C16.2401 9.34415 9.26396 15.7933 4.41071 23.7886L4.40112 23.8042L4.05974 24.3873L4.03097 24.4397C2.89368 26.5778 2.96656 28.4243 4.22276 29.3922C6.08308 30.8208 9.42208 29.3397 13.6203 25.2172C13.6541 25.1853 13.6855 25.1508 13.7143 25.1142C16.8576 21.3415 28.3514 13.8603 36.0554 12.1071L36.0995 12.0955C40.2479 11.007 41.8359 11.0945 42.3729 11.2072C42.1811 11.6523 41.5961 12.4726 40.6104 13.388C38.1286 15.6932 35.4475 18.6243 36.7478 20.8517C37.8429 22.7254 41.0649 23.7011 57.0963 18.1908C64.6124 15.6077 72.4545 17.4425 80.406 23.6448C84.1869 26.6361 87.5377 30.1471 90.3616 34.0765C90.4862 34.2644 90.6543 34.4184 90.8512 34.5252C91.0481 34.6319 91.2679 34.6881 91.4912 34.6887C91.571 34.6884 91.6505 34.6812 91.7291 34.6673C92.0443 34.611 92.3298 34.4436 92.5351 34.1946C92.7404 33.9457 92.8523 33.6312 92.851 33.3068C92.8607 33.1166 92.8238 32.927 92.7436 32.7548ZM80.8433 20.5388C77.184 17.8818 73.4537 16.0489 69.7599 15.0946C65.3007 13.9038 60.5939 14.0735 56.2294 15.5824C42.8466 20.1812 39.778 19.6914 39.1605 19.4406C39.2563 19.0733 39.7665 17.9168 42.4534 15.4192C44.1105 13.8798 45.8768 11.662 44.8968 9.83499C43.9168 8.00794 41.1934 7.91464 35.4436 9.42488C27.1431 11.3219 15.191 19.1296 11.6986 23.2794C8.42479 26.4787 6.5568 27.1667 5.95651 27.1667C5.95651 26.9374 6.04473 26.467 6.41679 25.7634L6.73708 25.2211C15.3022 11.1489 30.135 2.74836 46.4368 2.74836C62.5469 2.74836 77.3528 11.2539 85.7894 24.671C84.2325 23.1846 82.5801 21.8041 80.8433 20.5388Z" fill="#9797C6"/>
</g>
</g>
</g>
</g>
<defs>
<clipPath id="clip0_24_124">
<rect width="92.8571" height="100" fill="white"/>
</clipPath>
</defs>
</svg>
