<svg width="100" height="54" viewBox="0 0 100 54" fill="none" xmlns="http://www.w3.org/2000/svg">
<g id="LOGO 1">
<path id="Vector" d="M30.5842 21.5961L30.532 26.0466C30.5668 30.0608 29.4016 33.1674 27.0364 35.3665C24.6711 37.5656 21.2798 38.6651 16.8624 38.6651C12.6189 38.6651 9.38414 37.6005 7.15805 35.4712C4.93196 33.342 3.87109 30.2877 3.97544 26.3084L4.02762 21.439L3.87109 4.4746H10.9667L10.6015 25.3659C10.5667 27.9141 11.1059 29.799 12.2189 31.0207C13.332 32.2424 15.0189 32.8533 17.2798 32.8533C21.8016 32.8533 24.0451 30.4797 24.0103 25.7324L23.6451 4.4746H30.8451L30.5842 21.5961ZM56.8118 20.7059C59.1074 21.2644 60.7944 22.2069 61.8727 23.5333C62.9857 24.8249 63.5422 26.5353 63.5422 28.6645C63.5422 35.192 58.4466 38.4557 48.2553 38.4557C45.264 38.4557 42.2031 38.3684 39.0727 38.1939L39.4379 28.1409L39.0727 4.4746L51.0205 4.42224C54.464 4.42224 57.1422 5.15527 59.0553 6.62133C60.9683 8.05248 61.9248 10.1294 61.9248 12.8521C61.9248 14.6672 61.4727 16.2554 60.5683 17.6168C59.6988 18.9781 58.4466 20.0078 56.8118 20.7059ZM54.6727 13.7945C54.6727 12.2587 54.2205 11.1766 53.3161 10.5483C52.4118 9.88505 50.8292 9.55344 48.5683 9.55344H46.0118L45.8553 18.7163L50.7596 18.8734C52.0814 18.5243 53.0553 17.9484 53.6814 17.1455C54.3422 16.3427 54.6727 15.2257 54.6727 13.7945ZM49.4553 33.3769C51.6466 33.3769 53.3335 32.9405 54.5161 32.0679C55.7335 31.1952 56.3422 29.9386 56.3422 28.298C56.3422 25.8197 54.7422 24.2838 51.5422 23.6904L45.7509 23.7951L45.6987 27.5126L45.8553 33.1674C47.0727 33.307 48.2727 33.3769 49.4553 33.3769Z" fill="#9797C6"/>
<path id="Vector_2" d="M70.1027 19.8861L70.1548 15.4356C70.1201 11.4214 71.2853 8.31473 73.6505 6.11564C76.0157 3.91656 79.407 2.81702 83.8244 2.81702C88.0679 2.81702 91.3027 3.88165 93.5288 6.01093C95.7548 8.1402 96.8157 11.1945 96.7114 15.1738L96.6592 20.0432L96.8157 37.0076H89.7201L90.0853 16.1162C90.1201 13.5681 89.5809 11.6832 88.4679 10.4615C87.3548 9.23974 85.6679 8.62888 83.407 8.62888C78.8853 8.62888 76.6418 11.0025 76.6766 15.7497L77.0418 37.0076H69.8418L70.1027 19.8861Z" fill="#9797C6"/>
<path id="Vector_3" d="M8.40311 47.8264L8.39224 48.7535C8.39948 49.5898 8.15674 50.2371 7.66398 50.6952C7.17122 51.1533 6.4647 51.3824 5.54441 51.3824C4.66035 51.3824 3.98643 51.1605 3.52267 50.717C3.05891 50.2735 2.83789 49.6371 2.85963 48.8081L2.8705 47.7936L2.83789 44.2594H4.31615L4.24006 48.6117C4.23283 49.1425 4.34513 49.5352 4.57702 49.7898C4.80891 50.0444 5.16035 50.1716 5.63137 50.1716C6.57339 50.1716 7.04078 49.677 7.03354 48.6881L6.95746 44.2594H8.45746L8.40311 47.8264ZM12.9256 48.1209C12.9328 47.8663 12.8749 47.6699 12.7517 47.5318C12.6358 47.3863 12.4655 47.3137 12.2408 47.3137C11.9147 47.3137 11.5669 47.4701 11.1973 47.7827V49.0481L11.2626 51.2842H9.81691L9.893 49.1899L9.83865 46.3101L11.2082 46.1901V46.9319H11.2843C11.6828 46.5682 12.1176 46.3064 12.5887 46.1465C13.1394 46.1465 13.5597 46.2737 13.8495 46.5283C14.1394 46.7755 14.2771 47.1354 14.2626 47.6082L14.23 49.059L14.2952 51.2842H12.8387L12.9256 48.1209ZM15.8854 49.1899L15.831 46.3101L17.2549 46.1901L17.1897 49.0481L17.2549 51.2842H15.8093L15.8854 49.1899ZM16.5702 43.7249C16.7948 43.7249 16.9687 43.7903 17.0919 43.9212C17.2223 44.0521 17.2875 44.2339 17.2875 44.4666C17.2875 44.7138 17.2187 44.9102 17.081 45.0557C16.9433 45.2012 16.7549 45.2738 16.5158 45.2738C16.2767 45.2738 16.0919 45.2084 15.9615 45.0775C15.8383 44.9466 15.7767 44.7612 15.7767 44.5212C15.7767 44.2812 15.8455 44.0886 15.9832 43.943C16.1281 43.7975 16.3238 43.7249 16.5702 43.7249ZM20.8826 50.2152C21.1144 50.2152 21.3572 50.1535 21.6108 50.0298L21.7304 50.1389L21.5891 51.0006C21.2195 51.1898 20.8427 51.3061 20.4587 51.3497C19.4804 51.2478 18.9913 50.7679 18.9913 49.9098L19.0456 49.0044L19.0347 47.1282H18.3608L18.3065 47.0519L18.3826 46.2556H19.0239V45.4156L20.3391 44.9902L20.4369 45.0775L20.4043 46.2556H21.6978L21.7412 46.3319L21.676 47.1282H20.3826L20.3173 49.5717C20.3173 49.8044 20.3608 49.9716 20.4478 50.0734C20.5347 50.1679 20.6797 50.2152 20.8826 50.2152ZM26.5679 48.9281L23.6331 48.9499C23.6983 49.859 24.1585 50.3134 25.0135 50.3134C25.4629 50.3134 25.9629 50.1862 26.5135 49.9316L26.6331 50.008L26.4157 51.0879C25.8651 51.2914 25.347 51.3933 24.8614 51.3933C24.0644 51.3933 23.4375 51.1605 22.9809 50.6952C22.5318 50.2299 22.307 49.5863 22.307 48.7645C22.307 47.9501 22.5281 47.3065 22.9701 46.8337C23.4122 46.3537 24.0101 46.1138 24.7635 46.1138C25.4085 46.1138 25.9048 46.292 26.2527 46.6483C26.6079 46.9973 26.7853 47.4882 26.7853 48.1209C26.7853 48.2882 26.7672 48.499 26.7309 48.7535L26.5679 48.9281ZM25.5244 47.9573C25.5244 47.6664 25.4592 47.4483 25.3288 47.3028C25.1983 47.15 25.0064 47.0737 24.7527 47.0737C24.4701 47.0737 24.2346 47.1682 24.0462 47.3573C23.8579 47.539 23.7309 47.8045 23.6657 48.1536L25.5027 48.11L25.5244 47.9573ZM32.2166 49.0481L32.2492 49.9644C32.2492 50.0881 32.2638 50.1753 32.2927 50.2261C32.329 50.2698 32.3905 50.2916 32.4775 50.2916C32.5572 50.2916 32.6551 50.277 32.7709 50.248L32.8688 50.3352L32.7492 51.0988C32.5029 51.2515 32.2348 51.3425 31.9448 51.3715C31.7203 51.3497 31.5318 51.2733 31.3796 51.1424C31.2275 51.0115 31.1225 50.8333 31.0644 50.6079H30.9775C30.6225 50.9352 30.2601 51.1861 29.8905 51.3606C29.1805 51.3606 28.6296 51.1352 28.2383 50.6843C27.847 50.2262 27.6514 49.5935 27.6514 48.7863C27.6514 47.9282 27.8762 47.27 28.3253 46.8119C28.7746 46.3538 29.3979 46.1247 30.1948 46.1247C30.4051 46.1247 30.637 46.1465 30.8905 46.1901L30.8688 43.7358L32.3035 43.6267L32.2166 49.0481ZM30.097 47.1064C29.3725 47.1064 29.0101 47.5683 29.0101 48.4918C29.0101 49.0662 29.097 49.499 29.2709 49.7898C29.4448 50.0806 29.6985 50.2261 30.0318 50.2261C30.3507 50.2261 30.6442 50.0771 30.9122 49.7789L30.934 49.179L30.9014 47.3028C30.6188 47.1719 30.3507 47.1064 30.097 47.1064ZM39.6812 47.6409C40.1594 47.7572 40.5109 47.9535 40.7355 48.23C40.9675 48.499 41.0833 48.8554 41.0833 49.299C41.0833 50.6588 40.0218 51.3388 37.8985 51.3388C37.2753 51.3388 36.6377 51.3207 35.9855 51.2842L36.0616 49.1899L35.9855 44.2594L38.4746 44.2485C39.192 44.2485 39.7501 44.4012 40.1485 44.7066C40.547 45.0048 40.7464 45.4375 40.7464 46.0047C40.7464 46.3828 40.6522 46.7137 40.4638 46.9973C40.2827 47.2809 40.0218 47.4954 39.6812 47.6409ZM39.2355 46.201C39.2355 45.881 39.1414 45.6556 38.9529 45.5247C38.7644 45.3866 38.4348 45.3175 37.9638 45.3175H37.4312L37.3985 47.2264L38.4203 47.2591C38.6957 47.1865 38.8985 47.0665 39.029 46.8992C39.1666 46.7318 39.2355 46.4993 39.2355 46.201ZM38.1485 50.2807C38.6051 50.2807 38.9566 50.1897 39.2029 50.008C39.4566 49.8263 39.5833 49.5645 39.5833 49.2226C39.5833 48.7062 39.2501 48.3864 38.5833 48.2627L37.3768 48.2845L37.3659 49.059L37.3985 50.2371C37.6522 50.2661 37.9022 50.2807 38.1485 50.2807ZM42.4105 49.1899L42.3562 46.3101L43.7801 46.1901L43.7149 49.0481L43.7801 51.2842H42.3344L42.4105 49.1899ZM43.0953 43.7249C43.3199 43.7249 43.4938 43.7903 43.617 43.9212C43.7475 44.0521 43.8127 44.2339 43.8127 44.4666C43.8127 44.7138 43.7438 44.9102 43.6062 45.0557C43.4685 45.2012 43.2801 45.2738 43.0409 45.2738C42.8018 45.2738 42.617 45.2084 42.4866 45.0775C42.3633 44.9466 42.3018 44.7612 42.3018 44.5212C42.3018 44.2812 42.3707 44.0886 42.5083 43.943C42.6533 43.7975 42.849 43.7249 43.0953 43.7249ZM48.1577 46.201C48.2229 46.201 48.3135 46.2082 48.4294 46.2229V47.5646L48.2772 47.6191C48.154 47.5683 48.0201 47.5427 47.8751 47.5427C47.4549 47.5427 47.0744 47.8154 46.7338 48.3609V49.0481L46.8099 51.2842H45.3642L45.4512 49.1899L45.3859 46.3101L46.7555 46.1901L46.7446 47.1828H46.8316C47.1866 46.5283 47.6288 46.201 48.1577 46.201ZM51.4464 50.2152C51.6783 50.2152 51.9212 50.1535 52.1746 50.0298L52.2942 50.1389L52.1529 51.0006C51.7833 51.1898 51.4066 51.3061 51.0225 51.3497C50.0442 51.2478 49.5551 50.7679 49.5551 49.9098L49.6094 49.0044L49.5985 47.1282H48.9246L48.8703 47.0519L48.9464 46.2556H49.5877V45.4156L50.9029 44.9902L51.0007 45.0775L50.9681 46.2556H52.2616L52.3051 46.3319L52.2398 47.1282H50.9464L50.8812 49.5717C50.8812 49.8044 50.9246 49.9716 51.0116 50.0734C51.0985 50.1679 51.2435 50.2152 51.4464 50.2152ZM56.4453 48.1209C56.4525 47.8591 56.3981 47.659 56.2822 47.5209C56.1662 47.3828 55.9959 47.3137 55.7714 47.3137C55.4453 47.3137 55.0975 47.4701 54.7279 47.7827L54.7062 49.0481L54.7822 51.2842H53.3366L53.4127 49.179L53.3475 43.7358L54.7931 43.6267L54.7388 46.9319H54.804C55.2025 46.5682 55.6409 46.3064 56.1192 46.1465C56.6698 46.1465 57.0866 46.2737 57.3692 46.5283C57.659 46.7755 57.8003 47.1354 57.7931 47.6082L57.7605 49.059L57.8149 51.2842H56.3692L56.4453 48.1209ZM67.1362 49.1135L67.1905 51.2842H65.6035L62.7449 46.5283H62.6579L62.647 48.8626L62.6905 51.2842H61.3535L61.4296 49.2117L61.3644 44.2594H62.9405L65.7992 49.0153H65.897L65.8644 44.3248L67.2231 44.2376L67.1362 49.1135ZM72.6446 48.9281L69.7099 48.9499C69.7751 49.859 70.2353 50.3134 71.0903 50.3134C71.5396 50.3134 72.0396 50.1862 72.5903 49.9316L72.7098 50.008L72.4925 51.0879C71.9418 51.2914 71.4238 51.3933 70.9381 51.3933C70.1412 51.3933 69.5142 51.1605 69.0577 50.6952C68.6086 50.2299 68.3838 49.5863 68.3838 48.7645C68.3838 47.9501 68.6049 47.3065 69.0468 46.8337C69.489 46.3537 70.0868 46.1138 70.8403 46.1138C71.4853 46.1138 71.9816 46.292 72.3294 46.6483C72.6846 46.9973 72.862 47.4882 72.862 48.1209C72.862 48.2882 72.844 48.499 72.8077 48.7535L72.6446 48.9281ZM71.6012 47.9573C71.6012 47.6664 71.5359 47.4483 71.4055 47.3028C71.2751 47.15 71.0831 47.0737 70.8294 47.0737C70.5468 47.0737 70.3114 47.1682 70.1229 47.3573C69.9346 47.539 69.8077 47.8045 69.7425 48.1536L71.5794 48.11L71.6012 47.9573ZM76.1194 50.2152C76.3514 50.2152 76.5942 50.1535 76.8477 50.0298L76.9672 50.1389L76.8259 51.0006C76.4564 51.1898 76.0796 51.3061 75.6955 51.3497C74.7172 51.2478 74.2281 50.7679 74.2281 49.9098L74.2825 49.0044L74.2716 47.1282H73.5977L73.5433 47.0519L73.6194 46.2556H74.2607V45.4156L75.5759 44.9902L75.6738 45.0775L75.6412 46.2556H76.9346L76.9781 46.3319L76.9129 47.1282H75.6194L75.5542 49.5717C75.5542 49.8044 75.5977 49.9716 75.6846 50.0734C75.7716 50.1679 75.9166 50.2152 76.1194 50.2152ZM78.8792 46.9755L79.4988 49.8225H79.5857L80.3466 47.0519L80.5205 46.2119H81.9227L82.0314 46.9755L82.6727 49.8116H82.7596L83.4988 47.0519L83.6727 46.2119H84.8901L83.314 51.2842H81.9553L81.1836 48.0227H81.0857L80.1835 51.2842H78.7596L77.4444 46.2447L78.7596 46.1792L78.8792 46.9755ZM87.7435 46.1138C88.4827 46.1138 89.0479 46.3319 89.4392 46.7683C89.8305 47.2046 90.0262 47.8336 90.0262 48.6554C90.0262 49.5426 89.8159 50.2224 89.3957 50.6952C88.9755 51.1605 88.3703 51.3933 87.5805 51.3933C86.8414 51.3933 86.2762 51.1752 85.8848 50.7388C85.4935 50.3025 85.2979 49.6735 85.2979 48.8517C85.2979 47.9645 85.5081 47.2881 85.9283 46.8228C86.3485 46.35 86.9538 46.1138 87.7435 46.1138ZM87.6457 47.0955C87.2979 47.0955 87.0442 47.2118 86.8848 47.4446C86.7327 47.6773 86.6566 48.0517 86.6566 48.5681C86.6566 49.2372 86.7364 49.7135 86.8957 49.9971C87.0551 50.2807 87.3159 50.4225 87.6783 50.4225C88.0262 50.4225 88.2762 50.3097 88.4283 50.0843C88.5877 49.8516 88.6675 49.4735 88.6675 48.9499C88.6675 48.2882 88.5842 47.8154 88.4175 47.5318C88.2581 47.241 88.0007 47.0955 87.6457 47.0955ZM93.964 46.201C94.0292 46.201 94.1199 46.2082 94.2357 46.2229V47.5646L94.0835 47.6191C93.9603 47.5683 93.8264 47.5427 93.6814 47.5427C93.2612 47.5427 92.8807 47.8154 92.5401 48.3609V49.0481L92.6162 51.2842H91.1705L91.2575 49.1899L91.1923 46.3101L92.5618 46.1901L92.5509 47.1828H92.6379C92.9929 46.5283 93.4351 46.201 93.964 46.201ZM96.4842 49.0481L96.5603 51.2842H95.1146L95.1907 49.179L95.1255 43.7358L96.5712 43.6267L96.4842 49.0481ZM97.9516 48.5027C98.3429 49.1353 98.9298 49.9825 99.7125 51.0443L99.7016 51.197C99.4481 51.2552 99.1764 51.2989 98.8864 51.3279C98.6038 51.3643 98.4299 51.3861 98.3646 51.3933L98.2125 51.3279C97.5749 50.4262 97.0242 49.528 96.5603 48.6336V48.5354L97.8212 46.7355L98.082 46.2119H99.6038L97.9516 48.5027Z" fill="#9797C6"/>
</g>
</svg>
