<svg width="16" height="16" viewBox="0 0 16 16" fill="none" xmlns="http://www.w3.org/2000/svg">
<g id="teenyicons:mouse-outline">
<g id="Group">
<path id="Vector" d="M7.99935 4.26667V7.46667V4.26667ZM7.99935 15.4667C6.58486 15.4667 5.22831 14.9048 4.22811 13.9046C3.22792 12.9044 2.66602 11.5478 2.66602 10.1333V5.86667C2.66602 4.45219 3.22792 3.09563 4.22811 2.09544C5.22831 1.09524 6.58486 0.53334 7.99935 0.53334C9.41384 0.53334 10.7704 1.09524 11.7706 2.09544C12.7708 3.09563 13.3327 4.45219 13.3327 5.86667V10.1333C13.3327 10.8337 13.1947 11.5272 12.9267 12.1743C12.6587 12.8214 12.2658 13.4093 11.7706 13.9046C11.2753 14.3998 10.6874 14.7927 10.0403 15.0607C9.39326 15.3287 8.69973 15.4667 7.99935 15.4667V15.4667Z" stroke="#9797C6" stroke-width="1.06667"/>
</g>
</g>
</svg>
