<svg width="100" height="97" viewBox="0 0 100 97" fill="none" xmlns="http://www.w3.org/2000/svg">
<g id="Movers" clip-path="url(#clip0_24_80)">
<g id="&#208;&#161;&#208;&#187;&#208;&#190;&#208;&#185; 2">
<g id="&#208;&#161;&#208;&#187;&#208;&#190;&#208;&#185; 1">
<g id="Group">
<g id="Group_2">
<g id="Group_3">
<g id="Group_4">
<g id="Group_5">
<path id="Vector" d="M21.284 48.61C21.0172 48.6084 20.7565 48.5293 20.5336 48.3823C20.3107 48.2354 20.1351 48.0268 20.028 47.7818C19.921 47.5369 19.8871 47.2661 19.9305 47.0023C19.9738 46.7384 20.0926 46.4928 20.2724 46.2952C21.299 45.1742 22.2375 43.9751 23.0792 42.7088C23.2843 42.409 23.5988 42.202 23.9548 42.1325C24.3108 42.0631 24.6798 42.1366 24.9822 42.3374C25.2846 42.5381 25.4961 42.8499 25.5711 43.2055C25.6461 43.5612 25.5786 43.9321 25.3832 44.2383C24.4621 45.623 23.4357 46.9344 22.3132 48.1607C22.1828 48.304 22.0238 48.418 21.8464 48.4955C21.6691 48.5729 21.4774 48.6119 21.284 48.61Z" fill="#9797C6"/>
<path id="Vector_2" d="M32.1196 42.2712C29.9755 42.2712 27.1647 41.7262 23.5587 40.6421C19.1769 39.3998 16.6644 37.6866 15.1596 34.9109C15.0143 34.5913 14.9955 34.2284 15.1071 33.8955C15.2187 33.5626 15.4524 33.2846 15.7607 33.1178C16.0691 32.951 16.4292 32.9079 16.7681 32.997C17.107 33.0862 17.3995 33.3011 17.5863 33.5982C18.7188 35.6844 20.67 36.958 24.3208 37.9914H24.3423C30.2795 39.7768 33.8934 39.9877 34.8153 38.6047C34.872 38.5037 34.9072 38.392 34.9186 38.2767C34.93 38.1614 34.9174 38.0449 34.8816 37.9347C34.7393 37.4229 34.1955 36.917 33.3515 36.5107C32.1664 35.954 31.49 35.6805 30.6323 35.3387C29.8663 35.0281 28.997 34.6765 27.5584 34.0377C22.703 31.9222 22.3677 28.0623 22.356 27.8982L25.1122 27.7029V27.6814C25.1219 27.7791 25.4026 30.086 28.6714 31.51C30.0749 32.1332 30.9228 32.475 31.6693 32.7778C32.5309 33.1255 33.2735 33.4263 34.5385 34.0221C36.5638 34.9988 37.2889 36.288 37.5442 37.2002C37.6856 37.6904 37.7216 38.2051 37.6496 38.7102C37.5777 39.2153 37.3996 39.6993 37.1271 40.1303C36.1759 41.5582 34.5775 42.2712 32.1196 42.2712Z" fill="#9797C6"/>
<path id="Vector_3" d="M19.1174 67.0382C18.8932 67.0382 18.6808 67.0382 18.4897 67.0187C17.9985 67.0069 12.2113 66.8722 10.346 66.7589H10.3304C7.51377 66.544 5.82381 65.7275 5.16693 64.2663C4.27614 62.2817 5.82771 60.2307 6.33645 59.5567L6.35789 59.5294C6.89392 58.8574 6.87638 58.6113 6.77307 58.1913C6.65807 57.8124 6.28382 57.3455 5.81406 56.7575C4.79853 55.4859 3.30544 53.6184 2.3055 50.0398C1.80004 49.9697 1.32485 49.7571 0.935259 49.4269C0.545665 49.0966 0.257686 48.6623 0.104845 48.1744C-0.00380223 47.7961 -0.0267587 47.3982 0.0376529 47.0099C0.102064 46.6216 0.252217 46.2526 0.477143 45.9299C0.73541 45.5532 1.07102 45.2362 1.46149 45.0001C1.70124 38.929 5.33261 30.7209 5.76143 29.7637C6.66914 27.754 7.21236 25.5983 7.36563 23.3976V23.2921L7.38512 23.1866C9.95027 9.02069 18.2597 4.04346 20.1875 3.06677C22.201 0.253896 24.7974 -0.291099 26.4561 0.123019C26.7547 0.191843 27.0333 0.329082 27.27 0.523964C27.5068 0.718846 27.6952 0.966066 27.8206 1.24622C28.1578 1.99241 28.0155 2.87534 27.7874 3.57074C28.1948 4.00244 28.7406 4.60213 29.2747 5.25261C31.0153 7.37789 31.5825 8.7687 31.1713 9.88604C31.0426 10.2474 32.2784 11.5953 33.6662 13.0603L33.7423 13.1462C34.0366 13.5154 34.6018 14.5449 33.5005 16.1447C32.6487 17.3734 30.6352 19.106 28.8478 18.522C28.5184 18.4145 28.0681 18.2583 27.5243 18.0512C27.2495 18.6763 27.2534 19.4733 27.5243 20.3738C27.5906 20.5847 27.6763 20.8367 27.7738 21.1239C28.5559 23.2897 29.101 25.5343 29.3994 27.8181C29.4208 27.9986 29.4065 28.1815 29.3573 28.3564C29.3082 28.5313 29.2251 28.6949 29.1129 28.8376C29.0007 28.9804 28.8615 29.0996 28.7033 29.1884C28.5451 29.2773 28.371 29.334 28.1909 29.3554C28.0108 29.3769 27.8283 29.3625 27.6538 29.3132C27.4792 29.264 27.3161 29.1807 27.1736 29.0683C27.0312 28.9558 26.9122 28.8163 26.8236 28.6578C26.7349 28.4993 26.6783 28.3248 26.6569 28.1443C26.3828 26.0529 25.8801 23.998 25.158 22.0166C25.0527 21.7021 24.963 21.4305 24.889 21.1981C24.2106 19.0259 24.6726 17.4691 25.1814 16.5451C25.2956 16.3329 25.4259 16.1298 25.5712 15.9376C25.7333 15.7259 25.9147 15.5297 26.1131 15.3516L26.7427 14.7969L27.5223 15.0977C28.4346 15.4512 29.1538 15.7149 29.6099 15.8673C30.0232 15.7989 30.8906 15.0703 31.2434 14.541C29.1792 12.3532 27.959 10.9213 28.5145 9.10664C28.3196 8.40537 26.8167 6.47934 25.1872 4.87365L24.4621 4.15676L24.9299 3.25039C25.0038 3.09998 25.0688 2.9454 25.1248 2.78744C24.3451 2.88706 23.2653 3.41252 22.2731 4.93616L22.0451 5.2741L21.6552 5.43818C21.6357 5.44599 19.3942 6.44613 16.8602 9.18087C14.5212 11.6949 11.4746 16.2326 10.1218 23.5969C9.94732 26.1279 9.32285 28.6073 8.27786 30.9181C6.75748 34.2838 4.18453 41.1773 4.21182 45.6564C4.22469 46.0121 4.12331 46.3625 3.92261 46.6561C3.7219 46.9498 3.43246 47.1711 3.09687 47.2875C3.40893 47.2558 3.72318 47.3209 3.99716 47.4739C4.27115 47.6269 4.49168 47.8605 4.62895 48.1431L4.69717 48.2837L4.7342 48.4361C5.58211 52.046 6.90367 53.6985 7.96403 55.0249C8.61117 55.8336 9.16864 56.5329 9.42984 57.451L9.44153 57.494C9.78459 58.873 9.50975 59.9943 8.52346 61.2406C7.49428 62.6079 7.65801 63.0787 7.67945 63.1295C7.70089 63.1803 8.01082 63.8034 10.5253 63.9968C12.3926 64.112 18.517 64.2527 18.5774 64.2546H18.6301C18.998 64.273 19.3668 64.2639 19.7333 64.2273C18.7197 63.4987 17.1604 63.5358 16.0045 63.5631C15.5086 63.5999 15.0101 63.5783 14.5192 63.4987C13.0105 63.1627 12.687 62.2622 12.6285 61.7562C12.4589 60.256 14.0631 59.17 16.7082 57.9022L16.7627 57.8768C17.636 57.5057 21.9496 55.4781 21.5363 51.9151C20.8619 48.399 19.3922 46.8363 17.0532 44.6876C16.8163 44.4335 16.6836 44.0994 16.6815 43.7518C16.6794 43.4041 16.808 43.0684 17.0417 42.8115C17.2755 42.5546 17.5972 42.3954 17.9428 42.3655C18.2885 42.3356 18.6327 42.4372 18.9069 42.6502C21.5149 45.045 23.4251 47.0785 24.2516 51.4404L24.2652 51.5264C24.8032 55.8238 21.318 58.9297 17.866 60.4104C17.5853 60.5406 17.3339 60.6656 17.1116 60.7854C18.556 60.8186 20.3668 61.0706 21.7624 62.3188L21.8034 62.3559C22.9144 63.4362 23.2633 64.4715 22.8404 65.4384C22.2634 66.7706 20.4662 67.0382 19.1174 67.0382ZM28.5691 8.93865V8.95623V8.93865Z" fill="#9797C6"/>
</g>
<g id="Group_6">
<path id="Vector_4" d="M78.462 48.61C78.2698 48.6103 78.0796 48.5704 77.9037 48.4926C77.7278 48.4149 77.5701 48.3012 77.4406 48.1588C76.3182 46.9328 75.2925 45.6214 74.3726 44.2364C74.1702 43.9304 74.0974 43.5565 74.1701 43.1967C74.2428 42.837 74.4552 42.521 74.7605 42.3181C75.0657 42.1153 75.4389 42.0423 75.7979 42.1152C76.1568 42.1881 76.4722 42.4009 76.6746 42.7069C77.5169 43.9734 78.4553 45.1731 79.4814 46.2952C79.6623 46.4933 79.7817 46.7397 79.8252 47.0046C79.8686 47.2695 79.8342 47.5414 79.7261 47.787C79.618 48.0326 79.441 48.2414 79.2165 48.3879C78.992 48.5344 78.7299 48.6122 78.462 48.6119V48.61Z" fill="#9797C6"/>
<path id="Vector_5" d="M67.62 42.2712C65.164 42.2712 63.5715 41.5602 62.6261 40.1225C62.3497 39.6896 62.1688 39.2024 62.0955 38.6937C62.0223 38.185 62.0583 37.6665 62.2012 37.1729C62.4565 36.2626 63.1758 34.9714 65.1952 34.0026C66.4719 33.4009 67.2165 33.1001 68.078 32.7524C68.8246 32.4496 69.6705 32.1078 71.0662 31.4885C74.3428 30.0606 74.6235 27.7537 74.6332 27.656V27.6775L77.3894 27.8728C77.3777 28.0369 77.0424 31.8968 72.1772 34.0162C70.7484 34.6511 69.881 35.0027 69.1131 35.3133C68.2554 35.661 67.579 35.9345 66.3842 36.497C65.5519 36.8975 65.008 37.4034 64.8657 37.9152C64.8299 38.0276 64.8177 38.1463 64.8301 38.2637C64.8426 38.381 64.8792 38.4945 64.9379 38.5969C65.8462 39.9643 69.4678 39.7572 75.4051 37.9718H75.4265C79.0774 36.9385 81.0285 35.6649 82.161 33.5787C82.3429 33.2693 82.6376 33.0428 82.9829 32.947C83.3282 32.8511 83.6972 32.8934 84.0119 33.065C84.3267 33.2365 84.5627 33.5239 84.6701 33.8664C84.7776 34.209 84.748 34.58 84.5878 34.9011C83.083 37.6769 80.5705 39.3939 76.1887 40.6343C72.5768 41.7262 69.768 42.2712 67.62 42.2712Z" fill="#9797C6"/>
<path id="Vector_6" d="M80.6257 67.0382C79.2768 67.0382 77.4796 66.7706 76.8949 65.4403C76.4719 64.4734 76.8208 63.4381 77.9319 62.3579L77.9689 62.313C79.3645 61.0647 81.1753 60.8128 82.6216 60.7795C82.3975 60.6643 82.146 60.5393 81.8653 60.4045C78.4133 58.9238 74.9281 55.818 75.4661 51.5205L75.4798 51.4346C76.3062 47.0707 78.2086 45.0372 80.8245 42.6443C80.9582 42.5216 81.1148 42.4264 81.2852 42.3643C81.4557 42.3022 81.6366 42.2743 81.8178 42.2823C81.999 42.2903 82.1768 42.334 82.3412 42.4108C82.5055 42.4877 82.6531 42.5962 82.7756 42.7303C82.8981 42.8643 82.9931 43.0212 83.055 43.192C83.117 43.3628 83.1448 43.5442 83.1368 43.7257C83.1289 43.9073 83.0853 44.0855 83.0086 44.2502C82.9319 44.4149 82.8236 44.5629 82.6899 44.6856C80.3508 46.8343 78.8772 48.397 78.2067 51.9131C77.7954 55.4761 82.1051 57.5037 82.9803 57.8749L83.0349 57.9003C85.6799 59.168 87.2861 60.2541 87.1146 61.7543C87.0561 62.2602 86.7345 63.1607 85.2238 63.4967C84.7329 63.5763 84.2344 63.598 83.7385 63.5612C82.5827 63.5338 81.0233 63.4967 80.0097 64.2253C80.3769 64.2628 80.7464 64.2719 81.1149 64.2527H81.1656C81.226 64.2527 87.3524 64.1101 89.2177 63.9948C91.7322 63.7995 92.0499 63.1549 92.0636 63.1275C92.0772 63.1002 92.2585 62.606 91.2196 61.2386C90.2333 59.9923 89.9584 58.8711 90.3015 57.492L90.3132 57.449C90.5744 56.5309 91.1338 55.8316 91.779 55.0229C92.8394 53.6966 94.1609 52.044 95.0088 48.4342L95.0459 48.2818L95.1141 48.1392C95.2515 47.8573 95.4719 47.6243 95.7454 47.4717C96.019 47.3191 96.3327 47.2541 96.6442 47.2856C96.3069 47.1672 96.0165 46.9432 95.8161 46.6466C95.6156 46.3501 95.5157 45.9967 95.5312 45.6389C95.5527 41.1754 92.9856 34.2819 91.4652 30.9142C90.42 28.6042 89.7955 26.1253 89.6212 23.5949C87.0132 9.40161 78.1638 5.46944 78.0819 5.43819L77.6921 5.2741L77.4641 4.92445C76.4719 3.41057 75.3823 2.88511 74.6104 2.77572C74.6659 2.93514 74.731 3.09105 74.8053 3.24258L75.2653 4.14505L74.5461 4.86194C72.9146 6.46762 71.4059 8.39561 71.2188 9.09688C71.7587 10.9174 70.5405 12.3454 68.4802 14.5292C68.833 15.0586 69.7004 15.7872 70.1136 15.8556C70.5697 15.7032 71.2831 15.4376 72.2012 15.086L72.9809 14.7851L73.6105 15.3399C73.8091 15.5183 73.9911 15.7145 74.1543 15.9259C74.2991 16.1191 74.4294 16.3228 74.5441 16.5354C75.0509 17.4574 75.5187 19.0142 74.8365 21.1883C74.7644 21.4169 74.6708 21.6923 74.5636 22.0049C73.8446 23.9871 73.3426 26.0417 73.0666 28.1326C73.0235 28.4971 72.8376 28.8294 72.5499 29.0566C72.2622 29.2837 71.8963 29.387 71.5326 29.3437C71.1689 29.3005 70.8373 29.1142 70.6107 28.8259C70.384 28.5376 70.281 28.1709 70.3241 27.8064C70.6225 25.5232 71.1676 23.2793 71.9498 21.1141C72.0472 20.825 72.133 20.573 72.1993 20.3621C72.4799 19.4615 72.4819 18.6646 72.1993 18.0395C71.6496 18.2465 71.2052 18.4028 70.8777 18.5102C69.0805 19.0963 67.069 17.3617 66.221 16.133C65.1197 14.5312 65.685 13.5037 65.9813 13.1345L66.0554 13.0486C67.4432 11.5835 68.679 10.2357 68.5445 9.8587C68.1391 8.75113 68.7063 7.36618 70.4469 5.2409C70.981 4.59042 71.5268 3.99073 71.9342 3.55903C71.7081 2.86363 71.5638 1.9807 71.901 1.2345C72.0264 0.954354 72.2148 0.707134 72.4516 0.512252C72.6883 0.31737 72.9669 0.180131 73.2655 0.111307C74.9242 -0.302811 77.5206 0.242184 79.5322 3.06287C81.4599 4.03957 89.7694 9.01874 92.3345 23.1827L92.354 23.2882V23.3976C92.5055 25.5971 93.0481 27.7517 93.9563 29.7598C94.3851 30.7091 98.0223 38.929 98.2562 44.9962C98.647 45.231 98.9828 45.5475 99.2406 45.9241C99.4659 46.2473 99.6161 46.6171 99.6802 47.0061C99.7442 47.3952 99.7206 47.7937 99.6109 48.1724C99.4585 48.6576 99.1723 49.0896 98.7854 49.4187C98.3984 49.7478 97.9264 49.9604 97.4239 50.032C96.4201 53.6106 94.925 55.4781 93.9153 56.7497C93.4456 57.3357 93.0713 57.8045 92.9563 58.1835C92.853 58.6035 92.8374 58.8496 93.3715 59.5216L93.3929 59.5489C93.9017 60.2228 95.4532 62.2739 94.5625 64.2585C93.9056 65.7197 92.2234 66.5362 89.399 66.7511H89.3776C87.5122 66.8643 81.725 66.9991 81.2338 67.0108C81.0623 67.0304 80.8498 67.0382 80.6257 67.0382ZM71.1701 8.92303V8.94452V8.92303Z" fill="#9797C6"/>
</g>
</g>
<g id="Group_7">
<path id="Vector_7" d="M67.7077 30.6486C67.5261 30.6489 67.3463 30.6132 67.1785 30.5437C67.0107 30.4742 66.8583 30.3722 66.7299 30.2435C66.6015 30.1149 66.4997 29.9621 66.4304 29.794C66.361 29.6258 66.3254 29.4456 66.3257 29.2637V27.7752C66.3257 27.1462 65.9144 26.6149 65.4291 26.6149H34.3061C33.8208 26.6149 33.4114 27.1462 33.4114 27.7752V29.2637C33.4184 29.4498 33.3879 29.6354 33.3216 29.8094C33.2553 29.9834 33.1547 30.1423 33.0258 30.2764C32.8969 30.4106 32.7423 30.5173 32.5713 30.5902C32.4002 30.663 32.2163 30.7006 32.0304 30.7006C31.8446 30.7006 31.6606 30.663 31.4896 30.5902C31.3186 30.5173 31.164 30.4106 31.035 30.2764C30.9061 30.1423 30.8055 29.9834 30.7392 29.8094C30.673 29.6354 30.6424 29.4498 30.6494 29.2637V27.7752C30.6494 25.6089 32.2906 23.8469 34.3061 23.8469H65.4291C67.4465 23.8469 69.0897 25.605 69.0897 27.7752V29.2637C69.0897 29.631 68.9441 29.9832 68.6849 30.243C68.4257 30.5027 68.0742 30.6486 67.7077 30.6486Z" fill="#9797C6"/>
<path id="Vector_8" d="M65.43 52.4464H34.3071C32.2916 52.4464 30.6504 50.6884 30.6504 48.5201V45.5353C30.6638 45.1773 30.8152 44.8384 31.0727 44.5898C31.3302 44.3413 31.6739 44.2024 32.0314 44.2024C32.3889 44.2024 32.7326 44.3413 32.9901 44.5898C33.2476 44.8384 33.399 45.1773 33.4124 45.5353V48.5201C33.4124 49.1472 33.8217 49.6785 34.3071 49.6785H65.43C65.9154 49.6785 66.3267 49.1472 66.3267 48.5201V45.5353C66.3267 45.168 66.4723 44.8158 66.7314 44.556C66.9906 44.2963 67.3421 44.1504 67.7086 44.1504C68.0752 44.1504 68.4267 44.2963 68.6859 44.556C68.945 44.8158 69.0906 45.168 69.0906 45.5353V48.5201C69.0906 50.6845 67.4436 52.4464 65.43 52.4464Z" fill="#9797C6"/>
</g>
</g>
<path id="Vector_9" d="M51.203 45.1115H44.3574V31.4691H50.7547C52.0113 31.4691 53.0132 31.7679 53.7604 32.3657C54.5076 32.9634 54.8805 33.8014 54.8792 34.8797C54.896 35.4818 54.7257 36.0743 54.3919 36.5752C54.0896 37.024 53.6646 37.376 53.1678 37.589C53.9346 37.76 54.6214 38.1854 55.117 38.7962C55.6628 39.433 55.935 40.245 55.9337 41.2321C55.9501 41.7673 55.8429 42.2992 55.6204 42.7861C55.3979 43.273 55.0662 43.7018 54.6512 44.0391C53.8026 44.754 52.6532 45.1115 51.203 45.1115ZM47.1584 33.8073V36.8096H50.3083C50.794 36.8367 51.2747 36.699 51.6728 36.4189C51.8367 36.29 51.9673 36.1235 52.0538 35.9335C52.1403 35.7435 52.1801 35.5356 52.1698 35.327C52.1808 35.1144 52.1415 34.9022 52.0551 34.7077C51.9687 34.5132 51.8377 34.3419 51.6728 34.2077C51.2775 33.9209 50.7956 33.7794 50.3083 33.8073H47.1584ZM47.1584 39.1283V42.6952H50.6787C51.3785 42.6952 51.9223 42.5408 52.3121 42.2361C52.5069 42.0794 52.6615 41.8783 52.7632 41.6497C52.8649 41.4211 52.9107 41.1714 52.8969 40.9215C52.9102 40.6699 52.8642 40.4187 52.7626 40.1883C52.661 39.9579 52.5067 39.7547 52.3121 39.5951C51.9223 39.2852 51.3778 39.1296 50.6787 39.1283H47.1584Z" fill="#9797C6"/>
</g>
<g id="Group_8">
<path id="Vector_10" d="M5.735 85.1383H0.21875V74.3947H5.44262C6.4536 74.3947 7.26317 74.6323 7.87132 75.1076C8.47948 75.583 8.78355 76.251 8.78355 77.1118C8.79294 77.5678 8.66747 78.0164 8.42295 78.401C8.20747 78.7487 7.89601 79.0262 7.52631 79.2C8.08833 79.3428 8.58525 79.6727 8.93559 80.1356C9.36607 80.6806 9.58922 81.3612 9.56518 82.0558C9.57623 82.4863 9.4862 82.9133 9.30235 83.3025C9.1185 83.6916 8.84599 84.0321 8.50676 84.2964C7.82324 84.8589 6.89932 85.1396 5.735 85.1383ZM2.97687 76.6313V78.5046H5.02938C5.31826 78.52 5.6033 78.4328 5.83441 78.2584C5.9329 78.177 6.01112 78.0737 6.06288 77.9568C6.11465 77.8398 6.13853 77.7123 6.13263 77.5845C6.1392 77.4529 6.11576 77.3215 6.06408 77.2004C6.01241 77.0792 5.93386 76.9714 5.83441 76.8852C5.60557 76.7057 5.31955 76.6155 5.02938 76.6313H2.97687ZM2.97687 80.5478V82.8352H5.19897C5.55354 82.8554 5.90376 82.7488 6.18721 82.5344C6.30716 82.4321 6.40194 82.3034 6.46414 82.1584C6.52635 82.0134 6.55432 81.856 6.54587 81.6984C6.55325 81.539 6.52405 81.38 6.46053 81.2337C6.397 81.0874 6.30083 80.9577 6.17941 80.8545C5.90103 80.6399 5.55567 80.5312 5.20481 80.5478H2.97687Z" fill="#9797C6"/>
<path id="Vector_11" d="M19.4013 85.1383H11.127V74.3947H19.2785V76.8208H13.8851V78.278H18.1733V80.622H13.8851V82.7258H19.4013V85.1383Z" fill="#9797C6"/>
<path id="Vector_12" d="M23.002 85.1383H20.0898L24.5945 74.3282H27.2454L31.75 85.1383H28.793L27.8886 82.8645H23.9044L23.002 85.1383ZM25.8965 77.7838L24.7777 80.6553H27.0154L25.8965 77.7838Z" fill="#9797C6"/>
<path id="Vector_13" d="M35.6878 85.1383H32.9297V74.3947H37.9703C39.1541 74.3947 40.0885 74.7065 40.7733 75.3303C41.116 75.6222 41.3889 75.9876 41.5717 76.3994C41.7546 76.8112 41.8428 77.259 41.8298 77.7095C41.8419 78.3668 41.6491 79.0114 41.2781 79.5535C40.8996 80.0947 40.365 80.5071 39.7461 80.7353L42.9954 85.1422H39.824L36.7891 81.0401H35.6878V85.1383ZM35.6878 76.7231V78.782H37.8163C38.1375 78.7997 38.4546 78.7043 38.713 78.5124C38.8216 78.4224 38.908 78.3083 38.9651 78.1791C39.0223 78.05 39.0487 77.9093 39.0424 77.7681C39.0479 77.6248 39.0212 77.4821 38.9642 77.3506C38.9071 77.219 38.8213 77.102 38.713 77.0083C38.4588 76.8069 38.1399 76.7055 37.8163 76.7231H35.6878Z" fill="#9797C6"/>
<path id="Vector_14" d="M53.4733 85.1383H47.9512V74.3947H53.175C54.1873 74.3947 54.9969 74.6323 55.6038 75.1076C56.2106 75.583 56.5186 76.2497 56.5277 77.1079C56.5371 77.5639 56.4116 78.0125 56.1671 78.3971C55.9516 78.7447 55.6401 79.0223 55.2704 79.1961C55.8324 79.3388 56.3294 79.6688 56.6797 80.1317C57.1102 80.6767 57.3333 81.3573 57.3093 82.0519C57.3203 82.4824 57.2303 82.9094 57.0465 83.2986C56.8626 83.6877 56.5901 84.0282 56.2509 84.2924C55.5635 84.8576 54.6376 85.1396 53.4733 85.1383ZM50.7151 76.6313V78.5046H52.7677C53.0565 78.52 53.3416 78.4328 53.5727 78.2584C53.6712 78.177 53.7494 78.0737 53.8012 77.9568C53.8529 77.8398 53.8768 77.7123 53.8709 77.5845C53.8775 77.4529 53.854 77.3215 53.8024 77.2004C53.7507 77.0792 53.6721 76.9714 53.5727 76.8852C53.3438 76.7057 53.0578 76.6155 52.7677 76.6313H50.7151ZM50.7151 80.5478V82.8352H52.9372C53.2912 82.8557 53.6409 82.749 53.9235 82.5344C54.0441 82.4325 54.1394 82.3039 54.202 82.1589C54.2645 82.0138 54.2927 81.8562 54.2841 81.6984C54.2915 81.539 54.2623 81.38 54.1988 81.2337C54.1353 81.0874 54.0391 80.9577 53.9177 80.8545C53.6393 80.6399 53.2939 80.5312 52.9431 80.5478H50.7151Z" fill="#9797C6"/>
<path id="Vector_15" d="M67.1377 85.1383H58.8652V74.3947H67.0168V76.8208H61.6214V78.278H65.9097V80.622H61.6214V82.7258H67.1377V85.1383Z" fill="#9797C6"/>
<path id="Vector_16" d="M70.7383 85.1383H67.832L72.3366 74.3282H74.9876L79.4922 85.1383H76.5294L75.6289 82.8645H71.6408L70.7383 85.1383ZM73.6329 77.7838L72.5101 80.6553H74.7517L73.6329 77.7838Z" fill="#9797C6"/>
<path id="Vector_17" d="M83.4261 85.1383H80.666V74.3947H85.7067C86.8892 74.3947 87.8235 74.7065 88.5096 75.3303C88.852 75.6225 89.1246 75.9879 89.3075 76.3997C89.4903 76.8114 89.5787 77.259 89.5661 77.7095C89.5783 78.3668 89.3854 79.0114 89.0145 79.5535C88.6359 80.0947 88.1013 80.5071 87.4824 80.7353L90.7317 85.1422H87.5603L84.5254 81.0401H83.4261V85.1383ZM83.4261 76.7231V78.782H85.5566C85.8777 78.7997 86.1949 78.7043 86.4532 78.5124C86.5619 78.4224 86.6482 78.3083 86.7054 78.1791C86.7625 78.05 86.789 77.9093 86.7826 77.7681C86.7882 77.6248 86.7614 77.4821 86.7044 77.3506C86.6474 77.219 86.5615 77.102 86.4532 77.0083C86.199 76.8069 85.8801 76.7055 85.5566 76.7231H83.4261Z" fill="#9797C6"/>
<path id="Vector_18" d="M95.6186 85.3629C93.9631 85.3629 92.5791 84.9787 91.4668 84.2104V81.376C92.0067 81.8392 92.6308 82.1934 93.3049 82.4192C94.0086 82.6947 94.756 82.8409 95.5114 82.8509C96.6029 82.8509 97.1494 82.5689 97.1507 82.005C97.1507 81.7804 97.0123 81.5714 96.7374 81.376C96.518 81.259 96.2867 81.166 96.0474 81.0987L95.0826 80.8076L94.3029 80.5771L93.5973 80.3017C93.3519 80.2131 93.1162 80.0999 92.8936 79.9637C92.342 79.5535 91.995 79.2273 91.8508 78.9871C91.594 78.4994 91.4601 77.9562 91.4609 77.4048C91.4609 76.3812 91.8358 75.5882 92.5856 75.0256C93.3354 74.463 94.3646 74.1817 95.6732 74.1817C96.9387 74.1711 98.187 74.4772 99.3045 75.0725V77.7271C98.7726 77.4081 98.2012 77.1605 97.6048 76.9907C96.9899 76.7953 96.3495 76.692 95.7044 76.684C94.7648 76.684 94.2951 76.9191 94.2951 77.3892C94.2951 77.5949 94.4432 77.759 94.7395 77.8814L95.2288 78.0494C95.3418 78.0904 95.5816 78.1627 95.95 78.2643L96.7004 78.4792C97.5824 78.7427 98.4047 79.1759 99.1213 79.7547C99.7022 80.2574 99.9933 80.9736 99.9946 81.9035C100.008 82.3911 99.9029 82.8746 99.6894 83.313C99.476 83.7513 99.16 84.1316 98.7685 84.4214C97.9654 85.0491 96.9155 85.3629 95.6186 85.3629Z" fill="#9797C6"/>
</g>
<g id="Group_9">
<path id="Vector_19" d="M20.3328 95.292H19.7656V89.9182H20.3328V95.292Z" fill="#9797C6"/>
<path id="Vector_20" d="M23.2422 95.3838C23.098 95.3944 22.9532 95.3728 22.8184 95.3204C22.6835 95.2681 22.562 95.1863 22.4626 95.081C22.2753 94.8427 22.1817 94.5439 22.1994 94.241V92.0669H21.3262V91.5844H22.1994V90.4417H22.751V91.5864H24.0453V92.0689H22.751V94.0731C22.7297 94.2885 22.7805 94.505 22.8953 94.6884C22.9609 94.752 23.0395 94.8006 23.1256 94.831C23.2117 94.8613 23.3034 94.8726 23.3943 94.8642C23.6059 94.8679 23.8145 94.8146 23.9985 94.7099V95.2177C23.7682 95.3463 23.5051 95.404 23.2422 95.3838Z" fill="#9797C6"/>
<path id="Vector_21" d="M27.1124 90.8695H26.5841L25.6797 89.842H26.3775L27.1124 90.8695Z" fill="#9797C6"/>
<path id="Vector_22" d="M30.3368 95.3838C30.0434 95.3841 29.7513 95.3467 29.4674 95.2724C29.2332 95.2187 29.0094 95.127 28.8047 95.0009V94.4325C29.2535 94.7338 29.7829 94.8918 30.3231 94.8857C30.5815 94.8987 30.8387 94.8442 31.0697 94.7274C31.1509 94.6879 31.2193 94.6263 31.2672 94.5496C31.3151 94.4729 31.3406 94.3843 31.3406 94.2938C31.3377 94.211 31.312 94.1306 31.2662 94.0617C31.2204 93.9927 31.1564 93.9378 31.0814 93.9031C30.9601 93.8353 30.8283 93.7884 30.6915 93.7644C30.6092 93.738 30.5252 93.7171 30.4401 93.7019C30.3017 93.6668 30.2179 93.6472 30.1867 93.6414C29.8298 93.5711 29.4909 93.4289 29.1906 93.2233C29.0898 93.1374 29.0104 93.0291 28.9586 92.907C28.9069 92.785 28.8842 92.6525 28.8924 92.5201C28.8871 92.3712 28.9202 92.2233 28.9885 92.0909C29.0567 91.9585 29.1579 91.846 29.2822 91.7641C29.6115 91.5646 29.9935 91.4699 30.3777 91.4926C30.8496 91.4706 31.3179 91.5852 31.7266 91.8228V92.3677C31.328 92.1218 30.8692 91.9913 30.4011 91.9907C30.1558 91.976 29.911 92.0265 29.6916 92.1372C29.6201 92.1746 29.5601 92.2307 29.5179 92.2995C29.4757 92.3682 29.4529 92.4472 29.4518 92.5279C29.4514 92.6175 29.4782 92.7052 29.5287 92.7791C29.5792 92.8531 29.651 92.9099 29.7345 92.942C29.7695 92.9538 29.8144 92.9694 29.869 92.9928C29.9217 93.0166 29.9765 93.0356 30.0327 93.0495L30.2023 93.0964C30.3214 93.1364 30.4441 93.1645 30.5687 93.1804C30.9305 93.2523 31.2752 93.3928 31.5843 93.5945C31.6913 93.6756 31.777 93.7817 31.8337 93.9036C31.8904 94.0255 31.9166 94.1595 31.9098 94.2938C31.9133 94.4535 31.8739 94.6112 31.7957 94.7504C31.7175 94.8895 31.6034 95.0051 31.4654 95.0849C31.1266 95.2935 30.7341 95.3974 30.3368 95.3838Z" fill="#9797C6"/>
<path id="Vector_23" d="M37.6667 95.2919H35.1094V89.9182H37.4231C37.8283 89.8957 38.2281 90.0198 38.5497 90.2678C38.6874 90.3844 38.7963 90.5312 38.868 90.6969C38.9397 90.8626 38.9722 91.0427 38.9629 91.223C38.9673 91.4751 38.8997 91.7232 38.768 91.938C38.6481 92.1328 38.4661 92.2815 38.2515 92.3599C38.5836 92.4019 38.8874 92.5688 39.1013 92.8268C39.3185 93.1046 39.4297 93.4509 39.4152 93.8035C39.4229 94.0093 39.3842 94.2143 39.3018 94.403C39.2195 94.5918 39.0956 94.7594 38.9396 94.8935C38.5768 95.1752 38.125 95.3167 37.6667 95.2919ZM35.6688 90.4417V92.1997H37.3315C37.6134 92.2177 37.8931 92.1392 38.1248 91.977C38.2182 91.8989 38.2921 91.7998 38.3405 91.6879C38.3889 91.576 38.4105 91.4542 38.4035 91.3324C38.4113 91.2083 38.3902 91.084 38.3418 90.9694C38.2934 90.8548 38.2191 90.7531 38.1248 90.6722C37.8949 90.5057 37.6145 90.4243 37.3315 90.4417H35.6688ZM35.6688 92.6998V94.7782H37.5615C37.8938 94.7995 38.2229 94.7011 38.4893 94.5008C38.6004 94.4047 38.688 94.2842 38.7451 94.1487C38.8022 94.0132 38.8274 93.8663 38.8187 93.7195C38.8259 93.5754 38.7999 93.4316 38.7428 93.2991C38.6856 93.1667 38.5989 93.0492 38.4893 92.9557C38.2213 92.7592 37.8929 92.6631 37.5615 92.6842L35.6688 92.6998Z" fill="#9797C6"/>
<path id="Vector_24" d="M42.3329 95.3838C41.7952 95.3989 41.2729 95.2034 40.8768 94.8388C40.6846 94.662 40.5328 94.4457 40.4319 94.2046C40.331 93.9635 40.2832 93.7034 40.292 93.4421C40.2765 92.9286 40.4635 92.4296 40.8125 92.0532C40.9867 91.8675 41.1987 91.7213 41.434 91.6246C41.6694 91.5279 41.9227 91.4829 42.1769 91.4926C42.4474 91.4893 42.7148 91.5509 42.9566 91.6723C43.1743 91.7821 43.3612 91.9446 43.5004 92.1451C43.6307 92.3344 43.7313 92.5425 43.7987 92.7623C43.8643 92.9749 43.8978 93.1961 43.8981 93.4187V93.5671H40.8573C40.8661 93.7511 40.9133 93.9312 40.9959 94.0957C41.0785 94.2602 41.1947 94.4056 41.3368 94.5223C41.6492 94.7688 42.0389 94.8955 42.4362 94.8798C42.8569 94.8821 43.2693 94.762 43.6232 94.534V95.0243C43.3244 95.264 42.8942 95.3838 42.3329 95.3838ZM40.869 93.1198H43.3425C43.328 92.8301 43.2144 92.5542 43.0209 92.3384C42.9129 92.2155 42.7777 92.1195 42.6261 92.0581C42.4745 91.9967 42.3107 91.9717 42.1477 91.9849C41.9822 91.9789 41.8171 92.0057 41.6619 92.0637C41.5067 92.1217 41.3645 92.2097 41.2433 92.3228C41.0234 92.5322 40.8899 92.8166 40.869 93.1198Z" fill="#9797C6"/>
<path id="Vector_25" d="M46.0332 95.3838C45.6717 95.3944 45.3174 95.2807 45.0294 95.0615C44.8965 94.9521 44.7908 94.8133 44.7204 94.656C44.6501 94.4988 44.6171 94.3273 44.6239 94.1551C44.6185 93.9822 44.6547 93.8105 44.7293 93.6544C44.8039 93.4984 44.9149 93.3626 45.0528 93.2585C45.3677 93.0285 45.7511 92.9122 46.1404 92.9284C46.6091 92.9251 47.0699 93.0493 47.4737 93.2878V92.9206C47.4737 92.3013 47.0663 91.9908 46.2554 91.9908C45.823 91.9897 45.4006 92.1213 45.045 92.3678V91.8306C45.4459 91.5943 45.9056 91.4771 46.3704 91.4926C46.8012 91.4703 47.2268 91.5957 47.577 91.8482C47.7261 91.9706 47.8442 92.1266 47.9218 92.3034C47.9994 92.4803 48.0342 92.673 48.0233 92.8659V94.3934C48.0166 94.5139 48.051 94.6331 48.1208 94.7314C48.1502 94.7711 48.1888 94.8031 48.2333 94.8245C48.2778 94.846 48.3268 94.8562 48.3762 94.8544C48.4503 94.8562 48.5239 94.8401 48.5906 94.8075V95.2373C48.4797 95.3019 48.3521 95.3318 48.2241 95.3232C48.0567 95.3286 47.8927 95.2754 47.7602 95.1728C47.6287 95.0612 47.5449 94.9031 47.5263 94.7314C47.3428 94.9461 47.1131 95.1163 46.8545 95.2293C46.5959 95.3423 46.3151 95.3951 46.0332 95.3838ZM46.1852 94.8857C46.4391 94.8868 46.6893 94.8257 46.9143 94.7079C47.1304 94.6013 47.3212 94.4494 47.4737 94.2625V93.7488C47.1179 93.5096 46.6994 93.3812 46.271 93.3796C45.9906 93.3637 45.7117 93.4317 45.4699 93.575C45.3777 93.6322 45.302 93.7126 45.2503 93.8082C45.1987 93.9038 45.1729 94.0113 45.1756 94.1199C45.1712 94.2298 45.1949 94.3389 45.2444 94.437C45.2938 94.5351 45.3674 94.6189 45.4582 94.6806C45.676 94.8252 45.934 94.897 46.195 94.8857H46.1852Z" fill="#9797C6"/>
<path id="Vector_26" d="M50.038 95.292H49.4863V91.5805H50.038V92.2857C50.1823 92.0354 50.3955 91.832 50.652 91.6997C50.9147 91.5552 51.2098 91.4799 51.5096 91.4809V92.0415C51.3536 92.0389 51.1982 92.062 51.0496 92.1099C50.821 92.1676 50.6084 92.2764 50.4278 92.4283C50.2601 92.5656 50.1266 92.7401 50.038 92.9381V95.292Z" fill="#9797C6"/>
<path id="Vector_27" d="M52.8054 96.8586C52.6047 96.8697 52.4043 96.8328 52.2206 96.7511V96.2354C52.3765 96.3168 52.5497 96.359 52.7255 96.3585C52.8375 96.3585 52.9482 96.3335 53.0494 96.2851C53.1505 96.2368 53.2397 96.1664 53.3102 96.0792C53.5273 95.7986 53.7001 95.4863 53.8229 95.1533L52.1758 91.5844H52.7898L54.0996 94.5008L55.3569 91.5844H55.9553L54.1308 95.7158C53.7982 96.4777 53.3563 96.8586 52.8054 96.8586Z" fill="#9797C6"/>
<path id="Vector_28" d="M61.4894 95.3837C61.1191 95.3925 60.7508 95.3268 60.4063 95.1906C60.0617 95.0544 59.7478 94.8504 59.4832 94.5906C59.2186 94.3309 59.0086 94.0207 58.8656 93.6783C58.7225 93.3359 58.6494 92.9682 58.6504 92.597C58.6514 92.2258 58.7267 91.8586 58.8716 91.517C59.0166 91.1754 59.2283 90.8664 59.4944 90.6082C59.7605 90.3499 60.0755 90.1477 60.4208 90.0134C60.7661 89.8791 61.1348 89.8156 61.505 89.8264C62.1132 89.8048 62.7115 89.9854 63.2067 90.3401V90.9164C62.7274 90.5488 62.1397 90.3515 61.5362 90.3557C61.2436 90.3483 60.9526 90.4009 60.681 90.5104C60.4095 90.62 60.1632 90.784 59.9573 90.9925C59.748 91.2053 59.5844 91.4587 59.4764 91.7372C59.3685 92.0157 59.3186 92.3133 59.3297 92.6119C59.32 92.9087 59.3699 93.2045 59.4764 93.4816C59.5828 93.7588 59.7437 94.0117 59.9495 94.2254C60.1497 94.4302 60.3896 94.5917 60.6544 94.6998C60.9193 94.808 61.2035 94.8606 61.4894 94.8544C61.7681 94.8693 62.047 94.8273 62.309 94.7309C62.571 94.6345 62.8108 94.4858 63.0137 94.2938V92.1997H63.5731V94.5106C63.3243 94.7868 63.0165 95.0032 62.6726 95.1435C62.2987 95.3038 61.896 95.3855 61.4894 95.3837Z" fill="#9797C6"/>
<path id="Vector_29" d="M65.1373 92.0669C65.5267 91.6982 66.0421 91.4928 66.5778 91.4928C67.1135 91.4928 67.6289 91.6982 68.0183 92.0669C68.3758 92.4346 68.5759 92.9277 68.5759 93.4411C68.5759 93.9545 68.3758 94.4477 68.0183 94.8153C67.6271 95.1806 67.1124 95.3837 66.5778 95.3837C66.0432 95.3837 65.5284 95.1806 65.1373 94.8153C64.7789 94.4481 64.5781 93.9548 64.5781 93.4411C64.5781 92.9274 64.7789 92.4341 65.1373 92.0669ZM68.0105 93.4343C68.0149 93.2429 67.9811 93.0526 67.9112 92.8745C67.8412 92.6964 67.7365 92.5341 67.6031 92.3971C67.3272 92.1314 66.9594 91.9831 66.5768 91.9831C66.1942 91.9831 65.8265 92.1314 65.5506 92.3971C65.2898 92.6773 65.1448 93.0462 65.1448 93.4294C65.1448 93.8126 65.2898 94.1815 65.5506 94.4618C65.8258 94.7287 66.1938 94.878 66.5768 94.878C66.9598 94.878 67.3279 94.7287 67.6031 94.4618C67.735 94.3273 67.8389 94.1679 67.9088 93.9929C67.9787 93.8179 68.0133 93.6306 68.0105 93.4421V93.4343Z" fill="#9797C6"/>
<path id="Vector_30" d="M69.8932 92.0669C70.2826 91.6982 70.798 91.4928 71.3336 91.4928C71.8693 91.4928 72.3847 91.6982 72.7741 92.0669C73.1326 92.4341 73.3333 92.9274 73.3333 93.4411C73.3333 93.9548 73.1326 94.4481 72.7741 94.8153C72.383 95.1806 71.8683 95.3837 71.3336 95.3837C70.799 95.3837 70.2843 95.1806 69.8932 94.8153C69.5347 94.4481 69.334 93.9548 69.334 93.4411C69.334 92.9274 69.5347 92.4341 69.8932 92.0669ZM72.7663 93.4343C72.7711 93.2431 72.7377 93.0528 72.6681 92.8747C72.5984 92.6965 72.494 92.5342 72.3609 92.3971C72.085 92.1314 71.7172 91.9831 71.3346 91.9831C70.952 91.9831 70.5843 92.1314 70.3084 92.3971C70.0468 92.6769 69.9012 93.046 69.9012 93.4294C69.9012 93.8129 70.0468 94.182 70.3084 94.4618C70.5836 94.7287 70.9516 94.878 71.3346 94.878C71.7177 94.878 72.0857 94.7287 72.3609 94.4618C72.4925 94.3272 72.5961 94.1678 72.6657 93.9927C72.7353 93.8177 72.7695 93.6305 72.7663 93.4421V93.4343Z" fill="#9797C6"/>
<path id="Vector_31" d="M77.3818 92.1744V89.9182H77.9334V95.292H77.3818V94.706C77.2165 94.9281 76.9996 95.1065 76.7499 95.2256C76.5003 95.3448 76.2254 95.4011 75.9491 95.3896C75.6978 95.3978 75.4478 95.3512 75.2163 95.2531C74.9847 95.1549 74.7772 95.0076 74.608 94.8212C74.2729 94.4407 74.0879 93.9506 74.0879 93.4431C74.0879 92.9355 74.2729 92.4455 74.608 92.065C74.7775 91.8792 74.9852 91.7323 75.2167 91.6345C75.4482 91.5368 75.698 91.4903 75.9491 91.4985C76.2247 91.4865 76.499 91.5418 76.7486 91.6595C76.9981 91.7772 77.2154 91.9539 77.3818 92.1744ZM77.3818 94.0477V92.8268C77.2712 92.5787 77.0893 92.3692 76.8594 92.2252C76.6283 92.0714 76.357 91.9899 76.0797 91.9907C75.8896 91.9845 75.7004 92.0189 75.5246 92.0916C75.3488 92.1644 75.1905 92.2738 75.0603 92.4127C74.7996 92.6914 74.6546 93.0591 74.6546 93.4411C74.6546 93.8231 74.7996 94.1908 75.0603 94.4696C75.192 94.6061 75.3507 94.7136 75.5263 94.7852C75.7018 94.8569 75.8903 94.8911 76.0797 94.8857C76.3532 94.8818 76.6201 94.8013 76.8503 94.6532C77.0804 94.5051 77.2645 94.2953 77.3818 94.0477Z" fill="#9797C6"/>
<path id="Vector_32" d="M79.6829 95.3388C79.6301 95.3402 79.5775 95.3307 79.5284 95.3111C79.4793 95.2914 79.4348 95.262 79.3974 95.2245C79.36 95.1871 79.3306 95.1424 79.311 95.0932C79.2914 95.044 79.282 94.9913 79.2833 94.9384C79.2833 94.8863 79.2937 94.8347 79.3139 94.7866C79.3341 94.7386 79.3637 94.695 79.4009 94.6586C79.4382 94.6222 79.4823 94.5937 79.5307 94.5746C79.5792 94.5556 79.6309 94.5464 79.6829 94.5477C79.7353 94.5469 79.7874 94.5567 79.836 94.5765C79.8845 94.5963 79.9286 94.6257 79.9656 94.663C80.0027 94.7 80.0321 94.7442 80.0519 94.7928C80.0716 94.8415 80.0814 94.8937 80.0806 94.9462C80.0816 94.9991 80.072 95.0516 80.0522 95.1006C80.0325 95.1497 80.003 95.1941 79.9656 95.2314C79.9279 95.2673 79.8836 95.2952 79.835 95.3137C79.7865 95.3321 79.7348 95.3407 79.6829 95.3388ZM79.9422 93.6414H79.4295L79.3301 89.9182H80.0416L79.9422 93.6414Z" fill="#9797C6"/>
</g>
</g>
</g>
</g>
</g>
<defs>
<clipPath id="clip0_24_80">
<rect width="100" height="96.8586" fill="white"/>
</clipPath>
</defs>
</svg>
