<svg width="93" height="100" viewBox="0 0 93 100" fill="none" xmlns="http://www.w3.org/2000/svg">
<g id="Plumbers" clip-path="url(#clip0_24_6)">
<g id="&#208;&#161;&#208;&#187;&#208;&#190;&#208;&#185; 2">
<g id="&#208;&#161;&#208;&#187;&#208;&#190;&#208;&#185; 1">
<g id="Group">
<path id="Vector" d="M3.52319 17.6068H6.99317V21.0608C6.99417 21.9911 7.36589 22.883 8.02675 23.5408C8.68762 24.1987 9.58365 24.5687 10.5183 24.5697H14.1631C15.0977 24.5687 15.9937 24.1987 16.6546 23.5408C17.3154 22.883 17.6871 21.9911 17.6882 21.0608V17.6068H21.1581C22.0926 17.6053 22.9883 17.2351 23.6491 16.5774C24.3098 15.9197 24.6817 15.0281 24.6832 14.0979V10.4699C24.6817 9.53972 24.3098 8.64809 23.6491 7.99038C22.9883 7.33266 22.0926 6.9625 21.1581 6.961H17.6882V3.50887C17.6871 2.57857 17.3154 1.68665 16.6546 1.02883C15.9937 0.371007 15.0977 0.0010014 14.1631 0L10.5183 0C9.58365 0.0010014 8.68762 0.371007 8.02675 1.02883C7.36589 1.68665 6.99417 2.57857 6.99317 3.50887V6.961H3.52319C2.58891 6.9625 1.69337 7.33272 1.03291 7.99049C0.372459 8.64826 0.001005 9.53989 0 10.4699V14.0979C0.001005 15.0279 0.372459 15.9195 1.03291 16.5773C1.69337 17.2351 2.58891 17.6053 3.52319 17.6068ZM2.69275 10.4699C2.69375 10.2513 2.78169 10.042 2.93732 9.8878C3.09295 9.7336 3.3036 9.64703 3.52319 9.64703H9.69162V3.50887C9.69162 3.28946 9.77905 3.07902 9.93473 2.92369C10.0904 2.76837 10.3016 2.68086 10.5221 2.68036H14.1631C14.3835 2.68086 14.5947 2.76837 14.7504 2.92369C14.9061 3.07902 14.9935 3.28946 14.9935 3.50887V9.64703H21.1581C21.2672 9.64703 21.3752 9.66841 21.4759 9.70996C21.5767 9.7515 21.6682 9.81238 21.7453 9.88914C21.8225 9.9659 21.8836 10.057 21.9254 10.1573C21.9671 10.2576 21.9886 10.3651 21.9886 10.4737V14.0979C21.9886 14.3173 21.9011 14.5278 21.7455 14.6831C21.5898 14.8384 21.3785 14.9259 21.1581 14.9264H14.9935V21.0608C14.9935 21.1693 14.972 21.2768 14.9303 21.3771C14.8886 21.4774 14.8274 21.5685 14.7503 21.6453C14.6732 21.7221 14.5816 21.7829 14.4809 21.8245C14.3801 21.866 14.2721 21.8874 14.1631 21.8874H10.5183C10.2987 21.8864 10.0884 21.7989 9.9335 21.644C9.77858 21.4891 9.69161 21.2794 9.69162 21.0608V14.9264H3.52319C3.30277 14.9259 3.09155 14.8384 2.93586 14.6831C2.78018 14.5278 2.69275 14.3173 2.69275 14.0979V10.4699Z" fill="#9797C6"/>
<path id="Vector_2" d="M92.2155 42.0298L80.766 37.2479V41.4094C80.7044 41.3906 80.6404 41.3804 80.576 41.3791H72.891V32.6552C72.8905 31.8963 72.5875 31.1686 72.0484 30.632C71.5093 30.0954 70.7782 29.7937 70.0158 29.7932H64.4061C63.6438 29.7942 62.9131 30.096 62.3741 30.6326C61.8351 31.1691 61.5319 31.8964 61.5309 32.6552V32.693H55.3833C49.3692 32.7 43.6035 35.0812 39.3509 39.3142C35.0983 43.5472 32.7061 49.2864 32.699 55.2727V66.1077H32.6591C31.8969 66.1087 31.1661 66.4105 30.6271 66.947C30.0882 67.4835 29.7849 68.2109 29.7839 68.9696V74.4836C29.7849 75.2423 30.0882 75.9697 30.6271 76.5062C31.1661 77.0427 31.8969 77.3445 32.6591 77.3455H32.6914V77.4193C32.6904 78.4404 32.2825 79.4194 31.5571 80.1414C30.8317 80.8635 29.8482 81.2695 28.8223 81.2705H25.5918C24.5659 81.2695 23.5824 80.8635 22.857 80.1414C22.1317 79.4194 21.7237 78.4404 21.7227 77.4193H21.7531C22.5153 77.4183 23.2461 77.1164 23.7851 76.5799C24.3241 76.0434 24.6273 75.3161 24.6283 74.5573V69.0415C24.6273 68.2828 24.3241 67.5554 23.7851 67.0189C23.2461 66.4824 22.5153 66.1805 21.7531 66.1795H21.7227V40.3728H21.7531C22.5153 40.3718 23.2461 40.0699 23.7851 39.5334C24.3241 38.9969 24.6273 38.2696 24.6283 37.5108V31.9269C24.6278 31.168 24.3247 30.4404 23.7856 29.9037C23.2465 29.3671 22.5155 29.0654 21.7531 29.0649H2.8752C2.11281 29.0654 1.38178 29.3671 0.842683 29.9037C0.303587 30.4404 0.000503399 31.168 0 31.9269V37.5108C0.0010056 38.2696 0.304251 38.9969 0.843238 39.5334C1.38223 40.0699 2.11296 40.3718 2.8752 40.3728H2.90561V66.1795H2.8752C2.11296 66.1805 1.38223 66.4824 0.843238 67.0189C0.304251 67.5554 0.0010056 68.2828 0 69.0415V74.5554C0.0010056 75.3142 0.304251 76.0415 0.843238 76.578C1.38223 77.1145 2.11296 77.4164 2.8752 77.4174H2.90561C2.91215 83.4044 5.30439 89.1444 9.55746 93.3778C13.8105 97.6113 19.577 99.9925 25.5918 99.999H28.8223C34.8377 99.994 40.6054 97.6137 44.8597 93.3805C49.1139 89.1473 51.5072 83.407 51.5142 77.4193V77.3455H51.5427C52.3051 77.345 53.0361 77.0433 53.5752 76.5067C54.1143 75.9701 54.4174 75.2424 54.4179 74.4836V68.9696C54.4174 68.2107 54.1143 67.4831 53.5752 66.9465C53.0361 66.4099 52.3051 66.1082 51.5427 66.1077H51.5142V55.2727C51.5157 54.2518 51.9238 53.2731 52.6491 52.5511C53.3744 51.8292 54.3576 51.423 55.3833 51.4215H61.5309V51.4498C61.5304 51.572 61.5387 51.694 61.5556 51.8149C61.6451 52.5047 61.9837 53.1384 62.5083 53.5979C63.0328 54.0573 63.7074 54.3111 64.4061 54.3118H70.0158C70.7782 54.3113 71.5093 54.0096 72.0484 53.473C72.5875 52.9364 72.8905 52.2087 72.891 51.4498V42.7278H80.5665C80.6309 42.7265 80.6949 42.7163 80.7565 42.6975V46.8117L92.2155 42.0298ZM35.3956 55.2708C35.4016 49.9957 37.5093 44.9383 41.2563 41.2078C45.0033 37.4774 50.0837 35.3785 55.3833 35.3715H61.5309V41.3867H55.3833C51.6847 41.3907 48.1387 42.8549 45.5233 45.4582C42.908 48.0615 41.437 51.5911 41.4329 55.2727V66.1077H35.3918L35.3956 55.2708ZM25.5918 83.9509H28.8223C30.562 83.9489 32.2299 83.2601 33.46 82.0356C34.6902 80.8111 35.3822 79.151 35.3842 77.4193V77.3455H41.4253V77.4193C41.4218 80.7453 40.0929 83.9342 37.7301 86.286C35.3674 88.6379 32.1638 89.9607 28.8223 89.9642H25.5918C22.2502 89.9607 19.0464 88.638 16.6833 86.2861C14.3203 83.9343 12.9909 80.7455 12.9869 77.4193H19.028C19.03 79.1513 19.7223 80.8118 20.9528 82.0363C22.1834 83.2608 23.8518 83.9494 25.5918 83.9509ZM19.028 66.1795H12.9869V40.3728H19.028V66.1795ZM2.69467 37.5108V31.9269C2.69461 31.8783 2.71332 31.8316 2.74693 31.7964C2.78054 31.7612 2.82647 31.7402 2.8752 31.7377H21.7531C21.8035 31.7377 21.8518 31.7577 21.8875 31.7931C21.9231 31.8286 21.9431 31.8767 21.9431 31.9269V37.5108C21.9407 37.5593 21.9196 37.6051 21.8842 37.6385C21.8489 37.672 21.8019 37.6906 21.7531 37.6905H2.8752C2.82807 37.6882 2.78347 37.6686 2.7501 37.6353C2.71673 37.6021 2.69697 37.5577 2.69467 37.5108ZM5.60028 40.3728H11.6414V66.1795H5.60028V40.3728ZM2.8752 74.7351C2.82647 74.7327 2.78054 74.7117 2.74693 74.6765C2.71332 74.6413 2.69461 74.5946 2.69467 74.546V69.0415C2.69697 68.9946 2.71673 68.9502 2.7501 68.917C2.78347 68.8838 2.82807 68.8641 2.8752 68.8618H21.7531C21.8019 68.8617 21.8489 68.8804 21.8842 68.9138C21.9196 68.9473 21.9407 68.993 21.9431 69.0415V74.5554C21.9431 74.6056 21.9231 74.6537 21.8875 74.6892C21.8518 74.7247 21.8035 74.7446 21.7531 74.7446H2.8752V74.7351ZM48.8214 77.4193C48.8154 82.6951 46.7072 87.7531 42.9594 91.4836C39.2116 95.2142 34.1302 97.3127 28.8299 97.3187H25.5994C20.2992 97.3127 15.2177 95.2142 11.4699 91.4836C7.7221 87.7531 5.61392 82.6951 5.60788 77.4193H11.6414C11.6455 81.1009 13.1165 84.6305 15.7318 87.2338C18.3472 89.8371 21.8932 91.3013 25.5918 91.3053H28.8223C32.521 91.3013 36.067 89.8371 38.6823 87.2338C41.2976 84.6305 42.7687 81.1009 42.7727 77.4193V77.3455H48.8138L48.8214 77.4193ZM51.5427 68.7899C51.5915 68.7899 51.6385 68.8085 51.6738 68.8419C51.7092 68.8754 51.7303 68.9211 51.7327 68.9696V74.4836C51.7327 74.5337 51.7127 74.5818 51.6771 74.6173C51.6415 74.6528 51.5931 74.6727 51.5427 74.6727H32.6591C32.6104 74.6703 32.5644 74.6493 32.5308 74.6141C32.4972 74.5789 32.4785 74.5321 32.4786 74.4836V68.9696C32.4809 68.9227 32.5006 68.8783 32.534 68.8451C32.5674 68.8119 32.612 68.7922 32.6591 68.7899H51.5351H51.5427ZM55.3833 48.7392C53.6436 48.7412 51.9757 49.43 50.7456 50.6545C49.5154 51.879 48.8234 53.5392 48.8214 55.2708V66.1058H42.7803V55.2727C42.7838 51.9467 44.1127 48.7579 46.4755 46.406C48.8383 44.0541 52.0418 42.7313 55.3833 42.7278H61.5309V48.7411L55.3833 48.7392ZM70.2059 51.4423C70.2059 51.4924 70.1859 51.5406 70.1502 51.576C70.1146 51.6115 70.0662 51.6314 70.0158 51.6314H64.4061C64.3573 51.629 64.3114 51.608 64.2778 51.5728C64.2442 51.5376 64.2255 51.4909 64.2255 51.4423V32.6552C64.2278 32.6082 64.2476 32.5638 64.281 32.5306C64.3143 32.4974 64.3589 32.4777 64.4061 32.4755H70.0158C70.0646 32.4754 70.1116 32.494 70.147 32.5275C70.1823 32.5609 70.2034 32.6066 70.2059 32.6552V51.4498V51.4423ZM83.4664 41.2788L85.2603 42.0355L83.4664 42.7921V41.2788Z" fill="#9797C6"/>
<path id="Vector_3" d="M12.1962 36.1285C12.2847 36.1285 12.3723 36.1111 12.4541 36.0774C12.5358 36.0436 12.6101 35.9941 12.6726 35.9317C12.7351 35.8693 12.7846 35.7953 12.8183 35.7138C12.852 35.6324 12.8692 35.5451 12.869 35.457V33.9948C12.869 33.8172 12.7981 33.6469 12.6719 33.5213C12.5457 33.3957 12.3746 33.3252 12.1962 33.3252C12.0178 33.3252 11.8467 33.3957 11.7205 33.5213C11.5943 33.6469 11.5234 33.8172 11.5234 33.9948V35.457C11.5232 35.5451 11.5404 35.6324 11.5741 35.7138C11.6078 35.7953 11.6573 35.8693 11.7198 35.9317C11.7823 35.9941 11.8566 36.0436 11.9383 36.0774C12.0201 36.1111 12.1077 36.1285 12.1962 36.1285Z" fill="#9797C6"/>
<path id="Vector_4" d="M6.92081 36.1298C7.01021 36.1301 7.09876 36.1126 7.18133 36.0785C7.2639 36.0444 7.33883 35.9943 7.40178 35.9311C7.46472 35.868 7.51442 35.793 7.54799 35.7105C7.58156 35.628 7.59833 35.5397 7.59732 35.4507V33.9885C7.58816 33.8169 7.51319 33.6552 7.38786 33.5369C7.26253 33.4186 7.09638 33.3527 6.92366 33.3527C6.75094 33.3527 6.5848 33.4186 6.45947 33.5369C6.33413 33.6552 6.25916 33.8169 6.25 33.9885V35.4507C6.25008 35.6246 6.31826 35.7915 6.44003 35.9161C6.50175 35.9819 6.57609 36.0347 6.65867 36.0714C6.74125 36.1081 6.83039 36.128 6.92081 36.1298Z" fill="#9797C6"/>
<path id="Vector_5" d="M17.8584 36.1298C17.9497 36.1287 18.04 36.1092 18.1236 36.0725C18.2072 36.0358 18.2825 35.9825 18.3448 35.9161C18.4666 35.7915 18.5348 35.6245 18.5349 35.4507V33.9885C18.5257 33.8169 18.4507 33.6552 18.3254 33.5369C18.2001 33.4186 18.0339 33.3527 17.8612 33.3527C17.6885 33.3527 17.5223 33.4186 17.397 33.5369C17.2717 33.6552 17.1967 33.8169 17.1875 33.9885V35.4507C17.1865 35.5392 17.2031 35.6271 17.2363 35.7092C17.2696 35.7913 17.3187 35.866 17.3811 35.9291C17.4434 35.9922 17.5177 36.0424 17.5996 36.0769C17.6815 36.1113 17.7694 36.1293 17.8584 36.1298Z" fill="#9797C6"/>
<path id="Vector_6" d="M12.1962 73.1292C12.2846 73.1294 12.3722 73.1123 12.4539 73.0787C12.5357 73.0451 12.6099 72.9958 12.6725 72.9336C12.735 72.8714 12.7845 72.7974 12.8183 72.7161C12.852 72.6347 12.8692 72.5475 12.869 72.4595V70.9974C12.869 70.8198 12.7981 70.6495 12.6719 70.5239C12.5457 70.3983 12.3746 70.3278 12.1962 70.3278C12.0178 70.3278 11.8467 70.3983 11.7205 70.5239C11.5943 70.6495 11.5234 70.8198 11.5234 70.9974V72.4595C11.5232 72.5475 11.5404 72.6347 11.5741 72.7161C11.6079 72.7974 11.6574 72.8714 11.7199 72.9336C11.7824 72.9958 11.8567 73.0451 11.9384 73.0787C12.0202 73.1123 12.1078 73.1294 12.1962 73.1292Z" fill="#9797C6"/>
<path id="Vector_7" d="M6.92081 73.126C7.00947 73.1264 7.09736 73.1095 7.17941 73.0761C7.26147 73.0426 7.33608 72.9934 7.39895 72.9312C7.46182 72.8689 7.51171 72.795 7.54575 72.7135C7.5798 72.632 7.59732 72.5446 7.59732 72.4563V70.9942C7.58816 70.8225 7.51319 70.6608 7.38786 70.5425C7.26253 70.4242 7.09638 70.3583 6.92366 70.3583C6.75094 70.3583 6.5848 70.4242 6.45947 70.5425C6.33413 70.6608 6.25916 70.8225 6.25 70.9942V72.4563C6.25 72.6336 6.32061 72.8036 6.44636 72.9292C6.57211 73.0547 6.74273 73.1254 6.92081 73.126Z" fill="#9797C6"/>
<path id="Vector_8" d="M17.8583 73.126C17.947 73.1264 18.0349 73.1095 18.1169 73.0761C18.199 73.0426 18.2736 72.9934 18.3365 72.9312C18.3993 72.8689 18.4492 72.795 18.4833 72.7135C18.5173 72.632 18.5348 72.5446 18.5348 72.4563V70.9942C18.5257 70.8225 18.4507 70.6608 18.3254 70.5425C18.2 70.4242 18.0339 70.3583 17.8612 70.3583C17.6884 70.3583 17.5223 70.4242 17.397 70.5425C17.2716 70.6608 17.1967 70.8225 17.1875 70.9942V72.4563C17.1875 72.6336 17.2581 72.8036 17.3839 72.9292C17.5096 73.0547 17.6802 73.1254 17.8583 73.126Z" fill="#9797C6"/>
<path id="Vector_9" d="M42.275 70.3247C42.1022 70.324 41.9358 70.3897 41.8105 70.5081C41.6852 70.6265 41.6106 70.7885 41.6023 70.9603C41.6013 70.9716 41.6013 70.983 41.6023 70.9943V72.4565C41.6013 72.4678 41.6013 72.4792 41.6023 72.4906C41.6068 72.6681 41.682 72.8367 41.8114 72.9591C41.9408 73.0814 42.1137 73.1477 42.2921 73.1431C42.4705 73.1386 42.6398 73.0638 42.7627 72.935C42.8857 72.8062 42.9522 72.6341 42.9477 72.4565V70.9943C42.9477 70.9064 42.9303 70.8193 42.8965 70.7381C42.8627 70.6568 42.8131 70.583 42.7507 70.5208C42.6882 70.4587 42.614 70.4093 42.5324 70.3757C42.4508 70.342 42.3633 70.3247 42.275 70.3247Z" fill="#9797C6"/>
<path id="Vector_10" d="M36.8055 70.3278C36.7172 70.3278 36.6297 70.3451 36.5481 70.3787C36.4665 70.4124 36.3923 70.4617 36.3298 70.5239C36.2674 70.5861 36.2178 70.6599 36.184 70.7411C36.1502 70.8224 36.1328 70.9094 36.1328 70.9974V72.4596C36.142 72.6313 36.2169 72.7929 36.3423 72.9112C36.4676 73.0295 36.6338 73.0955 36.8065 73.0955C36.9792 73.0955 37.1453 73.0295 37.2707 72.9112C37.396 72.7929 37.471 72.6313 37.4801 72.4596V70.9974C37.4801 70.9093 37.4627 70.8221 37.4287 70.7407C37.3948 70.6593 37.3451 70.5854 37.2824 70.5232C37.2198 70.461 37.1454 70.4117 37.0635 70.3782C36.9817 70.3446 36.894 70.3275 36.8055 70.3278Z" fill="#9797C6"/>
<path id="Vector_11" d="M47.5479 70.3278C47.4595 70.3278 47.372 70.3451 47.2904 70.3787C47.2088 70.4124 47.1346 70.4617 47.0721 70.5239C47.0096 70.5861 46.96 70.6599 46.9262 70.7411C46.8924 70.8224 46.875 70.9094 46.875 70.9974V72.4596C46.8842 72.6313 46.9592 72.7929 47.0845 72.9112C47.2099 73.0295 47.3761 73.0955 47.5488 73.0955C47.7216 73.0955 47.8878 73.0295 48.0132 72.9112C48.1385 72.7929 48.2135 72.6313 48.2227 72.4596V70.9974C48.2227 70.9093 48.2052 70.8221 48.1713 70.7407C48.1374 70.6593 48.0876 70.5854 48.0249 70.5232C47.9622 70.461 47.8878 70.4117 47.806 70.3782C47.7241 70.3446 47.6364 70.3275 47.5479 70.3278Z" fill="#9797C6"/>
<path id="Vector_12" d="M68.0082 41.387C67.9766 41.3842 67.9448 41.3842 67.9132 41.387H66.4518C66.4202 41.3842 66.3884 41.3842 66.3568 41.387C66.1972 41.4199 66.055 41.5093 65.9566 41.6387C65.8582 41.7681 65.8104 41.9287 65.822 42.0905C65.8336 42.2523 65.9039 42.4045 66.0197 42.5186C66.1356 42.6328 66.2891 42.7012 66.4518 42.7112H67.9208C68.0835 42.7012 68.237 42.6328 68.3528 42.5186C68.4687 42.4045 68.5389 42.2523 68.5505 42.0905C68.5621 41.9287 68.5143 41.7681 68.416 41.6387C68.3176 41.5093 68.1754 41.4199 68.0158 41.387H68.0082Z" fill="#9797C6"/>
<path id="Vector_13" d="M68.2543 46.8252C68.1714 46.79 68.0822 46.772 67.9921 46.7722H66.5307C66.4392 46.7673 66.3477 46.7811 66.2618 46.8126C66.1758 46.8441 66.0972 46.8927 66.0307 46.9555C65.9643 47.0182 65.9113 47.0938 65.8751 47.1776C65.839 47.2613 65.8203 47.3516 65.8203 47.4428C65.8203 47.5339 65.839 47.6242 65.8751 47.7079C65.9113 47.7917 65.9643 47.8673 66.0307 47.93C66.0972 47.9928 66.1758 48.0414 66.2618 48.0729C66.3477 48.1044 66.4392 48.1182 66.5307 48.1133H67.9997C68.0882 48.1133 68.1758 48.0959 68.2576 48.0622C68.3393 48.0284 68.4135 47.9789 68.476 47.9165C68.5385 47.8541 68.588 47.7801 68.6217 47.6986C68.6554 47.6172 68.6726 47.5299 68.6724 47.4418C68.6723 47.3777 68.6627 47.314 68.6439 47.2526C68.615 47.157 68.565 47.0691 68.4976 46.9951C68.4302 46.9212 68.3471 46.8631 68.2543 46.8252Z" fill="#9797C6"/>
<path id="Vector_14" d="M67.9563 35.9866H66.4949C66.3758 35.9866 66.2589 36.0186 66.1567 36.0793C66.0558 36.1366 65.9718 36.2191 65.9128 36.3186C65.8538 36.4181 65.8219 36.5312 65.8203 36.6468C65.8203 36.8249 65.8914 36.9957 66.0179 37.1216C66.1444 37.2475 66.316 37.3183 66.4949 37.3183H67.9639C68.1363 37.3092 68.2987 37.2345 68.4176 37.1098C68.5364 36.985 68.6027 36.8197 68.6027 36.6477C68.6027 36.4758 68.5364 36.3104 68.4176 36.1857C68.2987 36.0609 68.1363 35.9863 67.9639 35.9772L67.9563 35.9866Z" fill="#9797C6"/>
</g>
</g>
</g>
</g>
<defs>
<clipPath id="clip0_24_6">
<rect width="92.2414" height="100" fill="white"/>
</clipPath>
</defs>
</svg>
