<svg width="100" height="71" viewBox="0 0 100 71" fill="none" xmlns="http://www.w3.org/2000/svg">
<g id="Trash Hauling" clip-path="url(#clip0_24_131)">
<g id="&#208;&#161;&#208;&#187;&#208;&#190;&#208;&#185; 2">
<g id="&#208;&#161;&#208;&#187;&#208;&#190;&#208;&#185; 1">
<g id="Group">
<path id="Vector" d="M84.2323 8.60578C84.1735 8.57781 84.1127 8.55414 84.0505 8.53497C81.176 7.4199 78.1188 6.84916 75.0351 6.85194H72.4723C72.303 6.8517 72.1353 6.88483 71.9788 6.94944C71.8224 7.01404 71.6802 7.10885 71.5605 7.22843C71.4408 7.34801 71.3459 7.49001 71.2812 7.64629C71.2165 7.80257 71.1834 7.97007 71.1836 8.13918V42.4354C71.1961 42.7682 71.3373 43.0831 71.5774 43.3142C71.8175 43.5452 72.138 43.6743 72.4714 43.6743C72.8048 43.6743 73.1252 43.5452 73.3653 43.3142C73.6055 43.0831 73.7466 42.7682 73.7592 42.4354V9.42461H75.0315C77.537 9.42322 80.025 9.84304 82.391 10.6665V34.9134C82.392 35.9804 82.8166 37.0033 83.5717 37.7579C84.3268 38.5125 85.3508 38.9371 86.4189 38.9386H97.4246V44.3853H88.0311C87.8579 44.3788 87.6852 44.4072 87.5233 44.469C87.3614 44.5307 87.2136 44.6244 87.0887 44.7445C86.9639 44.8646 86.8646 45.0086 86.7968 45.1679C86.729 45.3272 86.694 45.4985 86.694 45.6716C86.694 45.8447 86.729 46.0161 86.7968 46.1754C86.8646 46.3347 86.9639 46.4787 87.0887 46.5988C87.2136 46.7189 87.3614 46.8126 87.5233 46.8743C87.6852 46.936 87.8579 46.9645 88.0311 46.958H97.4246V52.2612H84.0669C83.8937 52.2547 83.721 52.2832 83.5591 52.3449C83.3971 52.4066 83.2493 52.5003 83.1245 52.6204C82.9997 52.7405 82.9004 52.8845 82.8326 53.0438C82.7648 53.2031 82.7298 53.3745 82.7298 53.5476C82.7298 53.7207 82.7648 53.892 82.8326 54.0513C82.9004 54.2106 82.9997 54.3546 83.1245 54.4747C83.2493 54.5948 83.3971 54.6885 83.5591 54.7502C83.721 54.8119 83.8937 54.8404 84.0669 54.8339H98.7133C99.0546 54.8339 99.3819 54.6985 99.6232 54.4574C99.8645 54.2164 100 53.8894 100 53.5485V31.7925C99.9947 26.7957 98.4893 21.9154 95.6785 17.7821C92.8677 13.6488 88.8805 10.4523 84.2323 8.60578ZM86.4134 36.3641C86.0278 36.3641 85.6579 36.2111 85.3852 35.9387C85.1125 35.6663 84.9593 35.2968 84.9593 34.9116V11.7522C88.6987 13.6024 91.8467 16.4586 94.049 19.9992C96.2513 23.5398 97.4203 27.6242 97.4246 31.7925V36.3641H86.4134Z" fill="#9797C6"/>
<path id="Vector_2" d="M13.1287 44.5414C10.5321 44.5414 7.99378 45.3105 5.83478 46.7515C3.67578 48.1924 1.99304 50.2406 0.999366 52.6368C0.00568847 55.0331 -0.254303 57.6698 0.25227 60.2137C0.758842 62.7575 2.00923 65.0942 3.8453 66.9282C5.68138 68.7622 8.02069 70.0112 10.5674 70.5172C13.1141 71.0232 15.7538 70.7635 18.1528 69.7709C20.5517 68.7784 22.6022 67.0975 24.0448 64.941C25.4874 62.7844 26.2573 60.249 26.2573 57.6553C26.2535 54.1784 24.8691 50.8451 22.4078 48.3866C19.9465 45.9281 16.6094 44.5452 13.1287 44.5414ZM13.1287 68.1965C11.0415 68.1965 9.00113 67.5783 7.26569 66.42C5.53024 65.2617 4.17762 63.6154 3.37888 61.6892C2.58014 59.7631 2.37115 57.6436 2.77835 55.5988C3.18554 53.554 4.19063 51.6757 5.66651 50.2015C7.14238 48.7273 9.02277 47.7233 11.0699 47.3166C13.117 46.9099 15.2388 47.1186 17.1672 47.9165C19.0955 48.7143 20.7437 50.0654 21.9033 51.7989C23.0628 53.5324 23.6818 55.5704 23.6818 57.6553C23.6789 60.4501 22.5661 63.1296 20.5877 65.1059C18.6092 67.0821 15.9266 68.1936 13.1287 68.1965Z" fill="#9797C6"/>
<path id="Vector_3" d="M13.1292 54.1785C12.4408 54.1785 11.7678 54.3824 11.1954 54.7644C10.623 55.1465 10.1768 55.6895 9.91339 56.3248C9.64995 56.9601 9.58102 57.6591 9.71532 58.3336C9.84963 59.008 10.1811 59.6275 10.6679 60.1138C11.1547 60.6 11.7749 60.9311 12.4501 61.0653C13.1253 61.1994 13.8252 61.1306 14.4612 60.8674C15.0972 60.6043 15.6408 60.1587 16.0233 59.5869C16.4058 59.0151 16.6099 58.3429 16.6099 57.6553C16.609 56.7335 16.2419 55.8497 15.5894 55.1979C14.9368 54.546 14.052 54.1794 13.1292 54.1785ZM13.1292 58.5594C12.9494 58.5594 12.7737 58.5062 12.6243 58.4064C12.4748 58.3067 12.3583 58.1649 12.2896 57.999C12.2208 57.8332 12.2028 57.6506 12.2378 57.4746C12.2729 57.2985 12.3595 57.1367 12.4866 57.0097C12.6137 56.8828 12.7756 56.7963 12.9519 56.7613C13.1282 56.7263 13.3109 56.7443 13.477 56.813C13.643 56.8817 13.785 56.998 13.8848 57.1473C13.9847 57.2966 14.038 57.4721 14.038 57.6517C14.038 57.8924 13.9422 58.1233 13.7718 58.2936C13.6014 58.4638 13.3702 58.5594 13.1292 58.5594Z" fill="#9797C6"/>
<path id="Vector_4" d="M69.0701 44.5414C66.4735 44.5414 63.9352 45.3105 61.7762 46.7515C59.6172 48.1924 57.9345 50.2406 56.9408 52.6368C55.9471 55.0331 55.6871 57.6698 56.1937 60.2137C56.7002 62.7575 57.9506 65.0942 59.7867 66.9282C61.6228 68.7622 63.9621 70.0112 66.5088 70.5172C69.0555 71.0232 71.6953 70.7635 74.0942 69.7709C76.4932 68.7784 78.5436 67.0975 79.9862 64.941C81.4288 62.7844 82.1988 60.249 82.1988 57.6553C82.1949 54.1784 80.8105 50.8451 78.3492 48.3866C75.8879 45.9281 72.5508 44.5452 69.0701 44.5414ZM69.0701 68.1965C66.9824 68.1986 64.941 67.5823 63.2041 66.4253C61.4672 65.2683 60.1129 63.6227 59.3125 61.6968C58.5121 59.7708 58.3016 57.651 58.7075 55.6055C59.1135 53.56 60.1177 51.6807 61.5932 50.2054C63.0686 48.7301 64.949 47.725 66.9964 47.3174C69.0438 46.9098 71.1662 47.1179 73.0952 47.9154C75.0241 48.7129 76.6729 50.064 77.833 51.7978C78.9931 53.5315 79.6123 55.57 79.6123 57.6553C79.6094 60.4482 78.4981 63.1261 76.522 65.102C74.5459 67.0779 71.8662 68.1907 69.0701 68.1965Z" fill="#9797C6"/>
<path id="Vector_5" d="M69.0686 54.1785C68.3802 54.1785 67.7072 54.3824 67.1348 54.7644C66.5624 55.1465 66.1163 55.6895 65.8528 56.3248C65.5894 56.9601 65.5205 57.6591 65.6548 58.3336C65.7891 59.008 66.1206 59.6275 66.6074 60.1138C67.0942 60.6 67.7144 60.9311 68.3896 61.0653C69.0648 61.1994 69.7646 61.1306 70.4007 60.8674C71.0367 60.6043 71.5803 60.1587 71.9628 59.5869C72.3452 59.0151 72.5494 58.3429 72.5494 57.6553C72.5484 56.7335 72.1814 55.8497 71.5288 55.1979C70.8763 54.546 69.9915 54.1794 69.0686 54.1785ZM69.0686 58.5594C68.8889 58.5594 68.7132 58.5062 68.5637 58.4064C68.4143 58.3067 68.2978 58.1649 68.229 57.999C68.1602 57.8332 68.1422 57.6506 68.1773 57.4746C68.2123 57.2985 68.2989 57.1367 68.426 57.0097C68.5531 56.8828 68.715 56.7963 68.8913 56.7613C69.0676 56.7263 69.2504 56.7443 69.4164 56.813C69.5825 56.8817 69.7244 56.998 69.8243 57.1473C69.9241 57.2966 69.9774 57.4721 69.9774 57.6517C69.9774 57.8924 69.8817 58.1233 69.7113 58.2936C69.5408 58.4638 69.3097 58.5594 69.0686 58.5594Z" fill="#9797C6"/>
<path id="Vector_6" d="M53.9096 52.2685H28.134C27.9608 52.262 27.7881 52.2905 27.6261 52.3522C27.4642 52.4139 27.3164 52.5076 27.1916 52.6277C27.0668 52.7478 26.9675 52.8918 26.8997 53.0511C26.8318 53.2104 26.7969 53.3818 26.7969 53.5549C26.7969 53.728 26.8318 53.8993 26.8997 54.0586C26.9675 54.2179 27.0668 54.3619 27.1916 54.482C27.3164 54.6021 27.4642 54.6958 27.6261 54.7575C27.7881 54.8192 27.9608 54.8477 28.134 54.8412H53.9096C54.0828 54.8477 54.2555 54.8192 54.4175 54.7575C54.5794 54.6958 54.7272 54.6021 54.852 54.482C54.9768 54.3619 55.0761 54.2179 55.1439 54.0586C55.2118 53.8993 55.2467 53.728 55.2467 53.5549C55.2467 53.3818 55.2118 53.2104 55.1439 53.0511C55.0761 52.8918 54.9768 52.7478 54.852 52.6277C54.7272 52.5076 54.5794 52.4139 54.4175 52.3522C54.2555 52.2905 54.0828 52.262 53.9096 52.2685Z" fill="#9797C6"/>
<path id="Vector_7" d="M10.6457 14.5772H11.0674L15.0862 42.6968C15.0983 42.8734 15.1468 43.0455 15.2286 43.2025C15.3104 43.3595 15.4237 43.4979 15.5614 43.6092C15.6992 43.7205 15.8584 43.8022 16.0292 43.8492C16.2 43.8963 16.3787 43.9076 16.554 43.8826C16.7294 43.8576 16.8978 43.7967 17.0485 43.7038C17.1993 43.6109 17.3293 43.4879 17.4303 43.3425C17.5314 43.1972 17.6013 43.0326 17.6358 42.859C17.6703 42.6854 17.6686 42.5066 17.6308 42.3337L13.6702 14.5772H64.1837L59.8796 44.4016C59.8418 44.5745 59.8401 44.7533 59.8746 44.9269C59.9091 45.1005 59.979 45.2651 60.0801 45.4105C60.1811 45.5558 60.3111 45.6788 60.4619 45.7717C60.6127 45.8647 60.781 45.9255 60.9564 45.9506C61.1318 45.9756 61.3104 45.9642 61.4812 45.9172C61.652 45.8701 61.8112 45.7884 61.949 45.6771C62.0867 45.5659 62.2 45.4274 62.2818 45.2704C62.3636 45.1134 62.4121 44.9413 62.4243 44.7647L66.7865 14.5736H67.2101C67.5515 14.5731 67.8788 14.4373 68.1201 14.1959C68.3614 13.9546 68.4969 13.6274 68.4969 13.2863V11.4944C68.4955 9.97353 67.8901 8.51536 66.8137 7.43978C65.7373 6.36421 64.2776 5.75908 62.7551 5.75716H46.2147C45.8259 4.11765 44.8946 2.65717 43.5715 1.61207C42.2485 0.56697 40.611 -0.00158691 38.9242 -0.00158691C37.2375 -0.00158691 35.6 0.56697 34.277 1.61207C32.9539 2.65717 32.0226 4.11765 31.6338 5.75716H15.0934C13.5709 5.75908 12.1112 6.36421 11.0348 7.43978C9.95836 8.51536 9.35301 9.97353 9.35156 11.4944V13.29C9.35132 13.4589 9.38443 13.6263 9.449 13.7824C9.51356 13.9386 9.60832 14.0805 9.72784 14.2001C9.84736 14.3196 9.9893 14.4145 10.1456 14.4792C10.3018 14.5439 10.4693 14.5772 10.6384 14.5772H10.6457ZM38.9279 2.57264C39.9279 2.57519 40.9036 2.88104 41.7257 3.4497C42.5478 4.01837 43.1777 4.82303 43.5319 5.75716H34.3238C34.678 4.82303 35.3079 4.01837 36.1301 3.4497C36.9522 2.88104 37.9279 2.57519 38.9279 2.57264ZM11.9344 11.4944C11.9354 10.6559 12.2693 9.85196 12.8629 9.25905C13.4564 8.66613 14.2612 8.3326 15.1007 8.33164H62.7551C63.5947 8.33308 64.3995 8.66701 64.993 9.26022C65.5866 9.85343 65.9204 10.6575 65.9214 11.4962V12.0045H11.938L11.9344 11.4944Z" fill="#9797C6"/>
<path id="Vector_8" d="M36.8495 41.849C37.1913 41.849 37.5191 41.7134 37.7608 41.4719C38.0025 41.2305 38.1382 40.9031 38.1382 40.5617C38.1382 40.2203 38.0025 39.8929 37.7608 39.6515C37.5191 39.4101 37.1913 39.2745 36.8495 39.2745H29.6772L31.6766 35.7995L32.0765 37.2429C32.1516 37.5142 32.3137 37.7534 32.5379 37.9239C32.7621 38.0944 33.0361 38.1868 33.3179 38.187C33.4346 38.1871 33.5508 38.1712 33.6632 38.1398C33.8262 38.0946 33.9787 38.0179 34.1119 37.9139C34.2451 37.8099 34.3565 37.6807 34.4398 37.5337C34.523 37.3866 34.5764 37.2247 34.5969 37.057C34.6174 36.8894 34.6046 36.7193 34.5593 36.5566L33.3561 32.2155C33.3193 32.0394 33.2456 31.8731 33.1397 31.7275C33.0338 31.582 32.8981 31.4606 32.7417 31.3713C32.5628 31.2694 32.3622 31.2116 32.1564 31.2025H32.0856C31.9733 31.2026 31.8615 31.2173 31.7529 31.246L27.3343 32.4679C27.0344 32.5514 26.7748 32.7405 26.6036 33.0002C26.4324 33.26 26.3612 33.5729 26.4031 33.8811C26.445 34.1893 26.5972 34.4719 26.8315 34.6767C27.0658 34.8815 27.3665 34.9946 27.6778 34.9952C27.794 34.9954 27.9096 34.9796 28.0214 34.948L29.4173 34.5631L26.3273 39.919C26.2148 40.1149 26.1557 40.3369 26.1563 40.5628C26.1568 40.7886 26.2167 41.0104 26.3302 41.2058C26.4437 41.4012 26.6066 41.5633 26.8026 41.6759C26.9986 41.7884 27.2209 41.8475 27.447 41.8472L36.8495 41.849Z" fill="#9797C6"/>
<path id="Vector_9" d="M50.7732 41.8526C50.9991 41.8523 51.2208 41.7928 51.4164 41.6799C51.6119 41.5671 51.7743 41.4049 51.8873 41.2096C52.0003 41.0144 52.06 40.7929 52.0603 40.5673C52.0607 40.3417 52.0017 40.1201 51.8893 39.9244L47.2016 31.7852C47.1174 31.6388 47.0051 31.5104 46.8711 31.4074C46.7372 31.3044 46.5843 31.2287 46.4211 31.1847C46.2578 31.1407 46.0876 31.1292 45.9199 31.151C45.7523 31.1727 45.5905 31.2272 45.444 31.3114C45.2974 31.3955 45.1689 31.5077 45.0657 31.6415C44.9626 31.7753 44.8868 31.928 44.8428 32.091C44.7987 32.2541 44.7872 32.4242 44.809 32.5916C44.8308 32.7591 44.8853 32.9206 44.9696 33.067L48.5448 39.2781H44.5334L45.5876 38.2105C45.7069 38.0903 45.8014 37.9477 45.8656 37.7909C45.9297 37.6342 45.9624 37.4663 45.9616 37.297C45.9609 37.1276 45.9267 36.9601 45.8611 36.8039C45.7956 36.6477 45.6998 36.506 45.5794 36.3868C45.459 36.2676 45.3162 36.1732 45.1593 36.1091C45.0024 36.045 44.8343 36.0124 44.6648 36.0132C44.4953 36.0139 44.3275 36.048 44.1712 36.1135C44.0148 36.1791 43.8729 36.2747 43.7536 36.395L40.5873 39.5995C40.4529 39.7197 40.3454 39.8669 40.2718 40.0314C40.1982 40.196 40.1601 40.3742 40.1602 40.5544C40.1596 40.7573 40.2083 40.9573 40.3019 41.1372C40.3054 41.1472 40.3097 41.157 40.3147 41.1663L40.3328 41.1935C40.3897 41.2966 40.4614 41.3907 40.5455 41.4731L43.8063 44.6994C44.0495 44.9402 44.3785 45.0746 44.7209 45.073C45.0633 45.0715 45.3911 44.9342 45.6321 44.6912C45.8731 44.4483 46.0077 44.1197 46.0062 43.7777C46.0046 43.4356 45.8671 43.1082 45.6239 42.8675L44.5933 41.8508L50.7732 41.8526Z" fill="#9797C6"/>
<path id="Vector_10" d="M38.0804 26.9775C37.9947 27.3079 38.0438 27.6586 38.217 27.9528C38.3901 28.2469 38.6731 28.4604 39.0037 28.5462L43.366 29.6755C43.5375 29.7327 43.7193 29.7528 43.8992 29.7343C44.0791 29.7158 44.253 29.6593 44.4093 29.5684C44.5756 29.472 44.7184 29.3399 44.8274 29.1816C44.8311 29.1732 44.836 29.1652 44.8419 29.158C44.8764 29.1066 44.9068 29.0526 44.9328 28.9965L44.9492 28.9583C44.9735 28.9024 44.9935 28.8448 45.0091 28.7859C45.0091 28.7859 45.0091 28.7859 45.0091 28.775L46.1651 24.3413C46.2131 24.176 46.2274 24.0028 46.2072 23.8319C46.187 23.661 46.1326 23.4959 46.0474 23.3463C45.9622 23.1967 45.8478 23.0657 45.711 22.9611C45.5742 22.8564 45.4178 22.7802 45.2511 22.737C45.0843 22.6938 44.9105 22.6844 44.7401 22.7094C44.5696 22.7344 44.4059 22.7933 44.2586 22.8826C44.1113 22.972 43.9835 23.0899 43.8826 23.2294C43.7817 23.3689 43.7099 23.5272 43.6714 23.695L43.3078 25.0966L40.2088 19.7461C40.0959 19.5508 39.9335 19.3888 39.7379 19.2762C39.5422 19.1637 39.3203 19.1047 39.0946 19.1052C38.8685 19.1053 38.6464 19.1647 38.4506 19.2775C38.2547 19.3903 38.0919 19.5525 37.9786 19.7479L33.2746 27.8763C33.1851 28.0227 33.1259 28.1856 33.1003 28.3552C33.0747 28.5249 33.0834 28.6979 33.1257 28.8642C33.1681 29.0305 33.2433 29.1866 33.3469 29.3234C33.4506 29.4603 33.5805 29.575 33.7292 29.6609C33.8779 29.7469 34.0422 29.8022 34.2126 29.8238C34.383 29.8454 34.556 29.8327 34.7215 29.7865C34.8869 29.7403 35.0414 29.6616 35.1759 29.5549C35.3105 29.4482 35.4223 29.3158 35.5048 29.1653L39.0946 22.9615L41.1049 26.4311L39.6508 26.0552C39.3201 25.9697 38.9689 26.0187 38.6745 26.1917C38.38 26.3646 38.1663 26.6473 38.0804 26.9775Z" fill="#9797C6"/>
</g>
</g>
</g>
</g>
<defs>
<clipPath id="clip0_24_131">
<rect width="100" height="70.7692" fill="white"/>
</clipPath>
</defs>
</svg>
