<svg width="129" height="85" viewBox="0 0 129 85" fill="none" xmlns="http://www.w3.org/2000/svg">
<g id="Handyman" clip-path="url(#clip0_30_85)">
<g id="&#208;&#161;&#208;&#187;&#208;&#190;&#208;&#185; 2">
<g id="&#208;&#161;&#208;&#187;&#208;&#190;&#208;&#185; 1">
<path id="Vector" d="M127.217 12.2174L113.986 20.9273L110.783 16.1668L124.016 7.45463L122.229 4.80252L110.265 2.4311L100.099 9.11882L97.6927 20.9627L97.7977 21.1196L92.5928 24.4171C92.146 24.0281 91.6993 23.6465 91.2525 23.2722C91.6993 21.082 90.3947 18.6708 88.1385 17.6188C86.3515 16.7834 84.3767 16.9823 83.0007 18.0078C79.0385 16.0758 74.7833 14.7984 70.4041 14.2263C69.9884 13.2162 69.2834 12.3484 68.3757 11.7295C67.468 11.1107 66.3973 10.7679 65.2952 10.7432C62.8 10.6681 60.5908 12.1201 59.771 14.2263C55.3866 14.7989 51.1268 16.0786 47.1609 18.0144C45.7871 16.9934 43.8101 16.7989 42.0365 17.6321C39.7825 18.6841 38.4891 21.0887 38.9203 23.2766C38.4444 23.6634 37.9798 24.059 37.5219 24.4657L32.2254 21.113L33.1458 19.7427L30.2954 16.0165C33.6132 12.4563 37.8675 9.88042 42.5815 8.57735L44.4736 8.05356L40.1533 0L39.0364 0.179017C25.0034 2.4311 14.6764 9.01937 8.3367 19.7803L8.00386 20.3439L8.17587 20.9759C9.02473 24.0944 9.2012 26.1409 9.14982 27.4294L6.89141 25.942L0 36.2454L12.8602 44.7233L19.7516 34.4288L17.3815 32.8662C19.2423 31.8982 21.3734 31.6021 23.844 31.9645L24.8359 32.1082L25.7294 30.7821L29.7302 33.5182C26.1423 39.0193 23.7442 45.1957 22.6869 51.6586C21.3042 52.189 19.039 53.3781 18.7688 55.5395C18.4024 58.4723 22.0614 60.5233 23.2632 61.1996C25.4837 62.4438 27.1479 63.2903 28.3653 63.9069L29.4309 64.4528L19.0726 71.0101C17.0398 72.2942 15.6235 74.2103 15.1857 76.2657C15.0172 76.9837 14.996 77.7278 15.1234 78.454C15.2508 79.1803 15.5241 79.8738 15.9273 80.4936L17.3212 82.5667C17.7442 83.1722 18.2855 83.6878 18.9131 84.083C19.5408 84.4781 20.2422 84.7449 20.9758 84.8674C21.4222 84.9498 21.8754 84.9912 22.3295 84.9911C24.1404 84.9611 25.8996 84.3894 27.3758 83.3513L39.7758 74.8756C40.8136 75.5255 41.9117 76.0761 43.0551 76.5199C47.9092 78.4272 54.8945 79.3179 65.025 79.3179C75.1554 79.3179 82.1407 78.4338 86.9948 76.5199C88.134 76.0774 89.2283 75.529 90.2629 74.8822L102.652 83.3513C104.129 84.3899 105.889 84.9616 107.7 84.9911C108.154 84.9913 108.606 84.9499 109.052 84.8674C109.786 84.7441 110.489 84.4761 111.117 84.0794C111.745 83.6827 112.286 83.1653 112.709 82.5578L114.103 80.4848C114.504 79.8644 114.777 79.1708 114.904 78.4447C115.031 77.7187 115.01 76.9748 114.842 76.2569C114.395 74.2015 112.99 72.2787 110.959 71.0035L100.615 64.4462C100.936 64.2782 101.285 64.097 101.691 63.8937C102.906 63.277 104.573 62.4306 106.793 61.1863C107.995 60.51 111.654 58.459 111.286 55.5263C111.024 53.4223 108.873 52.2421 107.488 51.6918C106.43 45.1888 104.015 38.975 100.398 33.4453L104.303 30.7755L104.461 31.012L116.435 33.3922L126.601 26.7001L129.004 14.8562L127.217 12.2174ZM11.9734 40.3651L4.3828 35.3614L7.77824 30.2915L9.29726 31.2926L9.33523 31.3147C9.34471 31.3233 9.35522 31.3308 9.36651 31.3368L9.39331 31.3545L13.6108 34.1348C13.6577 34.168 13.7046 34.2011 13.7538 34.2298L15.3688 35.2951L11.9734 40.3651ZM14.4865 30.9412L12.0918 29.361C12.4715 27.7057 12.4894 25.0425 11.4038 20.7969C17.1671 11.3599 26.022 5.67772 38.4333 3.45216L39.8719 6.13299C34.9261 7.85023 30.6215 10.7941 27.0518 14.9026L26.2186 15.8596L29.2634 19.8599L23.2923 28.7311C19.9527 28.4438 16.9995 29.1864 14.4865 30.9412ZM86.7781 20.4433C87.732 20.8853 88.3418 21.9152 88.1184 22.7197C88.0872 22.7904 88.0358 22.9009 87.971 23.049C87.9576 23.0733 87.9464 23.0998 87.933 23.1286C87.9196 23.1573 87.933 23.1286 87.933 23.1286C87.9265 23.1445 87.919 23.16 87.9107 23.175C87.3991 24.28 86.2554 26.7111 84.8682 29.2969C84.4907 30.0019 84.0975 30.718 83.6932 31.4252C82.9419 32.764 82.1217 34.0637 81.236 35.3194C80.3424 36.5482 79.7438 37.1648 79.3707 37.472C79.3567 37.1409 79.3686 36.8091 79.4064 36.4797C79.4958 35.5957 79.7482 34.2298 80.3558 32.159C80.5569 31.4717 80.8026 30.7048 81.0863 29.8517C82.3931 25.9774 84.0484 22.1274 84.5242 21.04C84.5689 20.9362 84.6091 20.8456 84.647 20.7616L84.6627 20.7395C85.0536 20.2046 85.9605 20.0698 86.7781 20.4522V20.4433ZM65.1791 13.8727C66.3787 13.9147 67.4129 14.7413 67.5514 15.7712C67.5514 15.8883 67.5514 16.0254 67.5514 16.1734C67.5403 17.6122 67.4643 22.6888 67.0108 27.5863C66.4099 34.0575 65.5142 36.2698 65.0808 36.988C64.6541 36.2808 63.774 34.1149 63.1753 27.8471C62.7286 23.1175 62.6303 18.2354 62.6102 16.3547C62.6102 16.0762 62.6102 15.8773 62.6102 15.7712C62.771 14.6772 63.8991 13.8396 65.1791 13.8727ZM43.3768 20.4654C44.1899 20.0875 45.0879 20.2179 45.4855 20.7549C45.4952 20.7662 45.5041 20.778 45.5123 20.7903C45.5481 20.8699 45.5905 20.9627 45.633 21.0621C46.1088 22.1517 47.764 26.0017 49.0708 29.876C49.3702 30.76 49.6181 31.5534 49.8236 32.2629C50.4313 34.3426 50.6747 35.7018 50.7552 36.5725C50.787 36.8787 50.7967 37.1866 50.7842 37.4941C50.4246 37.198 49.846 36.6101 49.0105 35.4675C48.09 34.1763 47.2399 32.8373 46.4639 31.4562C46.0797 30.7821 45.7022 30.0992 45.347 29.4273C43.9285 26.7885 42.7602 24.311 42.242 23.2059L42.2241 23.1661C42.2129 23.1418 42.2018 23.1197 42.1928 23.0976L42.0342 22.7484C41.8243 21.9395 42.4252 20.9119 43.3768 20.4654ZM27.4763 28.1742L30.4674 23.7253L35.1585 26.7023C33.8621 28.0394 32.6512 29.4551 31.5329 30.9412L27.4763 28.1742ZM25.5663 80.7743C24.2975 81.6429 22.8031 82.0208 21.5633 81.7865C21.2434 81.7385 20.9363 81.6285 20.6595 81.4627C20.3828 81.297 20.1418 81.0788 19.9505 80.8207L18.5565 78.7477C18.2237 78.1952 18.1257 77.5348 18.284 76.9111C18.5409 75.6911 19.4746 74.48 20.7747 73.649L32.2344 66.3866C32.8464 67.0364 33.4451 67.905 34.3498 69.3039C35.1543 70.5859 36.1046 71.7724 37.1823 72.8401L25.5663 80.7743ZM109.244 73.6379C110.544 74.4579 111.478 75.6778 111.735 76.8978C111.815 77.2085 111.832 77.532 111.784 77.8493C111.737 78.1665 111.626 78.4712 111.458 78.7454L110.064 80.8185C109.872 81.0769 109.631 81.2952 109.354 81.4609C109.076 81.6267 108.769 81.7366 108.449 81.7843C107.211 82.0186 105.714 81.6407 104.443 80.7699L92.8475 72.8423C93.9286 71.7702 94.8812 70.5785 95.6867 69.2907C96.5802 67.8961 97.1878 67.0276 97.7932 66.38L109.244 73.6379ZM108.145 55.9152C108.145 55.9506 108.122 56.8413 105.241 58.4657C103.078 59.6768 101.513 60.4724 100.253 61.1178C99.1626 61.6725 98.3204 62.1079 97.61 62.5455C96.6611 63.1119 95.8185 63.8364 95.1193 64.6871C94.3685 65.6212 93.6741 66.5982 93.0396 67.6132C92.2595 68.8805 91.3004 70.0311 90.1914 71.03C89.3364 71.7719 88.3899 72.4039 87.3746 72.9108C83.4609 74.8999 76.9961 76.1928 65.0361 76.1928C53.0761 76.1928 46.5868 74.8999 42.6664 72.9042C41.6515 72.3968 40.7058 71.764 39.8518 71.0212C38.7464 70.0246 37.7903 68.877 37.0126 67.6132C36.3763 66.5944 35.6788 65.6144 34.9239 64.6782C34.226 63.8313 33.3857 63.1098 32.4399 62.5455C31.7317 62.1035 30.8918 61.6769 29.8039 61.1244C28.5463 60.4835 26.9804 59.6879 24.818 58.4723C21.8827 56.8236 21.914 55.9307 21.914 55.9219C21.9564 55.5771 22.7852 55.0069 23.7346 54.6201C25.1062 55.6434 28.6111 58.0679 34.0549 60.4945C34.3662 60.633 34.6864 60.773 35.0155 60.9145C36.119 61.3852 37.3275 61.8648 38.6366 62.3377C41.8458 63.4953 45.1332 64.4288 48.4744 65.1313C49.884 65.4297 51.3561 65.6971 52.884 65.9247C56.7094 66.4973 60.573 66.7839 64.4419 66.7822C68.6318 66.7823 72.8149 66.4512 76.9514 65.7921C78.4638 65.5534 79.9225 65.2772 81.3231 64.9744C84.6573 64.2548 87.9406 63.3209 91.152 62.1786C92.4677 61.7123 93.6874 61.2371 94.8021 60.773L95.4521 60.5012C101.164 58.0701 104.912 55.639 106.364 54.6356C107.296 55.0312 108.102 55.5793 108.145 55.9152ZM104.347 52.1912C102.891 53.1858 99.3346 55.4379 94.0716 57.6656C93.2786 58.0016 92.423 58.3485 91.5116 58.6955C90.3433 59.1375 89.079 59.5796 87.7253 60.0216C84.4351 61.0706 81.0766 61.8969 77.673 62.4947C76.1964 62.7555 74.6618 62.9809 73.0757 63.1577C70.2097 63.4848 67.327 63.6494 64.4419 63.6505C61.8836 63.651 59.3269 63.5212 56.7821 63.2616C55.1715 63.0958 53.6189 62.8836 52.129 62.6339C48.7048 62.0633 45.3278 61.2441 42.0253 60.1829C40.685 59.7409 39.4206 59.2989 38.2613 58.8569C37.256 58.4657 36.3223 58.0745 35.4645 57.6944C30.4562 55.4843 27.1434 53.23 25.7942 52.2399C26.7684 46.2078 28.993 40.4402 32.3282 35.2995C32.9001 34.4155 33.5032 33.5587 34.1376 32.7292C35.2887 31.2139 36.5433 29.7784 37.8927 28.4328C38.6373 27.6961 39.4095 26.9844 40.2092 26.2978C40.9039 27.7388 41.8645 29.666 42.9389 31.6308C43.1623 32.0529 43.408 32.4795 43.6493 32.9016C47.1721 39.0898 49.0105 40.3496 50.2056 40.7629C50.5153 40.873 50.8416 40.9305 51.1707 40.933C51.5762 40.9333 51.976 40.8379 52.3367 40.6546C53.132 40.2523 53.6368 39.5716 53.849 38.5439C54.0478 37.5892 53.9965 36.3339 53.6927 34.7249C53.356 33.0576 52.9158 31.4124 52.3747 29.7986C51.2153 26.2072 49.6941 22.5053 48.8988 20.6643C52.2375 19.077 55.7962 17.9895 59.4582 17.4376C59.5029 20.0234 59.6503 24.7662 60.1284 29.2041C60.4523 32.1988 60.8789 34.5879 61.3994 36.3007C61.7055 37.3107 62.6392 40.3827 65.0786 40.3827C67.5179 40.3827 68.4807 37.2334 68.7867 36.199C69.3095 34.431 69.7361 31.9999 70.0578 28.9345C70.5046 24.5585 70.6542 19.8731 70.6989 17.442C74.3595 17.9914 77.9169 19.0774 81.2538 20.6643C80.463 22.5031 78.9396 26.2006 77.7824 29.7876C77.2507 31.3766 76.8158 32.9959 76.4801 34.6365C76.3014 35.4994 76.2041 36.3769 76.1897 37.2577C76.186 37.6653 76.2219 38.0724 76.2969 38.4732C76.5002 39.5341 77.0095 40.2413 77.8204 40.6435C78.1813 40.8262 78.5811 40.9209 78.9865 40.9198C79.3147 40.918 79.6402 40.8612 79.9493 40.7518C81.1533 40.3385 82.9851 39.0699 86.5078 32.8883C86.767 32.4308 87.0238 31.9733 87.274 31.5159C88.3239 29.5909 89.2622 27.7101 89.9435 26.2934C90.7268 26.9609 91.4833 27.6585 92.2131 28.3864C93.5651 29.7291 94.822 31.1624 95.9749 32.6762C96.6093 33.5071 97.2132 34.3632 97.7865 35.2443C101.138 40.3845 103.375 46.1565 104.356 52.1957L104.347 52.1912ZM98.5795 30.886C97.4561 29.4009 96.24 27.9866 94.9384 26.6515L99.5535 23.7275L102.547 28.1764L98.5795 30.886ZM123.755 24.8193L115.771 30.0749L106.376 28.2074L101.057 20.3019L102.944 11.0195L110.926 5.74623L118.575 7.26677L106.394 15.2938L113.095 25.2701L125.276 17.2519L123.755 24.8193Z" fill="white"/>
</g>
</g>
</g>
<defs>
<clipPath id="clip0_30_85">
<rect width="129" height="85" fill="white"/>
</clipPath>
</defs>
</svg>
