<svg width="83" height="59" viewBox="0 0 83 59" fill="none" xmlns="http://www.w3.org/2000/svg">
<g id="Trash Hauling" clip-path="url(#clip0_20_65)">
<g id="&#208;&#161;&#208;&#187;&#208;&#190;&#208;&#185; 2">
<g id="&#208;&#161;&#208;&#187;&#208;&#190;&#208;&#185; 1">
<g id="Group">
<path id="Vector" d="M69.9124 7.17458C69.8636 7.15126 69.8132 7.13153 69.7616 7.11555C67.3757 6.18591 64.8382 5.71009 62.2788 5.71241H60.1516C60.0111 5.71221 59.8719 5.73983 59.7421 5.79369C59.6122 5.84756 59.4942 5.9266 59.3949 6.02629C59.2955 6.12598 59.2167 6.24437 59.163 6.37466C59.1094 6.50495 59.0818 6.64459 59.082 6.78558V35.3782C59.0924 35.6556 59.2096 35.9182 59.4089 36.1108C59.6082 36.3034 59.8742 36.411 60.1509 36.411C60.4276 36.411 60.6936 36.3034 60.8929 36.1108C61.0922 35.9182 61.2094 35.6556 61.2197 35.3782V7.85723H62.2758C64.3554 7.85608 66.4204 8.20607 68.3842 8.89256V29.1072C68.385 29.9966 68.7374 30.8495 69.3642 31.4786C69.9909 32.1077 70.8408 32.4617 71.7273 32.4629H80.862V37.0038H73.0655C72.9217 36.9984 72.7784 37.0221 72.644 37.0736C72.5096 37.125 72.3869 37.2031 72.2833 37.3032C72.1797 37.4034 72.0973 37.5234 72.041 37.6562C71.9847 37.789 71.9557 37.9319 71.9557 38.0762C71.9557 38.2205 71.9847 38.3634 72.041 38.4962C72.0973 38.629 72.1797 38.7491 72.2833 38.8492C72.3869 38.9493 72.5096 39.0274 72.644 39.0789C72.7784 39.1303 72.9217 39.154 73.0655 39.1486H80.862V43.57H69.7752C69.6314 43.5645 69.4881 43.5883 69.3537 43.6397C69.2193 43.6912 69.0966 43.7693 68.993 43.8694C68.8894 43.9695 68.807 44.0896 68.7507 44.2224C68.6944 44.3552 68.6654 44.498 68.6654 44.6424C68.6654 44.7867 68.6944 44.9295 68.7507 45.0623C68.807 45.1951 68.8894 45.3152 68.993 45.4153C69.0966 45.5154 69.2193 45.5936 69.3537 45.645C69.4881 45.6965 69.6314 45.7202 69.7752 45.7148H81.9316C82.2149 45.7148 82.4866 45.6019 82.6869 45.4009C82.8872 45.1999 82.9997 44.9273 82.9997 44.6431V26.5052C82.9952 22.3395 81.7458 18.2708 79.4128 14.8248C77.0798 11.3789 73.7705 8.71404 69.9124 7.17458ZM71.7228 30.3166C71.4027 30.3166 71.0957 30.189 70.8694 29.9619C70.643 29.7348 70.5159 29.4268 70.5159 29.1056V9.79771C73.6196 11.3403 76.2324 13.7215 78.0603 16.6732C79.8882 19.625 80.8585 23.0301 80.862 26.5052V30.3166H71.7228Z" fill="#6D91EE"/>
<path id="Vector_2" d="M10.8968 37.134C8.74162 37.134 6.63483 37.7752 4.84286 38.9765C3.0509 40.1778 1.65423 41.8853 0.829474 43.8831C0.00472143 45.8808 -0.211071 48.0791 0.209384 50.1999C0.629839 52.3207 1.66766 54.2688 3.1916 55.7978C4.71555 57.3268 6.65717 58.368 8.77094 58.7899C10.8847 59.2117 13.0757 58.9952 15.0668 58.1677C17.058 57.3402 18.7598 55.9389 19.9572 54.141C21.1545 52.3431 21.7936 50.2293 21.7936 48.067C21.7904 45.1683 20.6413 42.3894 18.5985 40.3397C16.5556 38.2901 13.7858 37.1372 10.8968 37.134ZM10.8968 56.8551C9.16442 56.8551 7.47094 56.3397 6.03052 55.3741C4.5901 54.4084 3.46742 53.0359 2.80447 51.4301C2.14152 49.8242 1.96806 48.0572 2.30603 46.3525C2.644 44.6477 3.47822 43.0818 4.7032 41.8528C5.92818 40.6237 7.4889 39.7867 9.18799 39.4477C10.8871 39.1086 12.6482 39.2826 14.2488 39.9478C15.8493 40.6129 17.2172 41.7393 18.1797 43.1845C19.1422 44.6297 19.6559 46.3288 19.6559 48.067C19.6535 50.397 18.7299 52.6309 17.0878 54.2785C15.4456 55.9261 13.2191 56.8527 10.8968 56.8551Z" fill="#6D91EE"/>
<path id="Vector_3" d="M10.8968 45.1683C10.3254 45.1683 9.76687 45.3383 9.29178 45.6568C8.81668 45.9753 8.44639 46.428 8.22773 46.9577C8.00906 47.4873 7.95185 48.0702 8.06333 48.6324C8.1748 49.1947 8.44995 49.7112 8.85399 50.1166C9.25802 50.5219 9.7728 50.798 10.3332 50.9098C10.8936 51.0217 11.4745 50.9643 12.0024 50.7449C12.5303 50.5255 12.9815 50.154 13.299 49.6773C13.6164 49.2006 13.7858 48.6402 13.7858 48.0669C13.785 47.2984 13.4804 46.5616 12.9388 46.0182C12.3972 45.4748 11.6628 45.1691 10.8968 45.1683ZM10.8968 48.8207C10.7476 48.8207 10.6018 48.7763 10.4778 48.6932C10.3537 48.61 10.257 48.4918 10.1999 48.3535C10.1428 48.2152 10.1279 48.0631 10.157 47.9163C10.1861 47.7695 10.258 47.6346 10.3635 47.5288C10.4689 47.4229 10.6033 47.3508 10.7497 47.3216C10.896 47.2924 11.0477 47.3074 11.1855 47.3647C11.3233 47.422 11.4411 47.519 11.524 47.6434C11.6069 47.7679 11.6511 47.9142 11.6511 48.0639C11.6511 48.2646 11.5717 48.4571 11.4302 48.5991C11.2887 48.741 11.0969 48.8207 10.8968 48.8207Z" fill="#6D91EE"/>
<path id="Vector_4" d="M57.3284 37.134C55.1733 37.134 53.0665 37.7752 51.2745 38.9765C49.4825 40.1778 48.0859 41.8853 47.2611 43.8831C46.4364 45.8808 46.2206 48.0791 46.641 50.1999C47.0615 52.3207 48.0993 54.2688 49.6232 55.7978C51.1472 57.3268 53.0888 58.368 55.2026 58.7899C57.3164 59.2117 59.5073 58.9952 61.4985 58.1677C63.4896 57.3402 65.1914 55.9389 66.3888 54.141C67.5862 52.3431 68.2252 50.2293 68.2252 48.067C68.222 45.1683 67.073 42.3894 65.0301 40.3397C62.9873 38.2901 60.2175 37.1372 57.3284 37.134ZM57.3284 56.8551C55.5957 56.8569 53.9013 56.343 52.4597 55.3785C51.0181 54.4139 49.894 53.042 49.2297 51.4364C48.5653 49.8307 48.3906 48.0634 48.7275 46.3581C49.0645 44.6527 49.898 43.086 51.1226 41.856C52.3472 40.6261 53.9079 39.7882 55.6072 39.4483C57.3066 39.1085 59.0682 39.282 60.6693 39.9469C62.2703 40.6118 63.6388 41.7382 64.6017 43.1836C65.5645 44.629 66.0785 46.3284 66.0785 48.067C66.0761 50.3954 65.1537 52.628 63.5136 54.2753C61.8734 55.9226 59.6492 56.8503 57.3284 56.8551Z" fill="#6D91EE"/>
<path id="Vector_5" d="M57.3285 45.1683C56.7571 45.1683 56.1985 45.3383 55.7234 45.6568C55.2483 45.9753 54.878 46.428 54.6594 46.9577C54.4407 47.4873 54.3835 48.0702 54.495 48.6324C54.6064 49.1947 54.8816 49.7112 55.2856 50.1166C55.6897 50.5219 56.2044 50.798 56.7648 50.9098C57.3253 51.0217 57.9061 50.9643 58.434 50.7449C58.9619 50.5255 59.4131 50.154 59.7306 49.6773C60.048 49.2006 60.2175 48.6402 60.2175 48.0669C60.2167 47.2984 59.912 46.5616 59.3704 46.0182C58.8288 45.4748 58.0944 45.1691 57.3285 45.1683ZM57.3285 48.8207C57.1793 48.8207 57.0334 48.7763 56.9094 48.6932C56.7853 48.61 56.6887 48.4918 56.6316 48.3535C56.5745 48.2152 56.5595 48.0631 56.5886 47.9163C56.6178 47.7695 56.6896 47.6346 56.7951 47.5288C56.9006 47.4229 57.035 47.3508 57.1813 47.3216C57.3276 47.2924 57.4793 47.3074 57.6171 47.3647C57.755 47.422 57.8728 47.519 57.9557 47.6434C58.0385 47.7679 58.0828 47.9142 58.0828 48.0639C58.0828 48.2646 58.0033 48.4571 57.8618 48.5991C57.7204 48.741 57.5285 48.8207 57.3285 48.8207Z" fill="#6D91EE"/>
<path id="Vector_6" d="M44.7458 43.576H23.352C23.2082 43.5706 23.0649 43.5943 22.9305 43.6458C22.7961 43.6972 22.6734 43.7753 22.5698 43.8755C22.4662 43.9756 22.3838 44.0956 22.3275 44.2284C22.2712 44.3613 22.2422 44.5041 22.2422 44.6484C22.2422 44.7927 22.2712 44.9356 22.3275 45.0684C22.3838 45.2012 22.4662 45.3213 22.5698 45.4214C22.6734 45.5215 22.7961 45.5996 22.9305 45.6511C23.0649 45.7025 23.2082 45.7262 23.352 45.7208H44.7458C44.8895 45.7262 45.0329 45.7025 45.1673 45.6511C45.3017 45.5996 45.4243 45.5215 45.5279 45.4214C45.6315 45.3213 45.714 45.2012 45.7703 45.0684C45.8265 44.9356 45.8556 44.7927 45.8556 44.6484C45.8556 44.5041 45.8265 44.3613 45.7703 44.2284C45.714 44.0956 45.6315 43.9756 45.5279 43.8755C45.4243 43.7753 45.3017 43.6972 45.1673 43.6458C45.0329 43.5943 44.8895 43.5706 44.7458 43.576Z" fill="#6D91EE"/>
<path id="Vector_7" d="M8.83586 12.1529H9.18586L12.5214 35.5961C12.5315 35.7433 12.5718 35.8868 12.6397 36.0177C12.7075 36.1486 12.8016 36.264 12.9159 36.3568C13.0302 36.4496 13.1624 36.5177 13.3042 36.5569C13.4459 36.5961 13.5942 36.6056 13.7398 36.5847C13.8853 36.5639 14.0251 36.5131 14.1502 36.4356C14.2753 36.3582 14.3832 36.2556 14.4671 36.1344C14.551 36.0133 14.609 35.876 14.6377 35.7313C14.6663 35.5866 14.6649 35.4375 14.6335 35.2934L11.3462 12.1529H53.2724L49.7 37.0174C49.6686 37.1616 49.6672 37.3106 49.6958 37.4554C49.7245 37.6001 49.7825 37.7373 49.8664 37.8585C49.9503 37.9797 50.0581 38.0822 50.1833 38.1597C50.3084 38.2371 50.4481 38.2879 50.5937 38.3088C50.7393 38.3296 50.8876 38.3201 51.0293 38.2809C51.1711 38.2417 51.3032 38.1736 51.4176 38.0808C51.5319 37.988 51.626 37.8726 51.6938 37.7417C51.7617 37.6109 51.8019 37.4673 51.8121 37.3202L55.4328 12.1499H55.7843C56.0677 12.1495 56.3394 12.0363 56.5396 11.8351C56.7399 11.6338 56.8524 11.3611 56.8524 11.0767V9.58279C56.8512 8.31486 56.3487 7.09919 55.4553 6.2025C54.5618 5.3058 53.3503 4.8013 52.0866 4.7997H38.3581C38.0354 3.43285 37.2624 2.21525 36.1643 1.34395C35.0661 0.47266 33.7071 -0.00134277 32.307 -0.00134277C30.907 -0.00134277 29.5479 0.47266 28.4498 1.34395C27.3516 2.21525 26.5787 3.43285 26.2559 4.7997H12.5275C11.2637 4.8013 10.0523 5.3058 9.15881 6.2025C8.26536 7.09919 7.76292 8.31486 7.76172 9.58279V11.0798C7.76152 11.2206 7.789 11.3601 7.84259 11.4903C7.89618 11.6205 7.97482 11.7389 8.07403 11.8385C8.17323 11.9382 8.29104 12.0173 8.42073 12.0712C8.55042 12.1252 8.68943 12.1529 8.82983 12.1529H8.83586ZM32.3101 2.14478C33.1401 2.14691 33.9499 2.40189 34.6322 2.87598C35.3146 3.35008 35.8374 4.02092 36.1314 4.7997H28.4887C28.7827 4.02092 29.3055 3.35008 29.9879 2.87598C30.6703 2.40189 31.48 2.14691 32.3101 2.14478ZM9.90548 9.58279C9.90627 8.88372 10.1834 8.21352 10.6761 7.71921C11.1688 7.22489 11.8367 6.94684 12.5335 6.94603H52.0866C52.7835 6.94724 53.4515 7.22563 53.9441 7.72018C54.4368 8.21474 54.7138 8.8851 54.7146 9.5843V10.0081H9.90849L9.90548 9.58279Z" fill="#6D91EE"/>
<path id="Vector_8" d="M30.5844 34.8893C30.8681 34.8893 31.1402 34.7762 31.3407 34.5749C31.5413 34.3737 31.654 34.1007 31.654 33.8161C31.654 33.5315 31.5413 33.2585 31.3407 33.0572C31.1402 32.856 30.8681 32.7429 30.5844 32.7429H24.6314L26.2909 29.8458L26.6228 31.0492C26.6851 31.2754 26.8196 31.4748 27.0057 31.617C27.1918 31.7591 27.4193 31.8361 27.6532 31.8363C27.75 31.8364 27.8465 31.8232 27.9398 31.7969C28.075 31.7593 28.2016 31.6953 28.3122 31.6086C28.4228 31.5219 28.5152 31.4142 28.5843 31.2916C28.6534 31.169 28.6977 31.034 28.7147 30.8942C28.7317 30.7544 28.7212 30.6127 28.6835 30.477L27.6848 26.8579C27.6543 26.7111 27.5931 26.5724 27.5052 26.4511C27.4173 26.3297 27.3047 26.2285 27.1749 26.1541C27.0264 26.0691 26.8599 26.0209 26.6891 26.0133H26.6303C26.5371 26.0135 26.4443 26.0257 26.3542 26.0496L22.6868 27.0683C22.4378 27.1379 22.2224 27.2955 22.0803 27.5121C21.9382 27.7287 21.8791 27.9896 21.9139 28.2465C21.9486 28.5034 22.0749 28.7391 22.2694 28.9098C22.4639 29.0805 22.7135 29.1748 22.9719 29.1753C23.0683 29.1755 23.1643 29.1623 23.257 29.1359L24.4156 28.815L21.851 33.2803C21.7575 33.4436 21.7086 33.6287 21.709 33.817C21.7094 34.0053 21.7592 34.1901 21.8534 34.353C21.9475 34.5159 22.0828 34.6511 22.2455 34.7449C22.4082 34.8388 22.5926 34.888 22.7803 34.8877L30.5844 34.8893Z" fill="#6D91EE"/>
<path id="Vector_9" d="M42.1409 34.8923C42.3283 34.8921 42.5124 34.8424 42.6747 34.7484C42.837 34.6543 42.9718 34.5191 43.0656 34.3563C43.1594 34.1935 43.2089 34.0088 43.2092 33.8208C43.2095 33.6327 43.1605 33.4479 43.0672 33.2848L39.1764 26.4992C39.1065 26.3771 39.0133 26.2701 38.9021 26.1842C38.791 26.0983 38.664 26.0352 38.5286 25.9985C38.3931 25.9618 38.2518 25.9523 38.1126 25.9704C37.9735 25.9885 37.8392 26.034 37.7176 26.1041C37.596 26.1743 37.4893 26.2678 37.4037 26.3794C37.318 26.4909 37.2552 26.6182 37.2186 26.7542C37.182 26.8901 37.1725 27.0319 37.1906 27.1715C37.2086 27.3111 37.2539 27.4458 37.3239 27.5678L40.2913 32.746H36.9618L37.8368 31.8559C37.9358 31.7557 38.0142 31.6368 38.0675 31.5061C38.1208 31.3754 38.1479 31.2355 38.1472 31.0943C38.1466 30.9531 38.1183 30.8134 38.0638 30.6833C38.0094 30.5531 37.9299 30.4349 37.83 30.3355C37.7301 30.2361 37.6116 30.1575 37.4813 30.104C37.3511 30.0506 37.2116 30.0234 37.0709 30.024C36.9302 30.0246 36.791 30.0531 36.6612 30.1077C36.5314 30.1623 36.4136 30.242 36.3146 30.3423L33.6866 33.0139C33.575 33.1141 33.4858 33.2368 33.4247 33.374C33.3636 33.5112 33.332 33.6598 33.332 33.8101C33.3316 33.9792 33.372 34.1459 33.4497 34.2959C33.4526 34.3043 33.4561 34.3124 33.4603 34.3201L33.4754 34.3429C33.5226 34.4287 33.5821 34.5073 33.6519 34.5759L36.3583 37.2657C36.5602 37.4664 36.8333 37.5784 37.1174 37.5772C37.4016 37.5759 37.6737 37.4614 37.8737 37.2589C38.0738 37.0563 38.1855 36.7824 38.1842 36.4972C38.1829 36.2121 38.0688 35.9391 37.867 35.7384L37.0116 34.8908L42.1409 34.8923Z" fill="#6D91EE"/>
<path id="Vector_10" d="M31.6063 22.4911C31.5352 22.7665 31.576 23.0589 31.7197 23.3041C31.8634 23.5494 32.0983 23.7273 32.3727 23.7989L35.9934 24.7404C36.1358 24.7881 36.2867 24.8048 36.436 24.7894C36.5853 24.774 36.7296 24.7268 36.8594 24.6511C36.9974 24.5707 37.1159 24.4606 37.2063 24.3287C37.2095 24.3216 37.2135 24.315 37.2184 24.309C37.247 24.2661 37.2722 24.2211 37.2938 24.1743L37.3074 24.1425C37.3276 24.0959 37.3442 24.0478 37.3572 23.9987C37.3572 23.9987 37.3572 23.9987 37.3572 23.9896L38.3167 20.2933C38.3565 20.1555 38.3684 20.0111 38.3516 19.8686C38.3348 19.7261 38.2897 19.5884 38.219 19.4637C38.1482 19.339 38.0533 19.2298 37.9398 19.1426C37.8262 19.0553 37.6964 18.9918 37.558 18.9558C37.4196 18.9197 37.2754 18.9119 37.1339 18.9328C36.9924 18.9536 36.8565 19.0027 36.7343 19.0772C36.612 19.1517 36.5059 19.25 36.4222 19.3663C36.3385 19.4826 36.2788 19.6146 36.2469 19.7544L35.9451 20.923L33.3729 16.4623C33.2792 16.2995 33.1444 16.1644 32.982 16.0705C32.8197 15.9767 32.6355 15.9276 32.4481 15.928C32.2605 15.9281 32.0761 15.9776 31.9136 16.0716C31.751 16.1657 31.6159 16.3009 31.5218 16.4638L27.6175 23.2403C27.5432 23.3624 27.4941 23.4982 27.4728 23.6397C27.4516 23.7811 27.4588 23.9254 27.494 24.064C27.5291 24.2026 27.5915 24.3328 27.6776 24.4469C27.7636 24.5609 27.8714 24.6566 27.9948 24.7282C28.1182 24.7999 28.2547 24.846 28.3961 24.864C28.5375 24.882 28.6811 24.8714 28.8184 24.8329C28.9557 24.7944 29.084 24.7288 29.1956 24.6398C29.3073 24.5509 29.4001 24.4405 29.4686 24.315L32.4481 19.1429L34.1167 22.0355L32.9098 21.7222C32.6353 21.6508 32.3438 21.6918 32.0994 21.8359C31.855 21.9801 31.6776 22.2158 31.6063 22.4911Z" fill="#6D91EE"/>
</g>
</g>
</g>
</g>
<defs>
<clipPath id="clip0_20_65">
<rect width="83" height="59" fill="white"/>
</clipPath>
</defs>
</svg>
