<svg width="20" height="20" viewBox="0 0 20 20" fill="none" xmlns="http://www.w3.org/2000/svg">
<g id="Social/Facebook">
<path id="Path" d="M12.7467 18.3327V12.3116H14.9907L15.3267 9.70609H12.7467V8.04262C12.7467 7.28826 12.9561 6.77418 14.0379 6.77418L15.4176 6.77358V4.44317C15.179 4.41142 14.36 4.34048 13.4071 4.34048C11.4179 4.34048 10.056 5.55472 10.056 7.78458V9.70609H7.80617V12.3116H10.056V18.3327H3.66797C2.5634 18.3327 1.66797 17.4373 1.66797 16.3327L1.66797 3.66601C1.66797 2.56145 2.5634 1.66602 3.66797 1.66602L16.3346 1.66602C17.4392 1.66602 18.3346 2.56145 18.3346 3.66602V16.3327C18.3346 17.4373 17.4392 18.3327 16.3346 18.3327H12.7467Z" fill="#6E38F7"/>
</g>
</svg>
