<svg width="171" height="25" viewBox="0 0 171 25" fill="none" xmlns="http://www.w3.org/2000/svg">
<g id="logo">
<path id="Shape" fill-rule="evenodd" clip-rule="evenodd" d="M15.5712 23.4393C16.5809 21.5846 18.5868 17.5344 20.1048 14.4363L20.4157 14.536C21.8285 17.6135 23.6621 21.5806 24.5638 23.4195C25.3139 24.9517 26.1668 25.1016 27.0341 23.4661C29.3001 18.4776 35.9224 3.46825 35.9224 3.46825C36.2096 2.73115 36.6096 2.16382 37.1225 1.75212C37.634 1.34325 38.4241 1.11406 39.49 1.06737C39.7071 1.06737 39.8172 0.971167 39.8172 0.780172V0.075612L39.7343 0.00345835H31.599L31.4961 0.075612V0.780172C31.4961 0.863644 31.5347 0.932968 31.609 0.985314C31.6847 1.04049 31.7633 1.0702 31.8461 1.0702L32.5219 1.10416C33.3563 1.13811 33.5835 1.30222 33.9064 1.57952C34.2279 1.86389 34.2664 2.34775 34.0164 3.02967L26.8155 19.9518L26.5383 19.8768L21.9668 10.6152L22.072 10.3978L25.8125 3.47108C26.2483 2.73964 26.6683 2.08743 26.8812 1.78325C27.2713 1.22724 27.4899 1.12255 28.5557 1.07303C28.7729 1.07303 28.8829 0.976826 28.8829 0.783001V0.0812711L28.8015 0.0062879C28.8015 0.0062879 24.2251 -0.00785988 22.1877 0.0062879L22.0863 0.0784416V0.780172C22.0863 0.866473 22.1234 0.934382 22.1977 0.986729C22.2735 1.04191 22.3506 1.0702 22.4335 1.0702L22.7607 1.10557C23.5936 1.13953 23.9765 1.35599 24.0908 1.49181C24.2894 1.73232 24.388 1.99264 23.9065 3.0325L21.0291 8.71539L18.4273 3.4442C17.5729 1.7592 17.3628 1.23856 18.6487 1.13953L19.1574 1.06737C19.4045 1.06737 19.526 0.98107 19.526 0.812711V0.075612L19.3402 0.0147766C19.3402 0.0147766 14.4982 0.0147766 12.3222 0.0176061L12.2207 0.0897598V0.829689C12.2207 0.995218 12.395 1.03766 12.7322 1.08152C13.8486 1.22707 13.9081 1.34467 14.8596 3.22314C14.9347 3.3714 15.0154 3.53062 15.1025 3.70169C15.2811 4.05255 15.8055 5.10798 15.8055 5.10798L18.5173 10.3851C18.5173 10.3851 18.8249 11.0609 19.3072 12.1161L15.3626 19.9066L15.1383 19.8486C15.1383 19.8486 9.0189 7.07169 7.24724 2.79765C7.06293 2.35482 6.98006 2.02659 6.98006 1.82428C6.98006 1.38994 7.37583 1.15509 8.16736 1.12255L9.09033 1.08435C9.33465 1.08435 9.45895 0.990974 9.45895 0.797149V0.0954189L9.37609 0.0232652C9.37609 0.0232652 2.04657 0.0147766 0.532087 0.0232652L0.449219 0.0954189V0.832518C0.449219 0.965508 0.619241 1.04756 0.960713 1.08435C1.89083 1.13387 2.50234 1.281 2.79666 1.52576C3.08956 1.77335 3.3996 2.39868 3.81108 3.37346C4.96222 6.11151 6.78326 9.96107 8.59159 13.7838L8.5916 13.7838L8.59161 13.7838C10.2779 17.3484 11.953 20.8897 13.0637 23.4845C13.7266 24.9531 14.5596 25.1809 15.5712 23.4393ZM45.0564 23.3841L44.2763 23.3091C43.0876 23.1987 42.7161 22.7206 42.7161 21.9113V9.66215C42.7161 8.92505 43.1247 8.62936 44.2763 8.52042L45.0564 8.44544C45.205 8.44544 45.2793 8.37187 45.2793 8.26152V7.45227L45.2421 7.3787C45.2421 7.3787 42.3818 7.45227 41.3788 7.45227C40.2272 7.45227 37.2925 7.3787 37.2925 7.3787L37.2554 7.45227V8.29972C37.2554 8.4129 37.3668 8.44685 37.5154 8.44685L38.2584 8.52325C39.4085 8.63078 39.8557 8.85431 39.8557 9.66215V21.9113C39.8557 22.6102 39.4843 23.1987 38.2584 23.3091L37.5154 23.3841C37.3668 23.3841 37.2554 23.4562 37.2554 23.6034V24.3758L37.3297 24.4508C37.3297 24.4508 40.2272 24.3758 41.2673 24.3758C42.4189 24.3758 45.2421 24.4508 45.2421 24.4508L45.2793 24.3758V23.6034C45.2793 23.4562 45.1679 23.3841 45.0564 23.3841ZM55.2392 23.3091L55.6478 23.3841C55.7592 23.4195 55.8707 23.4562 55.8707 23.6034V24.3758L55.8335 24.4508C55.8335 24.4508 53.4932 24.3758 52.3788 24.3758C51.3386 24.3758 48.2925 24.4508 48.2925 24.4508L48.2182 24.3758V23.6034C48.2182 23.4562 48.3297 23.3841 48.4783 23.3841L49.2212 23.3091C50.3357 23.1987 50.8186 22.6102 50.8186 21.9113V9.66215C50.8186 8.85431 50.41 8.63078 49.2212 8.52325L48.4783 8.44685C48.3297 8.44685 48.2182 8.4129 48.2182 8.29972V7.45227L48.2554 7.3787C48.2554 7.3787 51.3015 7.45227 52.4531 7.45227C53.4946 7.45227 55.8335 7.3787 55.8335 7.3787L55.8707 7.45227V8.26152C55.8707 8.37187 55.7964 8.40866 55.6478 8.44544L55.2392 8.52042C54.0876 8.73971 53.679 8.92505 53.679 9.66215V15.2166C54.9048 15.2166 55.6106 14.5927 57.2451 12.8624C58.731 11.2425 59.8826 9.88427 59.8826 9.18395C59.8826 8.88827 59.5483 8.55862 58.8053 8.44685C58.6567 8.41149 58.5824 8.37329 58.5824 8.26293V7.41548L58.6196 7.38011C58.6196 7.38011 61.6286 7.45368 62.7058 7.45368C63.6717 7.45368 65.3062 7.38011 65.3062 7.38011L65.4176 7.41548V8.26293C65.4176 8.37329 65.3062 8.44685 65.1204 8.44685L65.1117 8.44752C63.6676 8.55751 62.666 8.6338 61.3314 10.1389L58.1367 13.7792C57.5052 14.4427 57.2823 14.8459 57.2823 15.1416C57.2823 15.3623 57.4309 15.5448 57.6166 15.7655L63.2259 22.4602C63.6717 22.9738 64.5632 23.1959 65.3062 23.3416L65.4919 23.377C65.6033 23.4138 65.7519 23.4874 65.7519 23.5977V24.3702L65.6405 24.407C65.6405 24.407 63.6717 24.3702 62.6315 24.3702C61.7028 24.3702 60.3655 24.407 60.3655 24.407L60.3284 24.3702V23.9288C60.3284 23.4492 60.2912 23.0474 59.7712 22.4588L55.6478 17.3812C55.0906 16.6441 54.4962 16.463 53.679 16.463V21.9113C53.679 22.7206 54.1619 23.1252 55.2392 23.3091ZM76.0461 23.3841L75.266 23.3091C74.0773 23.1987 73.7058 22.7206 73.7058 21.9113V9.66215C73.7058 8.92505 74.1145 8.62936 75.266 8.52042L76.0461 8.44544C76.1947 8.44544 76.269 8.37187 76.269 8.26152V7.45227L76.2319 7.3787C76.2319 7.3787 73.3715 7.45227 72.3685 7.45227C71.2169 7.45227 68.2823 7.3787 68.2823 7.3787L68.2451 7.45227V8.29972C68.2451 8.4129 68.3566 8.44685 68.5052 8.44685L69.2481 8.52325C70.3997 8.63078 70.8455 8.85431 70.8455 9.66215V21.9113C70.8455 22.6102 70.474 23.1987 69.2481 23.3091L68.5052 23.3841C68.3566 23.3841 68.2451 23.4562 68.2451 23.6034V24.3758L68.3194 24.4508C68.3194 24.4508 71.2169 24.3758 72.2571 24.3758C73.4086 24.3758 76.2319 24.4508 76.2319 24.4508L76.269 24.3758V23.6034C76.269 23.4562 76.1576 23.3841 76.0461 23.3841ZM79.5037 8.44685C79.2808 8.44685 79.2437 8.33792 79.2437 8.26293V7.4169L79.318 7.38011C79.5511 7.38011 80.0702 7.39299 80.6742 7.40796C81.5139 7.42879 82.5176 7.45368 83.1442 7.45368C83.6281 7.45368 84.2085 7.43776 84.8292 7.42073C85.5427 7.40115 86.3097 7.38011 87.0447 7.38011C92.3168 7.38011 93.2826 9.95359 93.2826 11.8692C93.2826 14.0777 92.2054 17.534 86.9333 17.534C86.0046 17.534 85.2616 17.459 84.5915 17.1661V22.0924C84.5915 22.9016 85.0373 23.087 86.2274 23.2695L86.9718 23.3798C87.1204 23.4166 87.2319 23.4548 87.2319 23.6005V24.373L87.1961 24.4466C87.1961 24.4466 84.2243 24.373 83.0728 24.373C82.0326 24.373 79.2465 24.4466 79.2465 24.4466L79.2094 24.373V23.6005C79.2094 23.4534 79.2837 23.4166 79.4323 23.3798L80.2124 23.2695C81.364 23.1224 81.7354 22.7913 81.7354 22.0924L81.7326 9.7343C81.7326 8.59399 81.2497 8.55721 79.5037 8.44685ZM90.3108 12.3106C90.3108 15.1402 89.2378 16.4672 87.0075 16.4672C86.2646 16.4672 85.3359 16.4319 84.5929 16.1362L84.5915 9.73572C84.5915 8.77933 85.0373 8.44827 86.8218 8.44827C88.8621 8.44827 90.3108 9.14717 90.3108 12.3106ZM96.0044 24.4508L95.9658 24.3758V23.5666C95.9658 23.4944 96.0044 23.3841 96.1887 23.3841L97.0446 23.3091C98.1976 23.1987 98.5319 22.4631 98.5319 21.7288V9.59C98.5319 8.74113 98.0847 8.59541 97.0446 8.52325L96.1887 8.44685C95.9658 8.4129 95.9658 8.33792 95.9658 8.29972V7.45227L96.0044 7.3787C96.0044 7.3787 98.9005 7.45227 100.015 7.45227H105.476C106.59 7.45227 109.229 7.3787 109.229 7.3787L109.305 7.45227C109.34 9.03399 109.6 10.4714 109.862 11.8678L108.935 12.0149C108.527 10.6525 107.822 8.70434 105.444 8.70434H102.472C101.767 8.70434 101.395 8.96183 101.395 9.58575V14.9209H104.18C105.221 14.9209 105.48 14.4795 105.63 13.7438L105.851 12.9713C105.851 12.861 105.927 12.786 106.074 12.786H106.704C106.78 12.786 106.78 12.8242 106.78 12.8963C106.76 13.1106 106.735 13.3405 106.709 13.5791L106.709 13.5796C106.637 14.2418 106.557 14.9709 106.557 15.6198C106.557 16.2319 106.623 16.7799 106.689 17.3279C106.722 17.6019 106.755 17.8759 106.78 18.1579L106.704 18.2329H106.074C105.89 18.2329 105.813 18.1579 105.813 18.0475L105.627 17.2397C105.479 16.5026 105.144 16.098 104.175 16.098H101.392V21.7274C101.392 22.4249 101.798 23.1238 102.47 23.1238H105.999C107.893 23.1238 108.935 21.9467 109.379 20.0325L110.306 20.1428L109.562 24.3716L109.488 24.4452C109.488 24.4452 107.296 24.3716 106.181 24.3716L99.6806 24.3758C98.5662 24.3758 96.0044 24.4508 96.0044 24.4508ZM115.993 21.7288C115.993 22.8677 115.621 23.1987 114.505 23.3091L113.651 23.3841C113.504 23.3841 113.428 23.4944 113.431 23.6005V24.373L113.468 24.4466C113.468 24.4466 116.291 24.373 117.407 24.373C117.849 24.373 118.312 24.3838 118.884 24.3972C119.802 24.4186 120.998 24.4466 122.829 24.4466C126.951 24.4466 131.559 22.5366 131.559 16.098C131.559 11.2057 128.511 7.38011 122.308 7.38011C121.787 7.38011 120.605 7.40154 119.517 7.42126C118.588 7.43809 117.728 7.45368 117.404 7.45368C116.734 7.45368 113.464 7.38011 113.464 7.38011L113.428 7.45368V8.26293C113.428 8.37329 113.542 8.44685 113.691 8.44685L114.505 8.52325L114.59 8.53063C115.742 8.6313 115.993 8.65321 115.993 9.59V21.7288ZM121.936 23.3841C126.021 23.3841 128.327 21.8773 128.327 16.7247C128.327 12.9006 127.471 8.44685 121.231 8.44685C119.782 8.44685 118.853 8.66756 118.853 9.59V21.7288C118.853 22.7559 119.112 23.3841 121.936 23.3841ZM142.669 23.3841L141.889 23.3091C140.7 23.1987 140.329 22.7206 140.329 21.9113L140.326 9.66215C140.326 8.92505 140.734 8.62936 141.886 8.52042L142.666 8.44544C142.813 8.44544 142.889 8.37187 142.889 8.26152V7.45227L142.853 7.3787C142.853 7.3787 139.992 7.45227 138.989 7.45227C137.84 7.45227 134.905 7.3787 134.905 7.3787L134.868 7.45227V8.29972C134.868 8.4129 134.979 8.44685 135.128 8.44685L135.872 8.52325C137.023 8.63078 137.47 8.85431 137.47 9.66215V21.9113C137.47 22.6102 137.097 23.1987 135.872 23.3091L135.128 23.3841C134.979 23.3841 134.868 23.4562 134.868 23.6034V24.3758L134.944 24.4508C134.944 24.4508 137.84 24.3758 138.881 24.3758C140.032 24.3758 142.855 24.4508 142.855 24.4508L142.892 24.3758V23.6034C142.892 23.4562 142.78 23.3841 142.669 23.3841ZM151.773 23.3091L152.85 23.3841C152.999 23.3841 153.148 23.4944 153.148 23.6769V24.3758L153.073 24.4508C153.073 24.4508 149.024 24.3758 148.133 24.3758C147.165 24.3758 144.788 24.4508 144.788 24.4508L144.712 24.3758V23.6769C144.712 23.4944 144.824 23.3841 145.011 23.3841C146.647 23.2737 147.573 22.978 148.613 20.6239L156.858 1.49463C157.265 0.538245 157.564 0.168987 158.122 0.168987C158.641 0.168987 158.828 0.538245 159.124 1.27393L166.739 21.211C167.261 22.647 168.004 23.1973 169.49 23.3445L169.898 23.3798C170.084 23.3798 170.27 23.4902 170.27 23.6755V24.373L170.158 24.4466C170.158 24.4466 167.298 24.373 165.849 24.373C164.549 24.373 160.907 24.4466 160.907 24.4466L160.871 24.373V23.6755C160.871 23.4902 160.946 23.3798 161.134 23.3798L162.174 23.3063C163.585 23.1973 164.107 22.7531 163.735 21.7245L161.469 15.5066H153.742C152.85 15.5066 152.627 15.6537 152.443 16.1305L150.287 21.4656C149.916 22.3881 150.399 23.1987 151.773 23.3091ZM157.271 4.1431L160.874 13.9631V13.9645H154.409C153.592 13.9645 153.333 13.8556 153.482 13.4863L157.197 4.1431H157.271Z" fill="#CAD1E1"/>
</g>
</svg>
