<svg width="116" height="36" viewBox="0 0 116 36" fill="none" xmlns="http://www.w3.org/2000/svg">
<g id="logo">
<path id="Combined Shape" fill-rule="evenodd" clip-rule="evenodd" d="M10.5574 12.0765C10.5574 12.0134 10.5573 11.9498 10.5573 11.8857V11.1076C7.9671 11.1076 5.23077 11.6634 5.23077 14.7254C5.23077 16.2766 6.03202 17.3275 7.40774 17.3275C8.4156 17.3275 9.31763 16.706 9.88707 15.6955C10.5603 14.5094 10.559 13.3924 10.5574 12.0765ZM13.3239 20.728C13.5909 20.8695 13.9336 20.8543 14.1705 20.6421L14.1805 20.6522C14.8961 20.0156 16.1963 18.8787 16.9269 18.2673C17.2192 18.0248 17.1688 17.6357 16.937 17.3124C16.8668 17.2149 16.7961 17.1193 16.7259 17.0244C16.1408 16.2339 15.5865 15.4848 15.5865 13.9826V8.38418C15.5865 8.19293 15.5876 8.00294 15.5887 7.81438C15.6009 5.6665 15.6121 3.70501 14.0092 2.20468C12.6335 0.880868 10.3557 0.416016 8.61213 0.416016C5.20558 0.416016 1.40092 1.68931 0.599674 5.91339C0.519045 6.36308 0.84156 6.60057 1.13384 6.66625L4.61094 7.04015C4.93346 7.025 5.1703 6.70667 5.23077 6.3833C5.52809 4.92811 6.7476 4.22578 8.11324 4.22578C8.84898 4.22578 9.6855 4.49863 10.1239 5.16054C10.5716 5.82253 10.5648 6.70425 10.5587 7.49532C10.558 7.58579 10.5573 7.67507 10.5573 7.7627V8.22755C10.2219 8.26591 9.86972 8.30204 9.50682 8.33927C7.62356 8.53247 5.45067 8.75538 3.81977 9.47557C1.5773 10.4457 0 12.4314 0 15.3469C0 19.0808 2.3483 20.9453 5.36179 20.9453C7.91167 20.9453 9.30251 20.344 11.2678 18.333C11.3715 18.4826 11.4641 18.62 11.5512 18.7493C12.0144 19.4367 12.3228 19.8944 13.3239 20.728ZM57.5285 11.8857L57.5286 12.0765C57.5301 13.3924 57.5314 14.5094 56.8582 15.6955C56.2888 16.706 55.3817 17.3275 54.3789 17.3275C53.0032 17.3275 52.1969 16.2766 52.1969 14.7254C52.1969 11.6634 54.9332 11.1076 57.5285 11.1076V11.8857ZM61.1416 20.6421C60.9048 20.8543 60.5621 20.8695 60.295 20.728C59.2829 19.8852 58.9752 19.4266 58.5052 18.7263L58.5051 18.726C58.4229 18.6035 58.3357 18.4737 58.239 18.333C56.2737 20.344 54.8778 20.9453 52.3329 20.9453C49.3144 20.9453 46.9712 19.0808 46.9712 15.3469C46.9712 12.4314 48.5434 10.4457 50.7909 9.47557C52.4218 8.75538 54.5947 8.53247 56.478 8.33927L56.478 8.33926C56.8409 8.30204 57.193 8.26591 57.5285 8.22755V7.7627C57.5285 7.67593 57.5291 7.58755 57.5298 7.498V7.49747C57.5359 6.70584 57.5427 5.82313 57.09 5.16054C56.6567 4.49863 55.8201 4.22578 55.0794 4.22578C53.7137 4.22578 52.4992 4.92811 52.2019 6.3833C52.1415 6.70667 51.9046 7.025 51.5771 7.04015L48.105 6.66625C47.8127 6.60057 47.4852 6.36308 47.5708 5.91339C48.367 1.68931 52.1767 0.416016 55.5833 0.416016C57.3269 0.416016 59.6046 0.880868 60.9804 2.20468C62.5832 3.70501 62.5721 5.66651 62.5598 7.81439C62.5587 8.00295 62.5577 8.19294 62.5577 8.38418V13.9826C62.5577 15.4848 63.112 16.2339 63.697 17.0244C63.7673 17.1194 63.838 17.2149 63.9082 17.3124C64.1349 17.6357 64.1853 18.0248 63.893 18.2673C63.1624 18.8787 61.8622 20.0156 61.1466 20.6522L61.1416 20.6421ZM20.3738 20.6926H23.9567C24.3397 20.6926 24.6471 20.3945 24.6471 20.0257V10.2537L24.6469 10.0211C24.6433 7.91345 24.6388 5.17064 27.1214 5.17064C29.4065 5.17064 29.3675 7.61097 29.3358 9.59798V9.59802V9.59805V9.59809V9.59812C29.3321 9.82392 29.3286 10.0439 29.3286 10.2537L29.3337 20.0257C29.3337 20.3794 29.6159 20.6674 29.9787 20.6926H33.5566C33.9396 20.6926 34.247 20.3945 34.247 20.0257V10.2537C34.247 10.1721 34.2467 10.0874 34.2465 10.0001V10.0001C34.2439 8.96872 34.2404 7.57899 34.5796 6.72183C34.9474 5.79213 35.8545 5.21106 36.7213 5.21106C37.7593 5.21106 38.5606 5.5597 38.8277 6.79762C38.9656 7.39141 38.9468 8.76432 38.9342 9.68317C38.9311 9.90587 38.9285 10.1019 38.9285 10.2537V20.0257C38.9285 20.3794 39.2157 20.6674 39.5735 20.6926H43.1514C43.5344 20.6926 43.8418 20.3945 43.8418 20.0257L43.8468 8.38923C43.8468 8.10559 43.8516 7.81622 43.8564 7.52402V7.52384V7.52365V7.52346V7.52328C43.8852 5.78048 43.9157 3.9372 42.9448 2.6089C41.9419 1.21435 40.2991 0.592862 38.7974 0.592862C36.686 0.592862 34.7156 1.6792 33.8489 4.00851C32.841 1.6792 31.4401 0.592862 29.1976 0.592862C26.9904 0.592862 25.3526 1.6792 24.4808 4.00851H24.4153V1.59836C24.3901 1.26488 24.113 0.997071 23.7653 0.981923H20.4242C20.0412 0.981923 19.7338 1.27498 19.7338 1.64383V20.0813C19.759 20.4097 20.0311 20.6674 20.3738 20.6926ZM66.9166 4.23588V1.59836C66.9166 1.19919 67.219 0.931395 67.5818 0.931395H79.3586C79.7366 0.931395 80.0389 1.20424 80.0389 1.59836V3.85693C80.0339 4.23588 79.7164 4.73105 79.152 5.51423L73.0494 14.2504C75.3171 14.1948 77.7108 14.5334 79.7668 15.6955C80.2304 15.9582 80.3564 16.3422 80.3917 16.7212V19.5356C80.3917 19.9196 79.9684 20.3693 79.5249 20.1368C75.9017 18.232 71.0892 18.0248 67.0829 20.1571C66.6747 20.3794 66.2464 19.9347 66.2464 19.5507V16.8778C66.2464 16.4483 66.2514 15.7157 66.6798 15.0639L73.7499 4.89779H67.5969C67.219 4.89779 66.9166 4.63 66.9166 4.23588ZM66.8026 24.2959C68.987 24.0361 73.7648 23.4678 74.6167 24.563C75.4779 25.6689 73.6614 30.2166 72.8493 32.2496L72.8479 32.2533C72.6009 32.8697 73.1301 33.1173 73.6844 32.6525C77.2976 29.6259 78.2248 23.2847 77.489 22.3701C76.7533 21.4607 70.4441 20.6775 66.5992 23.3908C66.0045 23.8051 66.1053 24.3811 66.7654 24.3003L66.8026 24.2959ZM46.946 35.3961C55.3414 35.3961 65.0924 32.7434 71.8199 27.7715C72.9335 26.9429 71.9811 25.71 70.8422 26.1951C63.3035 29.4036 55.1046 30.9497 47.6515 30.9497C36.6003 30.9497 25.9019 27.913 17.2495 22.8653C16.4936 22.4207 15.9292 23.1988 16.5591 23.7698C24.5766 31.0305 35.1742 35.3961 46.946 35.3961ZM90.178 0.592862C95.4944 0.592862 98.3718 5.17064 98.3718 10.9914C98.3718 16.6151 95.192 21.0767 90.178 21.0767C84.9573 21.0767 82.1151 16.4989 82.1151 10.7943C82.1151 5.05443 84.9925 0.592862 90.178 0.592862ZM90.2082 4.35715C87.5676 4.35715 87.4013 7.9648 87.4013 10.2133L87.4013 10.296C87.4009 12.5823 87.4 17.277 90.178 17.277C92.9546 17.277 93.0856 13.3965 93.0856 11.0318C93.0856 9.47557 93.0201 7.61617 92.5515 6.14076C92.1483 4.85737 91.3471 4.35715 90.2082 4.35715ZM101.698 20.6926H105.266C105.649 20.6926 105.961 20.3945 105.966 20.0257V10.0971C105.966 8.85409 106.032 7.73238 106.535 6.60562C106.934 5.71634 107.735 5.13022 108.607 5.13022C110.89 5.13022 110.869 7.64381 110.852 9.61617C110.85 9.78083 110.849 9.94172 110.849 10.0971V20.1116C110.884 20.4249 111.156 20.6674 111.484 20.6926H115.077C115.43 20.6926 115.727 20.435 115.767 20.1116V8.50544C115.767 6.72183 115.767 4.24094 114.83 2.76554C113.822 1.17393 112.255 0.592862 110.648 0.592862C108.173 0.592862 106.767 1.79541 105.764 4.31673H105.699V1.4973C105.628 1.2093 105.371 0.997071 105.059 0.981923H101.738C101.375 0.981923 101.078 1.24466 101.048 1.5832L101.053 20.0257C101.053 20.3794 101.34 20.6674 101.698 20.6926Z" fill="#CAD1E1"/>
</g>
</svg>
