<svg width="128" height="42" viewBox="0 0 128 42" fill="none" xmlns="http://www.w3.org/2000/svg">
<g id="logo">
<path id="Combined Shape" fill-rule="evenodd" clip-rule="evenodd" d="M16.6981 14.9196V19.3722L27.2908 19.3675C26.9658 21.8233 26.1416 23.6215 24.8887 24.8801C23.3439 26.4322 20.9323 28.1404 16.6981 28.1404C10.17 28.1404 5.06441 22.8549 5.06441 16.2965C5.06441 9.73817 10.17 4.45268 16.6981 4.45268C20.2211 4.45268 22.7928 5.84385 24.6909 7.63249L27.8183 4.49054C25.1713 1.94953 21.6483 0 16.7028 0C7.76323 0 0.246094 7.31546 0.246094 16.2965C0.246094 25.2776 7.76323 32.5931 16.7028 32.5931C21.5258 32.5931 25.1666 31.0032 28.0162 28.0221C30.9458 25.0789 31.8548 20.948 31.8548 17.6073C31.8548 16.6136 31.7794 15.6956 31.6334 14.9196H16.6981ZM106.051 31.9543V1.19716H101.577V31.9543H106.051ZM54.5946 22.1025C54.5946 28.1451 49.8893 32.5978 44.1149 32.5978C38.3404 32.5978 33.6352 28.1451 33.6352 22.1025C33.6352 16.0173 38.3404 11.6073 44.1149 11.6073C49.8893 11.6073 54.5946 16.0173 54.5946 22.1025ZM50.0071 22.1025C50.0071 18.3265 47.28 15.7429 44.1149 15.7429C40.9498 15.7429 38.2227 18.3265 38.2227 22.1025C38.2227 25.8407 40.9498 28.4621 44.1149 28.4621C47.28 28.4621 50.0071 25.836 50.0071 22.1025ZM77.2025 22.1025C77.2025 28.1451 72.4972 32.5978 66.7228 32.5978C60.9484 32.5978 56.2431 28.1451 56.2431 22.1025C56.2431 16.0221 60.9484 11.6073 66.7228 11.6073C72.4972 11.6073 77.2025 16.0173 77.2025 22.1025ZM72.615 22.1025C72.615 18.3265 69.8879 15.7429 66.7228 15.7429C63.5577 15.7429 60.8306 18.3265 60.8306 22.1025C60.8306 25.8407 63.5577 28.4621 66.7228 28.4621C69.8879 28.4621 72.615 25.836 72.615 22.1025ZM98.8684 31.0836V12.2461H94.5117V13.9543H94.3516C93.3201 12.7192 91.3419 11.6073 88.8503 11.6073C83.6269 11.6073 78.8416 16.2161 78.8416 22.1404C78.8416 28.0221 83.6269 32.5931 88.8503 32.5931C91.3466 32.5931 93.3248 31.4811 94.3516 30.2082H94.5117V31.7177C94.5117 35.735 92.3781 37.8691 88.9351 37.8691C86.1279 37.8691 84.3852 35.8533 83.674 34.1451L79.68 35.8155C80.8292 38.5978 83.8766 42 88.9398 42C94.3186 42 98.8684 38.8344 98.8684 31.0836ZM89.2601 15.7429C92.3828 15.7429 94.8367 18.4448 94.8367 22.1404C94.8367 25.7981 92.3828 28.4621 89.2601 28.4621C86.095 28.4621 83.4432 25.7981 83.4432 22.1404C83.4432 18.4448 86.095 15.7429 89.2601 15.7429ZM127.048 27.9416L123.488 25.5568C122.301 27.3076 120.68 28.4621 118.344 28.4621C116.013 28.4621 114.35 27.388 113.281 25.2823L127.246 19.4716L126.77 18.2792C125.904 15.9369 123.252 11.6025 117.831 11.6025C112.447 11.6025 107.978 15.8565 107.978 22.0978C107.978 27.9842 112.41 32.5931 118.344 32.5931C123.13 32.5931 125.899 29.6498 127.048 27.9416ZM121.863 17.8864L112.527 21.7808C112.41 17.7303 115.655 15.6625 117.986 15.6625C119.804 15.6625 121.349 16.5757 121.863 17.8864Z" fill="#CAD1E1"/>
</g>
</svg>
