<svg width="149" height="38" viewBox="0 0 149 38" fill="none" xmlns="http://www.w3.org/2000/svg">
<g id="logo">
<path id="Combined Shape" fill-rule="evenodd" clip-rule="evenodd" d="M0.574219 13.5795C0.574219 6.50937 5.75972 0 15.5875 0C23.4645 0 29.5883 5.55856 29.613 12.9944C29.613 20.7471 24.6744 26.9639 17.8098 26.9639C15.5134 26.9639 13.3404 25.7693 12.5996 24.3796C12.5996 24.3796 11.4638 28.6705 11.1921 29.7188C10.4267 32.62 7.71045 36.6426 7.48821 36.9352C7.46352 36.9839 7.38944 37.0327 7.31536 37.0327C7.1919 37.0327 7.06844 36.9352 7.06844 36.8133C6.99436 36.3988 6.20419 31.5716 6.89559 28.5973C7.31536 26.842 9.56241 17.4314 9.56241 17.4314C9.09325 16.3831 8.84632 15.2373 8.87101 14.0914C8.87101 10.9708 10.6983 8.63039 12.9947 8.63039C14.9208 8.63039 15.8591 10.0688 15.8591 11.7997C15.8591 12.9914 15.3864 14.5471 14.8856 16.1954C14.577 17.2111 14.2578 18.2619 14.0318 19.2843C13.4886 21.5028 15.1677 23.3313 17.39 23.3313C21.415 23.3313 24.5263 19.138 24.5263 13.0675C24.5263 7.70397 20.6248 3.9495 15.0442 3.9495C8.5747 3.9495 4.772 8.72791 4.772 13.677C4.772 15.603 5.51279 17.6752 6.45111 18.7967C6.59927 18.9917 6.67335 19.2355 6.59927 19.455C6.50951 19.8221 6.3598 20.4063 6.22625 20.9274C6.10264 21.4097 5.99287 21.8381 5.95726 21.9904C5.85849 22.4049 5.63625 22.478 5.19178 22.283C2.3521 20.9665 0.574219 16.8707 0.574219 13.5795ZM147.25 17.7728H143.669C143.669 17.7728 143.052 20.3082 142.682 21.771C142.599 22.0802 142.519 22.3803 142.441 22.6709L142.424 22.7337L142.423 22.7409C141.786 25.1186 141.323 26.8492 141.323 27.6465C141.323 28.6948 141.891 29.3043 142.879 29.3043C144.583 29.3043 145.447 27.8903 145.793 26.5494C145.842 26.2813 146.089 26.0862 146.361 26.0862H147.916C147.966 26.0862 148.04 26.0862 148.089 26.1106C148.287 26.2081 148.361 26.4275 148.287 26.6226C147.2 30.4014 144.657 32.9857 140.607 32.9857C137.743 32.9857 136.434 31.2547 136.434 28.963C136.434 27.2564 139.002 17.8703 139.002 17.8703H136.508C136.039 17.8703 135.817 17.5777 135.916 17.1633C135.978 16.9773 136.111 16.4467 136.244 15.9156L136.244 15.915L136.244 15.9137C136.32 15.6099 136.396 15.306 136.459 15.0666C136.558 14.6034 136.854 14.4084 137.348 14.4084H139.891C139.891 14.4084 141.397 10.0444 141.397 7.60645C141.397 4.63213 139.471 2.80366 136.533 2.80366C132.311 2.80366 130.261 5.72922 130.261 9.28864C130.261 12.6968 131.851 14.181 133.14 15.3837C134.017 16.2028 134.755 16.8912 134.755 17.9678C134.755 18.8942 134.187 19.9182 132.878 19.9182C131.348 19.9182 130.459 18.7236 130.014 17.6509C129.249 17.4071 128.434 17.2852 127.644 17.2852C125.964 17.2852 124.977 17.8459 124.977 19.0893C124.977 20.4174 126.368 20.8985 128.18 21.5249L128.181 21.5252L128.182 21.5255C128.431 21.6118 128.689 21.7009 128.952 21.7954C131.594 22.7462 134.187 23.8921 134.187 26.9883C134.187 30.4258 131.298 33.01 126.261 33.01C122.582 33.01 119.767 31.5716 118.655 29.7675C116.31 31.6935 113.791 32.9857 109.889 32.9857C104.901 32.9857 101.988 29.7188 101.988 25.8668C101.988 25.1598 102.062 24.4528 102.161 23.7702C101.709 23.666 101.257 23.571 100.821 23.4795C100.543 23.421 100.272 23.364 100.012 23.3069C99.2962 23.7945 98.3825 24.0627 97.2714 24.0627C95.8392 24.0627 94.7527 23.1363 94.7527 22.1367C94.7527 20.6008 95.938 19.8938 97.3948 20.1863C97.5677 19.8694 97.6418 19.5037 97.6418 19.1624C97.6418 18.236 97.1973 17.6509 96.1355 17.6509C93.123 17.6509 91.1229 22.6243 89.8635 27.4027C89.4971 28.8361 89.1869 30.0232 88.979 30.819C88.8227 31.4173 88.7242 31.7944 88.703 31.8886C88.6289 32.303 88.2585 32.5956 87.8387 32.5712H84.6533C84.1101 32.5712 83.9126 32.2055 84.036 31.7667C84.049 31.7283 84.1231 31.4417 84.2441 30.9738C84.3537 30.5497 84.5019 29.9766 84.678 29.3043C82.4557 31.6692 79.3197 32.9857 76.0602 32.9613C72.4304 32.9613 69.9364 31.1816 68.8746 28.7192C67.5906 30.8403 65.4176 32.9613 61.8125 32.9613C59.6395 32.9613 58.4542 31.9617 58.0098 30.4746C56.7998 31.8886 55.096 32.9613 52.8243 32.9613C49.4907 32.9613 48.824 30.694 48.824 28.9386C48.824 27.5382 49.474 25.0505 50.0153 22.9789C50.3692 21.6243 50.6766 20.4477 50.7254 19.8694C50.8241 18.5285 49.9352 17.8459 48.8734 17.8459C46.6511 17.8459 45.0707 19.5281 44.4287 22.0392C44.4287 22.0392 42.0335 31.3766 41.91 31.8642C41.7866 32.3518 41.589 32.5712 41.0211 32.5712H37.7863C37.2678 32.5712 37.1196 32.1811 37.2431 31.7423C37.2624 31.7042 37.3419 31.3987 37.4698 30.9068L37.4713 30.901C37.5068 30.7644 37.5461 30.6136 37.5888 30.4502C36.2554 31.8642 34.5022 32.9613 32.3045 32.9613C29.4401 32.9613 28.403 31.2303 28.403 28.9386C28.403 27.7638 29.0155 25.3999 29.6463 22.9646C29.7093 22.7215 29.7725 22.4777 29.8352 22.2342C30.7736 18.5285 31.6625 15.2129 31.6625 15.2129C31.7613 14.7984 31.9835 14.5059 32.5514 14.5059H35.7121C36.2554 14.5059 36.4282 14.8472 36.3294 15.2617C36.2944 15.4231 36.1103 16.1242 35.8345 17.1743L35.8344 17.1746L35.834 17.1763C35.5266 18.3467 35.1056 19.9499 34.6503 21.7223C34.5648 22.0631 34.4807 22.3958 34.3992 22.7188C33.8214 25.006 33.3663 26.8073 33.3663 27.5978C33.3663 28.6461 33.8108 29.2556 34.7985 29.2556C36.7245 29.2556 38.5271 26.842 39.2679 23.9408C39.7668 22.004 40.271 20.0311 40.6751 18.4496L40.6766 18.4437L40.6769 18.4427L40.6782 18.4375C41.1525 16.5816 41.4883 15.2675 41.5149 15.1885C41.6137 14.8228 41.7866 14.4571 42.4533 14.4571H45.5646C45.6386 14.4571 45.7374 14.4571 45.8115 14.4815C46.1078 14.579 46.2807 14.896 46.1819 15.1885C46.0831 15.5542 45.8115 16.4806 45.8115 16.4806C46.7004 15.3592 48.7993 14.0671 50.8241 14.0671C54.0342 14.0671 55.5899 15.7493 55.5899 18.626C55.5899 19.7311 55.0854 21.5282 54.5962 23.2711L54.5962 23.2711C54.1356 24.9121 53.6885 26.505 53.6885 27.4271C53.6885 28.6461 54.1577 29.2068 55.2935 29.2068C57.1702 29.2068 58.3308 25.7693 58.6765 24.3065C59.4173 21.2591 60.3062 17.8703 60.3309 17.7971H57.7875C57.3184 17.7971 57.0961 17.5046 57.1949 17.0901C57.2578 16.904 57.3906 16.3722 57.5235 15.8405L57.5237 15.8394C57.5996 15.5359 57.6754 15.2325 57.7381 14.9935C57.8369 14.5303 58.1332 14.3352 58.6271 14.3352H61.2198L62.5532 9.04485C62.7261 8.3866 63.0965 8.11842 63.5657 8.0209C64.0348 7.92338 66.5535 7.43579 66.5535 7.43579C67.072 7.31389 67.5906 7.65521 67.4424 8.2647C67.393 8.43536 65.9115 14.3109 65.9115 14.3109H69.1709C69.6401 14.3109 69.8623 14.6034 69.7635 15.0179C69.6648 15.3104 69.3685 16.4563 69.2203 17.1145C69.0968 17.5777 68.8252 17.7728 68.3314 17.7728H65.0225C64.8837 18.321 64.751 18.8512 64.6265 19.3485L64.6252 19.3538L64.6235 19.3606L64.6232 19.3616L64.6228 19.3634C64.3945 20.2753 64.1941 21.0759 64.0348 21.6735C63.8842 22.258 63.7369 22.8167 63.5981 23.3429C63.0771 25.3186 62.6767 26.8367 62.6767 27.549C62.6767 28.5973 63.2446 29.2068 64.2324 29.2068C66.2572 29.2068 68.1338 26.1837 68.4054 23.9896C69.0475 18.6992 72.7514 14.0427 78.8258 14.0427H78.8505C82.9495 14.0427 85.0237 16.4806 85.0237 18.8211C85.0237 23.1607 81.9124 25.3305 76.8998 25.3305C75.7392 25.3305 74.0848 25.0867 73.344 24.7941C73.344 27.9147 74.8256 29.475 77.6653 29.475C81.9865 29.475 85.4188 26.3056 86.0855 23.7458C87.1473 19.6744 88.2338 15.4567 88.3079 15.1154C88.4313 14.6034 88.7523 14.4571 89.1968 14.4571H92.3575C92.9254 14.4571 93.0736 14.8472 92.9748 15.2129C92.9748 15.2527 92.9016 15.5312 92.779 15.9971L92.7788 15.9978C92.6764 16.3872 92.5395 16.9076 92.3822 17.529C93.7897 15.4567 95.8145 14.0671 97.9628 14.0671C101.025 14.0671 102.185 16.2368 102.185 18.0653C102.185 19.0161 102.012 19.9913 101.667 20.8934C101.852 20.9421 102.037 20.9848 102.222 21.0274C102.407 21.0701 102.593 21.1128 102.778 21.1615C104.087 17.4314 107.124 14.0671 112.507 14.0671H112.532C116.631 14.0671 118.705 16.505 118.705 18.8455C118.705 23.185 115.421 25.3548 110.606 25.3548C109.47 25.3548 107.716 25.111 107.05 24.916C107.05 28.0366 108.507 29.4994 111.371 29.4994C114.26 29.4994 116.285 28.5242 118.162 27.0126C118.408 25.7693 119.396 24.8429 120.557 24.8429C121.94 24.8429 122.68 25.6718 122.68 26.7201C122.705 27.2564 122.483 27.7684 122.088 28.1097C122.458 28.5486 123.866 29.7432 126.409 29.7432C128.582 29.7432 129.668 29.0849 129.668 27.9635C129.668 26.5386 128.233 26.0758 126.474 25.5082C126.156 25.4057 125.828 25.2998 125.495 25.1842C123.051 24.3309 120.458 23.0631 120.458 19.8207C120.458 16.3587 123.248 13.9695 127.693 13.9695C128.014 13.9695 128.335 13.9695 128.656 13.9939C127.792 12.6043 127.323 11.0196 127.298 9.38616C127.298 3.9495 131.101 0.0731389 136.953 0.0731389C142.138 0.0731389 145.793 3.68133 145.793 7.92338C145.793 9.67568 145.102 12.2101 144.722 13.6019L144.722 13.6046L144.721 13.6084C144.642 13.8984 144.576 14.1384 144.533 14.3109H148.089C148.558 14.3109 148.781 14.6034 148.682 15.0179C148.619 15.2038 148.487 15.7344 148.354 16.2655L148.354 16.2662L148.353 16.2674C148.277 16.5713 148.201 16.8751 148.139 17.1145C148.04 17.5777 147.744 17.7728 147.25 17.7728ZM78.011 17.6265C79.5913 17.6265 80.1345 18.5773 80.1345 19.6988C80.1345 21.6004 78.653 22.7462 76.3072 22.7462C75.3935 22.7218 74.4799 22.5756 73.6156 22.3318C73.9119 20.5764 75.0478 17.6265 78.011 17.6265ZM111.717 17.6265C113.149 17.6265 113.84 18.5773 113.84 19.6988C113.84 21.6004 112.359 22.7462 110.013 22.7462C109.099 22.7218 108.186 22.5756 107.321 22.3318C107.618 20.5764 108.902 17.6265 111.717 17.6265ZM38.0826 9.53244C37.9592 11.1903 36.5764 12.5068 34.9713 12.5068C33.3663 12.5068 32.1564 11.1659 32.2551 9.53244C32.3786 7.87463 33.7614 6.55812 35.3664 6.55812C36.9715 6.55812 38.1814 7.899 38.0826 9.53244Z" fill="#CAD1E1"/>
</g>
</svg>
