<svg width="20" height="20" viewBox="0 0 20 20" fill="none" xmlns="http://www.w3.org/2000/svg">
<g id="Social/Medium">
<g id="iconmonstr-medium-1">
<path id="Shape" d="M2.37167 4.90518C2.39667 4.65935 2.3025 4.41685 2.11917 4.25185L0.2525 2.00185V1.66602H6.05083L10.5325 11.4952L14.4725 1.66602H20V2.00185L18.4033 3.53268C18.2658 3.63768 18.1975 3.81018 18.2258 3.98102V15.2293C18.1975 15.3993 18.2658 15.5718 18.4033 15.6768L19.9625 17.2077V17.5435H12.1192V17.2077L13.735 15.6393C13.8933 15.481 13.8933 15.4343 13.8933 15.1918V6.10018L9.4025 17.5068H8.79583L3.56667 6.10018V13.7452C3.52333 14.066 3.63 14.3902 3.85583 14.6218L5.95667 17.1702V17.5068H0V17.1702L2.10083 14.6218C2.32583 14.3893 2.42583 14.0635 2.37167 13.7452V4.90518Z" fill="#6E38F7"/>
</g>
</g>
</svg>
