<svg width="163" height="35" viewBox="0 0 163 35" fill="none" xmlns="http://www.w3.org/2000/svg">
<g id="Microsoft_logo_(2012)">
<path id="Shape" fill-rule="evenodd" clip-rule="evenodd" d="M0 0H16.5064V16.5064H0V0ZM159.032 15.6985H162.613V12.8173H159.086V8.40127L158.978 8.4282L155.639 9.42451L155.558 9.45143V12.8173H150.281V10.9324C150.281 10.0708 150.496 9.39758 150.873 8.96675C151.25 8.53591 151.815 8.32049 152.515 8.32049C153 8.32049 153.512 8.4282 154.077 8.67055L154.212 8.75133V5.70856L154.131 5.68163C153.646 5.52007 153 5.41236 152.165 5.41236C151.115 5.41236 150.2 5.6547 149.365 6.05861C148.53 6.51637 147.911 7.1357 147.453 7.97044C146.995 8.77826 146.753 9.69378 146.753 10.7439V12.8173H144.303V15.6716H146.753V27.735H150.281V15.6985H155.558V23.3728C155.558 26.5233 157.039 28.112 160.001 28.112C160.486 28.112 160.998 28.0312 161.482 27.9504C161.994 27.8427 162.371 27.7081 162.586 27.6003L162.613 27.5734V24.6922L162.479 24.7999C162.263 24.9346 162.075 25.0423 161.751 25.123C161.482 25.2038 161.24 25.2308 161.051 25.2308C160.351 25.2308 159.867 25.0692 159.517 24.6653C159.193 24.2883 159.032 23.669 159.032 22.7535V15.6985ZM74.292 7.10877C73.942 6.73179 73.4304 6.51637 72.8111 6.51637C72.2187 6.51637 71.734 6.73179 71.3301 7.10877C70.9261 7.48575 70.7107 7.97044 70.7107 8.56284C70.7107 9.12831 70.9261 9.613 71.3301 9.98998C71.734 10.367 72.2187 10.5554 72.8111 10.5554C73.4035 10.5554 73.9151 10.34 74.292 9.98998C74.696 9.613 74.9114 9.12831 74.9114 8.56284C74.9114 7.99737 74.696 7.51268 74.292 7.10877ZM57.4087 20.0069L62.7403 6.94721H67.641V27.735H64.0597V14.5407C64.0866 13.7059 64.1405 12.3326 64.2213 10.7978H64.1405C64.1088 10.9372 64.0771 11.0825 64.0455 11.2279C63.9425 11.7003 63.8396 12.1727 63.7366 12.4403L57.5433 27.7619H55.1738L48.9267 12.575C48.792 12.198 48.6035 11.6056 48.442 10.7978H48.3612C48.369 10.8914 48.379 10.9941 48.3901 11.1065C48.4171 11.3819 48.4498 11.7156 48.4689 12.1172C48.4958 13.2482 48.4958 14.1637 48.4958 14.9715V27.8158H45.1299V7.00106H50.2192L55.4161 20.0607C55.9008 21.1917 56.197 22.1341 56.3586 22.7535H56.4393L57.4087 20.0069ZM71.0339 12.8173H74.5344V27.735H71.0339V12.8173ZM86.9478 12.6827C87.6276 12.8134 88.1297 13.0203 88.5773 13.2048L88.6173 13.2212L88.6442 13.2482V16.6679L88.5096 16.5602C87.4594 15.8062 86.3016 15.4293 85.1706 15.4293C83.8243 15.4293 82.7202 15.887 81.8855 16.7756C81.0508 17.6642 80.6469 18.8759 80.6469 20.4108C80.6469 21.8918 81.0508 23.0766 81.8586 23.9382C82.6395 24.8268 83.7435 25.2308 85.1437 25.2308C85.6284 25.2308 86.1938 25.123 86.8132 24.9076C87.4056 24.7191 87.998 24.396 88.5096 24.019L88.6442 23.9113V27.1426L88.6173 27.1695C87.4864 27.8158 86.0592 28.1658 84.3897 28.1658C82.9357 28.1658 81.6432 27.8427 80.5391 27.2234C79.3813 26.604 78.5196 25.6885 77.9003 24.5576C77.281 23.3997 76.9578 22.1341 76.9578 20.707C76.9578 19.0644 77.281 17.6373 77.9272 16.3986C78.5465 15.1869 79.5159 14.2175 80.7276 13.5174C81.9394 12.8173 83.3934 12.4673 84.9821 12.4673C85.6284 12.4673 86.3016 12.5481 86.9478 12.6827ZM99.819 12.8173C99.5767 12.6558 99.092 12.575 98.4996 12.575C97.6379 12.575 96.8301 12.8443 96.13 13.4097C95.5376 13.8944 95.1337 14.5945 94.7836 15.4293H94.7567V12.8173H91.2562V27.735H94.7567V20.1146C94.7567 18.8221 95.026 17.745 95.6184 16.9641C96.2108 16.1563 96.9647 15.7524 97.8802 15.7524C98.0957 15.7524 98.3111 15.7883 98.5504 15.8282C98.6701 15.8481 98.7958 15.8691 98.9304 15.887C99.3074 15.9947 99.5767 16.1024 99.7651 16.2371L99.8998 16.3448V12.8443L99.819 12.8173ZM108.032 12.4942C110.348 12.4942 112.205 13.1674 113.471 14.5407C114.79 15.914 115.437 17.7989 115.437 20.1684C115.437 22.565 114.764 24.5037 113.363 25.9578C111.99 27.4119 110.078 28.1389 107.682 28.1389C105.393 28.1389 103.562 27.4388 102.216 26.0924C100.869 24.7191 100.169 22.8342 100.169 20.5185C100.169 18.0412 100.842 16.0755 102.242 14.6484C103.616 13.2212 105.581 12.4942 108.032 12.4942ZM111.855 20.2492C111.802 21.8649 111.505 23.1304 110.832 23.9652C110.186 24.7999 109.163 25.2038 107.897 25.2038C106.632 25.2038 105.608 24.7999 104.881 23.9113C104.154 23.0766 103.804 21.8649 103.804 20.33C103.804 18.7413 104.181 17.5296 104.881 16.6679C105.608 15.8062 106.605 15.3754 107.87 15.3754C109.109 15.3754 110.078 15.7793 110.778 16.6141C111.478 17.4488 111.855 18.6605 111.855 20.2492ZM123.246 19.0106C124.646 19.5491 125.615 20.2223 126.396 20.8686C126.989 21.5417 127.258 22.4303 127.258 23.4266C127.258 24.8538 126.692 25.9578 125.615 26.8195C124.565 27.708 123.084 28.112 121.28 28.112C120.688 28.112 120.014 28.0042 119.26 27.8696C118.506 27.6811 117.887 27.5196 117.376 27.2772L117.295 27.2503V23.8305L117.429 23.9382C117.995 24.3422 118.668 24.6922 119.395 24.9346C120.122 25.1769 120.741 25.2846 121.334 25.2846C122.869 25.2846 123.623 24.7999 123.623 23.8036C123.623 23.4536 123.542 23.1843 123.407 22.9689C123.219 22.7804 122.976 22.538 122.599 22.3226C122.222 22.1072 121.603 21.8379 120.795 21.4879C119.826 21.084 119.126 20.6531 118.641 20.2762C118.156 19.8722 117.806 19.3876 117.564 18.8759C117.322 18.3643 117.214 17.745 117.214 17.0449C117.214 15.7255 117.726 14.5945 118.803 13.7598C119.88 12.8712 121.253 12.4673 122.923 12.4673C123.407 12.4673 124 12.5211 124.646 12.6288C125.292 12.7635 125.831 12.925 126.235 13.0866L126.315 13.1135V16.3986L126.181 16.2909C125.75 15.9678 125.211 15.7255 124.619 15.5639C124.027 15.4023 123.407 15.2946 122.815 15.2946C122.142 15.2946 121.684 15.4293 121.28 15.6985C120.876 15.9678 120.714 16.3717 120.714 16.7756C120.714 17.2603 120.849 17.6373 121.118 17.9066C121.442 18.2028 122.142 18.5528 123.246 19.0106ZM141.933 14.5407C140.667 13.1674 138.81 12.4942 136.494 12.4942C134.043 12.4942 132.078 13.2212 130.704 14.6484C129.331 16.0755 128.631 18.0412 128.631 20.5185C128.631 22.8342 129.331 24.7191 130.678 26.0924C132.024 27.4388 133.855 28.1389 136.144 28.1389C138.54 28.1389 140.452 27.4119 141.825 25.9578C143.226 24.5037 143.899 22.565 143.899 20.1684C143.899 17.7989 143.253 15.914 141.933 14.5407ZM139.267 23.9652C139.94 23.1304 140.291 21.8649 140.291 20.2492C140.291 18.6605 139.914 17.4488 139.213 16.6141C138.513 15.7793 137.517 15.3754 136.305 15.3754C135.04 15.3754 134.043 15.8062 133.316 16.6679C132.616 17.5296 132.239 18.7413 132.239 20.33C132.239 21.8649 132.589 23.0766 133.316 23.9113C134.043 24.7999 135.04 25.2038 136.332 25.2038C137.598 25.2038 138.621 24.7999 139.267 23.9652ZM34.736 0H18.2297V16.5064H34.736V0ZM0 18.2297H16.5064V34.736H0V18.2297ZM34.736 18.2297H18.2297V34.736H34.736V18.2297Z" fill="#CAD1E1"/>
</g>
</svg>
