<svg width="20" height="20" viewBox="0 0 20 20" fill="none" xmlns="http://www.w3.org/2000/svg">
<g id="Social/Twitter">
<path id="Shape" d="M18.3346 4.93746C17.7214 5.20968 17.0624 5.39301 16.3707 5.47565C17.077 5.05273 17.6194 4.3826 17.8742 3.58398C17.2138 3.97565 16.4819 4.26037 15.7027 4.41385C15.0798 3.74926 14.1902 3.33398 13.2069 3.33398C10.9992 3.33398 9.377 5.39371 9.87561 7.5319C7.03464 7.38954 4.51519 6.02843 2.82839 3.95968C1.93255 5.49648 2.3638 7.5069 3.88602 8.52496C3.3263 8.5069 2.79852 8.35343 2.33811 8.09718C2.30061 9.68121 3.43602 11.1632 5.08047 11.493C4.59922 11.6236 4.07214 11.6541 3.53602 11.5513C3.97075 12.9097 5.23325 13.8979 6.73047 13.9257C5.29297 15.0527 3.48186 15.5562 1.66797 15.3423C3.18116 16.3125 4.97908 16.8784 6.90964 16.8784C13.2582 16.8784 16.8451 11.5166 16.6284 6.7076C17.2964 6.22496 17.8763 5.62287 18.3346 4.93746Z" fill="#6E38F7"/>
</g>
</svg>
