<svg width="1400" height="76" viewBox="0 0 1400 76" fill="none" xmlns="http://www.w3.org/2000/svg">
<g clip-path="url(#clip0_0_7568)">
<rect width="1400" height="76" fill="white"/>
<path d="M248 56C257.941 56 266 47.9411 266 38C266 28.0589 257.941 20 248 20C238.059 20 230 28.0589 230 38C230 47.9411 238.059 56 248 56Z" fill="#6E38F7"/>
<rect x="241" y="31" width="14" height="6" rx="2" fill="white"/>
<rect x="241" y="39" width="14" height="6" rx="2" fill="white"/>
<path d="M310.42 42C310.348 42 310.288 41.976 310.24 41.928C310.192 41.88 310.168 41.82 310.168 41.748L310.192 41.64L313.072 33.9C313.152 33.7 313.296 33.6 313.504 33.6H314.824C315.032 33.6 315.176 33.7 315.256 33.9L318.136 41.64L318.16 41.748C318.16 41.82 318.132 41.88 318.076 41.928C318.028 41.976 317.972 42 317.908 42H316.84C316.672 42 316.556 41.924 316.492 41.772L315.94 40.32H312.388L311.836 41.772C311.772 41.924 311.656 42 311.488 42H310.42ZM312.808 38.928H315.52L314.164 35.232L312.808 38.928ZM321.556 42C321.476 42 321.408 41.972 321.352 41.916C321.296 41.86 321.268 41.792 321.268 41.712V33.9C321.268 33.812 321.292 33.74 321.34 33.684C321.396 33.628 321.468 33.6 321.556 33.6H325.036C325.972 33.6 326.672 33.808 327.136 34.224C327.6 34.632 327.832 35.192 327.832 35.904C327.832 36.32 327.728 36.676 327.52 36.972C327.32 37.26 327.084 37.468 326.812 37.596C327.148 37.748 327.432 37.996 327.664 38.34C327.896 38.684 328.012 39.076 328.012 39.516C328.012 40.26 327.76 40.86 327.256 41.316C326.752 41.772 326.048 42 325.144 42H321.556ZM324.82 37.044C325.228 37.044 325.54 36.944 325.756 36.744C325.98 36.544 326.092 36.276 326.092 35.94C326.092 35.604 325.984 35.344 325.768 35.16C325.552 34.976 325.236 34.884 324.82 34.884H322.96V37.044H324.82ZM324.94 40.716C325.356 40.716 325.68 40.604 325.912 40.38C326.144 40.148 326.26 39.856 326.26 39.504C326.26 39.152 326.14 38.864 325.9 38.64C325.668 38.408 325.348 38.292 324.94 38.292H322.96V40.716H324.94ZM334.746 42.12C333.65 42.12 332.798 41.844 332.19 41.292C331.582 40.74 331.262 39.92 331.23 38.832C331.222 38.6 331.218 38.26 331.218 37.812C331.218 37.356 331.222 37.012 331.23 36.78C331.262 35.716 331.59 34.9 332.214 34.332C332.838 33.764 333.682 33.48 334.746 33.48C335.802 33.48 336.642 33.764 337.266 34.332C337.898 34.9 338.23 35.716 338.262 36.78C338.278 37.244 338.286 37.588 338.286 37.812C338.286 38.028 338.278 38.368 338.262 38.832C338.23 39.92 337.906 40.74 337.29 41.292C336.682 41.844 335.834 42.12 334.746 42.12ZM334.746 40.728C335.282 40.728 335.706 40.568 336.018 40.248C336.33 39.928 336.498 39.436 336.522 38.772C336.538 38.292 336.546 37.968 336.546 37.8C336.546 37.616 336.538 37.292 336.522 36.828C336.498 36.172 336.326 35.684 336.006 35.364C335.686 35.036 335.266 34.872 334.746 34.872C334.218 34.872 333.794 35.036 333.474 35.364C333.154 35.684 332.986 36.172 332.97 36.828C332.962 37.06 332.958 37.384 332.958 37.8C332.958 38.208 332.962 38.532 332.97 38.772C332.986 39.428 333.15 39.92 333.462 40.248C333.782 40.568 334.21 40.728 334.746 40.728ZM345.21 42.12C344.122 42.12 343.278 41.844 342.678 41.292C342.078 40.74 341.778 39.904 341.778 38.784V33.9C341.778 33.812 341.802 33.74 341.85 33.684C341.906 33.628 341.978 33.6 342.066 33.6H343.17C343.258 33.6 343.33 33.628 343.386 33.684C343.442 33.74 343.47 33.812 343.47 33.9V38.784C343.47 39.416 343.618 39.892 343.914 40.212C344.218 40.532 344.646 40.692 345.198 40.692C345.75 40.692 346.174 40.532 346.47 40.212C346.774 39.892 346.926 39.416 346.926 38.784V33.9C346.926 33.812 346.954 33.74 347.01 33.684C347.066 33.628 347.138 33.6 347.226 33.6H348.33C348.418 33.6 348.486 33.628 348.534 33.684C348.59 33.74 348.618 33.812 348.618 33.9V38.784C348.618 39.904 348.318 40.74 347.718 41.292C347.126 41.844 346.29 42.12 345.21 42.12ZM354.552 42C354.472 42 354.404 41.972 354.348 41.916C354.292 41.86 354.264 41.792 354.264 41.712V35.1H352.044C351.964 35.1 351.896 35.072 351.84 35.016C351.784 34.96 351.756 34.888 351.756 34.8V33.9C351.756 33.812 351.78 33.74 351.828 33.684C351.884 33.628 351.956 33.6 352.044 33.6H358.176C358.264 33.6 358.336 33.628 358.392 33.684C358.448 33.74 358.476 33.812 358.476 33.9V34.8C358.476 34.888 358.448 34.96 358.392 35.016C358.336 35.072 358.264 35.1 358.176 35.1H355.968V41.712C355.968 41.792 355.94 41.86 355.884 41.916C355.836 41.972 355.768 42 355.68 42H354.552ZM383.599 42.12C382.495 42.12 381.635 41.836 381.019 41.268C380.411 40.7 380.087 39.908 380.047 38.892C380.039 38.66 380.035 38.288 380.035 37.776C380.035 37.264 380.039 36.892 380.047 36.66C380.079 35.668 380.407 34.892 381.031 34.332C381.655 33.764 382.511 33.48 383.599 33.48C384.335 33.48 384.967 33.608 385.495 33.864C386.031 34.112 386.435 34.424 386.707 34.8C386.979 35.168 387.123 35.532 387.139 35.892C387.139 35.964 387.115 36.024 387.067 36.072C387.019 36.12 386.955 36.144 386.875 36.144H385.615C385.535 36.144 385.475 36.128 385.435 36.096C385.395 36.064 385.359 36.012 385.327 35.94C385.215 35.644 385.019 35.392 384.739 35.184C384.459 34.976 384.079 34.872 383.599 34.872C383.039 34.872 382.599 35.024 382.279 35.328C381.967 35.624 381.803 36.088 381.787 36.72C381.779 36.952 381.775 37.304 381.775 37.776C381.775 38.24 381.779 38.592 381.787 38.832C381.803 39.48 381.971 39.96 382.291 40.272C382.611 40.576 383.051 40.728 383.611 40.728C384.179 40.728 384.635 40.576 384.979 40.272C385.323 39.968 385.495 39.512 385.495 38.904V38.532H384.031C383.951 38.532 383.883 38.504 383.827 38.448C383.771 38.392 383.743 38.324 383.743 38.244V37.584C383.743 37.504 383.771 37.436 383.827 37.38C383.883 37.324 383.951 37.296 384.031 37.296H386.911C386.999 37.296 387.071 37.324 387.127 37.38C387.183 37.436 387.211 37.504 387.211 37.584V38.856C387.211 39.52 387.063 40.1 386.767 40.596C386.471 41.084 386.051 41.46 385.507 41.724C384.963 41.988 384.327 42.12 383.599 42.12ZM390.045 42C389.973 42 389.913 41.976 389.865 41.928C389.817 41.88 389.793 41.82 389.793 41.748L389.817 41.64L392.697 33.9C392.777 33.7 392.921 33.6 393.129 33.6H394.449C394.657 33.6 394.801 33.7 394.881 33.9L397.761 41.64L397.785 41.748C397.785 41.82 397.757 41.88 397.701 41.928C397.653 41.976 397.597 42 397.533 42H396.465C396.297 42 396.181 41.924 396.117 41.772L395.565 40.32H392.013L391.461 41.772C391.397 41.924 391.281 42 391.113 42H390.045ZM392.433 38.928H395.145L393.789 35.232L392.433 38.928ZM401.181 42C401.101 42 401.033 41.972 400.977 41.916C400.921 41.86 400.893 41.792 400.893 41.712V33.888C400.893 33.8 400.921 33.732 400.977 33.684C401.033 33.628 401.101 33.6 401.181 33.6H402.309C402.397 33.6 402.465 33.628 402.513 33.684C402.569 33.732 402.597 33.8 402.597 33.888V40.56H406.401C406.489 40.56 406.561 40.588 406.617 40.644C406.673 40.7 406.701 40.768 406.701 40.848V41.712C406.701 41.792 406.673 41.86 406.617 41.916C406.561 41.972 406.489 42 406.401 42H401.181ZM410.154 42C410.074 42 410.006 41.972 409.95 41.916C409.894 41.86 409.866 41.792 409.866 41.712V33.888C409.866 33.8 409.894 33.732 409.95 33.684C410.006 33.628 410.074 33.6 410.154 33.6H411.282C411.37 33.6 411.438 33.628 411.486 33.684C411.542 33.732 411.57 33.8 411.57 33.888V40.56H415.374C415.462 40.56 415.534 40.588 415.59 40.644C415.646 40.7 415.674 40.768 415.674 40.848V41.712C415.674 41.792 415.646 41.86 415.59 41.916C415.534 41.972 415.462 42 415.374 42H410.154ZM419.126 42C419.046 42 418.978 41.972 418.922 41.916C418.866 41.86 418.838 41.792 418.838 41.712V33.9C418.838 33.812 418.862 33.74 418.91 33.684C418.966 33.628 419.038 33.6 419.126 33.6H424.418C424.506 33.6 424.578 33.628 424.634 33.684C424.69 33.74 424.718 33.812 424.718 33.9V34.704C424.718 34.792 424.69 34.864 424.634 34.92C424.578 34.968 424.506 34.992 424.418 34.992H420.482V37.092H424.154C424.242 37.092 424.314 37.12 424.37 37.176C424.426 37.232 424.454 37.304 424.454 37.392V38.148C424.454 38.236 424.426 38.308 424.37 38.364C424.314 38.412 424.242 38.436 424.154 38.436H420.482V40.608H424.514C424.602 40.608 424.674 40.636 424.73 40.692C424.786 40.74 424.814 40.808 424.814 40.896V41.712C424.814 41.8 424.786 41.872 424.73 41.928C424.674 41.976 424.602 42 424.514 42H419.126ZM428.603 42C428.523 42 428.455 41.972 428.399 41.916C428.343 41.86 428.315 41.792 428.315 41.712V33.9C428.315 33.812 428.339 33.74 428.387 33.684C428.443 33.628 428.515 33.6 428.603 33.6H431.711C432.695 33.6 433.463 33.828 434.015 34.284C434.575 34.74 434.855 35.388 434.855 36.228C434.855 36.812 434.715 37.304 434.435 37.704C434.155 38.096 433.763 38.38 433.259 38.556L434.999 41.616C435.023 41.664 435.035 41.708 435.035 41.748C435.035 41.82 435.007 41.88 434.951 41.928C434.903 41.976 434.847 42 434.783 42H433.679C433.551 42 433.451 41.972 433.379 41.916C433.307 41.852 433.243 41.772 433.187 41.676L431.651 38.832H430.007V41.712C430.007 41.792 429.979 41.86 429.923 41.916C429.867 41.972 429.795 42 429.707 42H428.603ZM431.675 37.464C432.155 37.464 432.515 37.36 432.755 37.152C432.995 36.936 433.115 36.624 433.115 36.216C433.115 35.808 432.995 35.496 432.755 35.28C432.515 35.056 432.155 34.944 431.675 34.944H430.007V37.464H431.675ZM440.58 42C440.5 42 440.432 41.972 440.376 41.916C440.32 41.86 440.292 41.792 440.292 41.712V39.012L437.448 33.984C437.424 33.912 437.412 33.868 437.412 33.852C437.412 33.78 437.436 33.72 437.484 33.672C437.54 33.624 437.6 33.6 437.664 33.6H438.744C438.896 33.6 439.02 33.676 439.116 33.828L441.132 37.308L443.16 33.828C443.192 33.772 443.236 33.72 443.292 33.672C443.356 33.624 443.432 33.6 443.52 33.6H444.6C444.672 33.6 444.732 33.624 444.78 33.672C444.828 33.72 444.852 33.78 444.852 33.852C444.852 33.9 444.84 33.944 444.816 33.984L441.984 39.012V41.712C441.984 41.8 441.956 41.872 441.9 41.928C441.844 41.976 441.772 42 441.684 42H440.58ZM466.923 42C466.843 42 466.775 41.972 466.719 41.916C466.663 41.86 466.635 41.792 466.635 41.712V33.9C466.635 33.812 466.659 33.74 466.707 33.684C466.763 33.628 466.835 33.6 466.923 33.6H470.139C471.107 33.6 471.867 33.828 472.419 34.284C472.971 34.74 473.247 35.404 473.247 36.276C473.247 37.14 472.971 37.796 472.419 38.244C471.867 38.684 471.107 38.904 470.139 38.904H468.375V41.712C468.375 41.8 468.347 41.872 468.291 41.928C468.235 41.976 468.163 42 468.075 42H466.923ZM470.079 37.56C470.543 37.56 470.895 37.452 471.135 37.236C471.383 37.012 471.507 36.688 471.507 36.264C471.507 35.848 471.387 35.524 471.147 35.292C470.915 35.06 470.559 34.944 470.079 34.944H468.351V37.56H470.079ZM476.845 42C476.765 42 476.697 41.972 476.641 41.916C476.585 41.86 476.557 41.792 476.557 41.712V33.9C476.557 33.812 476.581 33.74 476.629 33.684C476.685 33.628 476.757 33.6 476.845 33.6H479.953C480.937 33.6 481.705 33.828 482.257 34.284C482.817 34.74 483.097 35.388 483.097 36.228C483.097 36.812 482.957 37.304 482.677 37.704C482.397 38.096 482.005 38.38 481.501 38.556L483.241 41.616C483.265 41.664 483.277 41.708 483.277 41.748C483.277 41.82 483.249 41.88 483.193 41.928C483.145 41.976 483.089 42 483.025 42H481.921C481.793 42 481.693 41.972 481.621 41.916C481.549 41.852 481.485 41.772 481.429 41.676L479.893 38.832H478.249V41.712C478.249 41.792 478.221 41.86 478.165 41.916C478.109 41.972 478.037 42 477.949 42H476.845ZM479.917 37.464C480.397 37.464 480.757 37.36 480.997 37.152C481.237 36.936 481.357 36.624 481.357 36.216C481.357 35.808 481.237 35.496 480.997 35.28C480.757 35.056 480.397 34.944 479.917 34.944H478.249V37.464H479.917ZM486.931 42C486.851 42 486.783 41.972 486.727 41.916C486.671 41.86 486.643 41.792 486.643 41.712V33.888C486.643 33.8 486.671 33.732 486.727 33.684C486.783 33.628 486.851 33.6 486.931 33.6H488.083C488.171 33.6 488.239 33.628 488.287 33.684C488.343 33.732 488.371 33.8 488.371 33.888V41.712C488.371 41.792 488.343 41.86 488.287 41.916C488.239 41.972 488.171 42 488.083 42H486.931ZM495.481 42.12C494.377 42.12 493.521 41.84 492.913 41.28C492.313 40.712 491.993 39.908 491.953 38.868C491.945 38.652 491.941 38.3 491.941 37.812C491.941 37.316 491.945 36.956 491.953 36.732C491.993 35.708 492.317 34.912 492.925 34.344C493.533 33.768 494.385 33.48 495.481 33.48C496.193 33.48 496.813 33.604 497.341 33.852C497.869 34.092 498.277 34.424 498.565 34.848C498.861 35.272 499.017 35.748 499.033 36.276V36.3C499.033 36.364 499.005 36.42 498.949 36.468C498.901 36.508 498.845 36.528 498.781 36.528H497.617C497.521 36.528 497.449 36.508 497.401 36.468C497.353 36.42 497.313 36.34 497.281 36.228C497.161 35.732 496.953 35.384 496.657 35.184C496.361 34.976 495.969 34.872 495.481 34.872C494.337 34.872 493.741 35.512 493.693 36.792C493.685 37.008 493.681 37.34 493.681 37.788C493.681 38.236 493.685 38.576 493.693 38.808C493.741 40.088 494.337 40.728 495.481 40.728C495.961 40.728 496.349 40.628 496.645 40.428C496.949 40.22 497.161 39.868 497.281 39.372C497.313 39.26 497.353 39.184 497.401 39.144C497.449 39.096 497.521 39.072 497.617 39.072H498.781C498.853 39.072 498.913 39.096 498.961 39.144C499.017 39.192 499.041 39.252 499.033 39.324C499.017 39.852 498.861 40.328 498.565 40.752C498.277 41.176 497.869 41.512 497.341 41.76C496.813 42 496.193 42.12 495.481 42.12ZM502.744 42C502.664 42 502.596 41.972 502.54 41.916C502.484 41.86 502.456 41.792 502.456 41.712V33.888C502.456 33.8 502.484 33.732 502.54 33.684C502.596 33.628 502.664 33.6 502.744 33.6H503.896C503.984 33.6 504.052 33.628 504.1 33.684C504.156 33.732 504.184 33.8 504.184 33.888V41.712C504.184 41.792 504.156 41.86 504.1 41.916C504.052 41.972 503.984 42 503.896 42H502.744ZM508.341 42C508.261 42 508.193 41.972 508.137 41.916C508.081 41.86 508.053 41.792 508.053 41.712V33.9C508.053 33.812 508.077 33.74 508.125 33.684C508.181 33.628 508.253 33.6 508.341 33.6H509.277C509.429 33.6 509.545 33.668 509.625 33.804L513.057 39.132V33.9C513.057 33.812 513.081 33.74 513.129 33.684C513.185 33.628 513.257 33.6 513.345 33.6H514.377C514.465 33.6 514.537 33.628 514.593 33.684C514.649 33.74 514.677 33.812 514.677 33.9V41.7C514.677 41.788 514.649 41.86 514.593 41.916C514.537 41.972 514.469 42 514.389 42H513.441C513.281 42 513.161 41.932 513.081 41.796L509.661 36.588V41.712C509.661 41.792 509.633 41.86 509.577 41.916C509.529 41.972 509.461 42 509.373 42H508.341ZM521.814 42.12C520.71 42.12 519.85 41.836 519.234 41.268C518.626 40.7 518.302 39.908 518.262 38.892C518.254 38.66 518.25 38.288 518.25 37.776C518.25 37.264 518.254 36.892 518.262 36.66C518.294 35.668 518.622 34.892 519.246 34.332C519.87 33.764 520.726 33.48 521.814 33.48C522.55 33.48 523.182 33.608 523.71 33.864C524.246 34.112 524.65 34.424 524.922 34.8C525.194 35.168 525.338 35.532 525.354 35.892C525.354 35.964 525.33 36.024 525.282 36.072C525.234 36.12 525.17 36.144 525.09 36.144H523.83C523.75 36.144 523.69 36.128 523.65 36.096C523.61 36.064 523.574 36.012 523.542 35.94C523.43 35.644 523.234 35.392 522.954 35.184C522.674 34.976 522.294 34.872 521.814 34.872C521.254 34.872 520.814 35.024 520.494 35.328C520.182 35.624 520.018 36.088 520.002 36.72C519.994 36.952 519.99 37.304 519.99 37.776C519.99 38.24 519.994 38.592 520.002 38.832C520.018 39.48 520.186 39.96 520.506 40.272C520.826 40.576 521.266 40.728 521.826 40.728C522.394 40.728 522.85 40.576 523.194 40.272C523.538 39.968 523.71 39.512 523.71 38.904V38.532H522.246C522.166 38.532 522.098 38.504 522.042 38.448C521.986 38.392 521.958 38.324 521.958 38.244V37.584C521.958 37.504 521.986 37.436 522.042 37.38C522.098 37.324 522.166 37.296 522.246 37.296H525.126C525.214 37.296 525.286 37.324 525.342 37.38C525.398 37.436 525.426 37.504 525.426 37.584V38.856C525.426 39.52 525.278 40.1 524.982 40.596C524.686 41.084 524.266 41.46 523.722 41.724C523.178 41.988 522.542 42.12 521.814 42.12ZM548.162 42C548.082 42 548.014 41.972 547.958 41.916C547.902 41.86 547.874 41.792 547.874 41.712V33.9C547.874 33.812 547.898 33.74 547.946 33.684C548.002 33.628 548.074 33.6 548.162 33.6H553.382C553.47 33.6 553.542 33.628 553.598 33.684C553.654 33.74 553.682 33.812 553.682 33.9V34.764C553.682 34.844 553.654 34.912 553.598 34.968C553.542 35.024 553.47 35.052 553.382 35.052H549.542V37.308H553.142C553.23 37.308 553.302 37.336 553.358 37.392C553.414 37.448 553.442 37.516 553.442 37.596V38.46C553.442 38.54 553.414 38.608 553.358 38.664C553.302 38.72 553.23 38.748 553.142 38.748H549.542V41.712C549.542 41.792 549.514 41.86 549.458 41.916C549.402 41.972 549.33 42 549.242 42H548.162ZM556.084 42C556.012 42 555.952 41.976 555.904 41.928C555.856 41.88 555.832 41.82 555.832 41.748L555.856 41.64L558.736 33.9C558.816 33.7 558.96 33.6 559.168 33.6H560.488C560.696 33.6 560.84 33.7 560.92 33.9L563.8 41.64L563.824 41.748C563.824 41.82 563.796 41.88 563.74 41.928C563.692 41.976 563.636 42 563.572 42H562.504C562.336 42 562.22 41.924 562.156 41.772L561.604 40.32H558.052L557.5 41.772C557.436 41.924 557.32 42 557.152 42H556.084ZM558.472 38.928H561.184L559.828 35.232L558.472 38.928ZM572.156 42.78C572.052 42.78 571.964 42.752 571.892 42.696C571.828 42.648 571.768 42.584 571.712 42.504L571.268 41.904C570.908 42.048 570.484 42.12 569.996 42.12C568.908 42.12 568.056 41.844 567.44 41.292C566.832 40.74 566.512 39.92 566.48 38.832C566.472 38.6 566.468 38.26 566.468 37.812C566.468 37.356 566.472 37.012 566.48 36.78C566.512 35.716 566.84 34.9 567.464 34.332C568.096 33.764 568.94 33.48 569.996 33.48C571.06 33.48 571.904 33.764 572.528 34.332C573.152 34.9 573.48 35.716 573.512 36.78C573.528 37.244 573.536 37.588 573.536 37.812C573.536 38.028 573.528 38.368 573.512 38.832C573.48 39.888 573.192 40.68 572.648 41.208L573.488 42.408C573.512 42.456 573.524 42.496 573.524 42.528V42.552C573.524 42.616 573.5 42.668 573.452 42.708C573.404 42.756 573.348 42.78 573.284 42.78H572.156ZM569.996 40.728C570.532 40.728 570.956 40.568 571.268 40.248C571.588 39.92 571.756 39.428 571.772 38.772C571.788 38.292 571.796 37.968 571.796 37.8C571.796 37.616 571.788 37.292 571.772 36.828C571.756 36.172 571.588 35.684 571.268 35.364C570.948 35.036 570.524 34.872 569.996 34.872C569.468 34.872 569.044 35.036 568.724 35.364C568.412 35.684 568.244 36.172 568.22 36.828C568.212 37.06 568.208 37.384 568.208 37.8C568.208 38.208 568.212 38.532 568.22 38.772C568.244 39.436 568.412 39.928 568.724 40.248C569.036 40.568 569.46 40.728 569.996 40.728ZM596.322 42C596.242 42 596.174 41.972 596.118 41.916C596.062 41.86 596.034 41.792 596.034 41.712V33.9C596.034 33.812 596.058 33.74 596.106 33.684C596.162 33.628 596.234 33.6 596.322 33.6H599.802C600.738 33.6 601.438 33.808 601.902 34.224C602.366 34.632 602.598 35.192 602.598 35.904C602.598 36.32 602.494 36.676 602.286 36.972C602.086 37.26 601.85 37.468 601.578 37.596C601.914 37.748 602.198 37.996 602.43 38.34C602.662 38.684 602.778 39.076 602.778 39.516C602.778 40.26 602.526 40.86 602.022 41.316C601.518 41.772 600.814 42 599.91 42H596.322ZM599.586 37.044C599.994 37.044 600.306 36.944 600.522 36.744C600.746 36.544 600.858 36.276 600.858 35.94C600.858 35.604 600.75 35.344 600.534 35.16C600.318 34.976 600.002 34.884 599.586 34.884H597.726V37.044H599.586ZM599.706 40.716C600.122 40.716 600.446 40.604 600.678 40.38C600.91 40.148 601.026 39.856 601.026 39.504C601.026 39.152 600.906 38.864 600.666 38.64C600.434 38.408 600.114 38.292 599.706 38.292H597.726V40.716H599.706ZM606.56 42C606.48 42 606.412 41.972 606.356 41.916C606.3 41.86 606.272 41.792 606.272 41.712V33.9C606.272 33.812 606.296 33.74 606.344 33.684C606.4 33.628 606.472 33.6 606.56 33.6H611.852C611.94 33.6 612.012 33.628 612.068 33.684C612.124 33.74 612.152 33.812 612.152 33.9V34.704C612.152 34.792 612.124 34.864 612.068 34.92C612.012 34.968 611.94 34.992 611.852 34.992H607.916V37.092H611.588C611.676 37.092 611.748 37.12 611.804 37.176C611.86 37.232 611.888 37.304 611.888 37.392V38.148C611.888 38.236 611.86 38.308 611.804 38.364C611.748 38.412 611.676 38.436 611.588 38.436H607.916V40.608H611.948C612.036 40.608 612.108 40.636 612.164 40.692C612.22 40.74 612.248 40.808 612.248 40.896V41.712C612.248 41.8 612.22 41.872 612.164 41.928C612.108 41.976 612.036 42 611.948 42H606.56ZM616.037 42C615.957 42 615.889 41.972 615.833 41.916C615.777 41.86 615.749 41.792 615.749 41.712V33.9C615.749 33.812 615.773 33.74 615.821 33.684C615.877 33.628 615.949 33.6 616.037 33.6H616.973C617.125 33.6 617.241 33.668 617.321 33.804L620.753 39.132V33.9C620.753 33.812 620.777 33.74 620.825 33.684C620.881 33.628 620.953 33.6 621.041 33.6H622.073C622.161 33.6 622.233 33.628 622.289 33.684C622.345 33.74 622.373 33.812 622.373 33.9V41.7C622.373 41.788 622.345 41.86 622.289 41.916C622.233 41.972 622.165 42 622.085 42H621.137C620.977 42 620.857 41.932 620.777 41.796L617.357 36.588V41.712C617.357 41.792 617.329 41.86 617.273 41.916C617.225 41.972 617.157 42 617.069 42H616.037ZM626.521 42C626.441 42 626.373 41.972 626.317 41.916C626.261 41.86 626.233 41.792 626.233 41.712V33.9C626.233 33.812 626.257 33.74 626.305 33.684C626.361 33.628 626.433 33.6 626.521 33.6H631.813C631.901 33.6 631.973 33.628 632.029 33.684C632.085 33.74 632.113 33.812 632.113 33.9V34.704C632.113 34.792 632.085 34.864 632.029 34.92C631.973 34.968 631.901 34.992 631.813 34.992H627.877V37.092H631.549C631.637 37.092 631.709 37.12 631.765 37.176C631.821 37.232 631.849 37.304 631.849 37.392V38.148C631.849 38.236 631.821 38.308 631.765 38.364C631.709 38.412 631.637 38.436 631.549 38.436H627.877V40.608H631.909C631.997 40.608 632.069 40.636 632.125 40.692C632.181 40.74 632.209 40.808 632.209 40.896V41.712C632.209 41.8 632.181 41.872 632.125 41.928C632.069 41.976 631.997 42 631.909 42H626.521ZM635.997 42C635.917 42 635.849 41.972 635.793 41.916C635.737 41.86 635.709 41.792 635.709 41.712V33.9C635.709 33.812 635.733 33.74 635.781 33.684C635.837 33.628 635.909 33.6 635.997 33.6H641.217C641.305 33.6 641.377 33.628 641.433 33.684C641.489 33.74 641.517 33.812 641.517 33.9V34.764C641.517 34.844 641.489 34.912 641.433 34.968C641.377 35.024 641.305 35.052 641.217 35.052H637.377V37.308H640.977C641.065 37.308 641.137 37.336 641.193 37.392C641.249 37.448 641.277 37.516 641.277 37.596V38.46C641.277 38.54 641.249 38.608 641.193 38.664C641.137 38.72 641.065 38.748 640.977 38.748H637.377V41.712C637.377 41.792 637.349 41.86 637.293 41.916C637.237 41.972 637.165 42 637.077 42H635.997ZM645.216 42C645.136 42 645.068 41.972 645.012 41.916C644.956 41.86 644.928 41.792 644.928 41.712V33.888C644.928 33.8 644.956 33.732 645.012 33.684C645.068 33.628 645.136 33.6 645.216 33.6H646.368C646.456 33.6 646.524 33.628 646.572 33.684C646.628 33.732 646.656 33.8 646.656 33.888V41.712C646.656 41.792 646.628 41.86 646.572 41.916C646.524 41.972 646.456 42 646.368 42H645.216ZM652.662 42C652.582 42 652.514 41.972 652.458 41.916C652.402 41.86 652.374 41.792 652.374 41.712V35.1H650.154C650.074 35.1 650.006 35.072 649.95 35.016C649.894 34.96 649.866 34.888 649.866 34.8V33.9C649.866 33.812 649.89 33.74 649.938 33.684C649.994 33.628 650.066 33.6 650.154 33.6H656.286C656.374 33.6 656.446 33.628 656.502 33.684C656.558 33.74 656.586 33.812 656.586 33.9V34.8C656.586 34.888 656.558 34.96 656.502 35.016C656.446 35.072 656.374 35.1 656.286 35.1H654.078V41.712C654.078 41.792 654.05 41.86 653.994 41.916C653.946 41.972 653.878 42 653.79 42H652.662ZM662.696 42.12C661.976 42.12 661.36 42.012 660.848 41.796C660.336 41.58 659.948 41.296 659.684 40.944C659.42 40.592 659.28 40.208 659.264 39.792C659.264 39.728 659.288 39.672 659.336 39.624C659.384 39.568 659.444 39.54 659.516 39.54H660.608C660.696 39.54 660.768 39.56 660.824 39.6C660.88 39.64 660.932 39.696 660.98 39.768C661.06 40.04 661.24 40.268 661.52 40.452C661.808 40.636 662.2 40.728 662.696 40.728C663.256 40.728 663.676 40.636 663.956 40.452C664.244 40.26 664.388 40 664.388 39.672C664.388 39.456 664.316 39.276 664.172 39.132C664.028 38.988 663.808 38.864 663.512 38.76C663.224 38.648 662.792 38.516 662.216 38.364C661.272 38.14 660.58 37.844 660.14 37.476C659.7 37.108 659.48 36.58 659.48 35.892C659.48 35.428 659.608 35.016 659.864 34.656C660.12 34.288 660.484 34 660.956 33.792C661.436 33.584 661.992 33.48 662.624 33.48C663.288 33.48 663.86 33.596 664.34 33.828C664.828 34.06 665.196 34.352 665.444 34.704C665.7 35.048 665.836 35.392 665.852 35.736C665.852 35.8 665.828 35.86 665.78 35.916C665.732 35.964 665.672 35.988 665.6 35.988H664.46C664.284 35.988 664.164 35.916 664.1 35.772C664.06 35.516 663.904 35.304 663.632 35.136C663.36 34.96 663.024 34.872 662.624 34.872C662.184 34.872 661.836 34.956 661.58 35.124C661.332 35.292 661.208 35.536 661.208 35.856C661.208 36.072 661.272 36.252 661.4 36.396C661.528 36.54 661.728 36.668 662 36.78C662.272 36.884 662.668 37.004 663.188 37.14C663.9 37.3 664.464 37.48 664.88 37.68C665.304 37.88 665.616 38.132 665.816 38.436C666.016 38.74 666.116 39.128 666.116 39.6C666.116 40.12 665.972 40.572 665.684 40.956C665.404 41.332 665.004 41.62 664.484 41.82C663.972 42.02 663.376 42.12 662.696 42.12Z" fill="#363940"/>
<path d="M1041.5 42.12C1040.78 42.12 1040.16 42.012 1039.65 41.796C1039.14 41.58 1038.75 41.296 1038.48 40.944C1038.22 40.592 1038.08 40.208 1038.06 39.792C1038.06 39.728 1038.09 39.672 1038.14 39.624C1038.18 39.568 1038.24 39.54 1038.32 39.54H1039.41C1039.5 39.54 1039.57 39.56 1039.62 39.6C1039.68 39.64 1039.73 39.696 1039.78 39.768C1039.86 40.04 1040.04 40.268 1040.32 40.452C1040.61 40.636 1041 40.728 1041.5 40.728C1042.06 40.728 1042.48 40.636 1042.76 40.452C1043.04 40.26 1043.19 40 1043.19 39.672C1043.19 39.456 1043.12 39.276 1042.97 39.132C1042.83 38.988 1042.61 38.864 1042.31 38.76C1042.02 38.648 1041.59 38.516 1041.02 38.364C1040.07 38.14 1039.38 37.844 1038.94 37.476C1038.5 37.108 1038.28 36.58 1038.28 35.892C1038.28 35.428 1038.41 35.016 1038.66 34.656C1038.92 34.288 1039.28 34 1039.76 33.792C1040.24 33.584 1040.79 33.48 1041.42 33.48C1042.09 33.48 1042.66 33.596 1043.14 33.828C1043.63 34.06 1044 34.352 1044.24 34.704C1044.5 35.048 1044.64 35.392 1044.65 35.736C1044.65 35.8 1044.63 35.86 1044.58 35.916C1044.53 35.964 1044.47 35.988 1044.4 35.988H1043.26C1043.08 35.988 1042.96 35.916 1042.9 35.772C1042.86 35.516 1042.7 35.304 1042.43 35.136C1042.16 34.96 1041.82 34.872 1041.42 34.872C1040.98 34.872 1040.64 34.956 1040.38 35.124C1040.13 35.292 1040.01 35.536 1040.01 35.856C1040.01 36.072 1040.07 36.252 1040.2 36.396C1040.33 36.54 1040.53 36.668 1040.8 36.78C1041.07 36.884 1041.47 37.004 1041.99 37.14C1042.7 37.3 1043.26 37.48 1043.68 37.68C1044.1 37.88 1044.42 38.132 1044.62 38.436C1044.82 38.74 1044.92 39.128 1044.92 39.6C1044.92 40.12 1044.77 40.572 1044.48 40.956C1044.2 41.332 1043.8 41.62 1043.28 41.82C1042.77 42.02 1042.18 42.12 1041.5 42.12ZM1048.57 42C1048.49 42 1048.42 41.972 1048.36 41.916C1048.31 41.86 1048.28 41.792 1048.28 41.712V33.888C1048.28 33.8 1048.31 33.732 1048.36 33.684C1048.42 33.628 1048.49 33.6 1048.57 33.6H1049.72C1049.81 33.6 1049.88 33.628 1049.92 33.684C1049.98 33.732 1050.01 33.8 1050.01 33.888V41.712C1050.01 41.792 1049.98 41.86 1049.92 41.916C1049.88 41.972 1049.81 42 1049.72 42H1048.57ZM1057.15 42.12C1056.05 42.12 1055.19 41.836 1054.57 41.268C1053.97 40.7 1053.64 39.908 1053.6 38.892C1053.59 38.66 1053.59 38.288 1053.59 37.776C1053.59 37.264 1053.59 36.892 1053.6 36.66C1053.63 35.668 1053.96 34.892 1054.59 34.332C1055.21 33.764 1056.07 33.48 1057.15 33.48C1057.89 33.48 1058.52 33.608 1059.05 33.864C1059.59 34.112 1059.99 34.424 1060.26 34.8C1060.53 35.168 1060.68 35.532 1060.69 35.892C1060.69 35.964 1060.67 36.024 1060.62 36.072C1060.57 36.12 1060.51 36.144 1060.43 36.144H1059.17C1059.09 36.144 1059.03 36.128 1058.99 36.096C1058.95 36.064 1058.91 36.012 1058.88 35.94C1058.77 35.644 1058.57 35.392 1058.29 35.184C1058.01 34.976 1057.63 34.872 1057.15 34.872C1056.59 34.872 1056.15 35.024 1055.83 35.328C1055.52 35.624 1055.36 36.088 1055.34 36.72C1055.33 36.952 1055.33 37.304 1055.33 37.776C1055.33 38.24 1055.33 38.592 1055.34 38.832C1055.36 39.48 1055.53 39.96 1055.85 40.272C1056.17 40.576 1056.61 40.728 1057.17 40.728C1057.73 40.728 1058.19 40.576 1058.53 40.272C1058.88 39.968 1059.05 39.512 1059.05 38.904V38.532H1057.59C1057.51 38.532 1057.44 38.504 1057.38 38.448C1057.33 38.392 1057.3 38.324 1057.3 38.244V37.584C1057.3 37.504 1057.33 37.436 1057.38 37.38C1057.44 37.324 1057.51 37.296 1057.59 37.296H1060.47C1060.55 37.296 1060.63 37.324 1060.68 37.38C1060.74 37.436 1060.77 37.504 1060.77 37.584V38.856C1060.77 39.52 1060.62 40.1 1060.32 40.596C1060.03 41.084 1059.61 41.46 1059.06 41.724C1058.52 41.988 1057.88 42.12 1057.15 42.12ZM1064.58 42C1064.5 42 1064.43 41.972 1064.38 41.916C1064.32 41.86 1064.29 41.792 1064.29 41.712V33.9C1064.29 33.812 1064.32 33.74 1064.36 33.684C1064.42 33.628 1064.49 33.6 1064.58 33.6H1065.52C1065.67 33.6 1065.78 33.668 1065.86 33.804L1069.3 39.132V33.9C1069.3 33.812 1069.32 33.74 1069.37 33.684C1069.42 33.628 1069.5 33.6 1069.58 33.6H1070.62C1070.7 33.6 1070.78 33.628 1070.83 33.684C1070.89 33.74 1070.92 33.812 1070.92 33.9V41.7C1070.92 41.788 1070.89 41.86 1070.83 41.916C1070.78 41.972 1070.71 42 1070.63 42H1069.68C1069.52 42 1069.4 41.932 1069.32 41.796L1065.9 36.588V41.712C1065.9 41.792 1065.87 41.86 1065.82 41.916C1065.77 41.972 1065.7 42 1065.61 42H1064.58ZM1079.79 42C1079.71 42 1079.65 41.972 1079.59 41.916C1079.53 41.86 1079.51 41.792 1079.51 41.712V33.888C1079.51 33.8 1079.53 33.732 1079.59 33.684C1079.65 33.628 1079.71 33.6 1079.79 33.6H1080.95C1081.03 33.6 1081.1 33.628 1081.15 33.684C1081.21 33.732 1081.23 33.8 1081.23 33.888V41.712C1081.23 41.792 1081.21 41.86 1081.15 41.916C1081.1 41.972 1081.03 42 1080.95 42H1079.79ZM1085.39 42C1085.31 42 1085.24 41.972 1085.19 41.916C1085.13 41.86 1085.1 41.792 1085.1 41.712V33.9C1085.1 33.812 1085.13 33.74 1085.18 33.684C1085.23 33.628 1085.3 33.6 1085.39 33.6H1086.33C1086.48 33.6 1086.6 33.668 1086.68 33.804L1090.11 39.132V33.9C1090.11 33.812 1090.13 33.74 1090.18 33.684C1090.24 33.628 1090.31 33.6 1090.4 33.6H1091.43C1091.52 33.6 1091.59 33.628 1091.64 33.684C1091.7 33.74 1091.73 33.812 1091.73 33.9V41.7C1091.73 41.788 1091.7 41.86 1091.64 41.916C1091.59 41.972 1091.52 42 1091.44 42H1090.49C1090.33 42 1090.21 41.932 1090.13 41.796L1086.71 36.588V41.712C1086.71 41.792 1086.68 41.86 1086.63 41.916C1086.58 41.972 1086.51 42 1086.42 42H1085.39ZM1117.44 42.12C1116.72 42.12 1116.1 42.012 1115.59 41.796C1115.08 41.58 1114.69 41.296 1114.43 40.944C1114.16 40.592 1114.02 40.208 1114.01 39.792C1114.01 39.728 1114.03 39.672 1114.08 39.624C1114.13 39.568 1114.19 39.54 1114.26 39.54H1115.35C1115.44 39.54 1115.51 39.56 1115.57 39.6C1115.62 39.64 1115.67 39.696 1115.72 39.768C1115.8 40.04 1115.98 40.268 1116.26 40.452C1116.55 40.636 1116.94 40.728 1117.44 40.728C1118 40.728 1118.42 40.636 1118.7 40.452C1118.99 40.26 1119.13 40 1119.13 39.672C1119.13 39.456 1119.06 39.276 1118.91 39.132C1118.77 38.988 1118.55 38.864 1118.25 38.76C1117.97 38.648 1117.53 38.516 1116.96 38.364C1116.01 38.14 1115.32 37.844 1114.88 37.476C1114.44 37.108 1114.22 36.58 1114.22 35.892C1114.22 35.428 1114.35 35.016 1114.61 34.656C1114.86 34.288 1115.23 34 1115.7 33.792C1116.18 33.584 1116.73 33.48 1117.37 33.48C1118.03 33.48 1118.6 33.596 1119.08 33.828C1119.57 34.06 1119.94 34.352 1120.19 34.704C1120.44 35.048 1120.58 35.392 1120.59 35.736C1120.59 35.8 1120.57 35.86 1120.52 35.916C1120.47 35.964 1120.41 35.988 1120.34 35.988H1119.2C1119.03 35.988 1118.91 35.916 1118.84 35.772C1118.8 35.516 1118.65 35.304 1118.37 35.136C1118.1 34.96 1117.77 34.872 1117.37 34.872C1116.93 34.872 1116.58 34.956 1116.32 35.124C1116.07 35.292 1115.95 35.536 1115.95 35.856C1115.95 36.072 1116.01 36.252 1116.14 36.396C1116.27 36.54 1116.47 36.668 1116.74 36.78C1117.01 36.884 1117.41 37.004 1117.93 37.14C1118.64 37.3 1119.21 37.48 1119.62 37.68C1120.05 37.88 1120.36 38.132 1120.56 38.436C1120.76 38.74 1120.86 39.128 1120.86 39.6C1120.86 40.12 1120.71 40.572 1120.43 40.956C1120.15 41.332 1119.75 41.62 1119.23 41.82C1118.71 42.02 1118.12 42.12 1117.44 42.12ZM1124.51 42C1124.43 42 1124.36 41.972 1124.31 41.916C1124.25 41.86 1124.22 41.792 1124.22 41.712V33.888C1124.22 33.8 1124.25 33.732 1124.31 33.684C1124.36 33.628 1124.43 33.6 1124.51 33.6H1125.66C1125.75 33.6 1125.82 33.628 1125.87 33.684C1125.92 33.732 1125.95 33.8 1125.95 33.888V41.712C1125.95 41.792 1125.92 41.86 1125.87 41.916C1125.82 41.972 1125.75 42 1125.66 42H1124.51ZM1133.09 42.12C1131.99 42.12 1131.13 41.836 1130.51 41.268C1129.91 40.7 1129.58 39.908 1129.54 38.892C1129.53 38.66 1129.53 38.288 1129.53 37.776C1129.53 37.264 1129.53 36.892 1129.54 36.66C1129.57 35.668 1129.9 34.892 1130.53 34.332C1131.15 33.764 1132.01 33.48 1133.09 33.48C1133.83 33.48 1134.46 33.608 1134.99 33.864C1135.53 34.112 1135.93 34.424 1136.2 34.8C1136.47 35.168 1136.62 35.532 1136.63 35.892C1136.63 35.964 1136.61 36.024 1136.56 36.072C1136.51 36.12 1136.45 36.144 1136.37 36.144H1135.11C1135.03 36.144 1134.97 36.128 1134.93 36.096C1134.89 36.064 1134.85 36.012 1134.82 35.94C1134.71 35.644 1134.51 35.392 1134.23 35.184C1133.95 34.976 1133.57 34.872 1133.09 34.872C1132.53 34.872 1132.09 35.024 1131.77 35.328C1131.46 35.624 1131.3 36.088 1131.28 36.72C1131.27 36.952 1131.27 37.304 1131.27 37.776C1131.27 38.24 1131.27 38.592 1131.28 38.832C1131.3 39.48 1131.47 39.96 1131.79 40.272C1132.11 40.576 1132.55 40.728 1133.11 40.728C1133.67 40.728 1134.13 40.576 1134.47 40.272C1134.82 39.968 1134.99 39.512 1134.99 38.904V38.532H1133.53C1133.45 38.532 1133.38 38.504 1133.32 38.448C1133.27 38.392 1133.24 38.324 1133.24 38.244V37.584C1133.24 37.504 1133.27 37.436 1133.32 37.38C1133.38 37.324 1133.45 37.296 1133.53 37.296H1136.41C1136.49 37.296 1136.57 37.324 1136.62 37.38C1136.68 37.436 1136.71 37.504 1136.71 37.584V38.856C1136.71 39.52 1136.56 40.1 1136.26 40.596C1135.97 41.084 1135.55 41.46 1135 41.724C1134.46 41.988 1133.82 42.12 1133.09 42.12ZM1140.52 42C1140.44 42 1140.37 41.972 1140.32 41.916C1140.26 41.86 1140.23 41.792 1140.23 41.712V33.9C1140.23 33.812 1140.26 33.74 1140.3 33.684C1140.36 33.628 1140.43 33.6 1140.52 33.6H1141.46C1141.61 33.6 1141.72 33.668 1141.8 33.804L1145.24 39.132V33.9C1145.24 33.812 1145.26 33.74 1145.31 33.684C1145.36 33.628 1145.44 33.6 1145.52 33.6H1146.56C1146.64 33.6 1146.72 33.628 1146.77 33.684C1146.83 33.74 1146.86 33.812 1146.86 33.9V41.7C1146.86 41.788 1146.83 41.86 1146.77 41.916C1146.72 41.972 1146.65 42 1146.57 42H1145.62C1145.46 42 1145.34 41.932 1145.26 41.796L1141.84 36.588V41.712C1141.84 41.792 1141.81 41.86 1141.76 41.916C1141.71 41.972 1141.64 42 1141.55 42H1140.52ZM1158.81 42.12C1157.72 42.12 1156.88 41.844 1156.28 41.292C1155.68 40.74 1155.38 39.904 1155.38 38.784V33.9C1155.38 33.812 1155.4 33.74 1155.45 33.684C1155.5 33.628 1155.58 33.6 1155.66 33.6H1156.77C1156.86 33.6 1156.93 33.628 1156.98 33.684C1157.04 33.74 1157.07 33.812 1157.07 33.9V38.784C1157.07 39.416 1157.22 39.892 1157.51 40.212C1157.82 40.532 1158.24 40.692 1158.8 40.692C1159.35 40.692 1159.77 40.532 1160.07 40.212C1160.37 39.892 1160.52 39.416 1160.52 38.784V33.9C1160.52 33.812 1160.55 33.74 1160.61 33.684C1160.66 33.628 1160.74 33.6 1160.82 33.6H1161.93C1162.02 33.6 1162.08 33.628 1162.13 33.684C1162.19 33.74 1162.22 33.812 1162.22 33.9V38.784C1162.22 39.904 1161.92 40.74 1161.32 41.292C1160.72 41.844 1159.89 42.12 1158.81 42.12ZM1166.3 42C1166.22 42 1166.15 41.972 1166.1 41.916C1166.04 41.86 1166.01 41.792 1166.01 41.712V33.9C1166.01 33.812 1166.04 33.74 1166.09 33.684C1166.14 33.628 1166.21 33.6 1166.3 33.6H1169.52C1170.49 33.6 1171.25 33.828 1171.8 34.284C1172.35 34.74 1172.63 35.404 1172.63 36.276C1172.63 37.14 1172.35 37.796 1171.8 38.244C1171.25 38.684 1170.49 38.904 1169.52 38.904H1167.75V41.712C1167.75 41.8 1167.73 41.872 1167.67 41.928C1167.61 41.976 1167.54 42 1167.45 42H1166.3ZM1169.46 37.56C1169.92 37.56 1170.27 37.452 1170.51 37.236C1170.76 37.012 1170.89 36.688 1170.89 36.264C1170.89 35.848 1170.77 35.524 1170.53 35.292C1170.29 35.06 1169.94 34.944 1169.46 34.944H1167.73V37.56H1169.46Z" fill="#6E38F7"/>
</g>
<defs>
<clipPath id="clip0_0_7568">
<rect width="1400" height="76" fill="white"/>
</clipPath>
</defs>
</svg>
