<svg width="20" height="20" viewBox="0 0 20 20" fill="none" xmlns="http://www.w3.org/2000/svg">
<g id="Icon/World">
<path id="Shape" fill-rule="evenodd" clip-rule="evenodd" d="M1.66797 9.99935C1.66797 5.39935 5.39297 1.66602 9.99297 1.66602C14.6013 1.66602 18.3346 5.39935 18.3346 9.99935C18.3346 14.5993 14.6013 18.3327 9.99297 18.3327C5.39297 18.3327 1.66797 14.5993 1.66797 9.99935ZM13.3096 6.66602H15.768C14.968 5.29103 13.693 4.22436 12.1596 3.69936C12.6596 4.62436 13.043 5.62436 13.3096 6.66602ZM10.0013 3.36601C10.693 4.36601 11.2346 5.47434 11.593 6.66601H8.40964C8.76797 5.47434 9.30964 4.36601 10.0013 3.36601ZM3.33464 9.99935C3.33464 10.5743 3.41797 11.1327 3.5513 11.666H6.36797C6.3013 11.116 6.2513 10.566 6.2513 9.99935C6.2513 9.43268 6.3013 8.88268 6.36797 8.33268H3.5513C3.41797 8.86601 3.33464 9.42435 3.33464 9.99935ZM4.23464 13.3327H6.69297C6.95964 14.3743 7.34297 15.3743 7.84297 16.2993C6.30964 15.7743 5.03464 14.716 4.23464 13.3327ZM4.23464 6.66602H6.69297C6.95964 5.62436 7.34297 4.62436 7.84297 3.69936C6.30964 4.22436 5.03464 5.28269 4.23464 6.66602ZM10.0013 16.6327C9.30964 15.6327 8.76797 14.5243 8.40964 13.3327H11.593C11.2346 14.5243 10.693 15.6327 10.0013 16.6327ZM7.91797 9.99935C7.91797 10.566 7.9763 11.116 8.0513 11.666H11.9513C12.0263 11.116 12.0846 10.566 12.0846 9.99935C12.0846 9.43268 12.0263 8.87435 11.9513 8.33268H8.0513C7.9763 8.87435 7.91797 9.43268 7.91797 9.99935ZM12.1596 16.2993C12.6596 15.3743 13.043 14.3743 13.3096 13.3327H15.768C14.968 14.7077 13.693 15.7743 12.1596 16.2993ZM13.7513 9.99935C13.7513 10.566 13.7013 11.116 13.6346 11.666H16.4513C16.5846 11.1327 16.668 10.5743 16.668 9.99935C16.668 9.42435 16.5846 8.86601 16.4513 8.33268H13.6346C13.7013 8.88268 13.7513 9.43268 13.7513 9.99935Z" fill="#6E38F7"/>
</g>
</svg>
