<svg width="20" height="20" viewBox="0 0 20 20" fill="none" xmlns="http://www.w3.org/2000/svg">
<g id="Social/Youtube">
<path id="Shape" fill-rule="evenodd" clip-rule="evenodd" d="M16.5228 4.52634C15.2155 4.16602 9.99612 4.16602 9.99612 4.16602C9.99612 4.16602 4.78712 4.16602 3.47972 4.50574C2.7797 4.70133 2.20329 5.27775 2.00769 5.98807C1.66797 7.29546 1.66797 10.003 1.66797 10.003C1.66797 10.003 1.66797 12.7207 2.00769 14.0076C2.20329 14.7179 2.76941 15.284 3.47972 15.4796C4.79741 15.8296 9.99612 15.8296 9.99612 15.8296C9.99612 15.8296 15.2155 15.8296 16.5228 15.4899C17.2331 15.2943 17.7992 14.7385 17.9846 14.0179C18.3346 12.7207 18.3346 10.0133 18.3346 10.0133C18.3346 10.0133 18.3449 7.29546 17.9846 5.98807C17.7992 5.27775 17.2331 4.71164 16.5228 4.52634ZM8.3387 12.4942V7.50146L12.6727 10.003L8.3387 12.4942Z" fill="#6E38F7"/>
</g>
</svg>
