<svg width="18" height="18" viewBox="0 0 18 18" fill="none" xmlns="http://www.w3.org/2000/svg">
<g id="ant-design:star-filled">
<path id="Vector" d="M15.9623 6.20694L11.4992 5.55831L9.50411 1.51358C9.44962 1.40284 9.35997 1.31319 9.24923 1.2587C8.9715 1.12159 8.634 1.23585 8.49513 1.51358L6.50001 5.55831L2.03693 6.20694C1.91388 6.22452 1.80138 6.28253 1.71525 6.37042C1.61112 6.47744 1.55374 6.62143 1.55571 6.77074C1.55769 6.92006 1.61886 7.06247 1.72579 7.16671L4.95489 10.3149L4.192 14.7605C4.17411 14.8639 4.18556 14.9702 4.22504 15.0675C4.26452 15.1647 4.33045 15.2489 4.41537 15.3106C4.50028 15.3723 4.60078 15.4089 4.70546 15.4164C4.81014 15.4239 4.91482 15.4018 5.00763 15.3528L8.99962 13.254L12.9916 15.3528C13.1006 15.4108 13.2272 15.4302 13.3485 15.4091C13.6543 15.3564 13.86 15.0663 13.8072 14.7605L13.0443 10.3149L16.2735 7.16671C16.3613 7.08057 16.4193 6.96807 16.4369 6.84503C16.4844 6.53741 16.2699 6.25264 15.9623 6.20694Z" fill="#6CB981"/>
</g>
</svg>
