<svg width="70" height="68" viewBox="0 0 70 68" fill="none" xmlns="http://www.w3.org/2000/svg">
<g id="Cleaning" clip-path="url(#clip0_20_182)">
<g id="&#208;&#161;&#208;&#187;&#208;&#190;&#208;&#185; 2">
<g id="&#208;&#161;&#208;&#187;&#208;&#190;&#208;&#185; 1">
<g id="Group">
<path id="Vector" d="M26.4447 55.2037H21.5161V47.7617H48.4863V55.2037H43.5551C43.3087 55.2037 43.0724 55.3014 42.8981 55.4754C42.7239 55.6493 42.626 55.8852 42.626 56.1312C42.626 56.3772 42.7239 56.6131 42.8981 56.787C43.0724 56.9609 43.3087 57.0587 43.5551 57.0587H48.5204C49.0033 57.058 49.4662 56.8662 49.8076 56.5253C50.1491 56.1845 50.3412 55.7224 50.3419 55.2403V47.7316C50.3412 47.2496 50.1491 46.7875 49.8076 46.4466C49.4662 46.1058 49.0033 45.914 48.5204 45.9133H21.4807C20.9977 45.9136 20.5346 46.1053 20.1931 46.4462C19.8515 46.7872 19.6595 47.2494 19.6592 47.7316V55.2403C19.6599 55.7224 19.852 56.1845 20.1935 56.5253C20.5349 56.8662 20.9978 57.058 21.4807 57.0587H26.4447C26.6911 57.0587 26.9274 56.9609 27.1016 56.787C27.2759 56.6131 27.3738 56.3772 27.3738 56.1312C27.3738 55.8852 27.2759 55.6493 27.1016 55.4754C26.9274 55.3014 26.6911 55.2037 26.4447 55.2037Z" fill="#2E8CAD"/>
<path id="Vector_2" d="M47.6559 49.7279C47.6559 49.6669 47.6438 49.6066 47.6205 49.5503C47.5971 49.4941 47.5628 49.443 47.5196 49.3999C47.4763 49.3569 47.425 49.3228 47.3686 49.2996C47.3122 49.2764 47.2517 49.2646 47.1907 49.2648H22.8164C22.6934 49.2648 22.5754 49.3136 22.4884 49.4004C22.4014 49.4872 22.3525 49.605 22.3525 49.7279C22.3525 49.8507 22.4014 49.9685 22.4884 50.0553C22.5754 50.1421 22.6934 50.1909 22.8164 50.1909H47.1907C47.2517 50.1911 47.3122 50.1793 47.3686 50.1561C47.425 50.1329 47.4763 50.0988 47.5196 50.0558C47.5628 50.0127 47.5971 49.9616 47.6205 49.9054C47.6438 49.8491 47.6559 49.7888 47.6559 49.7279Z" fill="#2E8CAD"/>
<path id="Vector_3" d="M16.2039 42.4611C16.0824 42.4724 15.9644 42.5075 15.8565 42.5644C15.7487 42.6213 15.6532 42.6989 15.5754 42.7927C15.4976 42.8865 15.4391 42.9947 15.4033 43.111C15.3674 43.2274 15.3549 43.3497 15.3665 43.4709L16.3808 54.2553C16.4026 54.4849 16.5093 54.6981 16.6801 54.8534C16.851 55.0087 17.0736 55.0949 17.3046 55.0951H17.3924C17.6376 55.0719 17.8635 54.9525 18.0205 54.7632C18.1775 54.5738 18.2528 54.33 18.2298 54.0852L17.2155 43.2996C17.2043 43.1782 17.1693 43.0602 17.1124 42.9523C17.0555 42.8444 16.9778 42.7488 16.8838 42.6709C16.7899 42.5931 16.6815 42.5344 16.5648 42.4984C16.4481 42.4624 16.3254 42.4497 16.2039 42.4611Z" fill="#2E8CAD"/>
<path id="Vector_4" d="M14.3654 29.6465C14.2784 29.7421 14.2124 29.8548 14.1716 29.9774C14.1308 30.0999 14.116 30.2296 14.1282 30.3581L14.7965 37.4404C14.8333 37.6736 14.9577 37.8839 15.1445 38.0287C15.3312 38.1734 15.5662 38.2416 15.8016 38.2195C16.037 38.1973 16.255 38.0864 16.4113 37.9093C16.5677 37.7322 16.6505 37.5023 16.6429 37.2664L16.0702 31.198H53.929L51.7628 54.0813C51.7398 54.3261 51.8151 54.5699 51.9721 54.7593C52.1291 54.9486 52.355 55.068 52.6002 55.0912C52.629 55.0912 52.6592 55.0912 52.688 55.0912C52.9179 55.0893 53.1389 55.0024 53.3083 54.8473C53.4778 54.6922 53.5836 54.4799 53.6053 54.2514L55.8619 30.3542C55.8739 30.2257 55.8589 30.0961 55.8179 29.9736C55.7769 29.8512 55.7107 29.7387 55.6236 29.6433C55.5366 29.5479 55.4305 29.4716 55.3122 29.4195C55.1939 29.3673 55.066 29.3404 54.9367 29.3404H15.052C14.9225 29.3409 14.7946 29.3684 14.6763 29.4211C14.5581 29.4738 14.4522 29.5506 14.3654 29.6465Z" fill="#2E8CAD"/>
<path id="Vector_5" d="M20.7419 36.4973C20.6324 36.5443 20.5452 36.6315 20.4982 36.7408C20.4512 36.8502 20.4481 36.9734 20.4895 37.085C20.5308 37.1966 20.6135 37.2881 20.7205 37.3406C20.8274 37.3931 20.9505 37.4026 21.0643 37.3672C21.4557 37.2201 21.7935 36.9585 22.0334 36.6165C22.2734 36.2745 22.4042 35.8682 22.4088 35.4507C22.4107 35.1803 22.3592 34.9122 22.2573 34.6617C22.1554 34.4111 22.0051 34.1831 21.8149 33.9906C21.6247 33.798 21.3984 33.6448 21.1488 33.5395C20.8993 33.4343 20.6315 33.3792 20.3606 33.3773H20.3462C19.8017 33.378 19.2795 33.5931 18.893 33.976C18.5066 34.3588 18.2871 34.8785 18.2822 35.422C18.2819 35.5448 18.3302 35.6628 18.4165 35.7503C18.5029 35.8377 18.6205 35.8876 18.7435 35.889C18.866 35.8886 18.9834 35.8401 19.0702 35.7539C19.1571 35.6677 19.2064 35.5508 19.2074 35.4285C19.2102 35.1297 19.3309 34.8441 19.5434 34.6337C19.7559 34.4233 20.043 34.3051 20.3422 34.3048H20.3501C20.6509 34.3069 20.9385 34.428 21.1498 34.6417C21.3611 34.8553 21.4788 35.144 21.4771 35.4442C21.4747 35.6731 21.4033 35.8961 21.2722 36.0839C21.1411 36.2717 20.9563 36.4158 20.7419 36.4973Z" fill="#2E8CAD"/>
<path id="Vector_6" d="M15.2924 26.9177C15.2306 27.1557 15.2661 27.4084 15.3909 27.6204C15.5157 27.8323 15.7197 27.9861 15.9581 28.0479C16.0348 28.0675 16.1135 28.0776 16.1927 28.078C16.3982 28.0777 16.5978 28.0093 16.7602 27.8836C16.9226 27.7579 17.0387 27.582 17.0903 27.3834C17.2766 26.6704 17.6214 26.0083 18.099 25.4464C18.5766 24.8845 19.1748 24.4371 19.8492 24.1374C20.5236 23.8377 21.2569 23.6935 21.9948 23.7153C22.7327 23.7371 23.4562 23.9245 24.1117 24.2635C24.2711 24.3575 24.455 24.4017 24.6397 24.3905C24.8245 24.3793 25.0017 24.3132 25.1485 24.2007C25.2954 24.0881 25.4051 23.9343 25.4637 23.759C25.5223 23.5837 25.5269 23.3949 25.4772 23.217C25.3665 22.7516 25.3629 22.2673 25.4666 21.8003C25.5703 21.3334 25.7787 20.896 26.0761 20.5209C26.3735 20.1459 26.7521 19.843 27.1835 19.635C27.615 19.427 28.0881 19.3193 28.5672 19.32C29.0641 19.3178 29.5544 19.4335 29.9978 19.6575C30.4411 19.8815 30.8249 20.2075 31.1173 20.6085C31.2228 20.7484 31.3658 20.8555 31.5298 20.9176C31.6938 20.9798 31.872 20.9943 32.0439 20.9595C32.2158 20.9248 32.3743 20.8422 32.5011 20.7213C32.628 20.6003 32.7179 20.4461 32.7606 20.2763C32.8714 19.8118 33.1015 19.3841 33.4283 19.0355C33.755 18.6868 34.1672 18.4292 34.6241 18.2881C35.081 18.1469 35.5669 18.1271 36.0338 18.2305C36.5008 18.3339 36.9327 18.557 37.2869 18.8778C37.3907 18.9714 37.5142 19.0404 37.6484 19.0796C37.7826 19.1188 37.924 19.1273 38.0619 19.1044C38.1998 19.0815 38.3308 19.0279 38.4451 18.9474C38.5593 18.867 38.6539 18.7618 38.7218 18.6398C39.4025 17.42 40.5333 16.5137 41.8735 16.1139C43.2136 15.7141 44.6572 15.8525 45.8967 16.4995C47.1361 17.1466 48.0735 18.2512 48.5092 19.578C48.9449 20.9048 48.8444 22.3489 48.2291 23.6029C48.1594 23.7444 48.1269 23.9013 48.1348 24.0587C48.1427 24.2162 48.1907 24.3691 48.2743 24.5029C48.3578 24.6367 48.4742 24.7471 48.6123 24.8235C48.7505 24.9 48.9059 24.94 49.0638 24.9398C49.1435 24.9397 49.2228 24.9292 49.2997 24.9084C49.5629 24.84 49.8337 24.8052 50.1056 24.8051C50.8364 24.8061 51.5445 25.0589 52.1101 25.5208C52.6758 25.9827 53.0643 26.6254 53.2101 27.3402C53.2587 27.5812 53.4013 27.793 53.6064 27.929C53.8115 28.065 54.0623 28.1142 54.3037 28.0656C54.545 28.017 54.7572 27.8747 54.8935 27.67C55.0297 27.4653 55.079 27.2149 55.0303 26.974C54.8097 25.8946 54.2399 24.9175 53.4086 24.193C52.5773 23.4686 51.5305 23.0369 50.4293 22.9645C50.8299 21.3528 50.661 19.6524 49.951 18.1506C49.241 16.6488 48.0334 15.4377 46.5324 14.7219C45.0314 14.0061 43.3288 13.8294 41.7123 14.2217C40.0959 14.614 38.6646 15.5512 37.6604 16.8751C36.6315 16.3122 35.4266 16.1611 34.2903 16.4527C33.154 16.7442 32.1713 17.4565 31.5419 18.4449C30.8222 17.9119 29.9727 17.5809 29.0815 17.4865C28.1904 17.392 27.2902 17.5374 26.4744 17.9076C25.6586 18.2778 24.957 18.8593 24.4424 19.5917C23.9278 20.324 23.6191 21.1806 23.5482 22.0723C22.9917 21.929 22.4193 21.856 21.8446 21.8552C20.3451 21.8556 18.8881 22.353 17.7022 23.2692C16.5164 24.1855 15.6688 25.4687 15.2924 26.9177Z" fill="#2E8CAD"/>
<path id="Vector_7" d="M22.5579 18.4305C22.5579 17.9332 22.4101 17.4471 22.1334 17.0336C21.8566 16.6201 21.4633 16.2979 21.003 16.1076C20.5428 15.9173 20.0364 15.8675 19.5478 15.9645C19.0592 16.0615 18.6105 16.301 18.2582 16.6526C17.906 17.0042 17.6661 17.4522 17.5689 17.9399C17.4717 18.4277 17.5216 18.9332 17.7122 19.3926C17.9029 19.852 18.2257 20.2447 18.6399 20.521C19.0541 20.7973 19.541 20.9447 20.0392 20.9447C20.3705 20.9468 20.699 20.8832 21.0055 20.7576C21.312 20.632 21.5905 20.4468 21.8248 20.213C22.0591 19.9791 22.2446 19.7011 22.3704 19.3951C22.4962 19.0891 22.5599 18.7612 22.5579 18.4305ZM18.4509 18.4305C18.4504 18.1165 18.5432 17.8094 18.7176 17.548C18.892 17.2867 19.1402 17.0829 19.4307 16.9625C19.7212 16.842 20.0409 16.8103 20.3495 16.8713C20.658 16.9324 20.9415 17.0834 21.164 17.3054C21.3865 17.5273 21.5381 17.8101 21.5995 18.1181C21.6609 18.4261 21.6294 18.7453 21.5089 19.0354C21.3885 19.3255 21.1846 19.5733 20.9229 19.7477C20.6613 19.922 20.3537 20.0149 20.0392 20.0146C19.6185 20.0136 19.2153 19.8464 18.9177 19.5496C18.6201 19.2527 18.4523 18.8504 18.4509 18.4305Z" fill="#2E8CAD"/>
<path id="Vector_8" d="M33.6469 10.0046C33.1488 10.0052 32.6621 10.1531 32.2482 10.4297C31.8343 10.7064 31.5119 11.0993 31.3217 11.5588C31.1315 12.0184 31.0821 12.5239 31.1797 13.0115C31.2773 13.4991 31.5175 13.9468 31.87 14.2981C32.2224 14.6494 32.6713 14.8885 33.1599 14.9852C33.6485 15.0818 34.1549 15.0317 34.6149 14.8411C35.075 14.6506 35.4681 14.3281 35.7446 13.9145C36.021 13.5009 36.1685 13.0148 36.1682 12.5176C36.1672 11.8508 35.9011 11.2116 35.4284 10.7404C34.9556 10.2693 34.3149 10.0046 33.6469 10.0046ZM33.6469 14.1044C33.3325 14.1044 33.0252 14.0113 32.7638 13.8369C32.5024 13.6626 32.2987 13.4148 32.1783 13.1248C32.058 12.8349 32.0266 12.5158 32.0879 12.208C32.1492 11.9002 32.3006 11.6175 32.5229 11.3956C32.7452 11.1736 33.0285 11.0225 33.3368 10.9613C33.6452 10.9001 33.9648 10.9315 34.2552 11.0516C34.5457 11.1717 34.7939 11.3751 34.9686 11.636C35.1433 11.897 35.2365 12.2038 35.2365 12.5176C35.2377 12.7263 35.1974 12.9332 35.118 13.1263C35.0385 13.3193 34.9215 13.4947 34.7736 13.6423C34.6258 13.7899 34.4501 13.9067 34.2567 13.9861C34.0633 14.0654 33.856 14.1056 33.6469 14.1044Z" fill="#2E8CAD"/>
<path id="Vector_9" d="M24.3747 16.9091C24.7651 16.9077 25.1391 16.7519 25.4147 16.4758C25.6902 16.1997 25.845 15.8259 25.845 15.4361C25.8447 15.1449 25.7579 14.8604 25.5956 14.6184C25.4333 14.3765 25.2027 14.1881 24.9331 14.077C24.6634 13.966 24.3669 13.9372 24.0809 13.9945C23.7949 14.0517 23.5323 14.1924 23.3264 14.3987C23.1205 14.6049 22.9806 14.8675 22.9242 15.1532C22.8679 15.4389 22.8977 15.7349 23.01 16.0036C23.1222 16.2724 23.3118 16.5019 23.5547 16.6631C23.7976 16.8242 24.083 16.9099 24.3747 16.9091ZM23.8256 15.4361C23.8256 15.2918 23.883 15.1534 23.9853 15.0513C24.0875 14.9493 24.2262 14.8919 24.3707 14.8919C24.515 14.8923 24.6532 14.9495 24.7554 15.0512C24.8575 15.1529 24.9152 15.2908 24.9159 15.4348C24.9155 15.5789 24.8579 15.717 24.7557 15.8188C24.6535 15.9205 24.5151 15.9777 24.3707 15.9777C24.2992 15.9779 24.2283 15.9639 24.1622 15.9367C24.0961 15.9095 24.036 15.8696 23.9853 15.8191C23.9347 15.7687 23.8945 15.7088 23.8671 15.6429C23.8397 15.5769 23.8256 15.5062 23.8256 15.4348V15.4361Z" fill="#2E8CAD"/>
<path id="Vector_10" d="M37.3053 9.06413C37.4992 9.06379 37.6911 9.02531 37.8701 8.95088C38.049 8.87646 38.2116 8.76756 38.3484 8.6304C38.4852 8.49324 38.5935 8.33051 38.6673 8.15152C38.741 7.97253 38.7787 7.78078 38.7782 7.58724C38.7772 7.19808 38.6215 6.82523 38.3453 6.55054C38.0692 6.27585 37.6951 6.12177 37.3053 6.12211C37.1081 6.11624 36.9117 6.14995 36.7278 6.22123C36.5439 6.29251 36.3761 6.39993 36.2346 6.5371C36.093 6.67428 35.9804 6.83843 35.9036 7.01982C35.8267 7.20122 35.7871 7.39617 35.7871 7.59312C35.7871 7.79008 35.8267 7.98503 35.9036 8.16642C35.9804 8.34782 36.093 8.51197 36.2346 8.64914C36.3761 8.78632 36.5439 8.89373 36.7278 8.96502C36.9117 9.0363 37.1081 9.07001 37.3053 9.06413ZM37.3053 7.04828C37.4489 7.04861 37.5865 7.10534 37.6886 7.20619C37.7906 7.30705 37.8487 7.44393 37.8504 7.58724C37.8504 7.73157 37.793 7.86998 37.6908 7.97204C37.5885 8.07409 37.4499 8.13143 37.3053 8.13143C37.1608 8.13108 37.0224 8.07364 36.9202 7.97166C36.818 7.86967 36.7605 7.73146 36.7602 7.58724C36.7619 7.44393 36.82 7.30705 36.922 7.20619C37.024 7.10534 37.1617 7.04861 37.3053 7.04828Z" fill="#2E8CAD"/>
<path id="Vector_11" d="M40.2437 12.0702C40.453 12.0699 40.6557 11.9971 40.8172 11.8642C40.9787 11.7313 41.089 11.5466 41.1294 11.3416C41.1697 11.1366 41.1375 10.924 41.0384 10.74C40.9392 10.556 40.7792 10.4121 40.5856 10.3327C40.392 10.2533 40.1768 10.2434 39.9767 10.3048C39.7767 10.3661 39.6041 10.4948 39.4884 10.6689C39.3728 10.8431 39.3213 11.0518 39.3426 11.2597C39.364 11.4675 39.4569 11.6615 39.6055 11.8086C39.7752 11.9766 40.0047 12.0707 40.2437 12.0702ZM40.2175 11.1689C40.2175 11.162 40.2202 11.1553 40.2251 11.1504C40.2301 11.1455 40.2367 11.1428 40.2437 11.1428C40.2505 11.1431 40.257 11.1459 40.262 11.1506C40.2663 11.1559 40.2691 11.1622 40.2699 11.1689C40.2699 11.1977 40.2175 11.1977 40.2175 11.1689Z" fill="#2E8CAD"/>
<path id="Vector_12" d="M51.1981 14.7402C51.1981 14.5015 51.1031 14.2725 50.934 14.1038C50.7649 13.935 50.5356 13.8401 50.2965 13.8401C50.1178 13.8401 49.9432 13.893 49.7947 13.9921C49.6462 14.0912 49.5305 14.2321 49.4622 14.3968C49.3939 14.5616 49.3761 14.7429 49.411 14.9178C49.4459 15.0927 49.5321 15.2532 49.6585 15.3792C49.7849 15.5052 49.9459 15.591 50.1211 15.6256C50.2963 15.6602 50.4779 15.6422 50.6429 15.5738C50.8079 15.5054 50.9488 15.3896 51.0478 15.2412C51.1469 15.0929 51.1996 14.9185 51.1994 14.7402H51.1981ZM50.2689 14.7402C50.2689 14.7368 50.2696 14.7334 50.271 14.7303C50.2723 14.7272 50.2742 14.7244 50.2767 14.7221C50.2791 14.7198 50.282 14.718 50.2852 14.7168C50.2884 14.7156 50.2918 14.7151 50.2951 14.7153C50.3017 14.7158 50.3079 14.7186 50.3126 14.7231C50.3174 14.7276 50.3205 14.7336 50.3214 14.7402C50.3214 14.7471 50.3186 14.7537 50.3137 14.7587C50.3088 14.7636 50.3021 14.7663 50.2951 14.7663C50.2884 14.7657 50.2821 14.7628 50.2773 14.758C50.2725 14.7532 50.2695 14.7469 50.2689 14.7402Z" fill="#2E8CAD"/>
<path id="Vector_13" d="M54.2639 17.8732C54.2636 17.4831 54.1081 17.1091 53.8317 16.8334C53.5552 16.5577 53.1804 16.4028 52.7897 16.4028C52.498 16.4028 52.213 16.4892 51.9705 16.6509C51.728 16.8127 51.5391 17.0426 51.4275 17.3116C51.316 17.5806 51.2869 17.8766 51.3439 18.1621C51.4008 18.4476 51.5414 18.7098 51.7477 18.9156C51.954 19.1213 52.2168 19.2614 52.5029 19.318C52.7889 19.3747 53.0854 19.3453 53.3548 19.2338C53.6241 19.1222 53.8543 18.9333 54.0161 18.6912C54.1779 18.449 54.2642 18.1643 54.2639 17.8732ZM52.2445 17.8732C52.2449 17.7291 52.3025 17.591 52.4047 17.4892C52.5069 17.3875 52.6453 17.3303 52.7897 17.3303C52.8976 17.3303 53.003 17.3623 53.0927 17.4221C53.1824 17.482 53.2522 17.567 53.2935 17.6665C53.3347 17.7661 53.3454 17.8755 53.3242 17.9811C53.3031 18.0867 53.2511 18.1837 53.1747 18.2598C53.0983 18.3358 53.0011 18.3875 52.8952 18.4084C52.7894 18.4292 52.6797 18.4183 52.5801 18.3769C52.4806 18.3355 52.3955 18.2655 52.3358 18.1759C52.276 18.0862 52.2443 17.9809 52.2445 17.8732Z" fill="#2E8CAD"/>
<path id="Vector_14" d="M59.7577 10.2347C56.0602 6.54683 51.5823 3.73234 46.6527 1.99789C41.7231 0.263444 36.467 -0.346938 31.2702 0.211557C26.0734 0.770052 21.0679 2.48325 16.6211 5.22537C12.1743 7.96749 8.39913 11.6689 5.57273 16.0579C2.74634 20.4469 0.940474 25.4121 0.287715 30.5889C-0.365044 35.7657 0.151874 41.0227 1.80052 45.974C3.44917 50.9253 6.18769 55.4452 9.81503 59.2019C13.4424 62.9585 17.8665 65.8566 22.7625 67.6832C22.8666 67.7217 22.9766 67.7416 23.0875 67.7421C23.3051 67.7419 23.5158 67.6655 23.6828 67.5261C23.8497 67.3867 23.9624 67.1933 24.0011 66.9795C24.0398 66.7657 24.002 66.5451 23.8945 66.3562C23.7869 66.1674 23.6163 66.0222 23.4125 65.946C10.5203 61.1425 1.85831 48.6785 1.85831 34.943C1.85831 16.6996 16.7266 1.85736 35.0021 1.85736C53.2775 1.85736 68.1445 16.697 68.1445 34.9404C68.1491 40.403 66.7969 45.7815 64.2088 50.5946C61.6207 55.4076 57.8775 59.505 53.3142 62.52C53.2565 62.5579 53.0718 62.6848 53.0285 62.7083C47.1866 65.9447 41.1376 67.0252 37.9768 65.411C37.0529 64.9387 36.4331 64.2441 36.1225 63.3428H36.4671C37.4083 63.3418 38.3107 62.9681 38.9762 62.3037C39.6417 61.6393 40.0161 60.7386 40.0171 59.799V59.6368C40.3484 59.4981 40.6313 59.2648 40.8304 58.9662C41.0295 58.6677 41.1359 58.3171 41.1363 57.9585V54.034C41.1409 53.9094 41.1204 53.7851 41.0759 53.6686C41.0313 53.552 40.9637 53.4457 40.877 53.3558C40.7903 53.266 40.6864 53.1945 40.5714 53.1457C40.4564 53.0969 40.3328 53.0717 40.2078 53.0717C40.0829 53.0717 39.9592 53.0969 39.8442 53.1457C39.7292 53.1945 39.6253 53.266 39.5386 53.3558C39.4519 53.4457 39.3843 53.552 39.3398 53.6686C39.2952 53.7851 39.2747 53.9094 39.2794 54.034V57.9205H30.7235V54.0367C30.7282 53.912 30.7076 53.7877 30.6631 53.6712C30.6185 53.5546 30.5509 53.4483 30.4642 53.3584C30.3775 53.2686 30.2736 53.1971 30.1586 53.1483C30.0436 53.0995 29.92 53.0744 29.795 53.0744C29.6701 53.0744 29.5464 53.0995 29.4314 53.1483C29.3164 53.1971 29.2125 53.2686 29.1258 53.3584C29.0391 53.4483 28.9715 53.5546 28.927 53.6712C28.8824 53.7877 28.8619 53.912 28.8666 54.0367V57.9611C28.8669 58.3197 28.9733 58.6703 29.1724 58.9688C29.3715 59.2674 29.6544 59.5007 29.9857 59.6394V59.8017C29.9867 60.7412 30.3611 61.642 31.0266 62.3063C31.6921 62.9707 32.5945 63.3444 33.5357 63.3454H34.1909C34.5618 64.9871 35.5656 66.2652 37.1237 67.0632C38.3594 67.6963 39.9031 68.0037 41.6513 68.0037C45.2039 68.0037 49.5952 66.7309 53.9262 64.3318C54.0087 64.286 54.2761 64.1081 54.3377 64.0701C58.6615 61.21 62.2946 57.4263 64.9742 52.9929C67.6538 48.5594 69.3129 43.5869 69.8316 38.435C70.3503 33.283 69.7156 28.0804 67.9733 23.2033C66.2311 18.3262 63.4249 13.8966 59.7577 10.2347ZM31.8452 59.799V59.7833H38.1615V59.8056C38.1577 60.2518 37.9776 60.6785 37.6603 60.9928C37.343 61.3071 36.9142 61.4836 36.4671 61.4839H33.5357C33.0881 61.4829 32.6591 61.3051 32.3424 60.9894C32.0257 60.6738 31.8469 60.2458 31.8452 59.799Z" fill="#2E8CAD"/>
<path id="Vector_15" d="M20.6008 35.0491C20.5495 35.0161 20.4921 34.9935 20.4321 34.9827C20.372 34.9719 20.3103 34.973 20.2507 34.986C20.191 34.999 20.1345 35.0236 20.0844 35.0585C20.0343 35.0933 19.9916 35.1377 19.9587 35.1891C17.6917 38.7106 15.0708 40.5276 11.7396 42.8287L11.1041 43.2682C11.0232 43.3246 10.9624 43.4051 10.9304 43.4982C10.8984 43.5914 10.8969 43.6922 10.9261 43.7862C10.9552 43.8803 11.0136 43.9626 11.0927 44.0214C11.1718 44.0802 11.2675 44.1123 11.3661 44.1133C11.46 44.1127 11.5515 44.0835 11.6282 44.0295L12.2625 43.5913C15.5386 41.3243 18.3692 39.3673 20.7345 35.6901C20.8016 35.5873 20.8251 35.4622 20.8001 35.3421C20.775 35.222 20.7034 35.1167 20.6008 35.0491Z" fill="#2E8CAD"/>
</g>
</g>
</g>
</g>
<defs>
<clipPath id="clip0_20_182">
<rect width="70" height="68" fill="white"/>
</clipPath>
</defs>
</svg>
