<svg width="30" height="30" viewBox="0 0 30 30" fill="none" xmlns="http://www.w3.org/2000/svg">
<g id="carbon:rain-drop">
<path id="Vector" d="M15 22.5V20.625C15.7249 20.5624 16.4044 20.2459 16.9189 19.7314C17.4334 19.2169 17.7499 18.5374 17.8125 17.8125H19.6875C19.6269 19.0361 19.1136 20.1935 18.2473 21.0598C17.381 21.9261 16.2236 22.4394 15 22.5Z" fill="#2E8CAD"/>
<path id="Vector_2" d="M15 26.25C12.7631 26.2473 10.6185 25.3575 9.0368 23.7757C7.45505 22.194 6.56523 20.0494 6.5625 17.8125C6.61296 16.1679 7.09606 14.5656 7.96313 13.1672L14.2059 3.22219C14.2961 3.09564 14.4152 2.99247 14.5533 2.92128C14.6915 2.8501 14.8446 2.81296 15 2.81296C15.1554 2.81296 15.3085 2.8501 15.4467 2.92128C15.5848 2.99247 15.7039 3.09564 15.7941 3.22219L22.0097 13.1184C22.8913 14.5298 23.3839 16.1493 23.4375 17.8125C23.4348 20.0494 22.5449 22.194 20.9632 23.7757C19.3815 25.3575 17.2369 26.2473 15 26.25ZM15 5.48251L9.57938 14.115C8.88093 15.226 8.48712 16.5012 8.4375 17.8125C8.4375 19.553 9.1289 21.2222 10.3596 22.4529C11.5903 23.6836 13.2595 24.375 15 24.375C16.7405 24.375 18.4097 23.6836 19.6404 22.4529C20.8711 21.2222 21.5625 19.553 21.5625 17.8125C21.509 16.4828 21.1054 15.1909 20.3925 14.0672L15 5.48251Z" fill="#2E8CAD"/>
</g>
</svg>
