<svg width="18" height="18" viewBox="0 0 18 18" fill="none" xmlns="http://www.w3.org/2000/svg">
<g id="ant-design:star-filled">
<path id="Vector" d="M15.9623 6.20682L11.4992 5.55819L9.50411 1.51346C9.44962 1.40272 9.35997 1.31307 9.24923 1.25858C8.9715 1.12147 8.634 1.23572 8.49513 1.51346L6.50001 5.55819L2.03693 6.20682C1.91388 6.2244 1.80138 6.2824 1.71525 6.37029C1.61112 6.47732 1.55374 6.62131 1.55571 6.77062C1.55769 6.91993 1.61886 7.06235 1.72579 7.16658L4.95489 10.3148L4.192 14.7603C4.17411 14.8637 4.18556 14.9701 4.22504 15.0673C4.26452 15.1646 4.33045 15.2488 4.41537 15.3105C4.50028 15.3722 4.60078 15.4088 4.70546 15.4163C4.81014 15.4237 4.91482 15.4017 5.00763 15.3527L8.99962 13.2539L12.9916 15.3527C13.1006 15.4107 13.2272 15.4301 13.3485 15.409C13.6543 15.3562 13.86 15.0662 13.8072 14.7603L13.0443 10.3148L16.2735 7.16658C16.3613 7.08045 16.4193 6.96795 16.4369 6.8449C16.4844 6.53729 16.2699 6.25252 15.9623 6.20682Z" fill="#50B2EA"/>
</g>
</svg>
